<?xml version="1.0" encoding="utf-8"?>
<!-- Generator: Adobe Illustrator 18.0.0, SVG Export Plug-In . SVG Version: 6.00 Build 0)  -->
<!DOCTYPE svg PUBLIC "-//W3C//DTD SVG 1.1//EN" "http://www.w3.org/Graphics/SVG/1.1/DTD/svg11.dtd">
<svg version="1.1" id="Layer_1" xmlns="http://www.w3.org/2000/svg" xmlns:xlink="http://www.w3.org/1999/xlink" x="0px" y="0px"
	 viewBox="0 0 700 6" enable-background="new 0 0 700 6" xml:space="preserve">
<path fill="#231F20" d="M681.6,6c-4.8,0-7.3-1.1-9.6-2.1c-2.3-1-4.4-1.9-8.8-1.9c-4.4,0-6.5,0.9-8.8,1.9c-2.4,1-4.8,2.1-9.6,2.1
	c-4.8,0-7.3-1.1-9.6-2.1c-2.3-1-4.4-1.9-8.8-1.9c-4.4,0-6.5,0.9-8.8,1.9c-2.4,1-4.8,2.1-9.6,2.1c-4.8,0-7.3-1.1-9.6-2.1
	c-2.3-1-4.4-1.9-8.8-1.9c-4.4,0-6.5,0.9-8.8,1.9c-2.4,1-4.8,2.1-9.6,2.1s-7.3-1.1-9.6-2.1c-2.3-1-4.4-1.9-8.8-1.9
	c-4.4,0-6.5,0.9-8.8,1.9c-2.4,1-4.8,2.1-9.6,2.1c-4.8,0-7.3-1.1-9.6-2.1c-2.3-1-4.4-1.9-8.8-1.9c-4.4,0-6.5,0.9-8.8,1.9
	c-2.4,1-4.8,2.1-9.6,2.1c-4.8,0-7.3-1.1-9.6-2.1c-2.3-1-4.4-1.9-8.8-1.9c-4.4,0-6.5,0.9-8.8,1.9c-2.4,1-4.8,2.1-9.6,2.1
	c-4.8,0-7.3-1.1-9.6-2.1c-2.3-1-4.4-1.9-8.8-1.9c-4.4,0-6.5,0.9-8.8,1.9c-2.4,1-4.8,2.1-9.6,2.1c-4.8,0-7.3-1.1-9.6-2.1
	c-2.3-1-4.4-1.9-8.8-1.9c-4.4,0-6.5,0.9-8.8,1.9c-2.4,1-4.8,2.1-9.6,2.1s-7.3-1.1-9.6-2.1c-2.3-1-4.4-1.9-8.8-1.9s-6.5,0.9-8.8,1.9
	c-2.4,1-4.8,2.1-9.6,2.1s-7.3-1.1-9.6-2.1c-2.3-1-4.4-1.9-8.8-1.9s-6.5,0.9-8.8,1.9c-2.4,1-4.8,2.1-9.6,2.1s-7.3-1.1-9.6-2.1
	c-2.3-1-4.4-1.9-8.8-1.9c-4.4,0-6.5,0.9-8.8,1.9c-2.4,1-4.8,2.1-9.6,2.1c-4.8,0-7.3-1.1-9.6-2.1c-2.3-1-4.4-1.9-8.8-1.9
	s-6.5,0.9-8.8,1.9c-2.4,1-4.8,2.1-9.6,2.1s-7.3-1.1-9.6-2.1c-2.3-1-4.4-1.9-8.8-1.9c-4.4,0-6.5,0.9-8.8,1.9c-2.4,1-4.8,2.1-9.6,2.1
	c-4.8,0-7.3-1.1-9.6-2.1c-2.3-1-4.4-1.9-8.8-1.9c-4.4,0-6.5,0.9-8.8,1.9c-2.4,1-4.8,2.1-9.6,2.1c-4.8,0-7.3-1.1-9.6-2.1
	c-2.3-1-4.4-1.9-8.8-1.9c-4.4,0-6.5,0.9-8.8,1.9c-2.4,1-4.8,2.1-9.6,2.1c-4.8,0-7.3-1.1-9.6-2.1c-2.3-1-4.4-1.9-8.8-1.9
	c-4.4,0-6.5,0.9-8.8,1.9c-2.4,1-4.8,2.1-9.6,2.1s-7.3-1.1-9.6-2.1c-2.3-1-4.4-1.9-8.8-1.9c-4.4,0-6.5,0.9-8.8,1.9
	c-2.4,1-4.8,2.1-9.6,2.1c-4.8,0-7.2-1.1-9.6-2.1c-2.3-1-4.4-1.9-8.8-1.9c-4.4,0-6.5,0.9-8.8,1.9c-2.4,1-4.8,2.1-9.6,2.1
	c-4.8,0-7.3-1.1-9.6-2.1C6.5,2.9,4.4,2,0,2V0c4.8,0,7.2,1.1,9.6,2.1C11.9,3.1,14,4,18.4,4c4.4,0,6.5-0.9,8.8-1.9
	C29.6,1.1,32,0,36.8,0c4.8,0,7.2,1.1,9.6,2.1c2.3,1,4.4,1.9,8.8,1.9c4.4,0,6.5-0.9,8.8-1.9c2.4-1,4.8-2.1,9.6-2.1
	c4.8,0,7.3,1.1,9.6,2.1c2.3,1,4.4,1.9,8.8,1.9s6.5-0.9,8.8-1.9c2.4-1,4.8-2.1,9.6-2.1c4.8,0,7.3,1.1,9.6,2.1c2.3,1,4.4,1.9,8.8,1.9
	c4.4,0,6.5-0.9,8.8-1.9c2.4-1,4.8-2.1,9.6-2.1c4.8,0,7.3,1.1,9.6,2.1c2.3,1,4.4,1.9,8.8,1.9c4.4,0,6.5-0.9,8.8-1.9
	c2.4-1,4.8-2.1,9.6-2.1c4.8,0,7.3,1.1,9.6,2.1c2.3,1,4.4,1.9,8.8,1.9c4.4,0,6.5-0.9,8.8-1.9c2.4-1,4.8-2.1,9.6-2.1
	c4.8,0,7.3,1.1,9.6,2.1c2.3,1,4.4,1.9,8.8,1.9s6.5-0.9,8.8-1.9c2.4-1,4.8-2.1,9.6-2.1c4.8,0,7.3,1.1,9.6,2.1c2.3,1,4.4,1.9,8.8,1.9
	c4.4,0,6.5-0.9,8.8-1.9c2.4-1,4.8-2.1,9.6-2.1c4.8,0,7.3,1.1,9.6,2.1c2.3,1,4.4,1.9,8.8,1.9s6.5-0.9,8.8-1.9c2.4-1,4.8-2.1,9.6-2.1
	s7.3,1.1,9.6,2.1c2.3,1,4.4,1.9,8.8,1.9c4.4,0,6.5-0.9,8.8-1.9c2.4-1,4.8-2.1,9.6-2.1c4.8,0,7.3,1.1,9.6,2.1c2.3,1,4.4,1.9,8.8,1.9
	c4.4,0,6.5-0.9,8.8-1.9c2.4-1,4.8-2.1,9.6-2.1c4.8,0,7.3,1.1,9.6,2.1c2.3,1,4.4,1.9,8.8,1.9c4.4,0,6.5-0.9,8.8-1.9
	c2.4-1,4.8-2.1,9.6-2.1c4.8,0,7.3,1.1,9.6,2.1c2.3,1,4.4,1.9,8.8,1.9c4.4,0,6.5-0.9,8.8-1.9c2.4-1,4.8-2.1,9.6-2.1
	c4.8,0,7.3,1.1,9.6,2.1c2.3,1,4.4,1.9,8.8,1.9c4.4,0,6.5-0.9,8.8-1.9c2.4-1,4.8-2.1,9.6-2.1c4.8,0,7.3,1.1,9.6,2.1
	c2.3,1,4.4,1.9,8.8,1.9c4.4,0,6.5-0.9,8.8-1.9c2.4-1,4.8-2.1,9.6-2.1c4.8,0,7.3,1.1,9.6,2.1c2.3,1,4.4,1.9,8.8,1.9
	c4.4,0,6.5-0.9,8.8-1.9c2.4-1,4.8-2.1,9.6-2.1c4.8,0,7.3,1.1,9.6,2.1c2.3,1,4.4,1.9,8.8,1.9c4.4,0,6.5-0.9,8.8-1.9
	c2.4-1,4.8-2.1,9.6-2.1c4.8,0,7.3,1.1,9.6,2.1c2.3,1,4.4,1.9,8.8,1.9c4.4,0,6.5-0.9,8.8-1.9c2.4-1,4.8-2.1,9.6-2.1
	c4.8,0,7.3,1.1,9.6,2.1c2.3,1,4.4,1.9,8.8,1.9c4.4,0,6.5-0.9,8.8-1.9c2.4-1,4.8-2.1,9.6-2.1v2c-4.4,0-6.5,0.9-8.8,1.9
	C688.8,4.9,686.4,6,681.6,6z"/>
</svg>
