<?xml version="1.0" encoding="utf-8"?>
<!-- Generator: Adobe Illustrator 18.1.0, SVG Export Plug-In . SVG Version: 6.00 Build 0)  -->
<!DOCTYPE svg PUBLIC "-//W3C//DTD SVG 1.1//EN" "http://www.w3.org/Graphics/SVG/1.1/DTD/svg11.dtd">
<svg version="1.1" id="Layer_1" xmlns="http://www.w3.org/2000/svg" xmlns:xlink="http://www.w3.org/1999/xlink" x="0px" y="0px"
	 viewBox="0 0 478 435" enable-background="new 0 0 478 435" xml:space="preserve">
<g>
	<path fill="#231F20" d="M177.8,29.7h-58.4v13.2h49.2v24.9h-49.2v14.8h59.5V110l-91.2,0.1V2h90.1V29.7z"/>
	<path fill="#231F20" d="M268.2,2l39.6,108.3h-33.4l-5-14.8h-36.3l-5.4,14.5h-32.2L235.8,2H268.2z M261.2,73l-9.4-26.1L241.4,73
		H261.2z"/>
	<path fill="#231F20" d="M391.3,2v28.1h-30.9V110h-32.3V30.1h-29.3V2H391.3z"/>
	<path fill="#231F20" d="M59,220.5l15.5-57.1H117v108H87.3v-58.9l-16.5,58.9H46.9l-15.5-60.3v60.3H2v-108h42.7L59,220.5z"/>
	<path fill="#231F20" d="M192.5,161.8c36.5-0.3,55.7,25,55.7,55.7c0,30.7-19.2,55.4-55.7,55.4c-38.2,0-56.2-25-56.2-55.7
		C136.3,186.6,154.3,161.8,192.5,161.8z M192.9,250.6c15.2,0,22.7-15.2,22.5-33.2c-0.4-17.4-7.3-33.1-22.5-33.1
		c-17.5,0-24.4,14.5-24.4,34C168.4,236.5,175,250.6,192.9,250.6z"/>
	<path fill="#231F20" d="M322.2,163.4c13.2,0,28.8,1.3,38.2,15.7c5.1,7.5,5.2,19.1,2.2,26.2c-3.4,7.8-8.6,12.4-16.7,15.5
		c16.3,6.9,16.3,25.2,16.7,36.5c0.5,5,1.5,10.1,4,14.1h-32.4l-2-12.6c-3.1-25.3-5.5-26.2-24.5-26h-7.8v38.6h-31.8v-108H322.2z
		 M331.6,199.5c-0.4-7.4-6.3-11-12.5-11h-19.2v21.8h20.7C325.3,210.3,331.6,207.4,331.6,199.5z"/>
	<path fill="#231F20" d="M474.7,191.2h-58.4v13.2h49.2v24.9h-49.2V244h59.5v27.4l-91.2,0.1V163.4h90.1V191.2z"/>
	<path fill="#231F20" d="M115.5,432.9H83.7v-108h55.6c27.2,0,39,15.3,39,36.3c0,21-19.5,38.9-36.6,38.9h-26.2V432.9z M145.2,362.6
		c-0.3-7.1-6.2-11-12.4-11h-17.4v23.1h18.8C139,374.7,145.2,370.5,145.2,362.6z"/>
	<path fill="#231F20" d="M230.2,324.9v108h-31.8v-108H230.2z"/>
	<path fill="#231F20" d="M342.1,352.6h-58.4v13.2h49.2v24.9h-49.2v14.8h59.5v27.4l-91.2,0.1V324.9h90.1V352.6z"/>
	<g>
		<path fill="#231F20" d="M393.2,433.1l-29.2-0.1v-30.7h29.2V433.1z"/>
		<g>
			<path fill="#E5C64F" d="M180.8,80.6h-59.5V69.8h49.2V40.9h-49.2v-9.2h58.4V0H85.6v112.1l95.2-0.1V80.6z M176.9,108l-87.3,0.1V4
				h86.2v23.8h-58.4v17.2h49.2v20.9h-49.2v18.8h59.5V108z"/>
			<path fill="#E5C64F" d="M234.5,97.5H268l5,14.8h37.6L269.6,0h-35.2l-41.7,112h36.4L234.5,97.5z M198.4,108L237.1,4h29.7
				l38.1,104.3h-29.1l-5-14.8h-39.1l-5.4,14.5H198.4z"/>
			<path fill="#E5C64F" d="M251.9,41.3L238.5,75H264L251.9,41.3z M251.7,52.5l6.7,18.5h-14L251.7,52.5z"/>
			<path fill="#E5C64F" d="M326.1,112h36.3V32.1h30.9V0h-96.5v32.1h29.3V112z M300.7,28.1V4h88.6v24.2h-30.9V108H330V28.1H300.7z"/>
			<path fill="#E5C64F" d="M85.3,273.5H119v-112H73l-13.9,51.2l-12.9-51.2H0v112h33.4v-46.6l12,46.6h26.9l13.1-46.5V273.5z
				 M69.2,269.5H48.5l-19-74v74H4V165.4h39.1L59,228.3L76,165.4h39v104.1H89.3v-71.3L69.2,269.5z"/>
			<path fill="#E5C64F" d="M192.9,182.3c-17,0-26.3,12.8-26.3,36c-0.1,12.3,2.9,21.8,8.6,27.6c4.4,4.4,10.4,6.7,17.7,6.7
				c6,0,11.1-2.1,15.2-6.3c6.1-6.1,9.4-16.7,9.2-29C216.8,191.5,204.3,182.3,192.9,182.3z M205.3,243.5c-3.3,3.4-7.5,5.1-12.4,5.1
				c-6.3,0-11.3-1.9-14.9-5.5c-5-5-7.5-13.6-7.5-24.8c0-26.5,12.2-32.1,22.4-32.1c14.6,0,20.1,16.1,20.5,31.1
				C213.6,228.6,210.6,238.2,205.3,243.5z"/>
			<path fill="#E5C64F" d="M235.6,176.9c-10.2-11.2-24.9-17.1-42.6-17.1l-0.6,0c-35.9,0-58.2,22-58.2,57.4
				c0,27.9,15.3,57.7,58.2,57.7c17.8,0,32.7-5.8,43-16.8c9.5-10.2,14.7-24.6,14.7-40.6C250.2,201.6,245,187.1,235.6,176.9z
				 M192.5,271c-17.4,0-31.5-5.4-41-15.7c-8.7-9.4-13.3-22.6-13.3-38c0-15.4,4.6-28.5,13.3-37.9c9.4-10.2,23.6-15.6,41-15.6l0.6,0
				c16.5,0,30.2,5.5,39.6,15.8c8.7,9.5,13.5,23,13.5,38C246.2,250,225.1,271,192.5,271z"/>
			<path fill="#E5C64F" d="M319.1,186.5h-21.2v25.8h22.7c6.3,0,13-4,13-12.7l0-0.1C333.1,190.5,325.8,186.5,319.1,186.5z
				 M320.6,208.3h-18.7v-17.8h17.3c4.6,0,10.1,2.4,10.5,9.1C329.6,206.4,323.9,208.3,320.6,208.3z"/>
			<path fill="#E5C64F" d="M364.4,206.2c3.2-7.3,3.4-19.7-2.3-28.1c-9.6-14.6-24.8-16.6-39.9-16.6h-56.1v112h35.7v-38.6h5.8
				c1.3,0,2.5,0,3.6,0c14.1,0,16,0.9,18.9,24.3l2.3,14.3h37.7l-1.9-3c-2.4-3.8-3.3-8.8-3.7-13.2l0-1.2c-0.3-10.2-0.9-26.8-14-35
				C357.1,217.7,361.5,213,364.4,206.2z M345.2,219l-4.6,1.8l4.5,1.9c14.5,6.1,15.1,22.5,15.4,33.4l0,1.3l0,0.1
				c0.4,3.8,1.1,8.1,2.7,11.9h-27.5l-1.7-10.9c-3-24.4-5.8-27.7-22.8-27.7c-1.1,0-2.4,0-3.6,0h-9.8v38.6h-27.8V165.4h52.1
				c13.9,0,28,1.8,36.6,14.9c4.8,7.1,4.8,17.9,2,24.3C357.7,211.7,353,216,345.2,219z"/>
			<path fill="#E5C64F" d="M418.2,242.1v-10.8h49.2v-28.9h-49.2v-9.2h58.4v-31.7h-94.1v112.1l95.2-0.1v-31.4H418.2z M473.7,269.5
				l-87.3,0.1V165.4h86.2v23.8h-58.4v17.2h49.2v20.9h-49.2V246h59.5V269.5z"/>
			<path fill="#E5C64F" d="M139.3,322.9H81.7v112h35.7v-32.8h24.3c8.8,0,18.6-4.5,26.1-12.2c7.9-8,12.5-18.5,12.5-28.7
				C180.3,336.9,165.3,322.9,139.3,322.9z M141.7,398.1h-28.2V431H85.7V326.9h53.6c32.2,0,37,21.5,37,34.3
				C176.3,381.7,157.4,398.1,141.7,398.1z"/>
			<path fill="#E5C64F" d="M132.8,349.6h-19.3v27.1h20.8c6.2,0,12.9-5.4,12.9-14.2C146.9,354,139.7,349.6,132.8,349.6z M134.3,372.7
				h-16.9v-19.2h15.4c4.8,0,10.2,2.9,10.4,9.1C143.2,369.5,137.9,372.7,134.3,372.7z"/>
			<path fill="#E5C64F" d="M196.5,434.9h35.7v-112h-35.7V434.9z M200.5,326.9h27.8V431h-27.8V326.9z"/>
			<path fill="#E5C64F" d="M285.6,392.7h49.2v-28.9h-49.2v-9.2H344v-31.7h-94.1v112.1l95.2-0.1v-31.4h-59.5V392.7z M341.1,407.5V431
				l-87.3,0.1V326.9h86.2v23.8h-58.4v17.2h49.2v20.9h-49.2v18.8H341.1z"/>
			<path fill="#E5C64F" d="M362,434.9l33.2,0.2v-34.8H362V434.9z M366,404.3h25.2v26.8L366,431V404.3z"/>
		</g>
	</g>
</g>
</svg>
