<?xml version="1.0" encoding="utf-8"?>
<!-- Generator: Adobe Illustrator 18.0.0, SVG Export Plug-In . SVG Version: 6.00 Build 0)  -->
<!DOCTYPE svg PUBLIC "-//W3C//DTD SVG 1.1//EN" "http://www.w3.org/Graphics/SVG/1.1/DTD/svg11.dtd">
<svg version="1.1" id="Layer_1" xmlns="http://www.w3.org/2000/svg" xmlns:xlink="http://www.w3.org/1999/xlink" x="0px" y="0px"
	 viewBox="0 0 760 119.8" enable-background="new 0 0 760 119.8" xml:space="preserve">
<g>
	<g>
		<path fill="#231F20" d="M68.6,3.7h33.1v112.5H68.6V72.9H35.1v43.3H2.1V3.7h33.1v38.5h33.5V3.7z"/>
		<path fill="#E5C64F" d="M103.7,118.3H66.5V75H37.2v43.3H0V1.7h37.2v38.5h29.4V1.7h37.2V118.3z M70.7,114.2h28.9V5.8H70.7v38.5
			H33.1V5.8H4.1v108.4h28.9V70.9h37.6V114.2z"/>
	</g>
	<g>
		<path fill="#231F20" d="M157.3,3.7v112.5h-33.1V3.7H157.3z"/>
		<path fill="#E5C64F" d="M159.3,118.3h-37.2V1.7h37.2V118.3z M126.3,114.2h28.9V5.8h-28.9V114.2z"/>
	</g>
	<g>
		<path fill="#231F20" d="M236.1,44.6c12.5,3.2,31.5,8,37.7,23.4c3.4,8.3,4.1,19.5-2.5,29.6c-10.6,16.2-29.8,19.8-42.2,20
			c-10.4,0.4-34.2-2.2-45.5-17c-4.5-6-6.3-12.3-6.9-21h33.1c2,6.7,4.9,10.8,12,12.5c18.5,2.5,21.3-7.8,20.5-10.6
			c-1.5-5.7-15.5-7.7-25.2-10.8c-15-4.6-31-9.9-36.3-24.4c-2.5-6.9-2-21,3.5-29.1C192.8,5,209,2.2,220.7,2.1
			c10.8,0,33.5,0.4,43.6,14c3.2,4.3,5.9,12.2,6,19.6h-31.8c-2.1-6-7.8-9.8-15-9.7c-10.9,0.4-12.2,7.1-11.5,9.2
			C213.4,40.6,226.2,41.7,236.1,44.6z"/>
		<path fill="#E5C64F" d="M227,119.7c-14.5,0-34.9-4.7-45.1-17.8c-4.6-6.1-6.7-12.5-7.3-22.1l-0.1-2.2h36.8l0.4,1.5
			c2,6.7,4.7,9.6,10.4,11c1.8,0.2,3.5,0.4,5,0.4c7,0,10.3-2.4,11.8-4.4c1.4-1.8,1.4-3.6,1.3-4c-0.9-3.3-9.4-5.5-16.2-7.3
			c-2.6-0.7-5.3-1.4-7.7-2.1c-14.1-4.4-31.7-9.8-37.6-25.6c-2.9-7.8-2-22.4,3.7-31c5-7.2,15.7-15.8,38.1-16c0,0,0.1,0,0.1,0
			c9.4,0,34.2,0,45.2,14.8c3.7,5,6.3,13.4,6.4,20.8l0,2.1H237l-0.5-1.4c-1.8-5.1-6.6-8.3-12.7-8.3l-0.3,0c-5.4,0.2-7.7,2-8.8,3.5
			c-1,1.5-0.9,2.8-0.8,3l0,0.1c0.7,2.7,7.9,4.4,14.3,5.8c2.8,0.6,5.7,1.3,8.4,2.1l0.4,0.1c12.8,3.3,32.2,8.3,38.7,24.5
			c2.1,5.1,5.9,18.2-2.7,31.5c-11.6,17.6-32.4,20.7-43.8,21C228.5,119.7,227.8,119.7,227,119.7z M179,81.7
			c0.7,7.5,2.6,12.8,6.3,17.7c9.2,11.9,28.3,16.2,41.8,16.2c0.7,0,1.4,0,2,0c10.6-0.2,30-3,40.5-19.1c7.6-11.6,4.1-23.2,2.3-27.6
			c-5.7-14.3-23.9-19-35.9-22.1l-0.4-0.1c-2.6-0.8-5.5-1.4-8.2-2.1c-8.6-2-16-3.7-17.4-8.7c-0.5-1.6-0.3-4.2,1.4-6.6
			c1.6-2.3,4.9-5,12-5.3l0.5,0c7.3,0,13.3,3.7,16,9.7h28.2c-0.5-6-2.7-12.5-5.5-16.3c-9.8-13.2-33.1-13.2-41.9-13.2
			c-11.4,0.1-26.6,2.7-34.7,14.3c-5.2,7.8-5.4,21.3-3.3,27.2c5.1,13.9,21.7,19,35,23.1c2.3,0.7,4.9,1.4,7.5,2.1
			c9.1,2.4,17.6,4.6,19.1,10.1c0.5,1.7,0.1,4.8-1.9,7.6c-2.1,2.8-6.3,6-15.1,6c-1.8,0-3.7-0.1-5.7-0.4l-0.2,0
			c-8.2-1.9-11.3-7-13.1-12.4H179z"/>
	</g>
	<g>
		<path fill="#231F20" d="M384.8,3.7V33h-32.2v83.2h-33.6V33h-30.5V3.7H384.8z"/>
		<path fill="#E5C64F" d="M354.6,118.3h-37.7V35.1h-30.5V1.7h100.5v33.4h-32.2V118.3z M321,114.2h29.5V31h32.2V5.8h-92.2V31H321
			V114.2z"/>
	</g>
	<g>
		<path fill="#231F20" d="M453.5,2.1c38-0.3,58,26.1,58,58s-20,57.7-58,57.7c-39.8,0-58.6-26.1-58.6-58S413.7,2.1,453.5,2.1z
			 M453.9,94.5c15.8,0,23.7-15.8,23.4-34.6c-0.4-18.1-7.6-34.5-23.4-34.5c-18.2,0-25.4,15.1-25.4,35.4
			C428.4,79.8,435.3,94.5,453.9,94.5z"/>
		<path fill="#E5C64F" d="M453.5,119.8c-44.7,0-60.6-31-60.6-60.1c0-36.9,23.2-59.8,60.6-59.8l0.6,0c18.3,0,33.7,6.1,44.3,17.8
			c9.8,10.7,15.1,25.7,15.1,42.3c0,16.7-5.4,31.7-15.3,42.2C487.5,113.8,472.1,119.8,453.5,119.8z M454.1,4.1l-0.6,0
			c-18.1,0-32.9,5.6-42.7,16.2c-9,9.8-13.8,23.4-13.8,39.4c0,16.1,4.8,29.8,13.8,39.6c9.8,10.7,24.6,16.4,42.7,16.4
			c34,0,55.9-21.8,55.9-55.6c0-15.6-5-29.6-14.1-39.5C485.5,9.8,471.3,4.1,454.1,4.1z M453.9,96.6c-7.7,0-13.9-2.3-18.5-7
			c-6-6-9.1-15.9-9-28.7c0-24.2,9.7-37.5,27.4-37.5c11.9,0,24.8,9.6,25.5,36.5c0.2,12.8-3.3,23.8-9.6,30.2
			C465.5,94.4,460.2,96.6,453.9,96.6z M453.9,27.5c-10.6,0-23.3,5.8-23.3,33.4c-0.1,11.7,2.6,20.6,7.8,25.8c3.8,3.8,9,5.8,15.5,5.8
			c5.1,0,9.4-1.8,12.9-5.3c5.5-5.6,8.6-15.5,8.4-27.2C474.9,44.3,469.1,27.5,453.9,27.5z"/>
	</g>
	<g>
		<path fill="#231F20" d="M588.5,3.7c13.7,0,30,1.4,39.8,16.4c5.3,7.8,5.5,19.9,2.2,27.3c-3.5,8.1-9,12.9-17.4,16.1
			c16.9,7.1,16.9,26.2,17.4,38c0.6,5.2,1.5,10.5,4.2,14.7H601l-2.1-13.2c-3.2-26.3-5.7-27.3-25.5-27h-8.1v40.2h-33.1V3.7H588.5z
			 M598.4,41.3c-0.4-7.7-6.6-11.5-13-11.5h-20v22.7h21.6C591.8,52.5,598.4,49.6,598.4,41.3z"/>
		<path fill="#E5C64F" d="M638.5,118.3h-39.3l-2.4-14.9c-3-24.4-5-25.3-19.7-25.3c-1.2,0-2.4,0-3.7,0h-6.1v40.2h-37.2V1.7h58.4
			c15.7,0,31.5,2.1,41.5,17.3c6,8.8,5.7,21.7,2.4,29.3c-3,7.1-7.6,12-14.5,15.4c13.7,8.5,14.2,25.7,14.6,36.4l0,1.3
			c0.5,4.6,1.4,9.8,3.9,13.8L638.5,118.3z M602.8,114.2h28.6c-1.7-4-2.4-8.5-2.8-12.4l0-0.1l0-1.3c-0.4-11.3-1-28.4-16.1-34.8
			l-4.7-2l4.8-1.8c8.2-3.1,13-7.6,16.2-15c2.9-6.7,2.9-18-2.1-25.3c-8.9-13.6-23.6-15.5-38.1-15.5h-54.2v108.4h28.9V74h10.2
			c1.3,0,2.6,0,3.8,0c17.8,0,20.7,3.5,23.8,28.9L602.8,114.2z M586.9,54.6h-23.6V27.7h22.1c6.9,0,14.6,4.2,15.1,13.4l0,0.1
			C600.4,50.4,593.4,54.6,586.9,54.6z M567.4,50.4h19.5c3.5,0,9.4-1.9,9.4-9.1c-0.4-7-6.2-9.5-11-9.5h-18V50.4z"/>
	</g>
	<g>
		<path fill="#231F20" d="M678.4,3.7l19.8,37.8l21.6-37.8h36.7L715.1,78v38.2h-34.9V78L641.7,3.7H678.4z"/>
		<path fill="#E5C64F" d="M717.2,118.3h-39V78.5L638.4,1.7h41.3l18.6,35.6l20.3-35.6H760l-42.8,76.8V118.3z M682.3,114.2h30.8V77.5
			L753,5.8h-32l-22.9,40.1L677.2,5.8h-32.1l37.2,71.7V114.2z"/>
	</g>
</g>
</svg>
