<?xml version="1.0" encoding="utf-8"?>
<!-- Generator: Adobe Illustrator 18.0.0, SVG Export Plug-In . SVG Version: 6.00 Build 0)  -->
<!DOCTYPE svg PUBLIC "-//W3C//DTD SVG 1.1//EN" "http://www.w3.org/Graphics/SVG/1.1/DTD/svg11.dtd">
<svg version="1.1" id="Layer_1" xmlns="http://www.w3.org/2000/svg" xmlns:xlink="http://www.w3.org/1999/xlink" x="0px" y="0px"
	 viewBox="0 0 30 30" enable-background="new 0 0 30 30" xml:space="preserve">
<g>
	<g>
		<circle cx="20.2" cy="10.6" r="1"/>
	</g>
	<g>
		<g>
			<path d="M15,0C6.7,0,0,6.7,0,15c0,8.3,6.7,15,15,15c8.3,0,15-6.7,15-15C30,6.7,23.3,0,15,0z M22.7,21.8H7.2v-7.9h4
				c-0.3,0.6-0.5,1.3-0.5,2c0,2.3,1.9,4.2,4.2,4.2c2.3,0,4.2-1.9,4.2-4.2c0-0.7-0.2-1.4-0.5-2h4V21.8z M22.7,11.8c0,0.6-0.5,1-1,1
				h-2.8c-0.6,0-1.4-0.2-1.9-0.5c0,0-0.9-0.6-2-0.6c-1.1,0-2,0.6-2,0.6c-0.5,0.3-1.3,0.5-1.9,0.5H8.2c-0.6,0-1-0.5-1-1V9.2
				c0-0.6,0.5-1,1-1h13.4c0.6,0,1,0.5,1,1V11.8z"/>
		</g>
	</g>
</g>
</svg>
