<?xml version="1.0" encoding="utf-8"?>
<!-- Generator: Adobe Illustrator 18.1.1, SVG Export Plug-In . SVG Version: 6.00 Build 0)  -->
<!DOCTYPE svg PUBLIC "-//W3C//DTD SVG 1.1//EN" "http://www.w3.org/Graphics/SVG/1.1/DTD/svg11.dtd">
<svg version="1.1" id="Layer_1" xmlns="http://www.w3.org/2000/svg" xmlns:xlink="http://www.w3.org/1999/xlink" x="0px" y="0px"
	 viewBox="0 261.9 793.5 87.3" enable-background="new 0 261.9 793.5 87.3" xml:space="preserve">
<g>
	<g>
		<path fill="#231F20" d="M80.3,309.4L70,263.2H47.2l-10.4,47.4l-12.3-47.4H0l22.8,84.9h25.4l10-45.3l9,45.4h25.3l25.2-85H92.9
			L80.3,309.4z M30.8,333.5c-0.1-0.2-6.3-16.4-8.7-24.6c-2.4-8.3-6.1-25.2-6.1-25.4l1.5-0.5c0.1,0.2,6.6,16.2,9,24.4
			c2.4,8.3,5.7,25.5,5.8,25.7L30.8,333.5z M101.8,279.7c0,0.2-3.3,17.1-5.8,25.4c-2.5,8.2-9.2,24.5-9.2,24.6l-1.5-0.5
			c0-0.2,3.7-17.1,6.2-25.4c2.5-8.2,8.8-24.4,8.8-24.6L101.8,279.7z"/>
	</g>
	<g>
		<path fill="#231F20" d="M512.3,320.5c0.1,3.9-3.5,7.4-7.6,7.4c-4,0-7.4-3.6-7.4-7.6v-8.5h-25v6.5c0,17.6,15.7,31.4,33.3,30.9
			c17.8-0.6,31.6-13.9,31.6-33v-53h-25V320.5z M523.8,279.6l1.5,0c0,0.2,1.7,17.4,1.7,26c0,8.6-1.8,26.1-1.8,26.2l-1.5,0
			c0-0.2-1.3-17.5-1.3-26.1C522.5,297.1,523.8,279.8,523.8,279.6z"/>
	</g>
	<g>
		<path fill="#231F20" d="M550.3,348.1h25v-84.9h-25V348.1z M561.9,279.6l1.5,0c0,0.2,1.7,17.4,1.7,26c0,8.6-1.8,26.1-1.8,26.2
			l-1.5,0c0-0.2-1.3-17.5-1.3-26.1C560.5,297.1,561.8,279.8,561.9,279.6z"/>
	</g>
	<g>
		<path fill="#231F20" d="M384.2,314.9h38.7v-19.6h-38.7V285h45.9v-21.8h-70.9v85l71.7-0.1v-21.6h-46.7V314.9z M372.5,331.8l-1.5,0
			c0-0.2-1.3-17.5-1.3-26.1c0-8.6,1.4-25.9,1.4-26.1l1.5,0c0,0.2,1.7,17.4,1.7,26C374.3,314.2,372.5,331.7,372.5,331.8z"/>
	</g>
	<g>
		<path fill="#231F20" d="M128.9,348.2h25v-84.9h-25V348.2z M140.4,279.6l1.5,0c0,0.2,1.7,17.4,1.7,26c0,8.6-1.8,26.1-1.8,26.2
			l-1.5,0c0-0.2-1.3-17.5-1.3-26.1C139.1,297.1,140.4,279.8,140.4,279.6z"/>
	</g>
	<g>
		<path fill="#231F20" d="M791.6,311.7c-4.7-11.6-19-15.2-28.4-17.7c-7.5-2.2-17.1-3.1-18.2-7.1c-0.5-1.6,0.4-6.7,8.7-7
			c5.4-0.1,9.7,2.7,11.3,7.3h24c-0.1-5.6-2.1-11.5-4.5-14.8c-7.6-10.3-24.7-10.6-32.9-10.6c-8.9,0.1-21,2.2-27.5,11.4
			c-4.1,6.1-4.5,16.8-2.6,22c4,10.9,16.1,14.9,27.4,18.4c7.3,2.3,17.9,3.8,19,8.1c0.6,2.1-1.5,9.9-15.4,8c-5.4-1.3-7.6-4.3-9.1-9.4
			h-25c0.4,6.6,1.8,11.3,5.2,15.9c8.6,11.1,26.5,13.1,34.4,12.8c9.3-0.2,23.8-2.9,31.8-15.1C794.7,326.4,794.2,318,791.6,311.7z
			 M780.6,317.3l-0.5-0.5c-2.1-1.9-7.4-6.6-11.7-8.5c-3.9-1.8-8.2-2.4-12.4-2.9c-4.1-0.9-8.2-1.8-12.4-4.1
			c-3.8-2.1-8.8-5.5-10.5-10.3l-0.3-0.7l1.6-0.6l0.3,0.6c2.1,3.4,5.9,5.4,9.9,7.2c3.7,1.5,7.4,2.5,11.9,3.2c5.7,0.7,10.3,2,13.7,3.8
			c4.1,2.2,8.7,7.4,11.3,11.2l0.4,0.6L780.6,317.3z"/>
	</g>
	<g>
		<path fill="#231F20" d="M693,280.2h7.1c-0.1,4.8-3.8,9-7.1,9v6.9c8.5,0,15.8-7.5,15.8-15.9v-17H693V280.2z"/>
	</g>
	<g>
		<path fill="#231F20" d="M320,348.1h25v-84.9h-25V348.1z M331.6,279.6l1.5,0c0,0.2,1.7,17.4,1.7,26c0,8.6-1.8,26.1-1.8,26.2l-1.5,0
			c0-0.2-1.3-17.5-1.3-26.1C330.2,297.1,331.6,279.8,331.6,279.6z"/>
	</g>
	<g>
		<path fill="#231F20" d="M269,263.2h-25v84.9h62.6V326H269V263.2z M258,331.8l-1.5,0c0-0.2-1.3-17.5-1.3-26.1
			c0-8.6,1.4-25.9,1.4-26.1l1.5,0c0,0.2,1.7,17.4,1.7,26C259.8,314.2,258.1,331.7,258,331.8z"/>
	</g>
	<g>
		<path fill="#231F20" d="M193.1,263.2h-25v84.9h62.6V326h-37.6V263.2z M181,331.8l-1.5,0c0-0.2-1.3-17.5-1.3-26.1
			c0-8.6,1.4-25.9,1.4-26.1l1.5,0c0,0.2,1.7,17.4,1.7,26C182.7,314.2,181,331.7,181,331.8z"/>
	</g>
	<g>
		<path fill="#231F20" d="M633.1,308l-11.3-44.8h-33.5v84.9h23.2v-47.4l12.2,47.4h18.7l13-46.3v46.3h23.4v-84.9h-33.4L633.1,308z
			 M600.4,331.8l-1.5,0c0-0.2-1.3-17.5-1.3-26.1c0-8.6,1.4-25.9,1.4-26.1l1.5,0c0,0.2,1.7,17.4,1.7,26
			C602.2,314.2,600.4,331.7,600.4,331.8z M666.6,279.6l1.5,0c0,0.2,1.7,17.4,1.7,26c0,8.6-1.8,26.1-1.8,26.2l-1.5,0
			c0-0.2-1.3-17.5-1.3-26.1C665.3,297.1,666.6,279.8,666.6,279.6z"/>
	</g>
</g>
</svg>
