<?xml version="1.0" encoding="utf-8"?>
<!-- Generator: Adobe Illustrator 18.1.0, SVG Export Plug-In . SVG Version: 6.00 Build 0)  -->
<!DOCTYPE svg PUBLIC "-//W3C//DTD SVG 1.1//EN" "http://www.w3.org/Graphics/SVG/1.1/DTD/svg11.dtd">
<svg version="1.1" id="Layer_1" xmlns="http://www.w3.org/2000/svg" xmlns:xlink="http://www.w3.org/1999/xlink" x="0px" y="0px"
	 viewBox="0 36.1 700 9.2" enable-background="new 0 36.1 700 9.2" xml:space="preserve">
<path d="M676.7,45.2c-6.2,0-9.3-1.6-12.4-3.2c-2.8-1.5-5.5-2.8-11-2.8c-5.5,0-8.1,1.4-11,2.8c-3,1.6-6.2,3.2-12.4,3.2
	s-9.3-1.6-12.4-3.2c-2.8-1.5-5.5-2.8-11-2.8c-5.5,0-8.1,1.4-11,2.8c-3,1.6-6.2,3.2-12.4,3.2s-9.3-1.6-12.4-3.2
	c-2.8-1.5-5.5-2.8-11-2.8c-5.5,0-8.1,1.4-11,2.8c-3,1.6-6.2,3.2-12.4,3.2s-9.3-1.6-12.4-3.2c-2.8-1.5-5.5-2.8-11-2.8
	s-8.1,1.4-11,2.8c-3,1.6-6.2,3.2-12.4,3.2c-6.2,0-9.3-1.6-12.4-3.2c-2.8-1.5-5.5-2.8-11-2.8c-5.5,0-8.1,1.4-11,2.8
	c-3,1.6-6.2,3.2-12.4,3.2s-9.3-1.6-12.4-3.2c-2.8-1.5-5.5-2.8-11-2.8s-8.1,1.4-11,2.8c-3,1.6-6.2,3.2-12.4,3.2s-9.3-1.6-12.4-3.2
	c-2.8-1.5-5.5-2.8-11-2.8c-5.5,0-8.1,1.4-11,2.8c-3,1.6-6.2,3.2-12.4,3.2s-9.3-1.6-12.4-3.2c-2.8-1.5-5.5-2.8-11-2.8
	c-5.5,0-8.1,1.4-11,2.8c-3,1.6-6.2,3.2-12.4,3.2c-6.2,0-9.3-1.6-12.4-3.2c-2.8-1.5-5.5-2.8-11-2.8s-8.1,1.4-11,2.8
	c-3,1.6-6.2,3.2-12.4,3.2c-6.2,0-9.3-1.6-12.4-3.2c-2.8-1.5-5.5-2.8-11-2.8s-8.1,1.4-11,2.8c-3,1.6-6.2,3.2-12.4,3.2
	s-9.3-1.6-12.4-3.2c-2.8-1.5-5.5-2.8-11-2.8c-5.5,0-8.1,1.4-11,2.8c-3,1.6-6.2,3.2-12.4,3.2c-6.2,0-9.3-1.6-12.4-3.2
	c-2.8-1.5-5.5-2.8-11-2.8c-5.5,0-8.1,1.4-11,2.8c-3,1.6-6.2,3.2-12.4,3.2s-9.3-1.6-12.4-3.2c-2.8-1.5-5.5-2.8-11-2.8
	c-5.5,0-8.1,1.4-11,2.8c-3,1.6-6.2,3.2-12.4,3.2c-6.2,0-9.3-1.6-12.4-3.2c-2.8-1.5-5.5-2.8-11-2.8c-5.5,0-8.1,1.4-11,2.8
	c-3,1.6-6.2,3.2-12.4,3.2c-6.2,0-9.3-1.6-12.4-3.2c-2.8-1.5-5.5-2.8-11-2.8v-3c6.2,0,9.3,1.6,12.4,3.2c2.8,1.5,5.5,2.8,11,2.8
	c5.5,0,8.1-1.4,11-2.8c3-1.6,6.2-3.2,12.4-3.2c6.2,0,9.3,1.6,12.4,3.2c2.8,1.5,5.5,2.8,11,2.8c5.5,0,8.1-1.4,11-2.8
	c3-1.6,6.2-3.2,12.4-3.2c6.2,0,9.3,1.6,12.4,3.2c2.8,1.5,5.5,2.8,11,2.8s8.1-1.4,11-2.8c3-1.6,6.2-3.2,12.4-3.2
	c6.2,0,9.3,1.6,12.4,3.2c2.8,1.5,5.5,2.8,11,2.8s8.1-1.4,11-2.8c3-1.6,6.2-3.2,12.4-3.2c6.2,0,9.3,1.6,12.4,3.2
	c2.8,1.5,5.5,2.8,11,2.8c5.5,0,8.1-1.4,11-2.8c3-1.6,6.2-3.2,12.4-3.2c6.2,0,9.3,1.6,12.4,3.2c2.8,1.5,5.5,2.8,11,2.8
	c5.5,0,8.1-1.4,11-2.8c3-1.6,6.2-3.2,12.4-3.2s9.3,1.6,12.4,3.2c2.8,1.5,5.5,2.8,11,2.8c5.5,0,8.1-1.4,11-2.8
	c3-1.6,6.2-3.2,12.4-3.2c6.2,0,9.3,1.6,12.4,3.2c2.8,1.5,5.5,2.8,11,2.8s8.1-1.4,11-2.8c3-1.6,6.2-3.2,12.4-3.2s9.3,1.6,12.4,3.2
	c2.8,1.5,5.5,2.8,11,2.8s8.1-1.4,11-2.8c3-1.6,6.2-3.2,12.4-3.2s9.3,1.6,12.4,3.2c2.8,1.5,5.5,2.8,11,2.8s8.1-1.4,11-2.8
	c3-1.6,6.2-3.2,12.4-3.2s9.3,1.6,12.4,3.2c2.8,1.5,5.5,2.8,11,2.8c5.5,0,8.1-1.4,11-2.8c3-1.6,6.2-3.2,12.4-3.2s9.3,1.6,12.4,3.2
	c2.8,1.5,5.5,2.8,11,2.8s8.1-1.4,11-2.8c3-1.6,6.2-3.2,12.4-3.2c6.2,0,9.3,1.6,12.4,3.2c2.8,1.5,5.5,2.8,11,2.8
	c5.5,0,8.1-1.4,11-2.8c3-1.6,6.2-3.2,12.4-3.2s9.3,1.6,12.4,3.2c2.8,1.5,5.5,2.8,11,2.8c5.5,0,8.1-1.4,11-2.8
	c3-1.6,6.2-3.2,12.4-3.2c6.2,0,9.3,1.6,12.4,3.2c2.8,1.5,5.5,2.8,11,2.8c5.5,0,8.1-1.4,11-2.8c3-1.6,6.2-3.2,12.4-3.2v3
	c-5.5,0-8.2,1.4-11,2.8C686,43.6,682.9,45.2,676.7,45.2z"/>
</svg>
