<?xml version="1.0" encoding="utf-8"?>
<!-- Generator: Adobe Illustrator 18.1.0, SVG Export Plug-In . SVG Version: 6.00 Build 0)  -->
<!DOCTYPE svg PUBLIC "-//W3C//DTD SVG 1.1//EN" "http://www.w3.org/Graphics/SVG/1.1/DTD/svg11.dtd">
<svg version="1.1" id="Layer_1" xmlns="http://www.w3.org/2000/svg" xmlns:xlink="http://www.w3.org/1999/xlink" x="0px" y="0px"
	 viewBox="0 36.1 1400 18.5" enable-background="new 0 36.1 1400 18.5" xml:space="preserve">
<path d="M1353.3,54.2c-12.4,0-18.7-3.2-24.7-6.3c-5.7-2.9-11-5.7-22-5.7c-10.9,0-16.3,2.8-22,5.7c-6.1,3.1-12.3,6.3-24.7,6.3
	s-18.7-3.2-24.7-6.3c-5.7-2.9-11-5.7-22-5.7c-10.9,0-16.3,2.8-22,5.7c-6.1,3.1-12.3,6.3-24.7,6.3s-18.7-3.2-24.7-6.3
	c-5.7-2.9-11-5.7-22-5.7c-10.9,0-16.3,2.8-22,5.7c-6.1,3.1-12.3,6.3-24.7,6.3s-18.7-3.2-24.7-6.3c-5.7-2.9-11-5.7-22-5.7
	s-16.3,2.8-22,5.7c-6.1,3.1-12.3,6.3-24.7,6.3c-12.4,0-18.7-3.2-24.7-6.3c-5.7-2.9-11-5.7-22-5.7c-10.9,0-16.3,2.8-22,5.7
	c-6.1,3.1-12.3,6.3-24.7,6.3S868,51,861.9,47.9c-5.7-2.9-11-5.7-22-5.7s-16.3,2.8-22,5.7c-6.1,3.1-12.3,6.3-24.7,6.3
	s-18.7-3.2-24.7-6.3c-5.7-2.9-11-5.7-22-5.7c-10.9,0-16.3,2.8-22,5.7c-6.1,3.1-12.3,6.3-24.7,6.3s-18.7-3.2-24.7-6.3
	c-5.7-2.9-11-5.7-22-5.7c-10.9,0-16.3,2.8-22,5.7c-6.1,3.1-12.3,6.3-24.7,6.3c-12.4,0-18.7-3.2-24.7-6.3c-5.7-2.9-11-5.7-22-5.7
	s-16.3,2.8-22,5.7c-6.1,3.1-12.3,6.3-24.7,6.3c-12.4,0-18.7-3.2-24.7-6.3c-5.7-2.9-11-5.7-22-5.7s-16.3,2.8-22,5.7
	c-6.1,3.1-12.3,6.3-24.7,6.3s-18.7-3.2-24.7-6.3c-5.7-2.9-11-5.7-22-5.7c-10.9,0-16.3,2.8-22,5.7c-6.1,3.1-12.3,6.3-24.7,6.3
	c-12.4,0-18.7-3.2-24.7-6.3c-5.7-2.9-11-5.7-22-5.7c-10.9,0-16.3,2.8-22,5.7c-6.1,3.1-12.3,6.3-24.7,6.3s-18.7-3.2-24.7-6.3
	c-5.7-2.9-11-5.7-22-5.7c-10.9,0-16.3,2.8-22,5.7c-6.1,3.1-12.3,6.3-24.7,6.3c-12.4,0-18.7-3.2-24.7-6.3c-5.7-2.9-11-5.7-22-5.7
	c-10.9,0-16.3,2.8-22,5.7c-6.1,3.1-12.3,6.3-24.7,6.3C34.3,54.2,28,51,22,47.9c-5.7-2.9-11-5.7-22-5.7v-6c12.4,0,18.7,3.2,24.7,6.3
	c5.7,2.9,11,5.7,22,5.7c10.9,0,16.3-2.8,22-5.7c6.1-3.1,12.3-6.3,24.7-6.3c12.4,0,18.7,3.2,24.7,6.3c5.7,2.9,11,5.7,22,5.7
	c10.9,0,16.3-2.8,22-5.7c6.1-3.1,12.3-6.3,24.7-6.3c12.4,0,18.7,3.2,24.7,6.3c5.7,2.9,11,5.7,22,5.7s16.3-2.8,22-5.7
	c6.1-3.1,12.3-6.3,24.7-6.3c12.4,0,18.6,3.2,24.7,6.3c5.7,2.9,11,5.7,22,5.7s16.3-2.8,22-5.7c6.1-3.1,12.3-6.3,24.7-6.3
	c12.4,0,18.7,3.2,24.7,6.3c5.7,2.9,11,5.7,22,5.7c10.9,0,16.3-2.8,22-5.7c6.1-3.1,12.3-6.3,24.7-6.3c12.4,0,18.7,3.2,24.7,6.3
	c5.7,2.9,11,5.7,22,5.7c10.9,0,16.3-2.8,22-5.7c6.1-3.1,12.3-6.3,24.7-6.3s18.7,3.2,24.7,6.3c5.7,2.9,11,5.7,22,5.7
	c10.9,0,16.3-2.8,22-5.7c6.1-3.1,12.3-6.3,24.7-6.3c12.4,0,18.7,3.2,24.7,6.3c5.7,2.9,11,5.7,22,5.7s16.3-2.8,22-5.7
	c6.1-3.1,12.3-6.3,24.7-6.3s18.7,3.2,24.7,6.3c5.7,2.9,11,5.7,22,5.7s16.3-2.8,22-5.7c6.1-3.1,12.3-6.3,24.7-6.3s18.7,3.2,24.7,6.3
	c5.7,2.9,11,5.7,22,5.7s16.3-2.8,22-5.7c6.1-3.1,12.3-6.3,24.7-6.3s18.7,3.2,24.7,6.3c5.7,2.9,11,5.7,22,5.7c10.9,0,16.3-2.8,22-5.7
	c6.1-3.1,12.3-6.3,24.7-6.3s18.7,3.2,24.7,6.3c5.7,2.9,11,5.7,22,5.7s16.3-2.8,22-5.7c6.1-3.1,12.3-6.3,24.7-6.3
	c12.4,0,18.7,3.2,24.7,6.3c5.7,2.9,11,5.7,22,5.7c10.9,0,16.3-2.8,22-5.7c6.1-3.1,12.3-6.3,24.7-6.3s18.7,3.2,24.7,6.3
	c5.7,2.9,11,5.7,22,5.7c10.9,0,16.3-2.8,22-5.7c6.1-3.1,12.3-6.3,24.7-6.3c12.4,0,18.7,3.2,24.7,6.3c5.7,2.9,11,5.7,22,5.7
	c10.9,0,16.3-2.8,22-5.7c6.1-3.1,12.3-6.3,24.7-6.3v6c-10.9,0-16.3,2.8-22,5.7C1372,51,1365.7,54.2,1353.3,54.2z"/>
</svg>
