<?xml version="1.0" encoding="utf-8"?>
<!-- Generator: Adobe Illustrator 18.1.0, SVG Export Plug-In . SVG Version: 6.00 Build 0)  -->
<!DOCTYPE svg PUBLIC "-//W3C//DTD SVG 1.1//EN" "http://www.w3.org/Graphics/SVG/1.1/DTD/svg11.dtd">
<svg version="1.1" id="Layer_1" xmlns="http://www.w3.org/2000/svg" xmlns:xlink="http://www.w3.org/1999/xlink" x="0px" y="0px"
	 viewBox="0 0 90 90" enable-background="new 0 0 90 90" xml:space="preserve">
<g>
	<path d="M87.4,38.3c-0.9-1.4-1.7-2.8-2.1-4.1c-0.4-1.4-0.3-3.1-0.3-4.8c0.1-2.4,0.1-4.9-1-6.9c-1.2-2.1-3.4-3.2-5.5-4.4
		c-1.5-0.8-2.9-1.6-3.9-2.6c-1-1-1.8-2.4-2.6-3.9c-1.2-2.1-2.3-4.3-4.4-5.5c-1.6-0.9-3.6-1.1-5.3-1.1c-0.5,0-1.1,0-1.6,0
		C60,5,59.5,5,59,5c-0.9,0-2.1,0-3.2-0.3c-1.4-0.4-2.7-1.2-4.1-2.1C49.6,1.3,47.4,0,45,0s-4.6,1.3-6.7,2.6c-1.4,0.9-2.8,1.7-4.1,2.1
		C33.1,5,31.9,5,31,5c-0.5,0-1.1,0-1.6,0c-0.5,0-1.1,0-1.6,0c-1.7,0-3.7,0.1-5.3,1.1c-2.1,1.2-3.2,3.4-4.4,5.5
		c-0.8,1.5-1.6,2.9-2.6,3.9c-1,1-2.4,1.8-3.9,2.6c-2.1,1.2-4.3,2.3-5.5,4.4c-1.2,2-1.1,4.5-1,6.9c0,1.7,0.1,3.4-0.3,4.8
		c-0.4,1.4-1.2,2.7-2.1,4.1C1.3,40.4,0,42.6,0,45s1.3,4.6,2.6,6.7c0.9,1.4,1.7,2.8,2.1,4.1C5,57.2,5,58.9,4.9,60.6
		c-0.1,2.4-0.1,4.9,1,6.9c1.2,2.1,3.4,3.2,5.5,4.4c1.5,0.8,2.9,1.6,3.9,2.6c1,1,1.8,2.4,2.6,3.9c1.2,2.1,2.3,4.3,4.4,5.5
		c1.6,0.9,3.6,1.1,5.3,1.1c0.5,0,1.1,0,1.6,0c0.5,0,1.1,0,1.6,0c0.9,0,2.1,0,3.2,0.3c1.4,0.4,2.7,1.2,4.1,2.1
		c2.1,1.3,4.2,2.6,6.7,2.6c2.4,0,4.6-1.3,6.7-2.6c1.4-0.9,2.8-1.7,4.1-2.1C56.9,85,58.1,85,59,85c0.5,0,1.1,0,1.6,0
		c0.5,0,1.1,0,1.6,0c1.7,0,3.7-0.1,5.3-1.1c2.1-1.2,3.2-3.4,4.4-5.5c0.8-1.5,1.6-2.9,2.6-3.9c1-1,2.4-1.8,3.9-2.6
		c2.1-1.2,4.3-2.3,5.5-4.4c1.2-2,1.1-4.5,1-6.9c0-1.7-0.1-3.4,0.3-4.8c0.4-1.4,1.2-2.7,2.1-4.1c1.3-2.1,2.6-4.2,2.6-6.7
		S88.6,40.4,87.4,38.3z M74.5,20.4c1.8,2.2,3.4,4.6,4.7,7.1l-1.6,1.6l-5.9-5.9L74.5,20.4z M23.2,50l5.9,5.9l-5.9,5.9l-5.9-5.9
		L23.2,50z M23.2,40l-5.9-5.9l5.9-5.9l5.9,5.9L23.2,40z M24.5,45L45,24.5L65.4,45L45,65.5L24.5,45z M66.7,50l5.9,5.9l-5.9,5.9
		l-5.9-5.9L66.7,50z M60.8,34.1l5.9-5.9l5.9,5.9L66.7,40L60.8,34.1z M62.4,10.8c2.5,1.3,4.9,2.9,7.1,4.7l-2.8,2.8l-5.9-5.9
		L62.4,10.8z M55.8,17.4l5.9,5.9l-5.9,5.9l-5.9-5.9L55.8,17.4z M44.9,6.6c0,0,0.1,0,0.1,0c0,0,0.1,0,0.1,0l5.8,5.8L45,18.3l-5.9-5.9
		L44.9,6.6z M34.1,17.4l5.9,5.9l-5.9,5.9l-5.9-5.9L34.1,17.4z M27.5,10.8l1.6,1.6l-5.9,5.9l-2.8-2.8C22.6,13.7,25,12.1,27.5,10.8z
		 M15.4,20.4l2.8,2.8l-5.9,5.9l-1.6-1.6C12.1,25,13.6,22.6,15.4,20.4z M6.6,45.1C6.6,45.1,6.6,45,6.6,45.1c0-0.1,0-0.2,0-0.2
		l5.8-5.8l5.9,5.9l-5.9,5.9L6.6,45.1z M15.4,69.6c-1.8-2.2-3.4-4.6-4.7-7.1l1.6-1.6l5.9,5.9L15.4,69.6z M27.5,79.2
		c-2.5-1.3-4.9-2.9-7.1-4.7l2.8-2.8l5.9,5.9L27.5,79.2z M34.1,72.6l-5.9-5.9l5.9-5.9l5.9,5.9L34.1,72.6z M45.1,83.4c0,0-0.1,0-0.1,0
		c0,0-0.1,0-0.1,0l-5.8-5.8l5.9-5.9l5.9,5.9L45.1,83.4z M55.8,72.6l-5.9-5.9l5.9-5.9l5.9,5.9L55.8,72.6z M62.4,79.2l-1.6-1.6
		l5.9-5.9l2.8,2.8C67.4,76.3,65,77.9,62.4,79.2z M74.5,69.6l-2.8-2.8l5.9-5.9l1.6,1.6C77.9,65,76.3,67.4,74.5,69.6z M83.4,45.1
		l-5.8,5.8L71.7,45l5.9-5.9l5.8,5.8c0,0,0,0.1,0,0.1S83.4,45.1,83.4,45.1z"/>
	<g>
		<path d="M41.5,34.3l1.3,5l1.1-5h2.4l1.1,4.9l1.3-4.9h2.6l-2.7,9H46l-1-4.8L44,43.3h-2.7l-2.4-9H41.5z"/>
	</g>
	<g>
		<path d="M48,50.6v5.6c0,2-1.5,3.4-3.3,3.5c-1.9,0.1-3.5-1.4-3.5-3.3v-0.7h2.6v0.9c0,0.4,0.4,0.8,0.8,0.8c0.4,0,0.8-0.4,0.8-0.8
			v-6.1H48z"/>
	</g>
	<path d="M53.2,47.4c-0.8,0-1.2-0.3-1.6-0.5c-0.3-0.2-0.5-0.3-1-0.3s-0.7,0.1-1,0.3c-0.3,0.2-0.8,0.5-1.6,0.5
		c-0.8,0-1.2-0.3-1.6-0.5c-0.3-0.2-0.5-0.3-1-0.3c-0.5,0-0.7,0.1-1,0.3c-0.3,0.2-0.8,0.5-1.6,0.5c-0.8,0-1.2-0.3-1.6-0.5
		c-0.3-0.2-0.5-0.3-1-0.3s-0.7,0.1-1,0.3c-0.3,0.2-0.8,0.5-1.6,0.5v-1.1c0.5,0,0.7-0.1,1-0.3c0.3-0.2,0.8-0.5,1.6-0.5
		c0.8,0,1.2,0.3,1.6,0.5c0.3,0.2,0.5,0.3,1,0.3s0.7-0.1,1-0.3c0.3-0.2,0.8-0.5,1.6-0.5c0.8,0,1.2,0.3,1.6,0.5c0.3,0.2,0.5,0.3,1,0.3
		c0.5,0,0.7-0.1,1-0.3c0.3-0.2,0.8-0.5,1.6-0.5c0.8,0,1.2,0.3,1.6,0.5c0.3,0.2,0.5,0.3,1,0.3V47.4z"/>
</g>
</svg>
