<?xml version="1.0" encoding="utf-8"?>
<!-- Generator: Adobe Illustrator 18.1.0, SVG Export Plug-In . SVG Version: 6.00 Build 0)  -->
<!DOCTYPE svg PUBLIC "-//W3C//DTD SVG 1.1//EN" "http://www.w3.org/Graphics/SVG/1.1/DTD/svg11.dtd">
<svg version="1.1" id="Layer_1" xmlns="http://www.w3.org/2000/svg" xmlns:xlink="http://www.w3.org/1999/xlink" x="0px" y="0px"
	 viewBox="0 0 80 35" enable-background="new 0 0 80 35" xml:space="preserve">
<g>
	<g>
		<path d="M39.9,34.9c-5,0-9-4.1-9-9s4.1-9,9-9s9,4.1,9,9S44.8,34.9,39.9,34.9z M39.9,18.4c-4.1,0-7.4,3.3-7.4,7.4s3.3,7.4,7.4,7.4
			s7.4-3.3,7.4-7.4S43.9,18.4,39.9,18.4z"/>
		<polygon points="39.5,29.9 34,24.4 35.1,23.3 39.5,27.6 43.8,23.3 45,24.4 		"/>
	</g>
	<g opacity="0.9">
		<path d="M7,5.9C7,6.1,7.1,6.3,7.2,6.5C7.4,7,7.5,7.3,7.6,7.8c0.5,0.1,1,0.3,1.6,0.4l0.2,0.7C8.8,8.6,8.6,8.5,7.6,8.2
			c0,0.5-0.1,0.7-0.2,0.9C7.2,10.2,6.4,10.8,6,11c-0.5,0.3-1.3,0.7-2.7,0.7c-0.2,0-1,0-1.7-0.2C1.4,11.4,0.2,11,0.2,9.7
			c0-0.2,0-0.7,0.4-1.1c0.4-0.5,1-1,2.3-1.2c0.2,0,0.5-0.1,1.1-0.1c0.4,0,1,0,1.8,0.1L5.1,6.3c-0.3-0.5-0.5-1-0.8-1.4
			c-0.2-0.5-0.4-1-0.4-1.6c0-0.4,0.1-1.2,0.9-1.8c0.3-0.3,1-0.7,2.1-0.7c1.3,0,1.7,0.8,1.7,1.3c0,0.6-0.5,1.1-0.6,1.2
			C7.6,3.7,6.9,4,6.7,4C6.8,3.9,6.9,3.8,7,3.6c0.1-0.2,0.6-1,0.6-1.8C7.6,1.2,7.2,1,6.9,1C6.7,1,6.5,1,6.3,1.2
			C5.6,1.6,5.6,2.5,5.6,2.7c0,0.2,0.1,0.5,0.1,0.7c0.2,0.5,0.5,1.1,0.7,1.5L7,5.9z M4.7,7.6c-0.9,0-2,0.4-2.6,1.2
			C2,9,1.7,9.4,1.7,9.9c0,0.1,0,0.3,0.1,0.5c0.2,0.7,0.8,1,1.5,1c0.3,0,0.6,0,0.8-0.2C5.2,10.9,6,9.8,6,8.7c0-0.5-0.1-0.8-0.2-1
			C5.7,7.7,5.1,7.6,4.7,7.6z"/>
		<path d="M15,10.6c-0.4,0.3-1.7,1.1-3.4,1.1c-0.7,0-1.8-0.2-2.3-0.8c-0.1-0.2-0.3-0.4-0.3-0.9c0-0.4,0.1-1,0.6-1.9
			c0.2-0.4,1-1.6,2.3-2.4c0.1-0.1,0.8-0.4,1.5-0.4c0.1,0,0.3,0,0.5,0.1c0.2,0.1,0.6,0.3,0.6,0.9c0,0.7-0.4,1.5-0.9,2
			C13.4,8.6,13,9.1,12.5,9C12.1,9,12,8.7,12,8.5s0-0.3,0.2-0.5c0.2-0.3,0.5-0.5,1.1-0.9c0.5-0.3,0.7-0.4,0.8-0.7
			c0,0,0.1-0.2,0.1-0.3c0-0.2-0.1-0.5-0.5-0.5c-0.6,0-1.2,0.7-1.6,1.2c-0.3,0.4-0.8,1.3-1.1,2.7c0,0.1-0.1,0.5-0.1,0.9
			c0,0.9,0.7,1,1,1c0.4,0,1.2-0.2,2.2-0.6c0.3-0.1,0.5-0.3,0.8-0.4L15,10.6z"/>
		<path d="M20.7,9.7c0,0-0.4,0.1-0.6,0.1c-0.3,0-1.1-0.1-1.7-0.9c-0.2-0.2-0.2-0.3-0.3-0.6c-0.3,0.4-0.7,1.1-1.2,2.1
			c-0.3,0.5-0.5,1-0.6,1.1c-0.1,0.1-0.3,0.1-0.5,0.1c-0.2,0-0.7,0-0.9-0.5c0-0.1-0.1-0.3-0.1-0.5c0-0.2,0-0.5,0.2-0.9L16.3,6
			l1.9-0.5l-2.1,5.7c0,0,0,0.1,0,0.2c0,0,0,0,0.1,0c0.1,0,0.1-0.1,0.2-0.2c0.2-0.3,0.3-0.7,0.4-1C17,9.6,17.3,9,17.6,8.5
			c0.1-0.3,0.3-0.5,0.4-0.7c0-0.4,0.1-1.2,0.9-1.9c0.4-0.4,0.7-0.4,0.9-0.4c0.4,0,0.6,0.3,0.6,0.5c0,0.2-0.1,0.3-0.2,0.3
			c-0.3,0.2-0.5,0.5-0.8,0.7l-0.9,0.9c0,0.6,0,1.1,0.5,1.5c0.1,0.1,0.4,0.2,0.7,0.2c0.3,0,0.5-0.1,0.8-0.2L20.7,9.7z"/>
		<path d="M27.7,9.4c-0.4,0.1-0.7,0.2-1,0.2c-0.5,0-0.8-0.1-1-0.2c-0.4,0.7-0.9,1.3-1.6,1.8c-0.3,0.2-0.5,0.3-0.8,0.4
			c-0.2,0.1-0.5,0.2-1,0.2c-0.1,0-0.8,0-1.2-0.3c-0.3-0.2-0.6-0.6-0.6-1.3c0-0.5,0.2-1.8,1-2.9c0.3-0.4,0.5-0.6,0.7-0.7
			c0.2-0.2,0.5-0.4,1-0.7c0.3-0.2,0.7-0.3,0.8-0.3C24,5.4,24,5.5,24,5.5s0,0.1-0.1,0.2c0,0.1-0.1,0.2-0.2,0.3
			c-0.2,0.3-0.3,0.6-0.5,0.8c-0.6,1.1-0.9,2.1-1,2.5c0,0.1-0.2,0.6-0.2,1.1c0,0.1,0,0.6,0.3,0.9c0.1,0,0.2,0.1,0.4,0.1
			c0.2,0,0.5-0.1,0.8-0.4c0.7-0.6,1-1.3,1.3-2.1c-0.3-0.4-0.9-1-0.9-2.3C24,6.3,24,6,24,6c0,0,0.2-1.2,1-1.2c0.3,0,0.6,0.2,0.7,0.3
			c0.3,0.3,0.7,0.7,0.7,1.6c0,0.5-0.1,1.4-0.6,2.4c0.1,0,0.5,0.2,0.9,0.2c0.5,0,0.9-0.2,1-0.3L27.7,9.4z M25.3,6.8
			c0-0.8-0.2-1.6-0.5-1.6c-0.4,0-0.4,1-0.4,1.2c0,0.9,0.3,1.4,0.7,2.1C25.2,7.7,25.3,7.3,25.3,6.8z"/>
		<path d="M29.3,9.6c-0.1,0.2-0.3,0.8-0.3,1.1c0,0.4,0.3,0.6,0.6,0.6c0.2,0,0.4-0.1,0.6-0.1c0.7-0.2,1.2-0.6,1.4-0.7l0.1,0.3
			c-1.1,0.7-1.5,0.9-2.2,1c-0.1,0-0.3,0.1-0.7,0.1c-0.1,0-0.7,0-1.1-0.3c-0.3-0.3-0.5-0.5-0.5-0.9c0-0.4,0.1-0.7,0.2-1.1l2.8-8
			l1.9-0.5L29.3,9.6z"/>
		<path d="M33.4,9.6c-0.1,0.2-0.3,0.8-0.3,1.1c0,0.4,0.3,0.6,0.6,0.6c0.2,0,0.4-0.1,0.6-0.1c0.7-0.2,1.2-0.6,1.4-0.7l0.1,0.3
			c-1.1,0.7-1.5,0.9-2.2,1c-0.1,0-0.3,0.1-0.7,0.1c-0.1,0-0.7,0-1.1-0.3c-0.3-0.3-0.5-0.5-0.5-0.9c0-0.4,0.1-0.7,0.2-1.1l2.8-8
			l1.9-0.5L33.4,9.6z"/>
		<path d="M43.2,11.3c0.2-0.1,0.5-0.1,0.7-0.6c0.2-0.3,0.4-0.9,0.7-1.7l1.2-3.6c0.2-0.5,0.3-0.8,0.6-1.2c0.3-0.5,0.5-0.8,0.9-1.2
			c0.2-0.2,0.4-0.4,0.6-0.6c0.4-0.3,0.8-0.7,1.3-1l0.2,0.2C49.2,1.8,49.1,2,49,2.2c-0.5,1-0.8,1.9-1,2.3l-1.2,3.7
			c-0.2,0.4-0.4,1-1,1.7c-0.7,0.9-1.4,1.2-1.8,1.4c0.4,0,0.9,0,1.3,0c1.3,0,3.1-0.2,4.8-2.6c0.2-0.3,0.4-0.7,0.6-1
			c0.1-0.3,1-1.9,1-3.4c0-0.3,0-1.3-0.6-2.1C50.6,1.6,49.6,1,47.9,1c-2.9,0-4.6,1.5-5.4,2.2c-0.7,0.6-1.3,1.4-1.7,2.2
			c-0.5,0.9-0.7,1.4-0.7,1.9c0,0.8,0.4,1.1,0.6,1.4l-0.2,0.2c-0.3-0.3-0.8-0.8-0.8-1.9c0-0.2,0-0.7,0.1-1.2C40,4.9,40.6,4,41.1,3.4
			c0.3-0.4,1.2-1.2,2.5-1.8c0.7-0.3,2.2-0.8,4.2-0.8c0.6,0,2.7,0,4.2,1.4c0.7,0.6,1,1.2,1.1,1.5c0.2,0.7,0.3,1.3,0.3,1.5
			c0,1.5-0.6,2.6-0.9,3c-0.8,1.2-1.9,2.1-2.3,2.3c-0.9,0.6-2.1,1.2-4.4,1.2c-0.8,0-1.6-0.1-2.5-0.2V11.3z"/>
		<path d="M61,9.4c-0.4,0.1-0.7,0.2-1,0.2c-0.5,0-0.8-0.1-1-0.2c-0.4,0.7-0.9,1.3-1.6,1.8c-0.3,0.2-0.5,0.3-0.8,0.4
			c-0.2,0.1-0.5,0.2-1,0.2c-0.1,0-0.8,0-1.2-0.3c-0.3-0.2-0.6-0.6-0.6-1.3c0-0.5,0.2-1.8,1-2.9c0.3-0.4,0.5-0.6,0.7-0.7
			c0.2-0.2,0.5-0.4,1-0.7c0.3-0.2,0.7-0.3,0.8-0.3c0.1,0,0.1,0.1,0.1,0.1s0,0.1-0.1,0.2C57.1,5.8,57,5.9,57,6
			c-0.2,0.3-0.3,0.6-0.5,0.8c-0.6,1.1-0.9,2.1-1,2.5c0,0.1-0.2,0.6-0.2,1.1c0,0.1,0,0.6,0.3,0.9c0.1,0,0.2,0.1,0.4,0.1
			c0.2,0,0.5-0.1,0.8-0.4c0.7-0.6,1-1.3,1.3-2.1c-0.3-0.4-0.9-1-0.9-2.3c0-0.2,0-0.5,0-0.6c0,0,0.2-1.2,1-1.2c0.3,0,0.6,0.2,0.7,0.3
			c0.3,0.3,0.7,0.7,0.7,1.6c0,0.5-0.1,1.4-0.6,2.4c0.1,0,0.5,0.2,0.9,0.2c0.5,0,0.9-0.2,1-0.3L61,9.4z M58.5,6.8
			c0-0.8-0.2-1.6-0.5-1.6c-0.4,0-0.4,1-0.4,1.2c0,0.9,0.3,1.4,0.7,2.1C58.4,7.7,58.5,7.3,58.5,6.8z"/>
		<path d="M71.8,10.2c-0.3,0-1,0.1-1.6-0.3c-0.2-0.1-0.3-0.2-0.5-0.3c-0.2,0.3-0.4,0.6-1,1.1c-0.3,0.3-1.2,1.1-2.5,1.1
			c-0.7,0-1-0.1-1.3-0.3c-0.1-0.1-0.3-0.2-0.3-0.3c-0.2,0.1-1.2,0.6-2.1,0.6c-0.3,0-0.6,0-0.7-0.1c-0.9-0.2-1.1-0.8-1.1-1.2
			c0-0.3,0.2-0.7,0.2-0.7L62.2,6l1.9-0.5L62.4,10c0,0-0.2,0.4-0.2,0.7c0,0.4,0.3,0.6,0.7,0.6c0.5,0,1-0.3,1.4-0.5
			c0-0.1-0.1-0.2-0.1-0.3c0-0.2,0.1-0.4,0.2-0.6L65.9,6l1.9-0.5l-1.7,4.7c0,0-0.2,0.5-0.2,0.7c0,0.3,0.2,0.5,0.6,0.5
			c0.7,0,1.3-0.7,1.4-0.8c0.4-0.5,0.8-1.2,0.9-1.3C68.9,9.2,69,9,69,8.8c-0.2-0.3-0.8-1.1-0.8-2.2c0-0.1,0-0.3,0.1-0.6
			c0.1-0.5,0.5-1,1-1c0.2,0,0.3,0,0.5,0.1C70,5.2,70.4,5.5,70.6,6c0.1,0.3,0.1,0.6,0.1,0.6c0,0.2,0,0.5-0.1,0.9
			c-0.2,0.8-0.6,1.5-0.7,1.7c0.3,0.3,0.7,0.5,1.6,0.5c0.2,0,0.4,0,0.5,0L71.8,10.2z M69.6,6.4c0,0,0-0.3,0-0.6c0,0,0-0.2-0.2-0.4
			c0-0.1-0.2-0.2-0.3-0.2c0,0-0.1,0-0.2,0.1c-0.2,0.2-0.3,0.5-0.3,1.1c0,1,0.3,1.7,0.5,2C69.2,8.4,69.6,7.3,69.6,6.4z"/>
		<path d="M77.2,9.9c-0.1,0.2-0.2,0.5-0.2,0.8c0,0.2,0.1,0.5,0.5,0.5c0.6,0,1.6-0.6,2.1-0.9l0.2,0.2c-0.2,0.1-0.4,0.2-0.6,0.4
			c-0.7,0.4-1.3,0.7-2.1,0.7c-0.1,0-0.3,0-0.6-0.1c-0.3-0.1-1.1-0.4-1.1-1.3c0-0.3,0.1-0.6,0.2-0.7L77,6c0-0.1,0-0.2,0-0.2
			c-0.1,0-0.3,0.2-0.3,0.3c-1,0.9-1.8,2.3-2,2.6C74.5,9,74.2,9.4,74,9.8c-0.2,0.4-0.5,0.8-0.7,1.2c-0.2,0.3-0.4,0.7-0.9,0.7
			c-0.3,0-1,0-1-0.9c0-0.3,0.1-0.6,0.2-0.9L73,6l1.9-0.5l-2.1,5.5c0,0.1-0.1,0.1-0.1,0.2c0,0,0,0.1,0.1,0.1c0,0,0.1,0,0.1,0
			c0-0.1,0.2-0.4,0.3-0.7c0.1-0.3,1.1-2.2,2-3.5c0.3-0.3,0.5-0.6,0.8-0.9c0.1-0.1,0.8-0.9,1.6-0.9c0.2,0,0.9,0.1,0.9,0.8
			c0,0.2,0,0.3-0.2,0.6L77.2,9.9z"/>
	</g>
</g>
</svg>
