<?xml version="1.0" encoding="utf-8"?>
<!-- Generator: Adobe Illustrator 18.0.0, SVG Export Plug-In . SVG Version: 6.00 Build 0)  -->
<!DOCTYPE svg PUBLIC "-//W3C//DTD SVG 1.1//EN" "http://www.w3.org/Graphics/SVG/1.1/DTD/svg11.dtd">
<svg version="1.1" id="Layer_1" xmlns="http://www.w3.org/2000/svg" xmlns:xlink="http://www.w3.org/1999/xlink" x="0px" y="0px"
	 viewBox="0 0 760 116.3" enable-background="new 0 0 760 116.3" xml:space="preserve">
<g>
	<g>
		<path fill="#231F20" d="M95.7,3.6v28.4H64.4v80.9H31.7V32.1H2V3.6H95.7z"/>
		<path fill="#E5C64F" d="M66.4,114.9H29.7V34.1H0V1.6h97.7v32.5H66.4V114.9z M33.7,110.9h28.7V30.1h31.3V5.6H4v24.4h29.7V110.9z"/>
	</g>
	<g>
		<path fill="#231F20" d="M180.2,3.6h32.1v109.3h-32.1V70.9h-32.5v42.1h-32.1V3.6h32.1v37.4h32.5V3.6z"/>
		<path fill="#E5C64F" d="M214.3,114.9h-36.1V72.9h-28.5v42.1h-36.1V1.6h36.1v37.4h28.5V1.6h36.1V114.9z M182.2,110.9h28.1V5.6
			h-28.1v37.4h-36.5V5.6h-28.1v105.3h28.1V68.9h36.5V110.9z"/>
	</g>
	<g>
		<path fill="#231F20" d="M325.4,31.7h-59.1V45h49.8v25.2h-49.8v15h60.2v27.8l-92.3,0.1V3.6h91.2V31.7z"/>
		<path fill="#E5C64F" d="M232.2,115.1V1.6h95.2v32.1h-59.1V43h49.8v29.2h-49.8v11h60.2v31.8L232.2,115.1z M236.2,5.6v105.4
			l88.3-0.1V87.2h-60.2v-19h49.8V47h-49.8V29.7h59.1v-24H236.2z"/>
	</g>
	<g>
		<path fill="#231F20" d="M412.7,112.9h-32.1V3.6h56.2c27.5,0,39.5,15.5,39.5,36.8c0,21.2-19.7,39.3-37,39.3h-26.5V112.9z
			 M442.7,41.8c-0.3-7.2-6.3-11.2-12.5-11.2h-17.6V54h19.1C436.5,54,442.7,49.8,442.7,41.8z"/>
		<path fill="#E5C64F" d="M414.7,114.9h-36.1V1.6h58.2c26.4,0,41.5,14.1,41.5,38.8c0,10.3-4.6,20.9-12.6,29
			c-7.6,7.7-17.5,12.3-26.4,12.3h-24.5V114.9z M382.5,110.9h28.1V77.7h28.5c15.9,0,35-16.7,35-37.3c0-13-4.9-34.7-37.5-34.7h-54.2
			V110.9z M431.7,56h-21.1V28.6h19.6c7,0,14.2,4.5,14.5,13.1C444.8,50.6,438,56,431.7,56z M414.7,52h17.1c3.6,0,9-3.3,9-10.2
			c-0.2-6.3-5.6-9.2-10.5-9.2h-15.6V52z"/>
	</g>
	<g>
		<path fill="#231F20" d="M528.8,3.6v109.3h-32.1V3.6H528.8z"/>
		<path fill="#E5C64F" d="M530.8,114.9h-36.1V1.6h36.1V114.9z M498.6,110.9h28.1V5.6h-28.1V110.9z"/>
	</g>
	<g>
		<path fill="#231F20" d="M641.9,31.7h-59.1V45h49.8v25.2h-49.8v15H643v27.8l-92.3,0.1V3.6h91.2V31.7z"/>
		<path fill="#E5C64F" d="M548.7,115.1V1.6h95.2v32.1h-59.1V43h49.8v29.2h-49.8v11H645v31.8L548.7,115.1z M552.7,5.6v105.4l88.3-0.1
			V87.2h-60.2v-19h49.8V47h-49.8V29.7h59.1v-24H552.7z"/>
	</g>
	<g>
		<path fill="#231F20" d="M718.8,43.4c12.1,3.1,30.6,7.8,36.6,22.7c3.3,8,3.9,18.9-2.4,28.7c-10.3,15.8-29,19.2-41,19.5
			c-10.1,0.4-33.2-2.2-44.2-16.5c-4.4-5.9-6.1-12-6.7-20.4h32.1c1.9,6.5,4.8,10.5,11.7,12.1c18,2.5,20.7-7.6,19.9-10.3
			c-1.5-5.6-15.1-7.5-24.5-10.5C685.7,64.2,670.2,59,665,45c-2.5-6.7-1.9-20.4,3.4-28.3c8.3-11.8,24-14.6,35.4-14.7
			c10.5,0,32.5,0.4,42.3,13.6c3.1,4.2,5.7,11.8,5.9,19.1h-30.9c-2-5.9-7.6-9.5-14.6-9.4c-10.6,0.4-11.8,6.9-11.2,9
			C696.7,39.4,709.1,40.5,718.8,43.4z"/>
		<path fill="#E5C64F" d="M709.9,116.3c-14,0-33.9-4.5-43.8-17.3c-4.4-6-6.5-12.2-7.1-21.5l-0.1-2.1h35.8l0.4,1.4
			c1.9,6.6,4.6,9.4,10.1,10.7c1.7,0.2,3.4,0.3,4.9,0.3c6.8,0,10-2.3,11.4-4.3c1.3-1.8,1.4-3.5,1.3-3.9c-0.8-3.2-9.1-5.3-15.7-7.1
			c-2.5-0.7-5.1-1.3-7.4-2.1c-13.7-4.2-30.8-9.5-36.5-24.9c-2.8-7.6-2-21.8,3.6-30.1c4.9-7,15.3-15.3,37-15.6c0,0,0.1,0,0.1,0
			c9.2,0,33.2,0,43.9,14.4c3.6,4.9,6.1,13,6.2,20.2l0,2h-34.4l-0.5-1.3c-1.7-5-6.4-8.1-12.3-8.1l-0.3,0c-5.2,0.2-7.5,2-8.5,3.4
			c-1,1.4-0.9,2.7-0.8,2.9l0,0.1c0.7,2.6,7.7,4.2,13.9,5.7c2.7,0.6,5.5,1.3,8.1,2l0.3,0.1c12.5,3.2,31.3,8.1,37.6,23.8
			c2,4.9,5.7,17.7-2.6,30.6c-11.2,17.1-31.5,20.1-42.6,20.4C711.4,116.3,710.7,116.3,709.9,116.3z M663.2,79.4
			c0.7,7.3,2.5,12.4,6.1,17.2c8.9,11.6,27.5,15.7,40.6,15.7c0.7,0,1.4,0,2,0c10.3-0.2,29.2-3,39.4-18.6c7.3-11.2,4-22.5,2.3-26.9
			C748,53,730.4,48.4,718.7,45.4l-0.4-0.1c-2.6-0.8-5.3-1.4-8-2c-8.3-1.9-15.5-3.6-16.9-8.5c-0.5-1.6-0.3-4.1,1.3-6.4
			c1.5-2.2,4.8-4.9,11.7-5.1l0.4,0c7.1,0,12.9,3.6,15.5,9.4h27.4c-0.5-5.8-2.6-12.1-5.4-15.9C735,4,712.3,4,703.8,4
			c-11,0.1-25.9,2.6-33.7,13.8c-5.1,7.6-5.3,20.7-3.2,26.5c5,13.5,21.1,18.5,34,22.5c2.2,0.7,4.8,1.4,7.3,2
			c8.8,2.3,17.1,4.5,18.6,9.8c0.5,1.7,0.1,4.7-1.9,7.4c-2,2.7-6.2,5.9-14.7,5.9c-1.7,0-3.6-0.1-5.5-0.4l-0.2,0
			c-8-1.9-11-6.8-12.7-12.1H663.2z"/>
	</g>
</g>
</svg>
