<?xml version="1.0" encoding="utf-8"?>
<!-- Generator: Adobe Illustrator 18.0.0, SVG Export Plug-In . SVG Version: 6.00 Build 0)  -->
<!DOCTYPE svg PUBLIC "-//W3C//DTD SVG 1.1//EN" "http://www.w3.org/Graphics/SVG/1.1/DTD/svg11.dtd">
<svg version="1.1" id="Layer_1" xmlns="http://www.w3.org/2000/svg" xmlns:xlink="http://www.w3.org/1999/xlink" x="0px" y="0px"
	 viewBox="0 0 760 103" enable-background="new 0 0 760 103" xml:space="preserve">
<g>
	<g>
		<path fill="#231F20" d="M85.8,1.8v25.5H57.7v72.5H28.4V27.3H1.8V1.8H85.8z"/>
		<path fill="#E5C64F" d="M59.5,101.6H26.6V29.1H0V0h87.6v29.1H59.5V101.6z M30.2,98h25.7V25.5H84V3.6H3.6v21.9h26.6V98z"/>
	</g>
	<g>
		<path fill="#231F20" d="M161.6,1.8h28.8v98h-28.8V62.1h-29.2v37.7h-28.8v-98h28.8v33.6h29.2V1.8z"/>
		<path fill="#E5C64F" d="M192.2,101.6h-32.4V63.9h-25.6v37.7h-32.4V0h32.4v33.6h25.6V0h32.4V101.6z M163.4,98h25.2V3.6h-25.2v33.6
			h-32.8V3.6h-25.2V98h25.2V60.3h32.8V98z"/>
	</g>
	<g>
		<path fill="#231F20" d="M291.9,27h-53v12h44.7v22.6h-44.7v13.4h54v24.9l-82.8,0.1V1.8h81.8V27z"/>
		<path fill="#E5C64F" d="M208.3,101.8V0h85.4v28.7h-53v8.4h44.7v26.2h-44.7v9.8h54v28.5L208.3,101.8z M211.9,3.6v94.6l79.2-0.1
			V76.7h-54v-17h44.7v-19h-44.7V25.2h53V3.6H211.9z"/>
	</g>
	<g>
		<path fill="#231F20" d="M419,1.8V27h-48.7v13.9h40v23.6h-40v35.4h-28.9v-98H419z"/>
		<path fill="#E5C64F" d="M372.1,101.6h-32.5V0h81.2v28.7h-48.7v10.3h40v27.2h-40V101.6z M343.1,98h25.3V62.6h40v-20h-40V25.2h48.7
			V3.6h-74.1V98z"/>
	</g>
	<g>
		<path fill="#231F20" d="M480.5,0.3C513.6,0.1,531,23,531,50.9s-17.5,50.3-50.5,50.3c-34.7,0-51-22.7-51-50.5S445.8,0.3,480.5,0.3z
			 M480.9,80.9c13.8,0,20.6-13.8,20.4-30.2c-0.4-15.8-6.6-30-20.4-30c-15.9,0-22.1,13.2-22.1,30.9C458.6,68.1,464.6,80.9,480.9,80.9
			z"/>
		<path fill="#E5C64F" d="M480.5,103c-39,0-52.8-27-52.8-52.3c0-32.1,20.2-52.1,52.8-52.1l0.5,0c16,0,29.3,5.4,38.6,15.5
			c8.5,9.3,13.2,22.4,13.2,36.9c0,14.5-4.7,27.6-13.4,36.8C510.2,97.7,496.7,103,480.5,103z M481,2.1l-0.5,0
			c-15.8,0-28.6,4.9-37.2,14.1c-7.9,8.5-12,20.4-12,34.4c0,14,4.2,25.9,12,34.5c8.6,9.3,21.4,14.3,37.2,14.3
			c29.6,0,48.7-19,48.7-48.5c0-13.6-4.4-25.8-12.3-34.4C508.4,7.1,496,2.1,481,2.1z M480.9,82.7c-6.7,0-12.1-2-16.1-6.1
			c-5.2-5.2-7.9-13.9-7.8-25c0-21.1,8.5-32.7,23.9-32.7c10.4,0,21.6,8.4,22.2,31.8c0.2,11.1-2.9,20.7-8.4,26.3
			C490.9,80.8,486.3,82.7,480.9,82.7z M480.9,22.5c-9.3,0-20.3,5-20.3,29.1c-0.1,10.2,2.3,18,6.8,22.5c3.3,3.3,7.9,5,13.5,5
			c4.4,0,8.2-1.6,11.2-4.6c4.8-4.9,7.5-13.5,7.4-23.7C499.1,37.1,494.1,22.5,480.9,22.5z"/>
	</g>
	<g>
		<path fill="#231F20" d="M598,0.3C631,0.1,648.5,23,648.5,50.9S631,101.2,598,101.2c-34.7,0-51-22.7-51-50.5S563.3,0.3,598,0.3z
			 M598.3,80.9c13.8,0,20.6-13.8,20.4-30.2c-0.4-15.8-6.6-30-20.4-30c-15.9,0-22.1,13.2-22.1,30.9C576.1,68.1,582.1,80.9,598.3,80.9
			z"/>
		<path fill="#E5C64F" d="M598,103c-39,0-52.8-27-52.8-52.3c0-32.1,20.2-52.1,52.8-52.1l0.5,0c16,0,29.3,5.4,38.6,15.5
			c8.5,9.3,13.2,22.4,13.2,36.9c0,14.5-4.7,27.6-13.4,36.8C627.6,97.7,614.1,103,598,103z M598.5,2.1l-0.5,0
			c-15.8,0-28.6,4.9-37.2,14.1c-7.9,8.5-12,20.4-12,34.4c0,14,4.2,25.9,12,34.5c8.6,9.3,21.4,14.3,37.2,14.3
			c29.6,0,48.7-19,48.7-48.5c0-13.6-4.4-25.8-12.3-34.4C625.9,7.1,613.4,2.1,598.5,2.1z M598.3,82.7c-6.7,0-12.1-2-16.1-6.1
			c-5.2-5.2-7.9-13.9-7.8-25c0-21.1,8.5-32.7,23.9-32.7c10.4,0,21.6,8.4,22.2,31.8c0.2,11.1-2.9,20.7-8.4,26.3
			C608.4,80.8,603.7,82.7,598.3,82.7z M598.3,22.5c-9.3,0-20.3,5-20.3,29.1c-0.1,10.2,2.3,18,6.8,22.5c3.3,3.3,7.9,5,13.5,5
			c4.4,0,8.2-1.6,11.2-4.6c4.8-4.9,7.5-13.5,7.4-23.7C616.6,37.1,611.5,22.5,598.3,22.5z"/>
	</g>
	<g>
		<path fill="#231F20" d="M666.6,1.8h40.8c31.7,0,50.8,19.9,50.9,46.9c-0.4,27.5-15.1,51.3-47.4,51.2l-44.3,0.1V1.8z M702.5,27.1
			h-7.1v49h7.6c15.8,0,25.6-11.7,26-25.9C729.4,36.5,719.4,27.1,702.5,27.1z"/>
		<path fill="#E5C64F" d="M664.8,101.8V0h42.6c31.4,0,52.6,19.6,52.7,48.7c-0.2,14.9-4.4,27.7-12.1,37c-8.6,10.4-21.4,16-36.8,16
			l-0.3,0L664.8,101.8z M668.4,3.6v94.6l42.5-0.1l0.3,0c32.9,0,45-25.5,45.3-49.4c-0.1-13-4.6-24.1-13-32.2
			C734.6,8,722.2,3.6,707.3,3.6H668.4z M702.9,77.8h-9.4V25.3h8.9c9.5,0,17.1,2.8,22.2,8c4.2,4.4,6.3,10.2,6.1,16.9
			C730.3,66.2,718.6,77.8,702.9,77.8z M697.2,74.2h5.8c13.9,0,23.8-9.9,24.2-24.1c0.2-5.7-1.6-10.6-5.1-14.3
			c-4.4-4.5-11.2-6.9-19.6-6.9h-5.3V74.2z"/>
	</g>
</g>
</svg>
