<?xml version="1.0" encoding="utf-8"?>
<!-- Generator: Adobe Illustrator 18.0.0, SVG Export Plug-In . SVG Version: 6.00 Build 0)  -->
<!DOCTYPE svg PUBLIC "-//W3C//DTD SVG 1.1//EN" "http://www.w3.org/Graphics/SVG/1.1/DTD/svg11.dtd">
<svg version="1.1" id="Layer_1" xmlns="http://www.w3.org/2000/svg" xmlns:xlink="http://www.w3.org/1999/xlink" x="0px" y="0px"
	 viewBox="0 0 30 30" enable-background="new 0 0 30 30" xml:space="preserve">
<path d="M15,0C6.7,0,0,6.7,0,15s6.7,15,15,15c8.3,0,15-6.7,15-15S23.3,0,15,0z M20.2,15.1c-1.1,4.6-8.6,6.6-12,1.8
	c1.3,1.3,3.6,1.4,5.1-0.1c-0.9,0.1-1.5-0.7-0.4-1.2c-0.9,0.1-1.5-0.4-1.7-0.8c0.2-0.2,0.5-0.3,0.9-0.4c-1-0.2-1.4-0.8-1.5-1.4
	c0.3-0.1,0.6-0.1,0.8-0.1c-0.9-0.5-1.2-1.2-1.2-1.8c1.6,0.6,2.6,1.1,3.5,1.6c0.3,0.2,0.7,0.5,1,0.8c0.5-1.3,1.1-2.7,2.1-3.4
	c0,0.2-0.1,0.3-0.2,0.4c0.3-0.3,0.7-0.5,1.1-0.5c0,0.3-0.5,0.5-0.7,0.6c0.2-0.1,1.2-0.5,1.3-0.3c0.1,0.3-0.7,0.4-0.8,0.5
	c-0.1,0-0.2,0.1-0.3,0.1c1.3-0.1,2.5,1,2.9,2.3c0,0.1,0.1,0.2,0.1,0.3c0.5,0.2,1.3,0,1.6-0.2c-0.2,0.5-0.7,0.8-1.5,0.9
	c0.4,0.2,1.1,0.2,1.5,0.2C21.5,14.8,21,15.1,20.2,15.1z"/>
</svg>
