<?xml version="1.0" encoding="utf-8"?>
<!-- Generator: Adobe Illustrator 18.0.0, SVG Export Plug-In . SVG Version: 6.00 Build 0)  -->
<!DOCTYPE svg PUBLIC "-//W3C//DTD SVG 1.1//EN" "http://www.w3.org/Graphics/SVG/1.1/DTD/svg11.dtd">
<svg version="1.1" id="Layer_1" xmlns="http://www.w3.org/2000/svg" xmlns:xlink="http://www.w3.org/1999/xlink" x="0px" y="0px"
	 viewBox="0 0 1075 25" enable-background="new 0 0 1075 25" xml:space="preserve">
<path fill="#E5C64F" d="M1038.2,0c-9.2,0-9.2,4-18.4,4c-9.2,0-9.2-4-18.4-4c-9.2,0-9.2,4-18.4,4c-9.2,0-9.2-4-18.4-4
	c-9.2,0-9.2,4-18.4,4c-9.2,0-9.2-4-18.4-4c-9.2,0-9.2,4-18.4,4c-9.2,0-9.2-4-18.4-4c-9.2,0-9.2,4-18.4,4c-9.2,0-9.2-4-18.4-4
	c-9.2,0-9.2,4-18.4,4c-9.2,0-9.2-4-18.4-4c-9.2,0-9.2,4-18.4,4c-9.2,0-9.2-4-18.4-4c-9.2,0-9.2,4-18.4,4c-9.2,0-9.2-4-18.4-4
	c-9.2,0-9.2,4-18.4,4c-9.2,0-9.2-4-18.4-4c-9.2,0-9.2,4-18.4,4h-0.8c-9.2,0-9.2-4-18.4-4s-9.2,4-18.4,4c-9.2,0-9.2-4-18.4-4
	c-9.2,0-9.2,4-18.4,4c-9.2,0-9.2-4-18.4-4c-9.2,0-9.2,4-18.4,4c-9.2,0-9.2-4-18.4-4s-9.2,4-18.4,4c-9.2,0-9.2-4-18.4-4
	c-9.2,0-9.2,4-18.4,4c-9.2,0-9.2-4-18.4-4c-9.2,0-9.2,4-18.4,4c-9.2,0-9.2-4-18.4-4c-9.2,0-9.2,4-18.4,4c-9.2,0-9.2-4-18.4-4
	c-9.2,0-9.2,4-18.4,4c-9.2,0-9.2-4-18.4-4c-9.2,0-9.2,4-18.4,4c-9.2,0-9.2-4-18.4-4c-9.2,0-9.2,4-18.4,4c-9.2,0-9.2-4-18.4-4
	c-9.2,0-9.2,4-18.4,4c-9.2,0-9.2-4-18.4-4c-9.2,0-9.2,4-18.4,4c-9.2,0-9.2-4-18.4-4c-9.2,0-9.2,4-18.4,4c-9.2,0-9.2-4-18.4-4
	c-9.2,0-9.2,4-18.4,4c-9.2,0-9.2-4-18.4-4c-9.2,0-9.2,4-18.4,4c-9.2,0-9.2-4-18.4-4C108,0,108,4,98.8,4c-9.2,0-9.2-4-18.4-4
	C71.2,0,71.2,4,62,4c-9.2,0-9.2-4-18.4-4c-9.2,0-9.2,4-18.4,4C16,4,16,0,6.8,0c-3,0-5.1,0.4-6.8,1v25.1h1075V0c-9.2,0-9.2,4-18.4,4
	C1047.4,4,1047.4,0,1038.2,0z"/>
</svg>
