<?xml version="1.0" encoding="utf-8"?>
<!-- Generator: Adobe Illustrator 18.0.0, SVG Export Plug-In . SVG Version: 6.00 Build 0)  -->
<!DOCTYPE svg PUBLIC "-//W3C//DTD SVG 1.1//EN" "http://www.w3.org/Graphics/SVG/1.1/DTD/svg11.dtd">
<svg version="1.1" id="Layer_1" xmlns="http://www.w3.org/2000/svg" xmlns:xlink="http://www.w3.org/1999/xlink" x="0px" y="0px"
	 viewBox="0 0 550 250.9" enable-background="new 0 0 550 250.9" xml:space="preserve">
<g>
	<path fill="#231F20" d="M110.6,233.6h-8.9c-0.7,0-1.3-0.6-1.3-1.3c0-0.7,0.6-1.3,1.3-1.3h8.9c0.7,0,1.3,0.6,1.3,1.3
		C111.9,233,111.3,233.6,110.6,233.6z M91.5,233.6H81.2c-0.7,0-1.3-0.6-1.3-1.3c0-0.7,0.6-1.3,1.3-1.3h10.3c0.7,0,1.3,0.6,1.3,1.3
		C92.8,233,92.2,233.6,91.5,233.6z"/>
	<path fill="#231F20" d="M475.3,233.6h-10.3c-0.7,0-1.3-0.6-1.3-1.3c0-0.7,0.6-1.3,1.3-1.3h10.3c0.7,0,1.3,0.6,1.3,1.3
		C476.6,233,476,233.6,475.3,233.6z M454.8,233.6h-10.3c-0.7,0-1.3-0.6-1.3-1.3c0-0.7,0.6-1.3,1.3-1.3h10.3c0.7,0,1.3,0.6,1.3,1.3
		C456.1,233,455.5,233.6,454.8,233.6z"/>
	<g>
		<path fill="#231F20" d="M130.3,233.6c-3,0-4-1-4-4v-2.7c0-3,1.1-4,4-4h4.5c3,0,4,1.1,4,4v0.8l-3.9,0.8v-2h-4.6v3.7h4.8
			c3,0,4,1,4,4v2.9c0,3-1,4-4,4h-5c-3,0-4-1-4-4v-1l4-1v2.3h5.1v-3.9H130.3z"/>
		<path fill="#231F20" d="M154,241.1l-4.9-18.3h4.1l2.4,10l2.5-10h3.8l2.4,10l2.5-10h3.9l-4.9,18.3h-3.1l-2.8-10.5l-2.8,10.5H154z"
			/>
		<path fill="#231F20" d="M182.4,222.9h14.9v3.8h-10.9v3.2h9.3v3.6h-9.3v3.9h11.1v3.8h-15V222.9z"/>
		<path fill="#231F20" d="M208.7,222.9h14.9v3.8h-10.9v3.2h9.3v3.6h-9.3v3.9h11.1v3.8h-15V222.9z"/>
		<path fill="#231F20" d="M243.3,241.1h-4v-14.5h-4.3v-3.8h12.5v3.8h-4.3V241.1z"/>
	</g>
	<g>
		<path fill="#231F20" d="M319,233.6c-3,0-4-1-4-4V227c0-3,1.1-4,4-4h4.5c3,0,4,1.1,4,4v0.8l-3.9,0.8v-2h-4.6v3.7h4.8c3,0,4,1,4,4
			v2.9c0,3-1,4-4,4h-5c-3,0-4-1-4-4v-1l4-1v2.3h5.1v-3.9H319z"/>
		<path fill="#231F20" d="M340.6,222.9h5.1l5,18.3h-4.2l-1-4.1h-4.9l-1,4.1h-4L340.6,222.9z M344.7,233.5l-1.6-6.9l-1.6,6.9H344.7z"
			/>
		<path fill="#231F20" d="M355.8,222.9h4.1l3.4,11.5l3.4-11.5h3.9l-6,18.3h-3L355.8,222.9z"/>
		<path fill="#231F20" d="M387,234.6h-5c-3,0-4-1-4-4V227c0-3,1-4,4-4h5c3,0,4,1.1,4,4v3.7C391,233.6,390,234.6,387,234.6z
			 M387.1,230.9v-4.2H382v4.2H387.1z"/>
		<path fill="#231F20" d="M413.6,241.2h-4.3l-3.2-7h-1.6v7h-3.9v-18.3h7.5c1.4,0,2.1,0.1,2.7,0.5c1,0.6,1.3,1.4,1.3,3.5v3.2
			c0,1.2-0.1,1.7-0.3,2.2c-0.3,0.8-0.7,1.1-1.8,1.6L413.6,241.2z M407.1,230.6c0.8,0,1.1-0.2,1.1-1.1v-1.7c0-0.9-0.2-1.1-1.1-1.1
			h-2.7v3.9H407.1z"/>
		<path fill="#231F20" d="M425.6,233.1l-5.3-10.2h4.1l3.2,6.5l3.2-6.5h4l-5.3,10v8.2h-3.9V233.1z"/>
		<path fill="#231F20" d="M386.4,239.1c0-1.1-0.9-2-2-2c-1.1,0-2,0.9-2,2c0,1.1,0.9,2,2,2C385.5,241.1,386.4,240.2,386.4,239.1z"/>
	</g>
	<g>
		<path fill="#231F20" d="M279.9,215.8c-9.7,0-17.5,7.8-17.5,17.5c0,9.7,7.8,17.5,17.5,17.5c9.7,0,17.5-7.9,17.5-17.5
			C297.4,223.6,289.6,215.8,279.9,215.8z M284.2,241.1l-2-2.5l-1.1,1.3c-0.9,1-1.3,1.2-2.6,1.2h-3.4c-2.3,0-3.1-1-3.1-4v-1.9
			c0-0.8,0.1-1.3,0.3-1.8c0.2-0.5,0.7-1.1,1.5-1.8l1.6-1.5c-0.4-0.5-0.5-0.7-0.7-0.9c-0.4-0.6-0.6-1.2-0.6-2.1v-0.6
			c0-2.7,0.8-3.7,3.1-3.7h3.7c1.1,0,1.6,0.1,2.1,0.5c0.8,0.6,1,1.4,1,3.5v0.5l-3.9,1.1v-2.1h-2.2v1l4.4,5.5l2.5-2.8l2.4,3l-2.5,2.7
			l4.3,5.3H284.2z"/>
		<path fill="#231F20" d="M276.6,234.2c-0.6,0.5-0.6,0.6-0.6,1.2v1.5c0,0.6,0.1,0.7,0.6,0.7h1.2c0.3,0,0.5-0.1,0.8-0.4l1.3-1.5
			l-2.1-2.5L276.6,234.2z"/>
	</g>
	<g>
		<g>
			<path fill="#231F20" d="M123.4,121.1h-15.8c-0.2,0-0.3,0.1-0.3,0.3v30.8c0,0.2,0.1,0.3,0.3,0.3h9.1c0.2,0,0.3-0.1,0.3-0.3v-9.1
				h7.2c4.9,0,10.7-5.1,10.7-11.4C134.8,124.9,130.6,121.1,123.4,121.1z M116.9,129.2h4.7c1.5,0,3.2,0.9,3.2,2.9
				c0,2.2-1.7,3.2-2.8,3.2h-5.1V129.2z"/>
			<path fill="#231F20" d="M116.6,152.7h-9.1c-0.3,0-0.6-0.3-0.6-0.6v-30.8c0-0.3,0.3-0.6,0.6-0.6h15.8c7.4,0,11.7,4,11.7,11
				c0,6.5-6,11.7-11,11.7h-6.9v8.8C117.2,152.5,116.9,152.7,116.6,152.7z M107.5,121.3v30.8h9.1c0,0,0,0,0,0l0-9.1
				c0-0.2,0.1-0.3,0.3-0.3h7.2c4.7,0,10.4-4.9,10.4-11.1c0-6.6-4.1-10.4-11.1-10.4H107.5z M122,135.5h-5.1c-0.2,0-0.3-0.1-0.3-0.3
				v-6c0-0.2,0.1-0.3,0.3-0.3h4.7c1.6,0,3.4,1,3.5,3.1C125.1,134.4,123.2,135.5,122,135.5z M117.2,135h4.8c1,0,2.5-0.9,2.5-2.9
				c-0.1-1.8-1.6-2.6-2.9-2.6h-4.4V135z"/>
		</g>
		<g>
			<path fill="#231F20" d="M151.6,121.1h-9.1c-0.2,0-0.3,0.1-0.3,0.3v30.8c0,0.2,0.1,0.3,0.3,0.3h9.1c0.2,0,0.3-0.1,0.3-0.3v-30.8
				C151.9,121.2,151.8,121.1,151.6,121.1z"/>
			<path fill="#231F20" d="M151.6,152.7h-9.1c-0.3,0-0.6-0.3-0.6-0.6v-30.8c0-0.3,0.3-0.6,0.6-0.6h9.1c0.3,0,0.6,0.3,0.6,0.6v30.8
				C152.2,152.5,152,152.7,151.6,152.7z M142.6,121.3l0,30.8h9.1c0,0,0,0,0,0l0-30.8L142.6,121.3z"/>
		</g>
		<g>
			<path fill="#231F20" d="M187.6,144h-16.7v-3.6h13.7c0.2,0,0.3-0.1,0.3-0.3V133c0-0.2-0.1-0.3-0.3-0.3h-13.7v-3.2h16.4
				c0.2,0,0.3-0.1,0.3-0.3v-7.9c0-0.2-0.1-0.3-0.3-0.3h-25.7c-0.2,0-0.3,0.1-0.3,0.3v30.9c0,0.1,0,0.2,0.1,0.2
				c0.1,0.1,0.1,0.1,0.2,0.1l26,0c0.2,0,0.3-0.1,0.3-0.3v-7.8C187.9,144.2,187.8,144,187.6,144z"/>
			<path fill="#231F20" d="M161.6,152.8L161.6,152.8c-0.2,0-0.3-0.1-0.4-0.2c-0.1-0.1-0.2-0.2-0.2-0.4v-30.9c0-0.3,0.3-0.6,0.6-0.6
				h25.7c0.3,0,0.6,0.3,0.6,0.6v7.9c0,0.3-0.3,0.6-0.6,0.6h-16.1v2.6h13.5c0.3,0,0.6,0.3,0.6,0.6v7.1c0,0.3-0.3,0.6-0.6,0.6h-13.5v3
				h16.4c0.3,0,0.6,0.3,0.6,0.6v7.8c0,0.3-0.3,0.6-0.6,0.6L161.6,152.8z M161.6,121.3l0,30.9l0,0.3l0-0.3l26,0l0-7.8h-16.7
				c-0.2,0-0.3-0.1-0.3-0.3v-3.6c0-0.2,0.1-0.3,0.3-0.3h13.7l0-7.1l-13.8,0c-0.2,0-0.3-0.1-0.3-0.3v-3.2c0-0.2,0.1-0.3,0.3-0.3h16.4
				l0-7.9L161.6,121.3z"/>
		</g>
		<g>
			<g>
				<path fill="#231F20" d="M382.1,120.9c8.8,0,13.3,6.3,14.1,11.8H387c-0.5-2.8-2.6-4.3-4.9-4.4c-4.1-0.2-7,3.3-7,8.5
					c0,4.7,3.1,8.5,7,8.5c2.6,0,5-1.9,5.3-4.9l9-0.1c0,7-6.7,12.3-14.2,12.4c-9.8,0-16.2-7.4-16.1-16.1
					C366.2,127.7,370.8,120.9,382.1,120.9z"/>
				<path fill="#231F20" d="M382,152.9c-4.7,0-8.7-1.6-11.7-4.7c-3-3-4.6-7.2-4.6-11.7c0.2-10.1,6.1-15.9,16.4-15.9
					c8.7,0,13.6,6.2,14.4,12c0,0.1,0,0.2-0.1,0.2c-0.1,0.1-0.1,0.1-0.2,0.1H387c-0.1,0-0.3-0.1-0.3-0.2c-0.5-2.5-2.3-4.1-4.6-4.2
					c-0.1,0-0.2,0-0.3,0c-3.8,0-6.4,3.3-6.4,8.2c0,4.5,3,8.2,6.6,8.2c2.7,0,4.8-1.9,5-4.6c0-0.2,0.1-0.3,0.3-0.3l9-0.1c0,0,0,0,0,0
					c0.1,0,0.2,0,0.2,0.1c0.1,0.1,0.1,0.1,0.1,0.2C396.6,147.2,390.1,152.8,382,152.9C382.1,152.9,382,152.9,382,152.9z
					 M382.1,121.2c-13.5,0-15.7,9.6-15.8,15.3c-0.1,4.4,1.5,8.4,4.4,11.3c2.9,2.9,6.8,4.5,11.3,4.5v0.3l0.1-0.3
					c7.6,0,13.8-5.3,13.9-11.8l-8.4,0.1c-0.4,2.8-2.7,4.9-5.5,4.9c-4,0-7.3-3.9-7.3-8.8c0-5.4,3-9,7.3-8.8c2.5,0.1,4.5,1.8,5.1,4.4
					h8.6C394.9,126.9,390.3,121.2,382.1,121.2z"/>
			</g>
			<g>
				<path fill="#231F20" d="M419.8,120.9c10.4-0.1,15.9,7.1,15.9,15.9c0,8.8-5.5,15.8-15.9,15.8c-10.9,0-16-7.1-16-15.9
					C403.8,127.9,408.9,120.9,419.8,120.9z M420,146.2c4.3,0,6.5-4.3,6.4-9.5c-0.1-5-2.1-9.4-6.4-9.4c-5,0-6.9,4.1-6.9,9.7
					C413,142.2,414.9,146.2,420,146.2z"/>
				<path fill="#231F20" d="M419.8,152.9c-12,0-16.3-8.4-16.3-16.2c0-9.9,6.3-16.1,16.3-16.1h0.2c11.1,0,16,8.1,16,16.2
					C436,146.6,429.7,152.9,419.8,152.9z M420,121.2l-0.2,0c-7.6,0-15.8,4.1-15.8,15.5c0,11.5,8.1,15.6,15.7,15.6
					c9.5,0,15.6-6.1,15.6-15.5C435.4,127.3,429.4,121.2,420,121.2z M420,146.5c-2,0-3.7-0.6-4.9-1.8c-1.6-1.6-2.4-4.2-2.4-7.7
					c0-6.4,2.6-10,7.2-10c4.8,0,6.6,5,6.7,9.7c0.1,3.4-0.9,6.4-2.6,8.1C423,145.9,421.6,146.5,420,146.5z M420,127.6
					c-5.5,0-6.7,5.1-6.7,9.4c0,3.3,0.7,5.8,2.2,7.3c1.1,1.1,2.6,1.7,4.4,1.7c1.5,0,2.7-0.5,3.7-1.5c1.6-1.6,2.4-4.4,2.4-7.6
					C426,132.3,424.3,127.6,420,127.6z"/>
			</g>
			<g>
				<path fill="#231F20" d="M452,141.2l-8.3,0v-8.7h8.3V141.2z"/>
				<path fill="#231F20" d="M452,141.4L452,141.4l-8.3,0c-0.2,0-0.3-0.1-0.3-0.3v-8.7c0-0.2,0.1-0.3,0.3-0.3h8.3
					c0.2,0,0.3,0.1,0.3,0.3v8.8c0,0.1,0,0.2-0.1,0.2C452.2,141.4,452.1,141.4,452,141.4z M444,140.8l7.7,0v-8.2H444V140.8z"/>
			</g>
		</g>
	</g>
	<g>
		
			<rect x="65.6" y="229.6" transform="matrix(0.7073 0.7069 -0.7069 0.7073 184.2479 19.694)" fill="#231F20" width="5.4" height="5.4"/>
		<path fill="#231F20" d="M68.3,236.5c-0.1,0-0.2,0-0.2-0.1l-3.8-3.8c-0.1-0.1-0.1-0.1-0.1-0.2s0-0.2,0.1-0.2l3.8-3.8
			c0.1-0.1,0.3-0.1,0.4,0l3.8,3.8c0.1,0.1,0.1,0.1,0.1,0.2s0,0.2-0.1,0.2l-3.8,3.8C68.5,236.4,68.4,236.5,68.3,236.5z M64.9,232.3
			l3.4,3.4l3.4-3.4l-3.4-3.4L64.9,232.3z"/>
	</g>
	<g>
		
			<rect x="484.8" y="229.6" transform="matrix(0.7073 0.7069 -0.7069 0.7073 306.9541 -276.6421)" fill="#231F20" width="5.4" height="5.4"/>
		<path fill="#231F20" d="M487.5,236.5c-0.1,0-0.2,0-0.2-0.1l-3.8-3.8c-0.1-0.1-0.1-0.1-0.1-0.2s0-0.2,0.1-0.2l3.8-3.8
			c0.1-0.1,0.3-0.1,0.4,0l3.8,3.8c0.1,0.1,0.1,0.1,0.1,0.2s0,0.2-0.1,0.2l-3.8,3.8C487.7,236.4,487.6,236.5,487.5,236.5z
			 M484.1,232.3l3.4,3.4l3.4-3.4l-3.4-3.4L484.1,232.3z"/>
	</g>
	<g>
		<path fill="#231F20" d="M234.9,1C234.9,1,234.9,1,234.9,1L220,2c-0.2,0-0.3,0.1-0.4,0.2c-0.1,0.1-0.2,0.3-0.1,0.4l3.6,50.4
			c0,0.2,0.1,0.3,0.2,0.4c0.1,0.1,0.2,0.1,0.4,0.1c0,0,0,0,0.1,0l14.8-1.1c0.3,0,0.6-0.3,0.5-0.6l-3.6-50.3
			C235.5,1.2,235.2,1,234.9,1z M230.1,43.5c0,0-1.5-10.5-1.8-15.7c-0.3-5.3-0.1-15.8-0.1-15.8s1.7,10.4,2,15.6
			C230.5,32.9,230.1,43.5,230.1,43.5z"/>
		<path fill="#231F20" d="M209,40.4c-0.1-0.1-0.2-0.1-0.3-0.1c0,0-0.1,0-0.1,0L187,43.3l-5.2-36.4c0-0.3-0.3-0.5-0.6-0.5
			c0,0-0.1,0-0.1,0l-14.7,2.1c-0.2,0-0.3,0.1-0.4,0.2C166,8.9,165.9,9,166,9.2l7.1,50c0,0.2,0.1,0.3,0.2,0.4
			c0.1,0.1,0.2,0.1,0.3,0.1c0,0,0.1,0,0.1,0l36.9-5.2c0.2,0,0.3-0.1,0.4-0.2c0.1-0.1,0.1-0.3,0.1-0.4l-1.9-13
			C209.2,40.6,209.1,40.5,209,40.4z M176.4,32.6c-0.7-5.2-1.5-15.8-1.5-15.8s2.5,10.2,3.3,15.4c0.8,5.2,1.2,15.9,1.2,15.9
			S177.2,37.9,176.4,32.6z"/>
		<path fill="#231F20" d="M295.5,37.8C295.5,37.8,295.5,37.8,295.5,37.8l-27.2-0.1l0-5.7l22.4,0.1c0.2,0,0.3-0.1,0.4-0.2
			c0.1-0.1,0.2-0.3,0.2-0.4l0-11.6c0-0.3-0.3-0.6-0.6-0.6c0,0,0,0,0,0l-22.4-0.1l0-5l26.7,0.1c0.2,0,0.3-0.1,0.4-0.2
			c0.1-0.1,0.2-0.3,0.2-0.4l0.1-12.9c0-0.3-0.3-0.6-0.6-0.6c0,0,0,0,0,0L253,0c-0.3,0-0.6,0.3-0.6,0.6l-0.2,50.5
			c0,0.2,0.1,0.3,0.2,0.4c0.1,0.1,0.3,0.2,0.4,0.2c0,0,0,0,0,0l42.6,0.1c0.3,0,0.6-0.3,0.6-0.6l0.1-12.8
			C296,38.1,295.8,37.8,295.5,37.8z M260.3,41.7c0,0-0.7-10.6-0.7-15.8c0.1-5.3,1-15.8,1-15.8s0.9,10.5,0.9,15.7
			C261.4,31.1,260.3,41.7,260.3,41.7z"/>
		<path fill="#231F20" d="M65.4,34.1c-0.1,0-0.2-0.1-0.3-0.1c-0.1,0-0.2,0-0.2,0l-13.6,5.7c-0.2,0.1-0.4,0.4-0.4,0.6l3.5,25.9
			l-14.9-21C39.3,45.1,39.2,45,39,45c-0.1,0-0.2,0-0.2,0l-12.5,5.3c-0.3,0.1-0.4,0.4-0.4,0.7l4.8,25.9L14.5,55.8
			c-0.1-0.1-0.3-0.2-0.5-0.2c-0.1,0-0.2,0-0.2,0L0.4,61.3c-0.2,0.1-0.3,0.2-0.3,0.4c0,0.2,0,0.4,0.1,0.5l32.2,41.2
			c0.1,0.1,0.3,0.2,0.5,0.2c0.1,0,0.2,0,0.2,0l13.9-5.9c0.3-0.1,0.4-0.4,0.4-0.6l-4.5-24.4l13.8,20.4c0.1,0.2,0.3,0.3,0.5,0.3
			c0.1,0,0.2,0,0.2,0l13.8-5.8c0.2-0.1,0.4-0.3,0.4-0.6l-5.9-52.4C65.7,34.3,65.5,34.1,65.4,34.1z M23.1,81.1
			c-3.3-4.1-9.4-12.8-9.4-12.8s7.4,7.4,10.8,11.5c3.3,4.1,9.2,13,9.2,13S26.4,85.2,23.1,81.1z M60.5,62.8C59.9,57.6,59.6,47,59.6,47
			s2.2,10.3,2.7,15.5c0.6,5.2,0.6,15.9,0.6,15.9S61,68,60.5,62.8z"/>
		<path fill="#231F20" d="M373.3,8.4l-14.7-2c0,0,0,0-0.1,0c-0.1,0-0.3,0-0.4,0.1c-0.1,0.1-0.2,0.2-0.2,0.4l-4.5,33.8
			c-0.2,1.8-2,3.3-4,3.3c-0.1,0-0.3,0-0.4,0c-1-0.1-1.9-0.7-2.5-1.5c-0.6-0.8-0.9-1.9-0.8-2.9l0.7-5c0-0.3-0.2-0.6-0.5-0.7l-14.7-2
			c0,0,0,0-0.1,0c-0.3,0-0.6,0.2-0.6,0.5l-0.5,3.8c-0.7,4.9,0.7,9.8,3.9,13.9c3.4,4.3,8.4,7.1,13.8,7.6c0.6,0.1,1.1,0.1,1.7,0.1
			c10.5,0.2,18.8-7,20.2-17.5L373.8,9C373.8,8.7,373.6,8.4,373.3,8.4z M363.6,30.9c-0.7,5.2-3.3,15.6-3.3,15.6s0.7-10.6,1.4-15.8
			c0.8-5.2,3-15.5,3-15.5S364.3,25.7,363.6,30.9z"/>
		<path fill="#231F20" d="M96.5,25.4C96.4,25.2,96.2,25,96,25c-0.1,0-0.1,0-0.2,0l-14.2,4.4c-0.1,0-0.3,0.1-0.3,0.3
			c-0.1,0.1-0.1,0.3,0,0.5l15,48.2c0.1,0.2,0.3,0.4,0.5,0.4c0.1,0,0.1,0,0.2,0l14.2-4.4c0.2,0,0.3-0.1,0.3-0.3
			c0.1-0.1,0.1-0.3,0-0.4L96.5,25.4z M95.5,52c-1.6-5-4-15.3-4-15.3s4.2,9.7,5.8,14.7c1.6,5,3.8,15.5,3.8,15.5S97.1,57,95.5,52z"/>
		<path fill="#231F20" d="M158.6,48.3c0-0.2-0.1-0.3-0.3-0.4c-0.1-0.1-0.2-0.1-0.3-0.1c0,0-0.1,0-0.1,0l-21.2,5l-8.4-35.8
			c-0.1-0.3-0.3-0.4-0.6-0.5c0,0-0.1,0-0.1,0l-14.4,3.4c-0.1,0-0.3,0.1-0.4,0.3c-0.1,0.1-0.1,0.3-0.1,0.4l11.6,49.1
			c0.1,0.3,0.3,0.5,0.6,0.5c0.1,0,0.1,0,0.1,0l36.2-8.5c0.2,0,0.3-0.1,0.4-0.3c0.1-0.1,0.1-0.3,0.1-0.4L158.6,48.3z M125.2,42.4
			c-1.2-5.1-2.9-15.6-2.9-15.6s3.5,9.9,4.7,15c1.2,5.1,2.7,15.7,2.7,15.7S126.4,47.5,125.2,42.4z"/>
		<path fill="#231F20" d="M501.3,45.3c-0.1-0.1-0.2-0.3-0.3-0.3l-8.7-3.4c-0.1,0-0.1,0-0.2,0c-0.1,0-0.2,0-0.2,0.1
			c-0.1,0.1-0.3,0.2-0.3,0.3l-3.7,9.4c-0.1,0.3,0,0.6,0.3,0.8l3.3,1.3c-1,1.7-2.8,2.7-4.1,2.7c-0.3,0-0.5-0.1-0.7-0.1
			c-0.1,0-0.1,0-0.2,0c-0.1,0-0.2,0-0.3,0.1c-0.1,0.1-0.3,0.2-0.3,0.3l-1.5,3.8c-0.1,0.1-0.1,0.3,0,0.5c0.1,0.1,0.2,0.3,0.3,0.3
			c1,0.4,2.1,0.6,3.2,0.6c4.2,0.1,8.2-2.5,9.7-6.3l3.7-9.4C501.4,45.6,501.4,45.5,501.3,45.3z"/>
		<path fill="#231F20" d="M475.2,34.5l-19-5.7c-0.1,0-0.1,0-0.2,0c-0.2,0-0.4,0.1-0.5,0.3l-13.4,21.5l1.2-25.2
			c0-0.3-0.2-0.5-0.4-0.6L423.7,19c-0.1,0-0.1,0-0.2,0c-0.1,0-0.2,0-0.3,0.1c-0.1,0.1-0.2,0.2-0.3,0.3l-14.6,48.3c0,0.2,0,0.3,0,0.4
			c0.1,0.1,0.2,0.2,0.3,0.3l13.2,4c0.1,0,0.1,0,0.2,0c0.3,0,0.5-0.2,0.6-0.4l6.8-22.5l-1,24.4c0,0.3,0.2,0.5,0.4,0.6l10.7,3.2
			c0.1,0,0.1,0,0.2,0c0.2,0,0.4-0.1,0.5-0.3L453.3,57l-6.7,22.3c0,0.2,0,0.3,0,0.4c0.1,0.1,0.2,0.2,0.3,0.3l13.3,4
			c0.1,0,0.1,0,0.2,0c0.1,0,0.2,0,0.3-0.1c0.1-0.1,0.2-0.2,0.3-0.4l14.6-48.3C475.7,35,475.5,34.6,475.2,34.5z M424.1,45.6
			c-1.6,5-5.8,14.8-5.8,14.8s2.4-10.3,4-15.3c1.6-5,5.6-14.8,5.6-14.8S425.7,40.6,424.1,45.6z M462.4,57.5c-1.6,5-5.8,14.8-5.8,14.8
			s2.4-10.3,4-15.3c1.6-5,5.6-14.8,5.6-14.8S464,52.5,462.4,57.5z"/>
		<path fill="#231F20" d="M549.8,73.6c-1.5-8-11.5-12.7-15.2-14.5c-2.6-1.2-6.5-2.6-10.6-2.7c-2.8-0.1-5.4,0.5-7.7,1.8
			c-3.8,2.2-7,8-7.4,11.6c-0.7,7.4,5.3,12.9,10.1,17.4c0.8,0.8,1.7,1.5,2.7,2.3c2.6,2.2,5.6,4.7,5.3,6.4c-0.1,0.5-1.2,2.2-3.7,2.1
			c-1.7,0-3.6-0.8-5.7-2.2c-2.1-1.7-2.7-3.6-2.2-6.8c0-0.3-0.1-0.5-0.3-0.6l-13.4-6.4c-0.1,0-0.2-0.1-0.2-0.1c-0.1,0-0.2,0-0.2,0
			c-0.2,0.1-0.3,0.2-0.3,0.3c-1.6,3.9-2,6.9-1.3,10.2c1.8,8.2,10.9,14.1,15.5,16.1c2.6,1.2,6.7,2.6,11.1,2.7
			c3.8,0.1,7.3-0.8,10.4-2.7c5.9-3.6,6.9-9.5,7-11.9c0.5-7.6-6.3-13.4-10.8-17.1l-0.2-0.1c-0.9-0.8-1.9-1.7-3-2.5
			c-2.5-2-5-4-4.8-5.5c0.1-0.5,0.9-1.8,2.9-1.8c0.8,0,1.7,0.2,2.7,0.7c2.7,1.2,4.1,3.6,3.8,6.2c0,0.3,0.1,0.5,0.3,0.6l12.9,6.2
			c0.1,0,0.2,0.1,0.2,0.1c0.1,0,0.1,0,0.2,0c0.2-0.1,0.3-0.2,0.3-0.3C549.8,80.1,550.4,76.3,549.8,73.6z M526.5,82.2
			c2.2,1.4,4.7,3.3,6.3,5.5c1.6,2.2,2.7,6.1,3.1,8.8c-1-2.5-2.7-5.8-4.4-7.8c-1.7-2-3.8-3.4-6-4.9c-2.2-1.7-4-3.1-5.6-5.3
			c-1.6-2.1-3.2-5.2-2.9-8c0.2,2.6,2.1,4.9,3.8,6.9C522.6,79.4,524.4,80.8,526.5,82.2z"/>
		<path fill="#231F20" d="M405.5,15L391,12c0,0-0.1,0-0.1,0c-0.1,0-0.2,0-0.3,0.1c-0.1,0.1-0.2,0.2-0.3,0.4l-10.4,49.4
			c-0.1,0.3,0.1,0.6,0.5,0.7l14.5,3c0,0,0.1,0,0.1,0c0.1,0,0.2,0,0.3-0.1c0.1-0.1,0.2-0.2,0.3-0.4L406,15.7
			C406.1,15.4,405.9,15.1,405.5,15z M394,39c-1.1,5.2-4.2,15.4-4.2,15.4s1.3-10.5,2.3-15.7c1.1-5.2,3.9-15.3,3.9-15.3
			S395,33.8,394,39z"/>
	</g>
	<path fill="#231F20" d="M341,135.4c-0.1-5.7,6-12.2,4.5-17.6c-1.5-5.4-10.1-7.9-13-12.7c-2.8-4.8-0.9-13.5-4.9-17.5
		c-4-3.9-12.6-1.8-17.6-4.6c-4.8-2.7-7.4-11.2-13-12.7c-5.6-1.4-12,4.8-17.5,4.8c-5.7,0.1-12.2-6-17.6-4.5
		c-5.4,1.5-7.9,10.1-12.7,13c-4.8,2.8-13.5,0.9-17.5,4.9c-3.9,4-1.8,12.6-4.6,17.6c-2.7,4.8-11.2,7.4-12.7,13
		c-1.4,5.6,4.8,12,4.8,17.5c0,5.7-6,12.2-4.5,17.6c1.5,5.4,10.1,7.9,13,12.7c2.8,4.8,0.9,13.5,4.9,17.5c4,3.9,12.6,1.8,17.6,4.6
		c4.8,2.7,7.4,11.2,13,12.7c5.6,1.4,12-4.8,17.5-4.8c5.7-0.1,12.2,6,17.6,4.5c5.4-1.5,7.9-10.1,12.7-13c4.8-2.8,13.5-0.9,17.5-4.9
		c3.9-4,1.8-12.6,4.6-17.6c2.7-4.8,11.3-7.4,12.7-13C347.2,147.3,341,140.9,341,135.4z M302.1,112.2c3.8-3.8,12.2-10.5,12.2-10.5
		s-6.6,8.5-10.4,12.3c-3.8,3.8-12.3,10.4-12.3,10.4S298.3,116,302.1,112.2z M264.4,95.8l8.6,8.6l-8.6,8.6l-8.6-8.6L264.4,95.8z
		 M257.1,151.8l-8.6,8.6l-8.6-8.6l8.6-8.6L257.1,151.8z M240,120.1l8.5-8.6l8.6,8.6l-8.6,8.6L240,120.1z M255.8,135.9l8.5-8.6
		l8.6,8.6l-8.5,8.5L255.8,135.9z M254.6,86.1l2.5,2.5l-8.6,8.6l-4.2-4.2C247.5,90.2,250.9,87.9,254.6,86.1z M237.1,100.1l4.2,4.2
		l-8.5,8.5l-2.5-2.5C232.2,106.7,234.4,103.3,237.1,100.1z M224.2,135.9l8.6-8.6l8.6,8.6l-8.6,8.6L224.2,135.9z M237.1,171.8
		c-2.6-3.2-4.9-6.6-6.8-10.3l2.5-2.5l8.6,8.6L237.1,171.8z M254.6,185.8c-3.7-1.9-7.1-4.2-10.3-6.8l4.2-4.2l8.6,8.6L254.6,185.8z
		 M264.4,176.1l-8.6-8.6l8.6-8.6l8.6,8.6L264.4,176.1z M280.1,191.7v0.1l0,0c0,0,0,0,0,0C280.1,191.9,280.1,191.9,280.1,191.7
		l-8.5-8.4l7.4-7.4c0.7-0.7,1-1.6,1-2.5v-11.8c0-0.9-0.4-1.8-1-2.5l-7.4-7.4l8.5-8.5c0,0,0,0,0,0c0,0,0,0,0,0l0,0v0.1
		c0.4,1.4,3.8,13,3.8,24.5C283.9,179.3,280.6,190.4,280.1,191.7z M280.1,128.5v0.1l0,0c0,0,0,0,0,0
		C280.1,128.6,280.1,128.6,280.1,128.5l-8.5-8.4l7.4-7.4c0.7-0.7,1-1.6,1-2.5V98.5c0-0.9-0.4-1.8-1-2.5l-7.4-7.4l8.5-8.5
		c0,0,0,0,0,0c0,0,0,0,0,0l0,0v0.2c0.4,1.4,3.8,13.1,3.8,24.6C283.9,116.1,280.6,127.2,280.1,128.5z M302.1,159.7
		c-3.8-3.8-10.4-12.3-10.4-12.3s8.4,6.8,12.2,10.5c3.8,3.8,10.5,12.2,10.5,12.2S305.9,163.5,302.1,159.7z M309.2,138.8
		c-12.2,0-22.1-2.8-22.1-2.8s9.9-2.8,22.1-2.8c12.2,0,23.3,2.8,23.3,2.8S321.4,138.8,309.2,138.8z"/>
</g>
</svg>
