<svg xmlns="http://www.w3.org/2000/svg" viewBox="0 0 300 31" enable-background="new 0 0 300 31"><g fill="#231F20"><path d="M8.7.5l4.4 16.8L16.8.5h8.1l3.6 16.4L33 .5h8.8l-9 30.2h-9l-3.2-16.1L17 30.7H8L0 .5h8.7zM56.4.5v30.2h-8.9V.5h8.9zM72.1.5v22.3h13.4v7.9H63.2V.5h8.9zM100.4.5v22.3h13.4v7.9H91.6V.5h8.8zM128.7.5v30.2h-8.9V.5h8.9zM160.8 8.2h-16.3v3.7h13.8v7h-13.8V23h16.6v7.7h-25.5V.5h25.2v7.7zM200.2.5v18.8c0 6.8-4.9 11.5-11.2 11.7-6.3.2-11.8-4.7-11.8-11v-2.3h8.9v3c0 1.4 1.2 2.7 2.6 2.7 1.5 0 2.7-1.2 2.7-2.6V.5h8.8zM215.8.5v30.2H207V.5h8.8zM238.6 16.4L242.9.5h11.9v30.2h-8.3V14.2l-4.6 16.5h-6.7l-4.3-16.8v16.8h-8.2V.5h11.9l4 15.9zM264.1 6.5h-2.5v-6h5.6v6.1c0 3-2.6 5.6-5.6 5.6V9.7c1.2 0 2.5-1.5 2.5-3.2zM289.2 11.4c3.3.9 8.5 2.1 10.1 6.3.9 2.2 1.1 5.2-.7 7.9-2.9 4.4-8 5.3-11.3 5.4-2.8.1-9.2-.6-12.2-4.6-1.2-1.6-1.7-3.3-1.8-5.6h8.9c.5 1.8 1.3 2.9 3.2 3.3 5 .7 5.7-2.1 5.5-2.9-.4-1.5-4.2-2.1-6.8-2.9-4-1.2-8.3-2.7-9.7-6.5-.7-1.8-.5-5.6.9-7.8 2.3-3.3 6.6-4 9.8-4.1 2.9 0 9 .1 11.7 3.8.9 1.2 1.6 3.3 1.6 5.3h-8.5c-.6-1.6-2.1-2.6-4-2.6-2.9.1-3.3 1.9-3.1 2.5.3 1.4 3.7 1.7 6.4 2.5z"/></g></svg>