<?xml version="1.0" encoding="utf-8"?>
<!-- Generator: Adobe Illustrator 18.1.1, SVG Export Plug-In . SVG Version: 6.00 Build 0)  -->
<!DOCTYPE svg PUBLIC "-//W3C//DTD SVG 1.1//EN" "http://www.w3.org/Graphics/SVG/1.1/DTD/svg11.dtd">
<svg version="1.1" id="Layer_1" xmlns="http://www.w3.org/2000/svg" xmlns:xlink="http://www.w3.org/1999/xlink" x="0px" y="0px"
	 viewBox="0 0 612 792" enable-background="new 0 0 612 792" xml:space="preserve">
<g>
	<path fill="#FFFDF2" d="M259,217.7h-49v11.1h41.3v20.8H210V262h49.9v23.2l-76.5,0.1v-90.8H259L259,217.7L259,217.7z"/>
	<path fill="#FFFDF2" d="M332.6,194.5l33.2,90.9h-28l-4.1-12.4h-30.5l-4.5,12.2h-27l33.8-90.7h27.1V194.5z M326.7,254.1l-7.9-21.9
		l-8.7,21.9H326.7z"/>
	<path fill="#FFFDF2" d="M433.6,194.5v23.5h-26v67.1h-27.1v-67.1h-24.6v-23.5H433.6z"/>
	<path fill="#FFFDF2" d="M160.4,396.5l13-47.8H209v90.7h-24.8v-49.5l-13.9,49.5h-20l-13-50.6v50.6h-24.7v-90.7h35.8L160.4,396.5z"/>
	<path fill="#FFFDF2" d="M270.2,347.3c30.6-0.2,46.7,21,46.7,46.7c0,25.8-16.1,46.5-46.7,46.5c-32,0-47.2-21-47.2-46.7
		C222.9,368,238.1,347.3,270.2,347.3z M270.5,421.8c12.7,0,19.1-12.7,18.8-27.9c-0.4-14.6-6.1-27.8-18.8-27.8
		c-14.7,0-20.5,12.2-20.5,28.6C249.9,409.9,255.4,421.8,270.5,421.8z"/>
	<path fill="#FFFDF2" d="M376.7,348.5c11.1,0,24.1,1.2,32,13.2c4.2,6.4,4.4,16,1.8,22c-2.8,6.6-7.2,10.4-14,13
		c13.7,5.8,13.7,21.1,14,30.6c0.5,4.1,1.3,8.5,3.4,11.9h-27.2l-1.6-10.6c-2.6-21.2-4.6-22-20.5-21.8H358v32.4h-26.6v-90.7
		L376.7,348.5L376.7,348.5z M384.6,378.8c-0.4-6.2-5.3-9.3-10.5-9.3H358v18.3h17.4C379.3,387.9,384.6,385.5,384.6,378.8z"/>
	<path fill="#FFFDF2" d="M502.4,371.9h-49v11.1h41.3v20.8h-41.3v12.4h49.9v23.1l-76.5,0.1v-90.8h75.6L502.4,371.9L502.4,371.9z"/>
	<path fill="#FFFDF2" d="M207.8,593.2h-26.6v-90.7h46.6c22.8,0,32.7,12.8,32.7,30.5s-16.4,32.6-30.7,32.6h-22V593.2z M232.7,534.2
		c-0.2-6-5.2-9.3-10.4-9.3h-14.6v19.4h15.8C227.5,544.4,232.7,540.9,232.7,534.2z"/>
	<path fill="#FFFDF2" d="M301.8,502.7v90.7h-26.6v-90.7H301.8z"/>
	<path fill="#FFFDF2" d="M393.4,525.9h-49v11.1h41.3v20.8h-41.3v12.4h49.9v23.1l-76.5,0.1v-90.8h75.6L393.4,525.9L393.4,525.9z"/>
	<path fill="#FFFDF2" d="M434.1,593.3l-24.5-0.1v-25.8h24.5V593.3z"/>
</g>
<g>
	<path fill="#FFFDF2" d="M471.4,662.2c-7.2,0-14.4-3.3-19.3-8.7c-3.5-3.5-8.6-5.7-13.3-5.7c-4.8,0-9.8,2.1-13.3,5.7
		c-4.9,5.4-12.1,8.7-19.3,8.7s-14.4-3.3-19.3-8.7c-3.5-3.5-8.6-5.7-13.4-5.7c-4.8,0-9.8,2.1-13.4,5.7c-4.9,5.4-12.1,8.7-19.3,8.7
		c-7.2,0-14.4-3.3-19.3-8.7c-3.5-3.5-8.6-5.7-13.4-5.7c-4.8,0-9.8,2.1-13.4,5.7c-4.9,5.4-12.1,8.7-19.3,8.7
		c-7.2,0-14.4-3.3-19.3-8.7c-3.5-3.5-8.6-5.7-13.4-5.7s-9.8,2.1-13.3,5.7c-4.9,5.4-12.1,8.7-19.3,8.7s-14.4-3.3-19.3-8.7
		c-3.7-3.5-8.5-5.7-13.3-5.7c-4.8,0-9.7,2-13.3,5.7c-4.9,5.4-12.1,8.7-19.3,8.7s-14.4-3.3-19.3-8.7c-3.5-3.5-8.6-5.7-13.3-5.7v-7.1
		c6.7,0,13.4,2.8,18.4,7.8l0.1,0.1c3.7,4,8.8,6.5,14.1,6.5c5.2,0,10.5-2.4,14.1-6.5l0.1-0.1c4.9-4.9,11.7-7.8,18.4-7.8
		s13.4,2.8,18.4,7.8l0.1,0.1c3.7,4,8.9,6.5,14.1,6.5c5.2,0,10.5-2.4,14.1-6.5l0.1-0.1c4.9-4.9,11.7-7.8,18.4-7.8s13.5,2.8,18.4,7.8
		l0.1,0.1c3.7,4,8.9,6.5,14.1,6.5s10.5-2.4,14.1-6.5l0.1-0.1c4.9-4.9,11.7-7.8,18.4-7.8c6.7,0,13.4,2.8,18.4,7.8l0.1,0.1
		c3.7,4,8.9,6.5,14.1,6.5s10.5-2.4,14.1-6.5l0.1-0.1c4.9-4.9,11.7-7.8,18.4-7.8c6.8,0,13.5,2.8,18.4,7.8l0.1,0.1
		c3.7,4,8.9,6.5,14.1,6.5s10.5-2.4,14.1-6.5l0.1-0.1c4.9-4.9,11.7-7.8,18.4-7.8c6.8,0,13.5,2.8,18.4,7.8l0.1,0.1
		c3.7,4,8.9,6.5,14.1,6.5s10.5-2.4,14.1-6.5l0.1-0.1c4.9-4.9,11.7-7.8,18.4-7.8v7.1c-4.8,0-9.8,2.1-13.4,5.7
		C485.7,659,478.6,662.2,471.4,662.2z"/>
</g>
<g>
	<path fill="#FFFDF2" d="M471.4,151.2c-7.2,0-14.4-3.3-19.3-8.7c-3.5-3.5-8.6-5.7-13.3-5.7c-4.8,0-9.8,2.1-13.3,5.7
		c-4.9,5.4-12.1,8.7-19.3,8.7s-14.4-3.3-19.3-8.7c-3.5-3.5-8.6-5.7-13.4-5.7c-4.8,0-9.8,2.1-13.4,5.7c-4.9,5.4-12.1,8.7-19.3,8.7
		c-7.2,0-14.4-3.3-19.3-8.7c-3.5-3.5-8.6-5.7-13.4-5.7c-4.8,0-9.8,2.1-13.4,5.7c-4.9,5.4-12.1,8.7-19.3,8.7
		c-7.2,0-14.4-3.3-19.3-8.7c-3.5-3.5-8.6-5.7-13.4-5.7s-9.8,2.1-13.3,5.7c-4.9,5.4-12.1,8.7-19.3,8.7s-14.4-3.3-19.3-8.7
		c-3.4-3.7-8.2-5.7-13.1-5.7s-9.7,2-13.3,5.7c-4.9,5.4-12.1,8.7-19.3,8.7s-14.4-3.3-19.3-8.7c-3.5-3.5-8.6-5.7-13.3-5.7v-7.1
		c6.7,0,13.4,2.8,18.4,7.8l0.1,0.1c3.7,4,8.8,6.5,14.1,6.5c5.2,0,10.5-2.4,14.1-6.5l0.1-0.1c4.9-4.9,11.7-7.8,18.4-7.8
		s13.4,2.8,18.4,7.8l0.1,0.1c3.7,4,8.8,6.5,14.1,6.5c5.2,0,10.5-2.4,14.1-6.5l0.1-0.1c4.9-4.9,11.7-7.8,18.4-7.8s13.5,2.8,18.4,7.8
		l0.1,0.1c3.7,4,8.9,6.5,14.1,6.5s10.5-2.4,14.1-6.5l0.1-0.1c4.9-4.9,11.7-7.8,18.4-7.8c6.7,0,13.4,2.8,18.4,7.8l0.1,0.1
		c3.7,4,8.9,6.5,14.1,6.5s10.5-2.4,14.1-6.5l0.1-0.1c4.9-4.9,11.7-7.8,18.4-7.8c6.8,0,13.5,2.8,18.4,7.8l0.1,0.1
		c3.7,4,8.9,6.5,14.1,6.5s10.5-2.4,14.1-6.5l0.1-0.1c4.9-4.9,11.7-7.8,18.4-7.8c6.8,0,13.5,2.8,18.4,7.8l0.1,0.1
		c3.7,4,8.9,6.5,14.1,6.5s10.5-2.4,14.1-6.5l0.1-0.1c5.3-4.9,12-7.8,18.7-7.8v7.1c-4.8,0-9.8,2.1-13.4,5.7
		C485.7,147.9,478.6,151.2,471.4,151.2z"/>
</g>
</svg>
