<?xml version="1.0" encoding="utf-8"?>
<!-- Generator: Adobe Illustrator 18.1.1, SVG Export Plug-In . SVG Version: 6.00 Build 0)  -->
<!DOCTYPE svg PUBLIC "-//W3C//DTD SVG 1.1//EN" "http://www.w3.org/Graphics/SVG/1.1/DTD/svg11.dtd">
<svg version="1.1" id="Layer_1" xmlns="http://www.w3.org/2000/svg" xmlns:xlink="http://www.w3.org/1999/xlink" x="0px" y="0px"
	 viewBox="0 0 344.8 452.2" enable-background="new 0 0 344.8 452.2" xml:space="preserve">
<g>
	<path fill="#FFFDF2" d="M131.9,74.7H90.3v9.4h35.1v17.7H90.3v10.5h42.4V132l-65,0.1V55h64.2V74.7z"/>
	<path fill="#FFFDF2" d="M194.4,55l28.2,77.2h-23.8l-3.5-10.5h-25.9l-3.8,10.4h-22.9l28.7-77H194.4z M189.4,105.6L182.7,87
		l-7.4,18.6H189.4z"/>
	<path fill="#FFFDF2" d="M280.2,55v20h-22.1V132h-23V75h-20.9V55H280.2z"/>
	<path fill="#FFFDF2" d="M48.2,226.5l11-40.6h30.3v77H68.4v-42l-11.8,42h-17l-11-43v43h-21v-77H38L48.2,226.5z"/>
	<path fill="#FFFDF2" d="M141.4,184.7c26-0.2,39.7,17.8,39.7,39.7c0,21.9-13.7,39.5-39.7,39.5c-27.2,0-40.1-17.8-40.1-39.7
		C101.3,202.3,114.2,184.7,141.4,184.7z M141.7,248c10.8,0,16.2-10.8,16-23.7c-0.3-12.4-5.2-23.6-16-23.6
		c-12.5,0-17.4,10.4-17.4,24.3C124.2,237.9,128.9,248,141.7,248z"/>
	<path fill="#FFFDF2" d="M231.9,185.8c9.4,0,20.5,1,27.2,11.2c3.6,5.4,3.7,13.6,1.5,18.7c-2.4,5.6-6.1,8.8-11.9,11
		c11.6,4.9,11.6,17.9,11.9,26c0.4,3.5,1.1,7.2,2.9,10.1h-23.1l-1.4-9c-2.2-18-3.9-18.7-17.4-18.5H216v27.5h-22.6v-77H231.9z
		 M238.6,211.5c-0.3-5.3-4.5-7.9-8.9-7.9H216v15.5h14.8C234.1,219.2,238.6,217.2,238.6,211.5z"/>
	<path fill="#FFFDF2" d="M338.6,205.6H297v9.4h35.1v17.7H297v10.5h42.4v19.6l-65,0.1v-77.1h64.2V205.6z"/>
	<path fill="#FFFDF2" d="M88.4,393.6H65.8v-77h39.6c19.4,0,27.8,10.9,27.8,25.9s-13.9,27.7-26.1,27.7H88.4V393.6z M109.6,343.5
		c-0.2-5.1-4.4-7.9-8.8-7.9H88.4v16.5h13.4C105.2,352.1,109.6,349.2,109.6,343.5z"/>
	<path fill="#FFFDF2" d="M168.3,316.7v77h-22.6v-77H168.3z"/>
	<path fill="#FFFDF2" d="M246.1,336.4h-41.6v9.4h35.1v17.7h-35.1v10.5h42.4v19.6l-65,0.1v-77.1h64.2V336.4z"/>
	<path fill="#FFFDF2" d="M280.6,393.7l-20.8-0.1v-21.9h20.8V393.7z"/>
</g>
<g>
	<path fill="#FFFDF2" d="M312.3,452.2c-6.1,0-12.2-2.8-16.4-7.4c-3-3-7.3-4.8-11.3-4.8c-4.1,0-8.3,1.8-11.3,4.8
		c-4.2,4.6-10.3,7.4-16.4,7.4c-6.1,0-12.2-2.8-16.4-7.4c-3-3-7.3-4.8-11.4-4.8c-4.1,0-8.3,1.8-11.4,4.8c-4.2,4.6-10.3,7.4-16.4,7.4
		c-6.1,0-12.2-2.8-16.4-7.4c-3-3-7.3-4.8-11.4-4.8c-4.1,0-8.3,1.8-11.4,4.8c-4.2,4.6-10.3,7.4-16.4,7.4c-6.1,0-12.2-2.8-16.4-7.4
		c-3-3-7.3-4.8-11.4-4.8c-4.1,0-8.3,1.8-11.3,4.8c-4.2,4.6-10.3,7.4-16.4,7.4c-6.1,0-12.2-2.8-16.4-7.4c-3.1-3-7.2-4.8-11.3-4.8
		c-4.1,0-8.2,1.7-11.3,4.8c-4.2,4.6-10.3,7.4-16.4,7.4c-6.1,0-12.2-2.8-16.4-7.4c-3-3-7.3-4.8-11.3-4.8v-6c5.7,0,11.4,2.4,15.6,6.6
		l0.1,0.1c3.1,3.4,7.5,5.5,12,5.5c4.4,0,8.9-2,12-5.5l0.1-0.1c4.2-4.2,9.9-6.6,15.6-6.6c5.7,0,11.4,2.4,15.6,6.6l0.1,0.1
		c3.1,3.4,7.6,5.5,12,5.5c4.4,0,8.9-2,12-5.5l0.1-0.1c4.2-4.2,9.9-6.6,15.6-6.6c5.7,0,11.5,2.4,15.6,6.6l0.1,0.1
		c3.1,3.4,7.6,5.5,12,5.5c4.4,0,8.9-2,12-5.5l0.1-0.1c4.2-4.2,9.9-6.6,15.6-6.6c5.7,0,11.4,2.4,15.6,6.6l0.1,0.1
		c3.1,3.4,7.6,5.5,12,5.5c4.4,0,8.9-2,12-5.5l0.1-0.1c4.2-4.2,9.9-6.6,15.6-6.6c5.8,0,11.5,2.4,15.6,6.6l0.1,0.1
		c3.1,3.4,7.6,5.5,12,5.5c4.4,0,8.9-2,12-5.5l0.1-0.1c4.2-4.2,9.9-6.6,15.6-6.6c5.8,0,11.5,2.4,15.6,6.6l0.1,0.1
		c3.1,3.4,7.6,5.5,12,5.5c4.4,0,8.9-2,12-5.5l0.1-0.1c4.2-4.2,9.9-6.6,15.6-6.6v6c-4.1,0-8.3,1.8-11.4,4.8
		C324.5,449.5,318.4,452.2,312.3,452.2z"/>
</g>
<g>
	<path fill="#FFFDF2" d="M312.3,18.2c-6.1,0-12.2-2.8-16.4-7.4c-3-3-7.3-4.8-11.3-4.8c-4.1,0-8.3,1.8-11.3,4.8
		c-4.2,4.6-10.3,7.4-16.4,7.4c-6.1,0-12.2-2.8-16.4-7.4c-3-3-7.3-4.8-11.4-4.8c-4.1,0-8.3,1.8-11.4,4.8c-4.2,4.6-10.3,7.4-16.4,7.4
		c-6.1,0-12.2-2.8-16.4-7.4c-3-3-7.3-4.8-11.4-4.8c-4.1,0-8.3,1.8-11.4,4.8c-4.2,4.6-10.3,7.4-16.4,7.4c-6.1,0-12.2-2.8-16.4-7.4
		c-3-3-7.3-4.8-11.4-4.8s-8.3,1.8-11.3,4.8c-4.2,4.6-10.3,7.4-16.4,7.4c-6.1,0-12.2-2.8-16.4-7.4C70.9,7.7,66.8,6,62.7,6
		c-4.1,0-8.2,1.7-11.3,4.8c-4.2,4.6-10.3,7.4-16.4,7.4c-6.1,0-12.2-2.8-16.4-7.4c-3-3-7.3-4.8-11.3-4.8V0C13,0,18.7,2.4,22.9,6.6
		L23,6.7c3.1,3.4,7.5,5.5,12,5.5c4.4,0,8.9-2,12-5.5l0.1-0.1C51.3,2.4,57,0,62.7,0c5.7,0,11.4,2.4,15.6,6.6l0.1,0.1
		c3.1,3.4,7.5,5.5,12,5.5c4.4,0,8.9-2,12-5.5l0.1-0.1c4.2-4.2,9.9-6.6,15.6-6.6s11.5,2.4,15.6,6.6l0.1,0.1c3.1,3.4,7.6,5.5,12,5.5
		c4.4,0,8.9-2,12-5.5l0.1-0.1c4.2-4.2,9.9-6.6,15.6-6.6c5.7,0,11.4,2.4,15.6,6.6l0.1,0.1c3.1,3.4,7.6,5.5,12,5.5c4.4,0,8.9-2,12-5.5
		l0.1-0.1c4.2-4.2,9.9-6.6,15.6-6.6c5.8,0,11.5,2.4,15.6,6.6l0.1,0.1c3.1,3.4,7.6,5.5,12,5.5c4.4,0,8.9-2,12-5.5l0.1-0.1
		c4.2-4.2,9.9-6.6,15.6-6.6c5.8,0,11.5,2.4,15.6,6.6l0.1,0.1c3.1,3.4,7.6,5.5,12,5.5c4.4,0,8.9-2,12-5.5l0.1-0.1
		C328.6,2.4,334.3,0,340,0v6c-4.1,0-8.3,1.8-11.4,4.8C324.5,15.4,318.4,18.2,312.3,18.2z"/>
</g>
</svg>
