<?xml version="1.0" encoding="utf-8"?>
<!-- Generator: Adobe Illustrator 18.1.1, SVG Export Plug-In . SVG Version: 6.00 Build 0)  -->
<!DOCTYPE svg PUBLIC "-//W3C//DTD SVG 1.1//EN" "http://www.w3.org/Graphics/SVG/1.1/DTD/svg11.dtd">
<svg version="1.1" id="Layer_1" xmlns="http://www.w3.org/2000/svg" xmlns:xlink="http://www.w3.org/1999/xlink" x="0px" y="0px"
	 viewBox="0 0 390.3 390.3" enable-background="new 0 0 390.3 390.3" xml:space="preserve">
<g>
	<g>
		<defs>
			<rect id="SVGID_23_" x="3.8" y="3.8" width="382.8" height="382.8"/>
		</defs>
		<use xlink:href="#SVGID_23_"  overflow="visible" fill="#FFFDF2"/>
		<clipPath id="SVGID_2_">
			<use xlink:href="#SVGID_23_"  overflow="visible"/>
		</clipPath>
		<use xlink:href="#SVGID_23_"  overflow="visible" fill="none" stroke="#E5C650" stroke-width="7.5615" stroke-miterlimit="10"/>
	</g>
	<g>
		<g>
			<path stroke="#E5C650" stroke-width="1.6571" stroke-miterlimit="10" d="M172.2,147.3v7.3h-25.3c-0.5-5.3,2.8-8.8,7.9-12.1
				c7.3-4.8,8.9-6.1,8.9-8.9c0-2.2-3.2-4.1-6-2.6c-1.8,1-2.1,4-2.1,5.6h-7.8c-0.8-3.4-0.2-7.6,3.2-10.4c4.4-3.6,11.2-3.6,15.4-1.8
				c4,1.7,6.1,4.3,6.4,8.2c0.3,5.1-2.9,8.4-8.1,11.6l-4.4,3.1H172.2z"/>
			<path stroke="#E5C650" stroke-width="1.6571" stroke-miterlimit="10" d="M207.7,139.5c-0.1,8.8-6.6,15.7-14.3,15.5
				c-7.7-0.2-13.7-7.5-13.5-16.3c0.1-8.8,6.2-15.6,14.3-15.6C202,123.1,207.9,130.7,207.7,139.5z M193.7,148.2c3.5,0,5.4-4,5.4-9.1
				c0-5.1-1.8-9.2-5.3-9.2c-3.6,0-5.4,4-5.4,9.1C188.3,144,190.1,148.2,193.7,148.2z"/>
			<path stroke="#E5C650" stroke-width="1.6571" stroke-miterlimit="10" d="M241.8,145c0.4,5.2-4.9,9.7-12.7,10
				c-8,0.3-13.6-3.8-14-9.1c-0.2-2.5,1.7-6.3,4.7-7.2c-2.1-1.7-3.5-4.4-3.3-7c0.3-5.1,5.9-8.7,12.7-8.7c7,0,11.5,4.4,11.5,9.6
				c0,2.2-1.4,4.5-3.2,6C240.2,139.7,241.6,142.8,241.8,145z M233.5,144.6c-0.1-2.2-2.5-3.9-5.2-3.7c-2.7,0.1-4.8,1.9-4.7,4.2
				c0.1,2.2,2.5,3.9,5.2,3.8C231.5,148.7,233.6,146.8,233.5,144.6z M232.9,132.5c-0.1-2-2.3-3.5-4.7-3.4c-2.4,0.1-4.4,1.8-4.2,3.8
				c0.1,2,2.3,3.5,4.7,3.4C231.1,136.1,233,134.4,232.9,132.5z"/>
			<path stroke="#E5C650" stroke-width="1.6571" stroke-miterlimit="10" d="M43.6,180.1l4.7,18.1l4-18.1H61l3.9,17.7l4.8-17.7h9.5
				l-9.6,32.5H60l-3.4-17.3l-3.8,17.3H43l-8.7-32.5H43.6z"/>
			<path stroke="#E5C650" stroke-width="1.6571" stroke-miterlimit="10" d="M88.9,212.6l-8.8,0v-9.2h8.8V212.6z"/>
			<path stroke="#E5C650" stroke-width="1.6571" stroke-miterlimit="10" d="M126,180.1h9.5v32.5H126v-12.5h-9.7v12.5h-9.5v-32.5h9.5
				v11.1h9.7V180.1z"/>
			<path stroke="#E5C650" stroke-width="1.6571" stroke-miterlimit="10" d="M159,179.6c11-0.1,16.7,7.5,16.7,16.7
				c0,9.2-5.8,16.7-16.7,16.7c-11.5,0-16.9-7.5-16.9-16.7S147.5,179.6,159,179.6z M159.1,206.3c4.6,0,6.8-4.6,6.8-10
				c-0.1-5.2-2.2-9.9-6.8-9.9c-5.3,0-7.3,4.4-7.3,10.2C151.8,202.1,153.8,206.3,159.1,206.3z"/>
			<path stroke="#E5C650" stroke-width="1.6571" stroke-miterlimit="10" d="M211.6,180.1v18.4c0,11.5-7.2,14.4-14.4,14.5
				c-8.1,0-14.6-3.5-14.6-14.8v-18.2h9.5v20.3c0,3,2.3,4.9,5.2,4.9c2.8,0,4.8-2.1,4.8-5.2v-20H211.6z"/>
			<path stroke="#E5C650" stroke-width="1.6571" stroke-miterlimit="10" d="M235.4,191.9c3.6,0.9,9.1,2.3,10.9,6.8
				c1,2.4,1.2,5.6-0.7,8.5c-3.1,4.7-8.6,5.7-12.2,5.8c-3,0.1-9.9-0.6-13.1-4.9c-1.3-1.7-1.8-3.6-2-6.1h9.5c0.6,1.9,1.4,3.1,3.5,3.6
				c5.3,0.7,6.1-2.3,5.9-3.1c-0.4-1.7-4.5-2.2-7.3-3.1c-4.3-1.3-8.9-2.9-10.5-7c-0.7-2-0.6-6.1,1-8.4c2.5-3.5,7.1-4.3,10.5-4.4
				c3.1,0,9.7,0.1,12.6,4c0.9,1.3,1.7,3.5,1.7,5.7H236c-0.6-1.7-2.3-2.8-4.3-2.8c-3.2,0.1-3.5,2.1-3.3,2.7
				C228.8,190.7,232.5,191.1,235.4,191.9z"/>
			<path stroke="#E5C650" stroke-width="1.6571" stroke-miterlimit="10" d="M279.1,180.1v8.5h-9.3v24h-9.7v-24h-8.8v-8.5H279.1z"/>
			<path stroke="#E5C650" stroke-width="1.6571" stroke-miterlimit="10" d="M299.7,179.6c11-0.1,16.7,7.5,16.7,16.7
				c0,9.2-5.8,16.7-16.7,16.7c-11.5,0-16.9-7.5-16.9-16.7S288.2,179.6,299.7,179.6z M299.8,206.3c4.6,0,6.8-4.6,6.8-10
				c-0.1-5.2-2.2-9.9-6.8-9.9c-5.3,0-7.3,4.4-7.3,10.2C292.5,202.1,294.5,206.3,299.8,206.3z"/>
			<path stroke="#E5C650" stroke-width="1.6571" stroke-miterlimit="10" d="M332.8,180.1l10,16.8v-16.8h10v32.5h-10.3l-9.7-16.3
				v16.3h-9.5v-32.5H332.8z"/>
			<path stroke="#E5C650" stroke-width="1.6571" stroke-miterlimit="10" d="M107.7,249.9c3.6,0.9,9.1,2.3,10.9,6.8
				c1,2.4,1.2,5.6-0.7,8.5c-3.1,4.7-8.6,5.7-12.2,5.8c-3,0.1-9.9-0.6-13.1-4.9c-1.3-1.7-1.8-3.6-2-6.1h9.5c0.6,1.9,1.4,3.1,3.5,3.6
				c5.3,0.7,6.1-2.3,5.9-3.1c-0.4-1.7-4.5-2.2-7.3-3.1c-4.3-1.3-8.9-2.9-10.5-7c-0.7-2-0.6-6.1,1-8.4c2.5-3.5,7.1-4.3,10.5-4.4
				c3.1,0,9.7,0.1,12.6,4c0.9,1.3,1.7,3.5,1.7,5.7h-9.2c-0.6-1.7-2.3-2.8-4.3-2.8c-3.2,0.1-3.5,2.1-3.3,2.7
				C101.1,248.7,104.8,249.1,107.7,249.9z"/>
			<path stroke="#E5C650" stroke-width="1.6571" stroke-miterlimit="10" d="M151.4,238.1v8.5h-9.3v24h-9.7v-24h-8.8v-8.5H151.4z"/>
			<path stroke="#E5C650" stroke-width="1.6571" stroke-miterlimit="10" d="M174.3,238.1c4,0,8.7,0.4,11.5,4.7
				c1.5,2.3,1.6,5.7,0.6,7.9c-1,2.3-2.6,3.7-5,4.7c4.9,2.1,4.9,7.6,5,11c0.2,1.5,0.4,3,1.2,4.2h-9.7l-0.6-3.8
				c-0.9-7.6-1.7-7.9-7.4-7.8h-2.3v11.6h-9.5v-32.5H174.3z M177.2,248.9c-0.1-2.2-1.9-3.3-3.8-3.3h-5.8v6.6h6.2
				C175.3,252.2,177.2,251.3,177.2,248.9z"/>
			<path stroke="#E5C650" stroke-width="1.6571" stroke-miterlimit="10" d="M221,246.4h-17.5v4h14.8v7.5h-14.8v4.4h17.9v8.2l-27.4,0
				v-32.5H221V246.4z"/>
			<path stroke="#E5C650" stroke-width="1.6571" stroke-miterlimit="10" d="M255.5,246.4h-17.5v4h14.8v7.5h-14.8v4.4h17.9v8.2
				l-27.4,0v-32.5h27.1V246.4z"/>
			<path stroke="#E5C650" stroke-width="1.6571" stroke-miterlimit="10" d="M290,238.1v8.5h-9.3v24H271v-24h-8.8v-8.5H290z"/>
			<path stroke="#E5C650" stroke-width="1.6571" stroke-miterlimit="10" d="M296.9,270.6l-8.8,0v-9.2h8.8V270.6z"/>
		</g>
		<g>
			<path fill="#E5C650" d="M106.1,45.7c-0.6,0.3-1.3,0.7-1.9,1.1c-0.4,0.2-0.8,0.5-1.2,0.8c-0.8,0.5-1.7,1.2-3.3,2.6
				C98.9,51,97.9,52,97.2,53c-0.4,0.6-0.7,1.4-0.7,2.1c0,0.2,0,0.6,0.2,1c0.4,0.9,1.3,1,1.6,1c0.6,0,1.2-0.3,1.7-0.5
				c1.4-0.7,3.3-2.1,5.5-5c0.6-0.9,1.3-1.7,1.8-2.6c0,0,2.1-3.4,2.1-5.6c0-2.1-1.5-3.7-3.7-3.7c-0.8,0-2.1,0.2-3.7,1.4
				c-1.6,1.2-4.2,3.9-6.3,8.5c-1.1,2.2-2.6,6.3-2.6,8.8c0,0.6,0,2.5,1.5,3.8c0.5,0.4,1,0.6,1.3,0.7c0.7,0.3,1.8,0.5,3.6,0.5
				c2.8,0,5.9-0.7,11.4-2.6l0.2,0.7c-0.8,0.3-1.7,0.7-2.5,1c-4.3,1.6-7,1.9-9,1.9c-3.5,0-5.3-1.1-6.6-2c-0.7-0.5-1.3-1.2-1.8-1.9
				c-1-1.5-1.5-3.6-1.5-5.3c0-2.2,0.7-4.8,1.8-6.7c0.5-1,2-3.5,4.4-5.5c2.4-2.1,6-3.7,9.2-3.7c0.6,0,2.4,0,3.8,1.3
				c0.8,0.7,1.9,2.2,1.9,4.8c0,2.3-0.8,4.5-2,6.3c-1.3,2-3.5,4.2-5.7,5.3c-0.9,0.5-1.6,0.7-2,0.8c-0.7,0.2-1.4,0.3-2.2,0.3
				c-0.3,0-1.3,0-2.1-0.6c-0.5-0.3-1.2-1-1.2-2.4c0-1.8,1.4-4.6,4.8-7.2c1.8-1.3,3.2-1.9,5.3-2.6L106.1,45.7z"/>
			<path fill="#E5C650" d="M127,58.8c-0.8,0.2-1.5,0.3-2.3,0.3c-1.2,0-1.8-0.2-2.3-0.4c-0.9,1.5-2,2.9-3.5,3.9
				c-0.6,0.4-1.1,0.7-1.8,1c-0.4,0.1-1.1,0.4-2.2,0.4c-0.3,0-1.7,0-2.8-0.7c-0.6-0.4-1.4-1.3-1.4-3c0-1.1,0.4-4,2.3-6.6
				c0.6-0.8,1.2-1.4,1.5-1.6c0.4-0.3,1.1-0.9,2.1-1.5c0.7-0.4,1.5-0.7,1.7-0.7c0.2,0,0.2,0.2,0.2,0.3c0,0.1-0.1,0.2-0.3,0.4
				c-0.1,0.2-0.2,0.4-0.4,0.6c-0.4,0.6-0.7,1.3-1.1,1.9c-1.3,2.4-1.9,4.7-2.2,5.6c0,0.2-0.4,1.4-0.4,2.4c0,0.2,0,1.4,0.8,1.9
				c0.1,0.1,0.4,0.3,0.8,0.3s1-0.2,1.7-0.9c1.6-1.4,2.2-2.9,3-4.8c-0.7-0.8-2.1-2.3-2.1-5.1c0-0.5,0.1-1.1,0.1-1.3
				c0,0,0.4-2.7,2.2-2.7c0.7,0,1.4,0.5,1.5,0.6c0.7,0.6,1.5,1.7,1.5,3.7c0,1-0.2,3-1.3,5.4c0.2,0.1,1.1,0.3,1.9,0.3
				c1.1,0,1.9-0.5,2.2-0.6L127,58.8z M121.5,52.9c0-1.7-0.3-3.7-1.1-3.6c-0.8,0-0.9,2.1-0.9,2.6c0,1.9,0.6,3.1,1.5,4.7
				C121.3,55.1,121.5,54.1,121.5,52.9z"/>
			<path fill="#E5C650" d="M129.3,63.1c0,0.1-0.1,0.3,0,0.3c0.1,0,0.2-0.1,0.2-0.1c0.1-0.1,0.4-0.8,0.6-1.4c2.2-5.2,4.2-8.2,5.9-9.9
				c1.4-1.4,2.8-2,3.6-2c0.6,0,2.1,0.3,2.1,2.1c0,0.7-0.4,1.6-0.5,1.8l-3.6,9c0,0.1-0.1,0.2-0.1,0.3c0,0.1,0.1,0.2,0.2,0.2
				c0,0,0.1,0,0.1-0.1c0.1-0.1,0.3-0.5,0.4-0.9l0.7-1.5c1.4-3,3.1-6.6,5.5-8.9c1.5-1.5,2.7-1.9,3.7-1.9c1.2,0,2.1,0.7,2.1,1.9
				c0,0.6-0.2,1-0.4,1.5c-0.8,1.9-1.6,3.8-2.6,6.4c0,0.1-0.4,1-0.4,1.7c0,0.8,0.5,1.4,1.3,1.4c0.5,0,1.1-0.1,2.1-0.6
				c0.7-0.3,1.3-0.6,2.6-1.5l0.3,0.4c-0.3,0.3-0.9,0.7-2.1,1.4c-1.4,0.7-2.3,1-3,1.1c-0.2,0-0.9,0.2-1.5,0.2c-1.2,0-2.4-0.5-3-1.6
				c-0.3-0.6-0.3-1-0.3-1.3c0-0.4,0-0.9,0.3-1.7l3.2-8.1c0-0.1,0.1-0.3,0.1-0.3c0,0,0-0.2-0.1-0.1c-0.1,0-0.5,0.3-0.6,0.4
				c-0.1,0.1-1.3,1.2-2.1,2.2c-1.8,2.3-4.1,6.6-5.3,8.9c-0.4,0.7-0.6,1.2-0.9,1.4c-0.3,0.3-0.8,0.2-1,0.2s-0.6,0-1-0.1
				c-1.3-0.5-1.5-1.9-1.5-2.2c0-0.8,0.3-1.7,0.6-2.4l3.1-7.9c0-0.1,0.1-0.3,0.1-0.3s0-0.1-0.1-0.1s-0.3,0.2-0.5,0.3
				c-0.5,0.4-1.5,1.4-2.5,2.8c-2.4,3.2-4.3,7.1-4.8,8.1c-0.4,0.8-0.6,1.2-1,1.5c-0.2,0.2-0.5,0.4-1.1,0.4c-0.3,0-1.5,0-2-1.1
				c-0.1-0.2-0.2-0.6-0.2-1.1c0-0.5,0.1-1.2,0.4-2.2l3.1-8.4l4.3-1.2L129.3,63.1z"/>
			<path fill="#E5C650" d="M165.1,61.6c-0.6,0.3-1.3,0.6-1.9,1c-2.1,1-3.4,1.4-5.7,1.4c-0.3,0-0.7,0-1,0c-0.3,0-2.4-0.1-3.4-1.3
				c-0.4-0.5-0.5-1.3-0.5-2c0-1.7,1-4.7,1.8-6.2c0.3-0.4,0.7-1.3,1.6-2.2c1.8-2,3.9-2.5,5-2.5c0.7,0,2.6,0.2,2.6,2.4
				c0,1-0.3,2.2-1.7,3.8c-1.1,1.2-2.3,2.1-5.2,3.5c0,0.1-0.1,0.7-0.1,1.3c0,0.1,0,0.7,0.2,1.1c0.2,0.6,0.7,1.3,2.1,1.4
				c2.4,0,5.9-2,6.1-2.1L165.1,61.6z M158.6,56.8c0.9-1,3.4-4.3,3.4-5.8c0-0.4-0.3-0.8-0.8-0.8c-0.5,0-0.9,0.4-1.2,0.8
				c-0.4,0.5-1.1,1.8-1.4,2.4c-1.1,2.2-1.7,4.5-1.8,5.2C157.4,58,158.1,57.5,158.6,56.8z"/>
			<path fill="#E5C650" d="M176.7,59.7c-0.4-0.3-0.9-0.8-1.3-1.2c-1.8-2-2-4.2-2-5.2c0-2.3,0.8-6.2,5.4-9.4
				c2.5-1.7,7.1-3.9,14.4-4.4c0.7,0,1.4-0.1,2.1-0.1c0.7,0,1.4,0.1,1.4,0.6c0,0.3-0.5,0.7-1,1.3c-0.5,0.6-1,1.2-1.4,1.8
				c-1.7,2.3-3.1,4.9-3.5,5.7c-1.3,2.6-3.5,8.1-3.5,11c0,0.9,0.1,1.3,0.2,1.6c0.2,0.6,0.9,1.9,2.8,1.9c0.3,0,1,0,1.8-0.3
				c1.2-0.5,3.1-1.8,4.9-4.5c2.4-3.6,4.3-9.6,4.3-13.9c0-0.7,0-2.6-1-4.4c-0.2-0.3-0.3-0.5-0.3-0.6c0-0.3,0.7-0.2,0.8-0.2
				c1,0,2.9,0.4,3.8,2.8c0.4,0.9,0.5,1.8,0.5,2.8c0,1-0.1,2.4-0.7,4.6c-1.7,6.1-5.4,10-7.1,11.4c-0.7,0.6-3.7,3.1-7.4,3.1
				c-3.7,0-6.6-2.7-6.5-6.5c0-1.9,0.7-4.6,3.1-8.1c0.8-1.2,1.8-2.5,2.8-3.6c0.9-1,2.3-2.3,4.6-4.2c0.5-0.4,1-0.8,1.6-1.3
				c0.2-0.1,0.2-0.2,0.2-0.2c0-0.1-0.2-0.2-0.5-0.2c-0.4,0-1.3,0-2.4,0.2c-5.7,0.8-10.4,3.7-11.9,4.8c-1.3,0.9-2.1,1.7-2.6,2.2
				c-1.9,1.9-3.8,4.4-3.8,7.2c0,0.2,0,0.9,0.2,1.6c0.4,1.4,1.2,2.2,2.2,3.1L176.7,59.7z"/>
			<path fill="#E5C650" d="M209.1,60.2c-0.2,0.5-0.4,0.9-0.4,1.5c0,0.9,0.4,1.4,1.3,1.4c0.4,0,0.6,0,1.3-0.3
				c1.1-0.4,2.2-1.1,3.2-1.8l0.2,0.5c-0.3,0.2-0.6,0.4-0.8,0.6c-1.5,1.1-3.1,1.7-4.9,1.7c-0.2,0-1.8,0-2.8-0.7
				c-0.2-0.1-0.4-0.3-0.7-0.7c-0.2-0.4-0.4-0.8-0.4-1.3c0-0.5,0.1-0.8,0.4-1.6l3.1-8.4l4.3-1.2L209.1,60.2z M210.3,45.4
				c0-1.3,1.1-2.3,2.3-2.3c1.3,0,2.3,1.1,2.3,2.3c0,1.3-1.1,2.3-2.3,2.3c-0.3,0-1-0.1-1.6-0.7C210.4,46.4,210.3,45.7,210.3,45.4z"/>
			<path fill="#E5C650" d="M221.8,55.5c0.4,1,0.7,1.8,0.6,2.8c0,2.2-1.5,3.4-3.1,4.6c0.4,0.2,0.9,0.4,1.9,0.4c0.5,0,0.9-0.1,1.5-0.2
				c1.6-0.4,2.6-1,3.8-2l0.3,0.5c-0.3,0.2-0.5,0.4-0.8,0.6c-0.6,0.5-2.2,1.8-4.5,1.8c-1.4,0-2.4-0.5-2.9-0.8
				c-1.3,0.5-2.2,0.8-2.9,0.8c-1,0-1.2-0.6-1.3-1l-0.2-1.2c-0.1-0.3,0-0.5,0-0.6c0.2-0.4,1-1,1.9-1.7c1.2-1.1,1.7-1.6,2.2-2.2
				c-0.2-1.4-0.3-1.8-0.3-2.6c0-1.7,0.5-2.8,0.8-3.3c0.2-0.4,0.6-0.8,1-1.1c0.8-0.7,1.3-0.8,1.8-0.8c1,0,1.5,0.8,1.5,1.8
				c0,1.4-0.9,2.5-1.7,3.5L221.8,55.5z M218.6,62.6c0.5-0.5,0.7-1,0.7-1.7c0-0.7-0.3-1.5-0.3-1.7c-0.1-0.4-0.2-0.8-0.3-1.2
				c-0.5,0.5-1.1,1.1-1.7,1.6c-0.4,0.4-0.9,0.7-1.3,1.1L218.6,62.6z M221.7,53.4c0.1-0.2,0.6-1.1,0.6-2c0-0.9-0.4-1.4-0.9-1.4
				c-0.5,0-0.8,0.6-0.8,1.5c0,0.8,0.2,1.8,0.5,2.7C221.4,53.9,221.6,53.6,221.7,53.4z"/>
			<path fill="#E5C650" d="M230.3,60.2c-0.2,0.5-0.4,0.9-0.4,1.5c0,0.9,0.4,1.4,1.3,1.4c0.4,0,0.6,0,1.3-0.3
				c1.1-0.4,2.2-1.1,3.2-1.8l0.2,0.5c-0.3,0.2-0.6,0.4-0.9,0.6c-1.5,1.1-3.1,1.7-4.9,1.7c-0.2,0-1.8,0-2.8-0.7
				c-0.2-0.1-0.4-0.3-0.7-0.7c-0.2-0.4-0.4-0.8-0.4-1.3c0-0.5,0.1-0.8,0.4-1.6l3.1-8.4l4.3-1.2L230.3,60.2z M231.6,45.4
				c0-1.3,1.1-2.3,2.3-2.3c1.3,0,2.3,1.1,2.3,2.3c0,1.3-1.1,2.3-2.3,2.3c-0.3,0-1-0.1-1.6-0.7C231.7,46.4,231.6,45.7,231.6,45.4z"/>
			<path fill="#E5C650" d="M242.7,50.9h2.7l-1,1.4h-2.2l-2.8,7.8c-0.3,0.9-0.3,1.1-0.3,1.6c0,0.4,0.1,1.3,1.3,1.3
				c1,0,2.9-0.9,5.3-1.9l0.3,0.5c-2,1-4.6,2.3-6.8,2.3c-0.8,0-1.8-0.2-2.4-0.6c-0.3-0.2-0.6-0.4-0.8-0.7c-0.4-0.6-0.5-1.1-0.5-1.4
				c0-0.5,0.2-1.1,0.3-1.6l2.6-7.3h-2l1-1.4h1.5l2.2-6.5l4.3-1.2L242.7,50.9z"/>
			<path fill="#E5C650" d="M266.3,60.4c-0.2,0.5-1,1.7-1,2.3c0,0.4,0.3,0.7,0.7,0.7c0.1,0,0.3,0,0.5-0.1c0.4-0.2,1.2-0.7,1.9-1.5
				c1.7-1.8,4.1-5.3,4.2-5.4c1-1.5,1.9-3,2.8-4.5c1.2-2,2.3-4,3.6-6.3c0.9-1.7,1.8-3.3,2.6-4.9l5-0.8l-6.1,13.8
				c-0.8,1.9-1.7,4-2.4,5.7c-0.2,0.7-0.7,1.9-0.7,2.7c0,0.1,0,0.3,0.1,0.6c0.4,0.7,1.2,0.7,1.4,0.7c0.7,0,1.7-0.3,1.9-0.3
				c2.7-0.7,5.4-1.9,6.2-2.2v0.7c-4,1.7-6.2,2.5-8.3,2.5c-1.2,0-2.5-0.3-3.4-1.1c-0.2-0.1-0.5-0.5-0.8-1c-0.1-0.4-0.3-0.8-0.3-1.7
				c0-1,0.2-1.7,0.3-2.1c0.4-1.4,1.6-4.2,3.1-7.4l4.3-9c0-0.1,0.1-0.2,0-0.2c-0.1,0-0.1,0.1-0.2,0.2c-1,2-2,4.1-3.1,6.1
				c-1.1,2-2.2,3.9-3.3,5.8c-1.1,1.9-2.3,3.7-3.6,5.5c-2.3,3.3-4.1,4.9-6.1,4.9c-2,0-3.1-1.8-3.1-3.6c0-0.4,0-0.8,0.2-1.6
				c0.3-1.1,0.7-1.9,1.7-3.9l5.9-11.2c0.6-1.2,1.1-2,1.1-2.6s-0.4-1-1.5-1c-0.9,0-1.8,0.1-3.4,0.9s-3.9,2-6.7,5.1
				c-0.7,0.7-1.4,1.5-2,2.3c-2.1,2.8-2.5,4.8-2.5,6.4c0,2.7,1.5,4.3,2.1,5l-0.6,0.4c-0.8-1-2.9-3.3-2.9-6.9c0-0.6,0.1-1.7,0.6-3.2
				c0.6-2,2.1-4.6,6-7.2c1.9-1.3,3.1-1.9,4-2.3c0.6-0.3,1.8-0.7,3.4-1.1c1-0.2,1.8-0.3,2.8-0.3c1.5,0,2.3,0.3,2.9,0.8
				c0.3,0.3,0.6,0.6,0.8,1c0.2,0.5,0.2,1,0.2,1.2c0,1.2-0.5,2.3-1.5,4.4L266.3,60.4z"/>
			<path fill="#E5C650" d="M292.7,55.5c0.4,1,0.7,1.8,0.6,2.8c0,2.2-1.5,3.4-3.1,4.6c0.4,0.2,0.9,0.4,1.9,0.4c0.5,0,0.9-0.1,1.5-0.2
				c1.6-0.4,2.6-1,3.8-2l0.3,0.5c-0.3,0.2-0.5,0.4-0.8,0.6c-0.6,0.5-2.2,1.8-4.5,1.8c-1.4,0-2.4-0.5-2.9-0.8
				c-1.3,0.5-2.2,0.8-2.9,0.8c-1,0-1.2-0.6-1.3-1l-0.2-1.2c-0.1-0.3,0-0.5,0-0.6c0.2-0.4,1-1,1.9-1.7c1.2-1.1,1.7-1.6,2.2-2.2
				c-0.2-1.4-0.3-1.8-0.3-2.6c0-1.7,0.5-2.8,0.8-3.3c0.2-0.4,0.6-0.8,1-1.1c0.8-0.7,1.3-0.8,1.8-0.8c1,0,1.5,0.8,1.5,1.8
				c0,1.4-0.9,2.5-1.7,3.5L292.7,55.5z M289.5,62.6c0.5-0.5,0.7-1,0.7-1.7c0-0.7-0.3-1.5-0.3-1.7c-0.1-0.4-0.2-0.8-0.3-1.2
				c-0.5,0.5-1.1,1.1-1.7,1.6c-0.4,0.4-0.9,0.7-1.3,1.1L289.5,62.6z M292.6,53.4c0.1-0.2,0.6-1.1,0.6-2c0-0.9-0.4-1.4-0.9-1.4
				c-0.5,0-0.8,0.6-0.8,1.5c0,0.8,0.2,1.8,0.5,2.7C292.3,53.9,292.5,53.6,292.6,53.4z"/>
		</g>
		<g>
			<path fill="#E5C650" d="M41.9,348.2c0.4-0.1,0.9-0.3,1.4-1.1c0.4-0.6,0.9-1.8,1.5-3.4l2.3-7.1c0.3-1,0.6-1.5,1.2-2.4
				c0.6-1,1-1.5,1.8-2.3c0.4-0.4,0.8-0.8,1.2-1.2c0.8-0.7,1.6-1.3,2.5-1.9l0.3,0.3c-0.2,0.4-0.5,0.8-0.7,1.3c-1.1,2-1.6,3.7-1.9,4.5
				l-2.4,7.2c-0.3,0.7-0.7,2-1.9,3.4c-1.4,1.7-2.8,2.3-3.6,2.6c0.8,0,1.7,0.1,2.6,0.1c2.6,0,6.1-0.3,9.4-5.1c0.4-0.7,0.9-1.3,1.2-2
				c0.3-0.5,1.9-3.8,1.9-6.7c0-0.5-0.1-2.5-1.2-4.1c-0.9-1.2-2.8-2.4-6.1-2.4c-5.6,0-9,2.9-10.5,4.4c-1.3,1.2-2.5,2.7-3.4,4.2
				c-1.1,1.7-1.3,2.8-1.3,3.7c0,1.5,0.7,2.2,1.1,2.6l-0.4,0.4c-0.6-0.7-1.6-1.6-1.6-3.8c0-0.3,0-1.3,0.3-2.3
				c0.4-1.6,1.5-3.4,2.6-4.7c0.7-0.7,2.3-2.4,4.8-3.5c1.4-0.7,4.3-1.6,8.2-1.6c1.2,0,5.2,0,8.2,2.7c1.3,1.2,1.9,2.3,2.1,3
				c0.5,1.3,0.5,2.5,0.5,3c0,3-1.2,5-1.8,5.9c-1.6,2.4-3.7,4-4.5,4.6c-1.7,1.1-4.2,2.3-8.6,2.3c-1.6,0-3.2-0.1-4.8-0.3V348.2z"/>
			<path fill="#E5C650" d="M76.7,344.3c-0.7,0.1-1.3,0.3-2,0.3c-1,0-1.5-0.2-2-0.4c-0.8,1.3-1.8,2.6-3.1,3.4c-0.5,0.4-1,0.6-1.5,0.8
				c-0.3,0.1-1,0.3-1.9,0.3c-0.2,0-1.5,0-2.4-0.6c-0.6-0.4-1.2-1.1-1.2-2.6c0-0.9,0.4-3.5,2-5.7c0.5-0.7,1.1-1.2,1.3-1.4
				c0.4-0.3,0.9-0.8,1.9-1.3c0.6-0.3,1.3-0.6,1.5-0.6c0.2,0,0.2,0.1,0.2,0.2s-0.1,0.2-0.2,0.4c-0.1,0.2-0.2,0.4-0.3,0.5
				c-0.3,0.6-0.7,1.1-1,1.6c-1.1,2.1-1.7,4.1-1.9,4.9c0,0.2-0.3,1.2-0.3,2.1c0,0.1,0,1.2,0.7,1.7c0.1,0.1,0.3,0.2,0.7,0.2
				c0.4,0,0.9-0.2,1.5-0.8c1.4-1.2,1.9-2.5,2.6-4.2c-0.6-0.7-1.8-2-1.8-4.5c0-0.5,0.1-1,0.1-1.1c0,0,0.4-2.3,2-2.3
				c0.7,0,1.2,0.4,1.3,0.5c0.6,0.5,1.3,1.5,1.3,3.2c0,0.9-0.2,2.6-1.1,4.7c0.2,0.1,1,0.3,1.7,0.3c1,0,1.7-0.4,1.9-0.5L76.7,344.3z
				 M71.9,339.2c0-1.5-0.3-3.2-1-3.2c-0.7,0-0.8,1.9-0.8,2.3c0,1.7,0.5,2.7,1.3,4.1C71.8,341.1,71.9,340.2,71.9,339.2z"/>
			<path fill="#E5C650" d="M97.9,345.9c-0.5,0.1-1.9,0.2-3.2-0.7c-0.4-0.2-0.6-0.4-0.9-0.7c-0.4,0.6-0.8,1.2-1.9,2.2
				c-0.7,0.6-2.3,2.1-5,2.1c-1.3,0-2-0.3-2.6-0.6c-0.3-0.2-0.5-0.4-0.6-0.5c-0.4,0.2-2.3,1.1-4.2,1.1c-0.6,0-1.1-0.1-1.3-0.1
				c-1.7-0.4-2.1-1.6-2.1-2.3c0-0.5,0.3-1.3,0.4-1.3l2.7-7.4l3.7-1l-3.3,9c0,0.1-0.3,0.8-0.3,1.3c0,0.9,0.6,1.2,1.4,1.2
				c0.9,0,2-0.6,2.7-1c0-0.1-0.1-0.3-0.1-0.7c0-0.4,0.2-0.8,0.3-1.2l2.8-7.6l3.7-1l-3.4,9.2c0,0-0.4,0.9-0.4,1.4
				c0,0.7,0.5,1.1,1.1,1.1c1.4,0,2.6-1.3,2.7-1.5c0.9-1,1.6-2.3,1.8-2.6c0.2-0.3,0.3-0.7,0.5-1.1c-0.4-0.6-1.5-2.2-1.5-4.4
				c0-0.2,0-0.7,0.1-1.2c0.2-1,0.9-1.9,2-1.9c0.3,0,0.7,0.1,1,0.2c0.4,0.2,1.1,0.8,1.4,1.8c0.1,0.5,0.1,1.1,0.1,1.2
				c0,0.3,0,1-0.2,1.8c-0.4,1.6-1.2,2.9-1.5,3.4c0.7,0.6,1.3,1.1,3.1,1.1c0.4,0,0.7,0,1.1-0.1L97.9,345.9z M93.6,338.6
				c0-0.1,0-0.7-0.1-1.1c0-0.1-0.1-0.5-0.3-0.7c-0.1-0.2-0.3-0.3-0.5-0.3c-0.1,0-0.2,0-0.3,0.1c-0.4,0.3-0.6,1-0.6,2.1
				c0,1.9,0.7,3.4,1,4C92.9,342.3,93.6,340.2,93.6,338.6z"/>
			<path fill="#E5C650" d="M109.2,345.4c-0.2,0.4-0.4,1.1-0.4,1.6c0,0.4,0.1,1.1,1.1,1.1c1.2,0,3.2-1.2,4.2-1.8l0.3,0.4
				c-0.4,0.2-0.8,0.5-1.2,0.7c-1.3,0.8-2.6,1.4-4.1,1.4c-0.2,0-0.6,0-1.1-0.1c-0.5-0.1-2.1-0.7-2.1-2.6c0-0.6,0.2-1.2,0.3-1.4
				l2.9-7.1c0-0.1,0.1-0.3,0-0.3c-0.1,0-0.6,0.4-0.7,0.5c-1.9,1.8-3.5,4.5-3.9,5c-0.4,0.7-0.9,1.5-1.3,2.2c-0.5,0.8-0.9,1.6-1.4,2.4
				c-0.4,0.7-0.8,1.3-1.7,1.3c-0.5,0-2,0-2-1.8c0-0.6,0.2-1.1,0.4-1.7l2.8-7.6l3.7-0.9l-4.1,10.8c-0.1,0.2-0.1,0.3-0.1,0.4
				c0,0.1,0,0.1,0.1,0.1c0.1,0,0.1-0.1,0.1-0.1c0.1-0.1,0.4-0.7,0.7-1.3c0.3-0.5,2.1-4.3,4-6.8c0.5-0.7,0.9-1.1,1.5-1.7
				c0.1-0.1,1.6-1.7,3.1-1.7c0.4,0,1.8,0.2,1.8,1.6c0,0.4-0.1,0.6-0.3,1.2L109.2,345.4z"/>
			<path fill="#E5C650" d="M120.2,337.4h2.3l-0.9,1.2h-1.9l-2.4,6.8c-0.2,0.7-0.3,1-0.3,1.4c0,0.4,0.1,1.1,1.1,1.1
				c0.9,0,2.6-0.8,4.6-1.7l0.2,0.5c-1.7,0.8-4,2-5.9,2c-0.7,0-1.6-0.2-2.1-0.5c-0.3-0.1-0.5-0.4-0.7-0.7c-0.4-0.5-0.4-1-0.4-1.2
				c0-0.5,0.1-1,0.3-1.4l2.2-6.4h-1.8l0.9-1.2h1.3l2-5.6l3.7-1L120.2,337.4z"/>
			<path fill="#E5C650" d="M136.7,344.3c-0.7,0.1-1.3,0.3-2,0.3c-1,0-1.5-0.2-2-0.4c-0.8,1.3-1.8,2.6-3.1,3.4
				c-0.5,0.4-0.9,0.6-1.5,0.8c-0.3,0.1-1,0.3-1.9,0.3c-0.2,0-1.5,0-2.4-0.6c-0.6-0.4-1.2-1.1-1.2-2.6c0-0.9,0.4-3.5,2-5.7
				c0.5-0.7,1.1-1.2,1.3-1.4c0.4-0.3,0.9-0.8,1.9-1.3c0.6-0.3,1.3-0.6,1.5-0.6c0.2,0,0.2,0.1,0.2,0.2s-0.1,0.2-0.2,0.4
				c-0.1,0.2-0.2,0.4-0.3,0.5c-0.3,0.6-0.7,1.1-0.9,1.6c-1.1,2.1-1.7,4.1-1.9,4.9c0,0.2-0.3,1.2-0.3,2.1c0,0.1,0,1.2,0.7,1.7
				c0.1,0.1,0.3,0.2,0.7,0.2c0.4,0,0.9-0.2,1.5-0.8c1.4-1.2,1.9-2.5,2.6-4.2c-0.6-0.7-1.8-2-1.8-4.5c0-0.5,0.1-1,0.1-1.1
				c0,0,0.4-2.3,2-2.3c0.7,0,1.2,0.4,1.3,0.5c0.6,0.5,1.3,1.5,1.3,3.2c0,0.9-0.2,2.6-1.1,4.7c0.2,0.1,0.9,0.3,1.7,0.3
				c1,0,1.7-0.4,1.9-0.5L136.7,344.3z M131.9,339.2c0-1.5-0.3-3.2-1-3.2c-0.7,0-0.8,1.9-0.8,2.3c0,1.7,0.5,2.7,1.3,4.1
				C131.8,341.1,131.9,340.2,131.9,339.2z"/>
			<path fill="#E5C650" d="M157.9,345.9c-0.5,0.1-1.9,0.2-3.2-0.7c-0.4-0.2-0.6-0.4-0.9-0.7c-0.4,0.6-0.8,1.2-1.9,2.2
				c-0.7,0.6-2.3,2.1-5,2.1c-1.3,0-2-0.3-2.6-0.6c-0.3-0.2-0.5-0.4-0.6-0.5c-0.4,0.2-2.3,1.1-4.2,1.1c-0.6,0-1.1-0.1-1.3-0.1
				c-1.7-0.4-2.1-1.6-2.1-2.3c0-0.5,0.3-1.3,0.4-1.3l2.7-7.4l3.7-1l-3.3,9c0,0.1-0.3,0.8-0.3,1.3c0,0.9,0.6,1.2,1.4,1.2
				c0.9,0,2-0.6,2.7-1c0-0.1-0.1-0.3-0.1-0.7c0-0.4,0.2-0.8,0.3-1.2l2.8-7.6l3.7-1l-3.4,9.2c0,0-0.4,0.9-0.4,1.4
				c0,0.7,0.5,1.1,1.1,1.1c1.4,0,2.6-1.3,2.7-1.5c0.9-1,1.6-2.3,1.8-2.6c0.2-0.3,0.3-0.7,0.5-1.1c-0.4-0.6-1.5-2.2-1.5-4.4
				c0-0.2,0-0.7,0.1-1.2c0.2-1,0.9-1.9,2-1.9c0.3,0,0.7,0.1,0.9,0.2c0.4,0.2,1.1,0.8,1.4,1.8c0.1,0.5,0.1,1.1,0.1,1.2
				c0,0.3,0,1-0.2,1.8c-0.4,1.6-1.2,2.9-1.5,3.4c0.7,0.6,1.3,1.1,3.1,1.1c0.4,0,0.7,0,1.1-0.1L157.9,345.9z M153.6,338.6
				c0-0.1,0-0.7-0.1-1.1c0-0.1-0.1-0.5-0.3-0.7c-0.1-0.2-0.3-0.3-0.5-0.3c-0.1,0-0.2,0-0.3,0.1c-0.4,0.3-0.6,1-0.6,2.1
				c0,1.9,0.7,3.4,1,4C152.9,342.3,153.6,340.2,153.6,338.6z"/>
			<path fill="#E5C650" d="M169.2,345.4c-0.2,0.4-0.4,1.1-0.4,1.6c0,0.4,0.1,1.1,1.1,1.1c1.2,0,3.2-1.2,4.2-1.8l0.3,0.4
				c-0.4,0.2-0.8,0.5-1.2,0.7c-1.3,0.8-2.6,1.4-4.1,1.4c-0.2,0-0.6,0-1.1-0.1c-0.5-0.1-2.1-0.7-2.1-2.6c0-0.6,0.2-1.2,0.3-1.4
				l2.8-7.1c0-0.1,0.1-0.3,0-0.3c-0.1,0-0.6,0.4-0.7,0.5c-1.9,1.8-3.5,4.5-3.9,5c-0.4,0.7-0.9,1.5-1.3,2.2c-0.5,0.8-0.9,1.6-1.4,2.4
				c-0.4,0.7-0.8,1.3-1.7,1.3c-0.5,0-2,0-2-1.8c0-0.6,0.2-1.1,0.4-1.7l2.8-7.6l3.7-0.9l-4.1,10.8c-0.1,0.2-0.1,0.3-0.1,0.4
				c0,0.1,0,0.1,0.1,0.1c0.1,0,0.1-0.1,0.1-0.1c0.1-0.1,0.4-0.7,0.7-1.3c0.3-0.5,2.1-4.3,4-6.8c0.5-0.7,0.9-1.1,1.5-1.7
				c0.1-0.1,1.6-1.7,3.1-1.7c0.4,0,1.8,0.2,1.8,1.6c0,0.4-0.1,0.6-0.3,1.2L169.2,345.4z"/>
			<path fill="#E5C650" d="M195.1,337.6c0.1,0.4,0.4,0.7,0.5,1.1c0.4,0.9,0.6,1.6,0.7,2.6c1,0.2,2,0.5,3.1,0.8l0.4,1.3
				c-1-0.5-1.5-0.8-3.4-1.4c-0.1,0.9-0.2,1.5-0.3,1.8c-0.6,2.2-2.1,3.2-2.7,3.7c-1,0.6-2.6,1.4-5.3,1.4c-0.3,0-2,0-3.2-0.4
				c-0.6-0.2-3-1.1-3-3.6c0-0.5,0.1-1.3,0.8-2.2c0.7-0.9,1.9-1.9,4.4-2.3c0.5-0.1,1.1-0.2,2.1-0.2c0.7,0,1.9,0,3.5,0.3l-1.1-2.2
				c-0.5-1-1-1.9-1.5-2.8c-0.5-1-0.9-2-0.9-3.1c0-0.8,0.2-2.3,1.8-3.6c0.7-0.5,2-1.5,4.2-1.5c2.5,0,3.4,1.5,3.4,2.6
				c0,1.2-1,2.2-1.2,2.4c-0.9,0.9-2.3,1.3-2.7,1.4c0.1-0.2,0.3-0.5,0.5-0.7c0.2-0.3,1.2-1.9,1.2-3.4c0-1.4-0.8-1.7-1.4-1.7
				c-0.4,0-0.7,0.1-1.1,0.4c-1.3,0.8-1.5,2.6-1.5,3c0,0.4,0.1,1,0.2,1.4c0.3,0.9,1,2.1,1.4,3L195.1,337.6z M190.6,340.9
				c-1.8,0-4,0.8-5,2.3c-0.2,0.3-0.7,1.1-0.7,2.2c0,0.2,0,0.6,0.2,1c0.4,1.3,1.6,2,3,2c0.5,0,1.1-0.1,1.6-0.3c2-0.7,3.4-2.9,3.4-5.1
				c0-0.9-0.2-1.6-0.3-1.9C192.7,341.1,191.4,340.9,190.6,340.9z"/>
			<path fill="#E5C650" d="M202.4,347.4c0,0.1-0.1,0.2-0.1,0.3c-0.1,0.1-0.1,0.2-0.1,0.3c0,0.1,0,0.1,0.1,0.1c0,0,0.1-0.1,0.1-0.1
				c0.1-0.1,0.4-0.7,0.4-0.8l0.6-1.2c1.7-3.3,3-5.1,4.1-6.4c0.2-0.2,1.2-1.5,2.4-2.3c0.8-0.6,1.2-0.7,1.8-0.7c0.1,0,0.4,0,0.8,0.1
				c0.4,0.1,1,0.5,1,1.5c0,0.4,0,0.5-0.3,1.3l-2.4,6c-0.3,0.7-0.3,1-0.3,1.4c0,0.1,0,0.6,0.4,0.9c0.4,0.3,0.9,0.3,1,0.3
				c0.9,0,2.4-0.9,2.6-1c0.4-0.2,0.8-0.6,1.2-0.8l0.3,0.4c-0.5,0.4-0.9,0.7-1.5,1c-0.4,0.3-1.9,1.1-4,1.1c-0.1,0-1.8,0.1-2.8-1
				c-0.4-0.4-0.5-0.9-0.5-1.3c0-0.7,0.4-1.7,0.5-1.8l2.7-6.7c0.1-0.2,0.2-0.4,0.2-0.6c0,0,0-0.1,0-0.1c-0.3,0-2.3,2.4-3.6,4.2
				c-0.5,0.7-0.9,1.4-1.4,2.2c-0.4,0.7-0.8,1.3-1.2,2c-0.3,0.6-0.7,1.1-1,1.7c-0.2,0.4-0.6,1-0.9,1.3c-0.3,0.2-0.5,0.2-0.9,0.2
				c-0.1,0-0.7,0-1.1-0.1c-0.7-0.2-1.1-0.9-1.1-1.6c0-0.6,0.1-0.8,0.4-1.8l5.8-16.5l3.7-1L202.4,347.4z"/>
			<path fill="#E5C650" d="M226.3,346.8c-0.5,0.3-1.1,0.6-1.6,0.8c-1.8,0.9-2.9,1.2-5,1.2c-0.3,0-0.6,0-0.9,0c-0.2,0-2.1-0.1-3-1.1
				c-0.4-0.5-0.5-1.1-0.5-1.8c0-1.5,0.9-4.1,1.6-5.4c0.2-0.4,0.7-1.1,1.4-1.9c1.6-1.7,3.4-2.2,4.3-2.2c0.6,0,2.2,0.2,2.3,2.1
				c0,0.9-0.2,1.9-1.5,3.3c-0.9,1-2,1.8-4.5,3.1c0,0.1-0.1,0.7-0.1,1.1c0,0.1,0,0.6,0.1,1c0.2,0.5,0.7,1.2,1.9,1.2
				c2.1,0,5.1-1.8,5.3-1.8L226.3,346.8z M220.6,342.6c0.8-0.9,3-3.7,3-5c0-0.4-0.3-0.7-0.7-0.7c-0.5,0-0.8,0.4-1,0.7
				c-0.4,0.5-1,1.6-1.2,2.1c-0.9,1.9-1.5,3.9-1.6,4.5C219.6,343.7,220.1,343.2,220.6,342.6z"/>
			<path fill="#E5C650" d="M237.5,345c-0.1,0-0.7,0.2-1.2,0.2c-0.6,0-2.2-0.3-3.2-1.8c-0.3-0.4-0.4-0.7-0.6-1.1
				c-0.5,0.8-1.4,2.1-2.4,4.1c-0.5,1-0.9,2-1.2,2.2c-0.3,0.2-0.7,0.2-1,0.2s-1.3,0-1.7-0.9c-0.1-0.1-0.2-0.5-0.2-1
				c0-0.4,0.1-0.9,0.3-1.7l2.7-7.5l3.7-1l-4.1,11.2c0,0-0.1,0.2-0.1,0.3c0,0,0,0.1,0.1,0.1c0.1,0,0.2-0.2,0.3-0.5
				c0.3-0.7,0.6-1.3,0.9-2c0.5-1.1,1.1-2.2,1.7-3.2c0.3-0.5,0.6-0.9,0.8-1.4c0.1-0.7,0.2-2.4,1.7-3.8c0.8-0.7,1.3-0.9,1.8-0.9
				c0.9,0,1.2,0.6,1.2,1c0,0.3-0.3,0.5-0.3,0.6c-0.5,0.5-1.1,0.9-1.6,1.4l-1.7,1.7c0,1.1,0,2.2,1,2.9c0.2,0.2,0.7,0.5,1.5,0.5
				c0.5,0,1-0.2,1.5-0.3L237.5,345z"/>
			<path fill="#E5C650" d="M239.6,348.1c0,0.1-0.1,0.3,0,0.3c0.1,0,0.2-0.1,0.2-0.1c0.1-0.1,0.3-0.7,0.5-1.2
				c1.9-4.5,3.7-7.2,5.2-8.7c1.2-1.2,2.4-1.7,3.2-1.7c0.5,0,1.8,0.3,1.8,1.8c0,0.7-0.4,1.4-0.4,1.5l-3.1,7.8c0,0.1-0.1,0.1-0.1,0.2
				c0,0.1,0.1,0.1,0.1,0.1c0,0,0.1,0,0.1-0.1c0.1-0.1,0.2-0.4,0.4-0.8l0.6-1.3c1.2-2.6,2.7-5.7,4.8-7.8c1.3-1.3,2.3-1.7,3.2-1.7
				c1,0,1.8,0.6,1.8,1.7c0,0.5-0.1,0.9-0.3,1.3c-0.7,1.6-1.4,3.3-2.3,5.6c0,0.1-0.4,0.9-0.4,1.5c0,0.7,0.4,1.2,1.2,1.2
				c0.4,0,0.9-0.1,1.8-0.5c0.7-0.3,1.1-0.5,2.2-1.3l0.3,0.4c-0.3,0.2-0.8,0.7-1.8,1.2c-1.2,0.7-2,0.8-2.6,1c-0.1,0-0.8,0.1-1.3,0.1
				c-1.1,0-2.1-0.4-2.6-1.4c-0.3-0.5-0.3-0.9-0.3-1.1c0-0.4,0-0.8,0.3-1.5l2.8-7.1c0-0.1,0.1-0.3,0.1-0.3c0,0,0-0.1-0.1-0.1
				c-0.1,0-0.5,0.3-0.5,0.3c-0.1,0.1-1.1,1-1.8,2c-1.6,2-3.6,5.8-4.6,7.8c-0.3,0.6-0.5,1-0.8,1.2c-0.3,0.2-0.7,0.2-0.8,0.2
				c-0.1,0-0.5,0-0.8-0.1c-1.2-0.4-1.3-1.6-1.3-2c0-0.7,0.3-1.5,0.5-2.1l2.7-6.9c0-0.1,0.1-0.2,0.1-0.3c0,0,0-0.1-0.1-0.1
				c-0.1,0-0.3,0.1-0.4,0.3c-0.4,0.4-1.3,1.2-2.2,2.4c-2.1,2.8-3.7,6.2-4.2,7.1c-0.4,0.7-0.5,1.1-0.8,1.3c-0.2,0.2-0.4,0.3-1,0.3
				c-0.3,0-1.3,0-1.8-1c-0.1-0.2-0.2-0.5-0.2-1c0-0.5,0.1-1,0.4-2l2.7-7.3l3.7-1L239.6,348.1z"/>
			<path fill="#E5C650" d="M270.3,345.2c-0.3,0.8-0.4,1.1-0.4,1.6c0,1,1,1.1,1.2,1.1c1.6,0,3.9-1.7,3.9-1.7l0.2,0.4l-1.1,0.7
				c-0.4,0.3-2.3,1.5-4.3,1.5c-1.2,0-1.7-0.3-2.2-0.6c-0.3-0.2-0.4-0.3-0.5-0.4c-0.1-0.1-0.1-0.2-0.2-0.3c-0.6,0.5-1.9,1.4-3.9,1.4
				c-0.1,0-1.4,0-2.2-0.5c-1-0.7-1-1.9-1-2.3s0-0.9,0.2-1.7c0.2-0.9,0.5-2.1,1.6-3.7c0.1-0.2,0.7-1,1.3-1.7c1.2-1.2,3-2.4,4.8-2.4
				c1.3,0,1.9,0.6,2.3,1l3.5-0.9L270.3,345.2z M269.6,337.9c-0.5-0.4-0.9-0.7-1.6-0.7c-1,0-1.5,0.7-1.7,1c-0.6,0.8-1.4,2.8-1.8,3.7
				c-0.9,2.2-1.4,3.7-1.4,4.7c0,1.2,1,1.4,1.4,1.4c0.1,0,0.3,0,0.6-0.1c0.4-0.1,0.9-0.4,1.7-0.8c-0.1-0.3-0.1-0.4-0.1-0.7
				c0-0.6,0.2-1.1,0.4-1.6L269.6,337.9z"/>
			<path fill="#E5C650" d="M286.1,345.4c-0.2,0.4-0.4,1.1-0.4,1.6c0,0.4,0.1,1.1,1.1,1.1c1.2,0,3.2-1.2,4.2-1.8l0.3,0.4
				c-0.4,0.2-0.8,0.5-1.2,0.7c-1.3,0.8-2.6,1.4-4.1,1.4c-0.2,0-0.6,0-1.1-0.1c-0.5-0.1-2.1-0.7-2.1-2.6c0-0.6,0.2-1.2,0.3-1.4
				l2.8-7.1c0-0.1,0.1-0.3,0-0.3c-0.1,0-0.6,0.4-0.7,0.5c-1.9,1.8-3.5,4.5-3.9,5c-0.4,0.7-0.9,1.5-1.3,2.2c-0.5,0.8-0.9,1.6-1.4,2.4
				c-0.4,0.7-0.8,1.3-1.7,1.3c-0.5,0-2,0-2-1.8c0-0.6,0.2-1.1,0.4-1.7l2.8-7.6l3.7-0.9l-4.1,10.8c-0.1,0.2-0.1,0.3-0.1,0.4
				c0,0.1,0,0.1,0.1,0.1c0.1,0,0.1-0.1,0.1-0.1c0.1-0.1,0.4-0.7,0.7-1.3c0.3-0.5,2.1-4.3,4-6.8c0.5-0.7,0.9-1.1,1.5-1.7
				c0.1-0.1,1.6-1.7,3.1-1.7c0.4,0,1.8,0.2,1.8,1.6c0,0.4-0.1,0.6-0.3,1.2L286.1,345.4z"/>
			<path fill="#E5C650" d="M300.4,342.2c-1.1-1.6-2-3-2-5.1c0-0.4,0-1.2,0.3-2.3c0.3-1.1,1.4-3.5,3.9-5.3c1.6-1.1,4.1-2.3,8.6-2.3
				c1.3,0,2.6,0.1,3.8,0.2c1.3,0.1,2.6,0.2,3.9,0.2c1,0.1,1.9,0,2.9,0c0.6,0,0.7,0.2,0.5,0.7l-0.5,1.5c-0.2,0.4-0.2,0.4-0.9,0.4
				c-2.1,0-4.2-0.1-6.3-0.3c-1.7-0.1-3.4-0.3-5-0.3c-1.9,0-4.5,0.3-6.3,1c-0.3,0.1-1,0.4-1.7,1c-1.2,1-1.7,2.3-1.8,2.8
				c-0.1,0.3-0.4,1.4-0.4,2.5c0,1.2,0.4,2.5,0.9,3.7c0.2,0.4,0.4,0.8,0.7,1.2L300.4,342.2z M318.8,330.8c-0.6,1.3-0.8,2.1-1.2,5
				c-0.1,0.9-0.3,1.7-0.4,2.5c-0.6,2.9-1.4,4.6-2,5.8c-1,1.7-3.7,5.1-9.1,5.1c-0.4,0-2.7,0-4-1.3c-0.8-0.8-0.9-1.7-0.9-2.1
				c0-1.4,0.7-2.6,1.8-3.4c0.7-0.6,1.4-1,2.3-1.2c0.3-0.1,0.9-0.2,1.7-0.2c1.9,0,3.3,0.7,3.9,1l-0.3,0.6c-1.2-0.4-1.8-0.7-3-0.7
				c-0.5,0-1.9,0.1-3.3,0.8c-0.4,0.2-2.3,1.2-2.3,3.3c0,0.4,0.1,0.8,0.3,1.1c0.4,0.7,1.5,1.5,3.4,1.5c1.1,0,3.2-0.3,4.9-2.5
				c1.2-1.6,1.8-3.5,2.3-5.4c0.3-1.1,0.6-2.2,0.9-3.3c0.6-2,1.1-3,1.7-3.8c1.1-1.5,2.6-2.7,3.1-3L318.8,330.8z"/>
			<path fill="#E5C650" d="M347.3,328.7c-0.1-0.1-0.4-0.7-1.1-0.7c-0.9,0-1.8,0.8-2.4,1.3c-1.2,1-1.7,1.5-2.8,2.7l-4.3,4.9l-0.1,0.5
				h3.9l-1.2,1.4h-3.2l-0.9,3.7c-0.4,1.6-0.5,2.3-0.5,3.2c0,2.4,1.8,2.6,2.7,2.6c0.8,0,2.1-0.2,3.6-1.5c0.8-0.7,2.8-2.7,3.8-5.6
				c0.1-0.3,0.5-1.3,0.5-2.5c0-0.8-0.1-1.3-0.2-1.5c0,0-0.3-0.7-0.3-0.7c0-0.2,0.2-0.2,0.3-0.2c0.4,0,0.8,0.4,0.9,0.4
				c1.1,0.8,1.1,2.3,1.1,2.6c0,1.8-0.9,4.9-4.3,7.5c-0.7,0.5-2.9,2.1-5.8,2.1c-1.6,0-2.7-0.5-3.2-0.8c-0.6-0.3-2.5-1.5-2.5-3.8
				c0-0.7,0.2-1.6,0.2-1.8c-0.5,0.6-1.3,1.5-2.7,2.7c-0.5,0.4-1,0.9-1.6,1.3c-1.2,1-3.1,2.3-4.7,2.3c-0.1,0-1.1,0-1.8-0.4
				c0,0-0.4-0.3-0.4-0.6c0-0.1,0-0.1,0.1-0.3l1-1.8c0-0.1,0.1-0.2,0.4-0.2c0,0,0.2,0,0.3,0.1c0.2,0.3,0.2,0.7,0.4,1.3
				c0,0.1,0.2,0.9,1,0.9c0.8,0,2.1-1.3,3.5-2.7l5.2-5.8l0.2-0.7h-4.2l1.2-1.4h3.4l1.7-5.4c0.2-0.6,0.4-1.2,0.4-1.9
				c0-0.2,0-0.5-0.2-1c-0.2-0.6-0.9-1.2-2.3-1.2c-4.8,0-9.3,6.2-9.4,6.4c-0.3,0.4-2,2.7-2,5.1c0,0.8,0.2,1.6,0.3,1.8l-0.5,0.3
				c-0.6-0.9-0.9-1.4-1.1-2.5c0-0.3-0.1-0.6-0.1-1.2c0-3.1,2.4-5.5,2.9-6c1.3-1.3,4.9-4.5,10.3-4.5c0.3,0,2.8-0.1,4.3,1.1
				c1,0.8,1.1,1.7,1.1,2.3c0,1.1-0.5,2.4-0.6,2.6c0.3-0.4,0.6-0.7,0.9-1.1c1.6-1.8,5.2-5.2,7.9-5.2c0.8,0,1.2,0.3,1.5,0.5
				L347.3,328.7z"/>
		</g>
		<g>
			<path fill="none" stroke="#000000" stroke-width="2.5283" stroke-miterlimit="10" d="M274,301.2c-5.1,0-5.1,2.9-10.2,2.9
				c-5.1,0-5.1-2.9-10.2-2.9c-5.1,0-5.1,2.9-10.2,2.9c-5.1,0-5.1-2.9-10.2-2.9c-5.1,0-5.1,2.9-10.2,2.9c-5.1,0-5.1-2.9-10.2-2.9
				c-5.1,0-5.1,2.9-10.2,2.9c-5.1,0-5.1-2.9-10.2-2.9c-5.1,0-5.1,2.9-10.2,2.9c-5.1,0-5.1-2.9-10.2-2.9c-5.1,0-5.1,2.9-10.2,2.9
				c-5.1,0-5.1-2.9-10.2-2.9c-5.1,0-5.1,2.9-10.2,2.9c-5.1,0-5.1-2.9-10.2-2.9c-5.1,0-5.1,2.9-10.2,2.9c-5.1,0-5.1-2.9-10.2-2.9"/>
		</g>
		<g>
			<path fill="none" stroke="#000000" stroke-width="2.5283" stroke-miterlimit="10" d="M274,91.2c-5.1,0-5.1,2.9-10.2,2.9
				c-5.1,0-5.1-2.9-10.2-2.9c-5.1,0-5.1,2.9-10.2,2.9c-5.1,0-5.1-2.9-10.2-2.9c-5.1,0-5.1,2.9-10.2,2.9c-5.1,0-5.1-2.9-10.2-2.9
				c-5.1,0-5.1,2.9-10.2,2.9c-5.1,0-5.1-2.9-10.2-2.9c-5.1,0-5.1,2.9-10.2,2.9c-5.1,0-5.1-2.9-10.2-2.9c-5.1,0-5.1,2.9-10.2,2.9
				c-5.1,0-5.1-2.9-10.2-2.9c-5.1,0-5.1,2.9-10.2,2.9c-5.1,0-5.1-2.9-10.2-2.9c-5.1,0-5.1,2.9-10.2,2.9c-5.1,0-5.1-2.9-10.2-2.9"/>
		</g>
	</g>
</g>
</svg>
