<?xml version="1.0" encoding="utf-8"?>
<!-- Generator: Adobe Illustrator 18.1.1, SVG Export Plug-In . SVG Version: 6.00 Build 0)  -->
<!DOCTYPE svg PUBLIC "-//W3C//DTD SVG 1.1//EN" "http://www.w3.org/Graphics/SVG/1.1/DTD/svg11.dtd">
<svg version="1.1" id="Layer_1" xmlns="http://www.w3.org/2000/svg" xmlns:xlink="http://www.w3.org/1999/xlink" x="0px" y="0px"
	 viewBox="0 0 612 792" enable-background="new 0 0 612 792" xml:space="preserve">
<g>
	<g>
		<g>
			<rect id="SVGID_23_" x="105.2" y="195.2" fill="#FFFDF2" width="401.7" height="401.7"/>
		</g>
		<g>
			
				<rect id="SVGID_1_" x="105.2" y="195.2" fill="none" stroke="#E5C650" stroke-width="5.0608" stroke-miterlimit="10" width="401.7" height="401.7"/>
		</g>
	</g>
	<g>
		<g>
			<path stroke="#E5C650" stroke-width="1.1091" stroke-miterlimit="10" d="M281.9,345.8v7.7h-26.6c-0.5-5.6,2.9-9.2,8.3-12.7
				c7.7-5,9.3-6.4,9.3-9.3c0-2.3-3.4-4.3-6.3-2.7c-1.9,1-2.2,4.2-2.2,5.9h-8.2c-0.8-3.6-0.2-8,3.4-10.9c4.6-3.8,11.8-3.8,16.2-1.9
				c4.2,1.8,6.4,4.5,6.7,8.6c0.3,5.4-3,8.8-8.5,12.2l-4.6,3.3L281.9,345.8L281.9,345.8z"/>
			<path stroke="#E5C650" stroke-width="1.1091" stroke-miterlimit="10" d="M319.2,337.6c-0.1,9.2-6.9,16.5-15,16.3
				c-8.1-0.2-14.4-7.9-14.2-17.1c0.1-9.2,6.5-16.4,15-16.4C313.2,320.4,319.4,328.4,319.2,337.6z M304.5,346.8
				c3.7,0,5.7-4.2,5.7-9.5s-1.9-9.7-5.6-9.7c-3.8,0-5.7,4.2-5.7,9.5C298.8,342.3,300.7,346.8,304.5,346.8z"/>
			<path stroke="#E5C650" stroke-width="1.1091" stroke-miterlimit="10" d="M355,343.4c0.4,5.5-5.1,10.2-13.3,10.5
				c-8.4,0.3-14.3-4-14.7-9.5c-0.2-2.6,1.8-6.6,4.9-7.6c-2.2-1.8-3.7-4.6-3.5-7.3c0.3-5.4,6.2-9.1,13.3-9.1
				c7.3,0,12.1,4.6,12.1,10.1c0,2.3-1.5,4.7-3.4,6.3C353.3,337.8,354.8,341.1,355,343.4z M346.3,343c-0.1-2.3-2.6-4.1-5.5-3.9
				c-2.8,0.1-5,2-4.9,4.4c0.1,2.3,2.6,4.1,5.5,4C344.2,347.3,346.4,345.3,346.3,343z M345.6,330.3c-0.1-2.1-2.4-3.7-4.9-3.6
				c-2.5,0.1-4.6,1.9-4.4,4c0.1,2.1,2.4,3.7,4.9,3.6C343.8,334.1,345.7,332.3,345.6,330.3z"/>
			<path stroke="#E5C650" stroke-width="1.1091" stroke-miterlimit="10" d="M147,380.2l4.9,19l4.2-19h9.1l4.1,18.6l5-18.6h10
				l-10.1,34.1h-10.1l-3.6-18.2l-4,18.2h-10.3l-9.1-34.1H147z"/>
			<path stroke="#E5C650" stroke-width="1.1091" stroke-miterlimit="10" d="M194.5,414.3h-9.2v-9.7h9.2V414.3z"/>
			<path stroke="#E5C650" stroke-width="1.1091" stroke-miterlimit="10" d="M233.5,380.2h10v34.1h-10v-13.1h-10.2v13.1h-10v-34.1h10
				v11.6h10.2V380.2z"/>
			<path stroke="#E5C650" stroke-width="1.1091" stroke-miterlimit="10" d="M268.1,379.7c11.5-0.1,17.5,7.9,17.5,17.5
				s-6.1,17.5-17.5,17.5c-12.1,0-17.7-7.9-17.7-17.5S256,379.7,268.1,379.7z M268.2,407.7c4.8,0,7.1-4.8,7.1-10.5
				c-0.1-5.5-2.3-10.4-7.1-10.4c-5.6,0-7.7,4.6-7.7,10.7C260.5,403.3,262.6,407.7,268.2,407.7z"/>
			<path stroke="#E5C650" stroke-width="1.1091" stroke-miterlimit="10" d="M323.3,380.2v19.3c0,12.1-7.6,15.1-15.1,15.2
				c-8.5,0-15.3-3.7-15.3-15.5v-19.1h10v21.3c0,3.1,2.4,5.1,5.5,5.1c2.9,0,5-2.2,5-5.5v-21h10V380.2z"/>
			<path stroke="#E5C650" stroke-width="1.1091" stroke-miterlimit="10" d="M348.3,392.6c3.8,0.9,9.5,2.4,11.4,7.1
				c1,2.5,1.3,5.9-0.7,8.9c-3.3,4.9-9,6-12.8,6.1c-3.1,0.1-10.4-0.6-13.7-5.1c-1.4-1.8-1.9-3.8-2.1-6.4h10c0.6,2,1.5,3.3,3.7,3.8
				c5.6,0.7,6.4-2.4,6.2-3.3c-0.4-1.8-4.7-2.3-7.7-3.3c-4.5-1.4-9.3-3-11-7.3c-0.7-2.1-0.6-6.4,1-8.8c2.6-3.7,7.5-4.5,11-4.6
				c3.3,0,10.2,0.1,13.2,4.2c0.9,1.4,1.8,3.7,1.8,6h-9.7c-0.6-1.8-2.4-2.9-4.5-2.9c-3.4,0.1-3.7,2.2-3.5,2.8
				C341.3,391.4,345.2,391.8,348.3,392.6z"/>
			<path stroke="#E5C650" stroke-width="1.1091" stroke-miterlimit="10" d="M394.1,380.2v8.9h-9.8v25.2h-10.2v-25.2H365v-8.9H394.1z
				"/>
			<path stroke="#E5C650" stroke-width="1.1091" stroke-miterlimit="10" d="M415.7,379.7c11.5-0.1,17.5,7.9,17.5,17.5
				s-6.1,17.5-17.5,17.5c-12.1,0-17.7-7.9-17.7-17.5S403.7,379.7,415.7,379.7z M415.9,407.7c4.8,0,7.1-4.8,7.1-10.5
				c-0.1-5.5-2.3-10.4-7.1-10.4c-5.6,0-7.7,4.6-7.7,10.7C408.2,403.3,410.3,407.7,415.9,407.7z"/>
			<path stroke="#E5C650" stroke-width="1.1091" stroke-miterlimit="10" d="M450.5,380.2l10.5,17.6v-17.6h10.5v34.1h-10.8
				l-10.2-17.1v17.1h-10v-34.1H450.5z"/>
			<path stroke="#E5C650" stroke-width="1.1091" stroke-miterlimit="10" d="M214.3,453.5c3.8,0.9,9.5,2.4,11.4,7.1
				c1,2.5,1.3,5.9-0.7,8.9c-3.3,4.9-9,6-12.8,6.1c-3.1,0.1-10.4-0.6-13.7-5.1c-1.4-1.8-1.9-3.8-2.1-6.4h10c0.6,2,1.5,3.3,3.7,3.8
				c5.6,0.7,6.4-2.4,6.2-3.3c-0.4-1.8-4.7-2.3-7.7-3.3c-4.5-1.4-9.3-3-11-7.3c-0.7-2.1-0.6-6.4,1-8.8c2.6-3.7,7.5-4.5,11-4.6
				c3.3,0,10.2,0.1,13.2,4.2c0.9,1.4,1.8,3.7,1.8,6h-9.7c-0.6-1.8-2.4-2.9-4.5-2.9c-3.4,0.1-3.7,2.2-3.5,2.8
				C207.3,452.2,211.2,452.6,214.3,453.5z"/>
			<path stroke="#E5C650" stroke-width="1.1091" stroke-miterlimit="10" d="M260.1,441.1v8.9h-9.8v25.2h-10.2V450h-9.2v-8.9H260.1z"
				/>
			<path stroke="#E5C650" stroke-width="1.1091" stroke-miterlimit="10" d="M284.1,441.1c4.2,0,9.1,0.4,12.1,4.9
				c1.6,2.4,1.7,6,0.6,8.3c-1,2.4-2.7,3.9-5.2,4.9c5.1,2.2,5.1,8,5.2,11.5c0.2,1.6,0.4,3.1,1.3,4.4h-10.2l-0.6-4
				c-0.9-8-1.8-8.3-7.8-8.2h-2.4v12.2h-10v-34.1L284.1,441.1L284.1,441.1z M287.2,452.4c-0.1-2.3-2-3.5-4-3.5h-6.1v6.9h6.5
				C285.2,455.9,287.2,455,287.2,452.4z"/>
			<path stroke="#E5C650" stroke-width="1.1091" stroke-miterlimit="10" d="M333.2,449.8h-18.4v4.2h15.5v7.9h-15.5v4.6h18.8v8.6
				h-28.8V441h28.3V449.8z"/>
			<path stroke="#E5C650" stroke-width="1.1091" stroke-miterlimit="10" d="M369.4,449.8H351v4.2h15.5v7.9H351v4.6h18.8v8.6H341V441
				h28.4v8.8H369.4z"/>
			<path stroke="#E5C650" stroke-width="1.1091" stroke-miterlimit="10" d="M405.6,441.1v8.9h-9.8v25.2h-10.2V450h-9.2v-8.9H405.6z"
				/>
			<path stroke="#E5C650" stroke-width="1.1091" stroke-miterlimit="10" d="M412.8,475.2h-9.2v-9.7h9.2V475.2z"/>
		</g>
		<g>
			<path fill="#E5C650" d="M212.6,239.2c-0.6,0.3-1.4,0.7-2,1.2c-0.4,0.2-0.8,0.5-1.3,0.8c-0.8,0.5-1.8,1.3-3.5,2.7
				c-0.8,0.8-1.9,1.9-2.6,2.9c-0.4,0.6-0.7,1.5-0.7,2.2c0,0.2,0,0.6,0.2,1c0.4,0.9,1.4,1,1.7,1c0.6,0,1.3-0.3,1.8-0.5
				c1.5-0.7,3.5-2.2,5.8-5.2c0.6-0.9,1.4-1.8,1.9-2.7c0,0,2.2-3.6,2.2-5.9c0-2.2-1.6-3.9-3.9-3.9c-0.8,0-2.2,0.2-3.9,1.5
				c-1.7,1.3-4.4,4.1-6.6,8.9c-1.2,2.3-2.7,6.6-2.7,9.2c0,0.6,0,2.6,1.6,4c0.5,0.4,1,0.6,1.4,0.7c0.7,0.3,1.9,0.5,3.8,0.5
				c2.9,0,6.2-0.7,12-2.7l0.2,0.7c-0.8,0.3-1.8,0.7-2.6,1c-4.5,1.7-7.3,2-9.4,2c-3.7,0-5.6-1.2-6.9-2.1c-0.7-0.5-1.4-1.3-1.9-2
				c-1-1.6-1.6-3.8-1.6-5.6c0-2.3,0.7-5,1.9-7c0.5-1,2.1-3.7,4.6-5.8c2.5-2.2,6.3-3.9,9.7-3.9c0.6,0,2.5,0,4,1.4c0.8,0.7,2,2.3,2,5
				c0,2.4-0.8,4.7-2.1,6.6c-1.4,2.1-3.7,4.4-6,5.6c-0.9,0.5-1.7,0.7-2.1,0.8c-0.7,0.2-1.5,0.3-2.3,0.3c-0.3,0-1.4,0-2.2-0.6
				c-0.5-0.3-1.3-1-1.3-2.5c0-1.9,1.5-4.8,5-7.6c1.9-1.4,3.4-2,5.6-2.7L212.6,239.2z"/>
			<path fill="#E5C650" d="M234.5,252.9c-0.8,0.2-1.6,0.3-2.4,0.3c-1.3,0-1.9-0.2-2.4-0.4c-0.9,1.6-2.1,3-3.7,4.1
				c-0.6,0.4-1.2,0.7-1.9,1c-0.4,0.1-1.2,0.4-2.3,0.4c-0.3,0-1.8,0-2.9-0.7c-0.6-0.4-1.5-1.4-1.5-3.1c0-1.2,0.4-4.2,2.4-6.9
				c0.6-0.8,1.3-1.5,1.6-1.7c0.4-0.3,1.2-0.9,2.2-1.6c0.7-0.4,1.6-0.7,1.8-0.7s0.2,0.2,0.2,0.3c0,0.1-0.1,0.2-0.3,0.4
				c-0.1,0.2-0.2,0.4-0.4,0.6c-0.4,0.6-0.7,1.4-1.2,2c-1.4,2.5-2,4.9-2.3,5.9c0,0.2-0.4,1.5-0.4,2.5c0,0.2,0,1.5,0.8,2
				c0.1,0.1,0.4,0.3,0.8,0.3s1-0.2,1.8-0.9c1.7-1.5,2.3-3,3.1-5c-0.7-0.8-2.2-2.4-2.2-5.4c0-0.5,0.1-1.2,0.1-1.4
				c0,0,0.4-2.8,2.3-2.8c0.7,0,1.5,0.5,1.6,0.6c0.7,0.6,1.6,1.8,1.6,3.9c0,1-0.2,3.1-1.4,5.7c0.2,0.1,1.2,0.3,2,0.3
				c1.2,0,2-0.5,2.3-0.6L234.5,252.9z M228.7,246.7c0-1.8-0.3-3.9-1.2-3.8c-0.8,0-0.9,2.2-0.9,2.7c0,2,0.6,3.3,1.6,4.9
				C228.5,249.1,228.7,248,228.7,246.7z"/>
			<path fill="#E5C650" d="M236.9,257.4c0,0.1-0.1,0.3,0,0.3s0.2-0.1,0.2-0.1c0.1-0.1,0.4-0.8,0.6-1.5c2.3-5.5,4.4-8.6,6.2-10.4
				c1.5-1.5,2.9-2.1,3.8-2.1c0.6,0,2.2,0.3,2.2,2.2c0,0.7-0.4,1.7-0.5,1.9l-3.8,9.4c0,0.1-0.1,0.2-0.1,0.3c0,0.1,0.1,0.2,0.2,0.2
				c0,0,0.1,0,0.1-0.1c0.1-0.1,0.3-0.5,0.4-0.9l0.7-1.6c1.5-3.1,3.3-6.9,5.8-9.3c1.6-1.6,2.8-2,3.9-2c1.3,0,2.2,0.7,2.2,2
				c0,0.6-0.2,1-0.4,1.6c-0.8,2-1.7,4-2.7,6.7c0,0.1-0.4,1-0.4,1.8c0,0.8,0.5,1.5,1.4,1.5c0.5,0,1.2-0.1,2.2-0.6
				c0.7-0.3,1.4-0.6,2.7-1.6l0.3,0.4c-0.3,0.3-0.9,0.7-2.2,1.5c-1.5,0.7-2.4,1-3.1,1.2c-0.2,0-0.9,0.2-1.6,0.2
				c-1.3,0-2.5-0.5-3.1-1.7c-0.3-0.6-0.3-1-0.3-1.4c0-0.4,0-0.9,0.3-1.8l3.4-8.5c0-0.1,0.1-0.3,0.1-0.3s0-0.2-0.1-0.1
				c-0.1,0-0.5,0.3-0.6,0.4c-0.1,0.1-1.4,1.3-2.2,2.3c-1.9,2.4-4.3,6.9-5.6,9.3c-0.4,0.7-0.6,1.3-0.9,1.5c-0.3,0.3-0.8,0.2-1,0.2
				s-0.6,0-1-0.1c-1.4-0.5-1.6-2-1.6-2.3c0-0.8,0.3-1.8,0.6-2.5l3.3-8.3c0-0.1,0.1-0.3,0.1-0.3s0-0.1-0.1-0.1s-0.3,0.2-0.5,0.3
				c-0.5,0.4-1.6,1.5-2.6,2.9c-2.5,3.4-4.5,7.5-5,8.5c-0.4,0.8-0.6,1.3-1,1.6c-0.2,0.2-0.5,0.4-1.2,0.4c-0.3,0-1.6,0-2.1-1.2
				c-0.1-0.2-0.2-0.6-0.2-1.2s0.1-1.3,0.4-2.3l3.3-8.8l4.5-1.3L236.9,257.4z"/>
			<path fill="#E5C650" d="M274.5,255.9c-0.6,0.3-1.4,0.6-2,1c-2.2,1-3.6,1.5-6,1.5c-0.3,0-0.7,0-1,0c-0.3,0-2.5-0.1-3.6-1.4
				c-0.4-0.5-0.5-1.4-0.5-2.1c0-1.8,1-4.9,1.9-6.5c0.3-0.4,0.7-1.4,1.7-2.3c1.9-2.1,4.1-2.6,5.2-2.6c0.7,0,2.7,0.2,2.7,2.5
				c0,1-0.3,2.3-1.8,4c-1.2,1.3-2.4,2.2-5.5,3.7c0,0.1-0.1,0.7-0.1,1.4c0,0.1,0,0.7,0.2,1.2c0.2,0.6,0.7,1.4,2.2,1.5
				c2.5,0,6.2-2.1,6.4-2.2L274.5,255.9z M267.7,250.8c0.9-1,3.6-4.5,3.6-6.1c0-0.4-0.3-0.8-0.8-0.8c-0.5,0-0.9,0.4-1.3,0.8
				c-0.4,0.5-1.2,1.9-1.5,2.5c-1.2,2.3-1.8,4.7-1.9,5.5C266.4,252.1,267.1,251.6,267.7,250.8z"/>
			<path fill="#E5C650" d="M286.7,253.9c-0.4-0.3-0.9-0.8-1.4-1.3c-1.9-2.1-2.1-4.4-2.1-5.5c0-2.4,0.8-6.5,5.7-9.9
				c2.6-1.8,7.5-4.1,15.1-4.6c0.7,0,1.5-0.1,2.2-0.1s1.5,0.1,1.5,0.6c0,0.3-0.5,0.7-1,1.4c-0.5,0.6-1,1.3-1.5,1.9
				c-1.8,2.4-3.3,5.1-3.7,6c-1.4,2.7-3.7,8.5-3.7,11.5c0,0.9,0.1,1.4,0.2,1.7c0.2,0.6,0.9,2,2.9,2c0.3,0,1,0,1.9-0.3
				c1.3-0.5,3.3-1.9,5.1-4.7c2.5-3.8,4.5-10.1,4.5-14.6c0-0.7,0-2.7-1-4.6c-0.2-0.3-0.3-0.5-0.3-0.6c0-0.3,0.7-0.2,0.8-0.2
				c1,0,3,0.4,4,2.9c0.4,0.9,0.5,1.9,0.5,2.9c0,1-0.1,2.5-0.7,4.8c-1.8,6.4-5.7,10.5-7.5,12c-0.7,0.6-3.9,3.3-7.8,3.3
				c-3.9,0-6.9-2.8-6.8-6.8c0-2,0.7-4.8,3.3-8.5c0.8-1.3,1.9-2.6,2.9-3.8c0.9-1,2.4-2.4,4.8-4.4c0.5-0.4,1-0.8,1.7-1.4
				c0.2-0.1,0.2-0.2,0.2-0.2c0-0.1-0.2-0.2-0.5-0.2c-0.4,0-1.4,0-2.5,0.2c-6,0.8-10.9,3.9-12.5,5c-1.4,0.9-2.2,1.8-2.7,2.3
				c-2,2-4,4.6-4,7.6c0,0.2,0,0.9,0.2,1.7c0.4,1.5,1.3,2.3,2.3,3.3L286.7,253.9z"/>
			<path fill="#E5C650" d="M320.7,254.4c-0.2,0.5-0.4,0.9-0.4,1.6c0,0.9,0.4,1.5,1.4,1.5c0.4,0,0.6,0,1.4-0.3
				c1.2-0.4,2.3-1.2,3.4-1.9l0.2,0.5c-0.3,0.2-0.6,0.4-0.8,0.6c-1.6,1.2-3.3,1.8-5.1,1.8c-0.2,0-1.9,0-2.9-0.7
				c-0.2-0.1-0.4-0.3-0.7-0.7c-0.2-0.4-0.4-0.8-0.4-1.4c0-0.5,0.1-0.8,0.4-1.7l3.3-8.8l4.5-1.3L320.7,254.4z M321.9,238.9
				c0-1.4,1.2-2.4,2.4-2.4c1.4,0,2.4,1.2,2.4,2.4c0,1.4-1.2,2.4-2.4,2.4c-0.3,0-1-0.1-1.7-0.7C322,239.9,321.9,239.2,321.9,238.9z"
				/>
			<path fill="#E5C650" d="M334,249.5c0.4,1,0.7,1.9,0.6,2.9c0,2.3-1.6,3.6-3.3,4.8c0.4,0.2,0.9,0.4,2,0.4c0.5,0,0.9-0.1,1.6-0.2
				c1.7-0.4,2.7-1,4-2.1l0.3,0.5c-0.3,0.2-0.5,0.4-0.8,0.6c-0.6,0.5-2.3,1.9-4.7,1.9c-1.5,0-2.5-0.5-3-0.8c-1.4,0.5-2.3,0.8-3,0.8
				c-1,0-1.3-0.6-1.4-1l-0.2-1.3c-0.1-0.3,0-0.5,0-0.6c0.2-0.4,1-1,2-1.8c1.3-1.2,1.8-1.7,2.3-2.3c-0.2-1.5-0.3-1.9-0.3-2.7
				c0-1.8,0.5-2.9,0.8-3.5c0.2-0.4,0.6-0.8,1-1.2c0.8-0.7,1.4-0.8,1.9-0.8c1,0,1.6,0.8,1.6,1.9c0,1.5-0.9,2.6-1.8,3.7L334,249.5z
				 M330.6,256.9c0.5-0.5,0.7-1,0.7-1.8c0-0.7-0.3-1.6-0.3-1.8c-0.1-0.4-0.2-0.8-0.3-1.3c-0.5,0.5-1.2,1.2-1.8,1.7
				c-0.4,0.4-0.9,0.7-1.4,1.2L330.6,256.9z M333.9,247.3c0.1-0.2,0.6-1.2,0.6-2.1s-0.4-1.5-0.9-1.5c-0.5,0-0.8,0.6-0.8,1.6
				c0,0.8,0.2,1.9,0.5,2.8C333.6,247.8,333.8,247.5,333.9,247.3z"/>
			<path fill="#E5C650" d="M342.9,254.4c-0.2,0.5-0.4,0.9-0.4,1.6c0,0.9,0.4,1.5,1.4,1.5c0.4,0,0.6,0,1.4-0.3
				c1.2-0.4,2.3-1.2,3.4-1.9l0.2,0.5c-0.3,0.2-0.6,0.4-0.9,0.6c-1.6,1.2-3.3,1.8-5.1,1.8c-0.2,0-1.9,0-2.9-0.7
				c-0.2-0.1-0.4-0.3-0.7-0.7c-0.2-0.4-0.4-0.8-0.4-1.4c0-0.5,0.1-0.8,0.4-1.7l3.3-8.8l4.5-1.3L342.9,254.4z M344.3,238.9
				c0-1.4,1.2-2.4,2.4-2.4c1.4,0,2.4,1.2,2.4,2.4c0,1.4-1.2,2.4-2.4,2.4c-0.3,0-1-0.1-1.7-0.7S344.3,239.2,344.3,238.9z"/>
			<path fill="#E5C650" d="M355.9,244.6h2.8l-1,1.5h-2.3l-2.9,8.2c-0.3,0.9-0.3,1.2-0.3,1.7c0,0.4,0.1,1.4,1.4,1.4c1,0,3-0.9,5.6-2
				l0.3,0.5c-2.1,1-4.8,2.4-7.1,2.4c-0.8,0-1.9-0.2-2.5-0.6c-0.3-0.2-0.6-0.4-0.8-0.7c-0.4-0.6-0.5-1.2-0.5-1.5
				c0-0.5,0.2-1.2,0.3-1.7l2.7-7.7h-2.1l1-1.5h1.6l2.3-6.8l4.5-1.3L355.9,244.6z"/>
			<path fill="#E5C650" d="M380.7,254.6c-0.2,0.5-1,1.8-1,2.4c0,0.4,0.3,0.7,0.7,0.7c0.1,0,0.3,0,0.5-0.1c0.4-0.2,1.3-0.7,2-1.6
				c1.8-1.9,4.3-5.6,4.4-5.7c1-1.6,2-3.1,2.9-4.7c1.3-2.1,2.4-4.2,3.8-6.6c0.9-1.8,1.9-3.5,2.7-5.1l5.2-0.8l-6.4,14.5
				c-0.8,2-1.8,4.2-2.5,6c-0.2,0.7-0.7,2-0.7,2.8c0,0.1,0,0.3,0.1,0.6c0.4,0.7,1.3,0.7,1.5,0.7c0.7,0,1.8-0.3,2-0.3
				c2.8-0.7,5.7-2,6.5-2.3v0.7c-4.2,1.8-6.5,2.6-8.7,2.6c-1.3,0-2.6-0.3-3.6-1.2c-0.2-0.1-0.5-0.5-0.8-1c-0.1-0.4-0.3-0.8-0.3-1.8
				c0-1,0.2-1.8,0.3-2.2c0.4-1.5,1.7-4.4,3.3-7.8l4.5-9.4c0-0.1,0.1-0.2,0-0.2s-0.1,0.1-0.2,0.2c-1,2.1-2.1,4.3-3.3,6.4
				s-2.3,4.1-3.5,6.1c-1.2,2-2.4,3.9-3.8,5.8c-2.4,3.5-4.3,5.1-6.4,5.1c-2.1,0-3.3-1.9-3.3-3.8c0-0.4,0-0.8,0.2-1.7
				c0.3-1.2,0.7-2,1.8-4.1l6.2-11.8c0.6-1.3,1.2-2.1,1.2-2.7c0-0.6-0.4-1-1.6-1c-0.9,0-1.9,0.1-3.6,0.9c-1.7,0.8-4.1,2.1-7,5.4
				c-0.7,0.7-1.5,1.6-2.1,2.4c-2.2,2.9-2.6,5-2.6,6.7c0,2.8,1.6,4.5,2.2,5.2l-0.6,0.4c-0.8-1-3-3.5-3-7.2c0-0.6,0.1-1.8,0.6-3.4
				c0.6-2.1,2.2-4.8,6.3-7.6c2-1.4,3.3-2,4.2-2.4c0.6-0.3,1.9-0.7,3.6-1.2c1-0.2,1.9-0.3,2.9-0.3c1.6,0,2.4,0.3,3,0.8
				c0.3,0.3,0.6,0.6,0.8,1c0.2,0.5,0.2,1,0.2,1.3c0,1.3-0.5,2.4-1.6,4.6L380.7,254.6z"/>
			<path fill="#E5C650" d="M408.4,249.5c0.4,1,0.7,1.9,0.6,2.9c0,2.3-1.6,3.6-3.3,4.8c0.4,0.2,0.9,0.4,2,0.4c0.5,0,0.9-0.1,1.6-0.2
				c1.7-0.4,2.7-1,4-2.1l0.3,0.5c-0.3,0.2-0.5,0.4-0.8,0.6c-0.6,0.5-2.3,1.9-4.7,1.9c-1.5,0-2.5-0.5-3-0.8c-1.4,0.5-2.3,0.8-3,0.8
				c-1,0-1.3-0.6-1.4-1l-0.2-1.3c-0.1-0.3,0-0.5,0-0.6c0.2-0.4,1-1,2-1.8c1.3-1.2,1.8-1.7,2.3-2.3c-0.2-1.5-0.3-1.9-0.3-2.7
				c0-1.8,0.5-2.9,0.8-3.5c0.2-0.4,0.6-0.8,1-1.2c0.8-0.7,1.4-0.8,1.9-0.8c1,0,1.6,0.8,1.6,1.9c0,1.5-0.9,2.6-1.8,3.7L408.4,249.5z
				 M405,256.9c0.5-0.5,0.7-1,0.7-1.8c0-0.7-0.3-1.6-0.3-1.8c-0.1-0.4-0.2-0.8-0.3-1.3c-0.5,0.5-1.2,1.2-1.8,1.7
				c-0.4,0.4-0.9,0.7-1.4,1.2L405,256.9z M408.3,247.3c0.1-0.2,0.6-1.2,0.6-2.1s-0.4-1.5-0.9-1.5c-0.5,0-0.8,0.6-0.8,1.6
				c0,0.8,0.2,1.9,0.5,2.8C408,247.8,408.2,247.5,408.3,247.3z"/>
		</g>
		<g>
			<path fill="#E5C650" d="M145.2,556.6c0.4-0.1,0.9-0.3,1.5-1.2c0.4-0.6,0.9-1.9,1.6-3.6l2.4-7.5c0.3-1,0.6-1.6,1.3-2.5
				c0.6-1,1-1.6,1.9-2.4c0.4-0.4,0.8-0.8,1.3-1.3c0.8-0.7,1.7-1.4,2.6-2l0.3,0.3c-0.2,0.4-0.5,0.8-0.7,1.4c-1.2,2.1-1.7,3.9-2,4.7
				l-2.5,7.6c-0.3,0.7-0.7,2.1-2,3.6c-1.5,1.8-2.9,2.4-3.8,2.7c0.8,0,1.8,0.1,2.7,0.1c2.7,0,6.4-0.3,9.9-5.4
				c0.4-0.7,0.9-1.4,1.3-2.1c0.3-0.5,2-4,2-7c0-0.5-0.1-2.6-1.3-4.3c-0.9-1.3-2.9-2.5-6.4-2.5c-5.9,0-9.4,3-11,4.6
				c-1.4,1.3-2.6,2.8-3.6,4.4c-1.2,1.8-1.4,2.9-1.4,3.9c0,1.6,0.7,2.3,1.2,2.7l-0.4,0.4c-0.6-0.7-1.7-1.7-1.7-4c0-0.3,0-1.4,0.3-2.4
				c0.4-1.7,1.6-3.6,2.7-4.9c0.7-0.7,2.4-2.5,5-3.7c1.5-0.7,4.5-1.7,8.6-1.7c1.3,0,5.5,0,8.6,2.8c1.4,1.3,2,2.4,2.2,3.1
				c0.5,1.4,0.5,2.6,0.5,3.1c0,3.1-1.3,5.2-1.9,6.2c-1.7,2.5-3.9,4.2-4.7,4.8c-1.8,1.2-4.4,2.4-9,2.4c-1.7,0-3.4-0.1-5-0.3v-0.3
				H145.2z"/>
			<path fill="#E5C650" d="M181.7,552.6c-0.7,0.1-1.4,0.3-2.1,0.3c-1,0-1.6-0.2-2.1-0.4c-0.8,1.4-1.9,2.7-3.3,3.6
				c-0.5,0.4-1,0.6-1.6,0.8c-0.3,0.1-1,0.3-2,0.3c-0.2,0-1.6,0-2.5-0.6c-0.6-0.4-1.3-1.2-1.3-2.7c0-0.9,0.4-3.7,2.1-6
				c0.5-0.7,1.2-1.3,1.4-1.5c0.4-0.3,0.9-0.8,2-1.4c0.6-0.3,1.4-0.6,1.6-0.6s0.2,0.1,0.2,0.2c0,0.1-0.1,0.2-0.2,0.4
				c-0.1,0.2-0.2,0.4-0.3,0.5c-0.3,0.6-0.7,1.2-1,1.7c-1.2,2.2-1.8,4.3-2,5.1c0,0.2-0.3,1.3-0.3,2.2c0,0.1,0,1.3,0.7,1.8
				c0.1,0.1,0.3,0.2,0.7,0.2c0.4,0,0.9-0.2,1.6-0.8c1.5-1.3,2-2.6,2.7-4.4c-0.6-0.7-1.9-2.1-1.9-4.7c0-0.5,0.1-1,0.1-1.2
				c0,0,0.4-2.4,2.1-2.4c0.7,0,1.3,0.4,1.4,0.5c0.6,0.5,1.4,1.6,1.4,3.4c0,0.9-0.2,2.7-1.2,4.9c0.2,0.1,1,0.3,1.8,0.3
				c1,0,1.8-0.4,2-0.5L181.7,552.6z M176.7,547.2c0-1.6-0.3-3.4-1-3.4s-0.8,2-0.8,2.4c0,1.8,0.5,2.8,1.4,4.3
				C176.6,549.2,176.7,548.2,176.7,547.2z"/>
			<path fill="#E5C650" d="M204,554.2c-0.5,0.1-2,0.2-3.4-0.7c-0.4-0.2-0.6-0.4-0.9-0.7c-0.4,0.6-0.8,1.3-2,2.3
				c-0.7,0.6-2.4,2.2-5.2,2.2c-1.4,0-2.1-0.3-2.7-0.6c-0.3-0.2-0.5-0.4-0.6-0.5c-0.4,0.2-2.4,1.2-4.4,1.2c-0.6,0-1.2-0.1-1.4-0.1
				c-1.8-0.4-2.2-1.7-2.2-2.4c0-0.5,0.3-1.4,0.4-1.4l2.8-7.8l3.9-1l-3.5,9.4c0,0.1-0.3,0.8-0.3,1.4c0,0.9,0.6,1.3,1.5,1.3
				c0.9,0,2.1-0.6,2.8-1c0-0.1-0.1-0.3-0.1-0.7c0-0.4,0.2-0.8,0.3-1.3l2.9-8l3.9-1l-3.6,9.7c0,0-0.4,0.9-0.4,1.5
				c0,0.7,0.5,1.2,1.2,1.2c1.5,0,2.7-1.4,2.8-1.6c0.9-1,1.7-2.4,1.9-2.7c0.2-0.3,0.3-0.7,0.5-1.2c-0.4-0.6-1.6-2.3-1.6-4.6
				c0-0.2,0-0.7,0.1-1.3c0.2-1,0.9-2,2.1-2c0.3,0,0.7,0.1,1,0.2c0.4,0.2,1.2,0.8,1.5,1.9c0.1,0.5,0.1,1.2,0.1,1.3c0,0.3,0,1-0.2,1.9
				c-0.4,1.7-1.3,3-1.6,3.6c0.7,0.6,1.4,1.2,3.3,1.2c0.4,0,0.7,0,1.2-0.1L204,554.2z M199.5,546.6c0-0.1,0-0.7-0.1-1.2
				c0-0.1-0.1-0.5-0.3-0.7c-0.1-0.2-0.3-0.3-0.5-0.3c-0.1,0-0.2,0-0.3,0.1c-0.4,0.3-0.6,1-0.6,2.2c0,2,0.7,3.6,1,4.2
				C198.7,550.5,199.5,548.2,199.5,546.6z"/>
			<path fill="#E5C650" d="M215.8,553.7c-0.2,0.4-0.4,1.2-0.4,1.7c0,0.4,0.1,1.2,1.2,1.2c1.3,0,3.4-1.3,4.4-1.9l0.3,0.4
				c-0.4,0.2-0.8,0.5-1.3,0.7c-1.4,0.8-2.7,1.5-4.3,1.5c-0.2,0-0.6,0-1.2-0.1c-0.5-0.1-2.2-0.7-2.2-2.7c0-0.6,0.2-1.3,0.3-1.5l3-7.5
				c0-0.1,0.1-0.3,0-0.3c-0.1,0-0.6,0.4-0.7,0.5c-2,1.9-3.7,4.7-4.1,5.2c-0.4,0.7-0.9,1.6-1.4,2.3c-0.5,0.8-0.9,1.7-1.5,2.5
				c-0.4,0.7-0.8,1.4-1.8,1.4c-0.5,0-2.1,0-2.1-1.9c0-0.6,0.2-1.2,0.4-1.8l2.9-8l3.9-0.9l-4.3,11.3c-0.1,0.2-0.1,0.3-0.1,0.4
				c0,0.1,0,0.1,0.1,0.1c0.1,0,0.1-0.1,0.1-0.1c0.1-0.1,0.4-0.7,0.7-1.4c0.3-0.5,2.2-4.5,4.2-7.1c0.5-0.7,0.9-1.2,1.6-1.8
				c0.1-0.1,1.7-1.8,3.3-1.8c0.4,0,1.9,0.2,1.9,1.7c0,0.4-0.1,0.6-0.3,1.3L215.8,553.7z"/>
			<path fill="#E5C650" d="M227.4,545.3h2.4l-0.9,1.3h-2l-2.5,7.1c-0.2,0.7-0.3,1-0.3,1.5c0,0.4,0.1,1.2,1.2,1.2
				c0.9,0,2.7-0.8,4.8-1.8l0.2,0.5c-1.8,0.8-4.2,2.1-6.2,2.1c-0.7,0-1.7-0.2-2.2-0.5c-0.3-0.1-0.5-0.4-0.7-0.7
				c-0.4-0.5-0.4-1-0.4-1.3c0-0.5,0.1-1,0.3-1.5l2.3-6.7h-1.9l0.9-1.3h1.4l2.1-5.9l3.9-1L227.4,545.3z"/>
			<path fill="#E5C650" d="M244.7,552.6c-0.7,0.1-1.4,0.3-2.1,0.3c-1,0-1.6-0.2-2.1-0.4c-0.8,1.4-1.9,2.7-3.3,3.6
				c-0.5,0.4-0.9,0.6-1.6,0.8c-0.3,0.1-1,0.3-2,0.3c-0.2,0-1.6,0-2.5-0.6c-0.6-0.4-1.3-1.2-1.3-2.7c0-0.9,0.4-3.7,2.1-6
				c0.5-0.7,1.2-1.3,1.4-1.5c0.4-0.3,0.9-0.8,2-1.4c0.6-0.3,1.4-0.6,1.6-0.6s0.2,0.1,0.2,0.2c0,0.1-0.1,0.2-0.2,0.4
				c-0.1,0.2-0.2,0.4-0.3,0.5c-0.3,0.6-0.7,1.2-0.9,1.7c-1.2,2.2-1.8,4.3-2,5.1c0,0.2-0.3,1.3-0.3,2.2c0,0.1,0,1.3,0.7,1.8
				c0.1,0.1,0.3,0.2,0.7,0.2c0.4,0,0.9-0.2,1.6-0.8c1.5-1.3,2-2.6,2.7-4.4c-0.6-0.7-1.9-2.1-1.9-4.7c0-0.5,0.1-1,0.1-1.2
				c0,0,0.4-2.4,2.1-2.4c0.7,0,1.3,0.4,1.4,0.5c0.6,0.5,1.4,1.6,1.4,3.4c0,0.9-0.2,2.7-1.2,4.9c0.2,0.1,0.9,0.3,1.8,0.3
				c1,0,1.8-0.4,2-0.5L244.7,552.6z M239.6,547.2c0-1.6-0.3-3.4-1-3.4c-0.7,0-0.8,2-0.8,2.4c0,1.8,0.5,2.8,1.4,4.3
				C239.5,549.2,239.6,548.2,239.6,547.2z"/>
			<path fill="#E5C650" d="M266.9,554.2c-0.5,0.1-2,0.2-3.4-0.7c-0.4-0.2-0.6-0.4-0.9-0.7c-0.4,0.6-0.8,1.3-2,2.3
				c-0.7,0.6-2.4,2.2-5.2,2.2c-1.4,0-2.1-0.3-2.7-0.6c-0.3-0.2-0.5-0.4-0.6-0.5c-0.4,0.2-2.4,1.2-4.4,1.2c-0.6,0-1.2-0.1-1.4-0.1
				c-1.8-0.4-2.2-1.7-2.2-2.4c0-0.5,0.3-1.4,0.4-1.4l2.8-7.8l3.9-1l-3.5,9.4c0,0.1-0.3,0.8-0.3,1.4c0,0.9,0.6,1.3,1.5,1.3
				c0.9,0,2.1-0.6,2.8-1c0-0.1-0.1-0.3-0.1-0.7c0-0.4,0.2-0.8,0.3-1.3l2.9-8l3.9-1l-3.6,9.7c0,0-0.4,0.9-0.4,1.5
				c0,0.7,0.5,1.2,1.2,1.2c1.5,0,2.7-1.4,2.8-1.6c0.9-1,1.7-2.4,1.9-2.7c0.2-0.3,0.3-0.7,0.5-1.2c-0.4-0.6-1.6-2.3-1.6-4.6
				c0-0.2,0-0.7,0.1-1.3c0.2-1,0.9-2,2.1-2c0.3,0,0.7,0.1,0.9,0.2c0.4,0.2,1.2,0.8,1.5,1.9c0.1,0.5,0.1,1.2,0.1,1.3
				c0,0.3,0,1-0.2,1.9c-0.4,1.7-1.3,3-1.6,3.6c0.7,0.6,1.4,1.2,3.3,1.2c0.4,0,0.7,0,1.2-0.1V554.2z M262.4,546.6
				c0-0.1,0-0.7-0.1-1.2c0-0.1-0.1-0.5-0.3-0.7c-0.1-0.2-0.3-0.3-0.5-0.3c-0.1,0-0.2,0-0.3,0.1c-0.4,0.3-0.6,1-0.6,2.2
				c0,2,0.7,3.6,1,4.2C261.7,550.5,262.4,548.2,262.4,546.6z"/>
			<path fill="#E5C650" d="M278.8,553.7c-0.2,0.4-0.4,1.2-0.4,1.7c0,0.4,0.1,1.2,1.2,1.2c1.3,0,3.4-1.3,4.4-1.9l0.3,0.4
				c-0.4,0.2-0.8,0.5-1.3,0.7c-1.4,0.8-2.7,1.5-4.3,1.5c-0.2,0-0.6,0-1.2-0.1c-0.5-0.1-2.2-0.7-2.2-2.7c0-0.6,0.2-1.3,0.3-1.5
				l2.9-7.5c0-0.1,0.1-0.3,0-0.3s-0.6,0.4-0.7,0.5c-2,1.9-3.7,4.7-4.1,5.2c-0.4,0.7-0.9,1.6-1.4,2.3c-0.5,0.8-0.9,1.7-1.5,2.5
				c-0.4,0.7-0.8,1.4-1.8,1.4c-0.5,0-2.1,0-2.1-1.9c0-0.6,0.2-1.2,0.4-1.8l2.9-8l3.9-0.9l-4.3,11.3c-0.1,0.2-0.1,0.3-0.1,0.4
				c0,0.1,0,0.1,0.1,0.1c0.1,0,0.1-0.1,0.1-0.1c0.1-0.1,0.4-0.7,0.7-1.4c0.3-0.5,2.2-4.5,4.2-7.1c0.5-0.7,0.9-1.2,1.6-1.8
				c0.1-0.1,1.7-1.8,3.3-1.8c0.4,0,1.9,0.2,1.9,1.7c0,0.4-0.1,0.6-0.3,1.3L278.8,553.7z"/>
			<path fill="#E5C650" d="M306,545.5c0.1,0.4,0.4,0.7,0.5,1.2c0.4,0.9,0.6,1.7,0.7,2.7c1,0.2,2.1,0.5,3.3,0.8l0.4,1.4
				c-1-0.5-1.6-0.8-3.6-1.5c-0.1,0.9-0.2,1.6-0.3,1.9c-0.6,2.3-2.2,3.4-2.8,3.9c-1,0.6-2.7,1.5-5.6,1.5c-0.3,0-2.1,0-3.4-0.4
				c-0.6-0.2-3.1-1.2-3.1-3.8c0-0.5,0.1-1.4,0.8-2.3c0.7-0.9,2-2,4.6-2.4c0.5-0.1,1.2-0.2,2.2-0.2c0.7,0,2,0,3.7,0.3l-1.2-2.3
				c-0.5-1-1-2-1.6-2.9c-0.5-1-0.9-2.1-0.9-3.3c0-0.8,0.2-2.4,1.9-3.8c0.7-0.5,2.1-1.6,4.4-1.6c2.6,0,3.6,1.6,3.6,2.7
				c0,1.3-1,2.3-1.3,2.5c-0.9,0.9-2.4,1.4-2.8,1.5c0.1-0.2,0.3-0.5,0.5-0.7c0.2-0.3,1.3-2,1.3-3.6c0-1.5-0.8-1.8-1.5-1.8
				c-0.4,0-0.7,0.1-1.2,0.4c-1.4,0.8-1.6,2.7-1.6,3.1c0,0.4,0.1,1,0.2,1.5c0.3,0.9,1,2.2,1.5,3.1L306,545.5z M301.3,549
				c-1.9,0-4.2,0.8-5.2,2.4c-0.2,0.3-0.7,1.2-0.7,2.3c0,0.2,0,0.6,0.2,1c0.4,1.4,1.7,2.1,3.1,2.1c0.5,0,1.2-0.1,1.7-0.3
				c2.1-0.7,3.6-3,3.6-5.4c0-0.9-0.2-1.7-0.3-2C303.5,549.2,302.1,549,301.3,549z"/>
			<path fill="#E5C650" d="M313.6,555.8c0,0.1-0.1,0.2-0.1,0.3c-0.1,0.1-0.1,0.2-0.1,0.3c0,0.1,0,0.1,0.1,0.1l0.1-0.1
				c0.1-0.1,0.4-0.7,0.4-0.8l0.6-1.3c1.8-3.5,3.1-5.4,4.3-6.7c0.2-0.2,1.3-1.6,2.5-2.4c0.8-0.6,1.3-0.7,1.9-0.7c0.1,0,0.4,0,0.8,0.1
				c0.4,0.1,1,0.5,1,1.6c0,0.4,0,0.5-0.3,1.4l-2.5,6.3c-0.3,0.7-0.3,1-0.3,1.5c0,0.1,0,0.6,0.4,0.9s0.9,0.3,1,0.3
				c0.9,0,2.5-0.9,2.7-1c0.4-0.2,0.8-0.6,1.3-0.8l0.3,0.4c-0.5,0.4-0.9,0.7-1.6,1c-0.4,0.3-2,1.2-4.2,1.2c-0.1,0-1.9,0.1-2.9-1
				c-0.4-0.4-0.5-0.9-0.5-1.4c0-0.7,0.4-1.8,0.5-1.9l2.8-7c0.1-0.2,0.2-0.4,0.2-0.6v-0.1c-0.3,0-2.4,2.5-3.8,4.4
				c-0.5,0.7-0.9,1.5-1.5,2.3c-0.4,0.7-0.8,1.4-1.3,2.1c-0.3,0.6-0.7,1.2-1,1.8c-0.2,0.4-0.6,1-0.9,1.4c-0.3,0.2-0.5,0.2-0.9,0.2
				c-0.1,0-0.7,0-1.2-0.1c-0.7-0.2-1.2-0.9-1.2-1.7c0-0.6,0.1-0.8,0.4-1.9l6.1-17.3l3.9-1L313.6,555.8z"/>
			<path fill="#E5C650" d="M338.7,555.2c-0.5,0.3-1.2,0.6-1.7,0.8c-1.9,0.9-3,1.3-5.2,1.3c-0.3,0-0.6,0-0.9,0
				c-0.2,0-2.2-0.1-3.1-1.2c-0.4-0.5-0.5-1.2-0.5-1.9c0-1.6,0.9-4.3,1.7-5.7c0.2-0.4,0.7-1.2,1.5-2c1.7-1.8,3.6-2.3,4.5-2.3
				c0.6,0,2.3,0.2,2.4,2.2c0,0.9-0.2,2-1.6,3.5c-0.9,1-2.1,1.9-4.7,3.3c0,0.1-0.1,0.7-0.1,1.2c0,0.1,0,0.6,0.1,1
				c0.2,0.5,0.7,1.3,2,1.3c2.2,0,5.4-1.9,5.6-1.9L338.7,555.2z M332.7,550.8c0.8-0.9,3.1-3.9,3.1-5.2c0-0.4-0.3-0.7-0.7-0.7
				c-0.5,0-0.8,0.4-1,0.7c-0.4,0.5-1,1.7-1.3,2.2c-0.9,2-1.6,4.1-1.7,4.7C331.7,551.9,332.2,551.4,332.7,550.8z"/>
			<path fill="#E5C650" d="M350.5,553.3c-0.1,0-0.7,0.2-1.3,0.2c-0.6,0-2.3-0.3-3.4-1.9c-0.3-0.4-0.4-0.7-0.6-1.2
				c-0.5,0.8-1.5,2.2-2.5,4.3c-0.5,1-0.9,2.1-1.3,2.3c-0.3,0.2-0.7,0.2-1,0.2c-0.3,0-1.4,0-1.8-0.9c-0.1-0.1-0.2-0.5-0.2-1
				c0-0.4,0.1-0.9,0.3-1.8l2.8-7.9l3.9-1l-4.3,11.8c0,0-0.1,0.2-0.1,0.3c0,0,0,0.1,0.1,0.1s0.2-0.2,0.3-0.5c0.3-0.7,0.6-1.4,0.9-2.1
				c0.5-1.2,1.2-2.3,1.8-3.4c0.3-0.5,0.6-0.9,0.8-1.5c0.1-0.7,0.2-2.5,1.8-4c0.8-0.7,1.4-0.9,1.9-0.9c0.9,0,1.3,0.6,1.3,1
				c0,0.3-0.3,0.5-0.3,0.6c-0.5,0.5-1.2,0.9-1.7,1.5l-1.8,1.8c0,1.2,0,2.3,1,3c0.2,0.2,0.7,0.5,1.6,0.5c0.5,0,1-0.2,1.6-0.3
				L350.5,553.3z"/>
			<path fill="#E5C650" d="M352.7,556.5c0,0.1-0.1,0.3,0,0.3c0.1,0,0.2-0.1,0.2-0.1c0.1-0.1,0.3-0.7,0.5-1.3c2-4.7,3.9-7.6,5.5-9.1
				c1.3-1.3,2.5-1.8,3.4-1.8c0.5,0,1.9,0.3,1.9,1.9c0,0.7-0.4,1.5-0.4,1.6l-3.3,8.2c0,0.1-0.1,0.1-0.1,0.2c0,0.1,0.1,0.1,0.1,0.1
				s0.1,0,0.1-0.1c0.1-0.1,0.2-0.4,0.4-0.8l0.6-1.4c1.3-2.7,2.8-6,5-8.2c1.4-1.4,2.4-1.8,3.4-1.8c1,0,1.9,0.6,1.9,1.8
				c0,0.5-0.1,0.9-0.3,1.4c-0.7,1.7-1.5,3.5-2.4,5.9c0,0.1-0.4,0.9-0.4,1.6c0,0.7,0.4,1.3,1.3,1.3c0.4,0,0.9-0.1,1.9-0.5
				c0.7-0.3,1.2-0.5,2.3-1.4l0.3,0.4c-0.3,0.2-0.8,0.7-1.9,1.3c-1.3,0.7-2.1,0.8-2.7,1c-0.1,0-0.8,0.1-1.4,0.1
				c-1.2,0-2.2-0.4-2.7-1.5c-0.3-0.5-0.3-0.9-0.3-1.2c0-0.4,0-0.8,0.3-1.6l2.9-7.5c0-0.1,0.1-0.3,0.1-0.3s0-0.1-0.1-0.1
				s-0.5,0.3-0.5,0.3c-0.1,0.1-1.2,1-1.9,2.1c-1.7,2.1-3.8,6.1-4.8,8.2c-0.3,0.6-0.5,1-0.8,1.3c-0.3,0.2-0.7,0.2-0.8,0.2
				s-0.5,0-0.8-0.1c-1.3-0.4-1.4-1.7-1.4-2.1c0-0.7,0.3-1.6,0.5-2.2l2.8-7.2c0-0.1,0.1-0.2,0.1-0.3c0,0,0-0.1-0.1-0.1
				s-0.3,0.1-0.4,0.3c-0.4,0.4-1.4,1.3-2.3,2.5c-2.2,2.9-3.9,6.5-4.4,7.5c-0.4,0.7-0.5,1.2-0.8,1.4c-0.2,0.2-0.4,0.3-1,0.3
				c-0.3,0-1.4,0-1.9-1c-0.1-0.2-0.2-0.5-0.2-1s0.1-1,0.4-2.1l2.8-7.7l3.9-1L352.7,556.5z"/>
			<path fill="#E5C650" d="M384.9,553.5c-0.3,0.8-0.4,1.2-0.4,1.7c0,1,1,1.2,1.3,1.2c1.7,0,4.1-1.8,4.1-1.8l0.2,0.4l-1.2,0.7
				c-0.4,0.3-2.4,1.6-4.5,1.6c-1.3,0-1.8-0.3-2.3-0.6c-0.3-0.2-0.4-0.3-0.5-0.4c-0.1-0.1-0.1-0.2-0.2-0.3c-0.6,0.5-2,1.5-4.1,1.5
				c-0.1,0-1.5,0-2.3-0.5c-1-0.7-1-2-1-2.4c0-0.4,0-0.9,0.2-1.8c0.2-0.9,0.5-2.2,1.7-3.9c0.1-0.2,0.7-1,1.4-1.8
				c1.3-1.3,3.1-2.5,5-2.5c1.4,0,2,0.6,2.4,1l3.7-0.9L384.9,553.5z M384.2,545.8c-0.5-0.4-0.9-0.7-1.7-0.7c-1,0-1.6,0.7-1.8,1
				c-0.6,0.8-1.5,2.9-1.9,3.9c-0.9,2.3-1.5,3.9-1.5,4.9c0,1.3,1,1.5,1.5,1.5c0.1,0,0.3,0,0.6-0.1c0.4-0.1,0.9-0.4,1.8-0.8
				c-0.1-0.3-0.1-0.4-0.1-0.7c0-0.6,0.2-1.2,0.4-1.7L384.2,545.8z"/>
			<path fill="#E5C650" d="M401.5,553.7c-0.2,0.4-0.4,1.2-0.4,1.7c0,0.4,0.1,1.2,1.2,1.2c1.3,0,3.4-1.3,4.4-1.9l0.3,0.4
				c-0.4,0.2-0.8,0.5-1.3,0.7c-1.4,0.8-2.7,1.5-4.3,1.5c-0.2,0-0.6,0-1.2-0.1c-0.5-0.1-2.2-0.7-2.2-2.7c0-0.6,0.2-1.3,0.3-1.5
				l2.9-7.5c0-0.1,0.1-0.3,0-0.3s-0.6,0.4-0.7,0.5c-2,1.9-3.7,4.7-4.1,5.2c-0.4,0.7-0.9,1.6-1.4,2.3c-0.5,0.8-0.9,1.7-1.5,2.5
				c-0.4,0.7-0.8,1.4-1.8,1.4c-0.5,0-2.1,0-2.1-1.9c0-0.6,0.2-1.2,0.4-1.8l2.9-8l3.9-0.9l-4.3,11.3c-0.1,0.2-0.1,0.3-0.1,0.4
				c0,0.1,0,0.1,0.1,0.1s0.1-0.1,0.1-0.1c0.1-0.1,0.4-0.7,0.7-1.4c0.3-0.5,2.2-4.5,4.2-7.1c0.5-0.7,0.9-1.2,1.6-1.8
				c0.1-0.1,1.7-1.8,3.3-1.8c0.4,0,1.9,0.2,1.9,1.7c0,0.4-0.1,0.6-0.3,1.3L401.5,553.7z"/>
			<path fill="#E5C650" d="M416.5,550.3c-1.2-1.7-2.1-3.1-2.1-5.4c0-0.4,0-1.3,0.3-2.4c0.3-1.2,1.5-3.7,4.1-5.6
				c1.7-1.2,4.3-2.4,9-2.4c1.4,0,2.7,0.1,4,0.2c1.4,0.1,2.7,0.2,4.1,0.2c1,0.1,2,0,3,0c0.6,0,0.7,0.2,0.5,0.7l-0.5,1.6
				c-0.2,0.4-0.2,0.4-0.9,0.4c-2.2,0-4.4-0.1-6.6-0.3c-1.8-0.1-3.6-0.3-5.2-0.3c-2,0-4.7,0.3-6.6,1c-0.3,0.1-1,0.4-1.8,1
				c-1.3,1-1.8,2.4-1.9,2.9c-0.1,0.3-0.4,1.5-0.4,2.6c0,1.3,0.4,2.6,0.9,3.9c0.2,0.4,0.4,0.8,0.7,1.3L416.5,550.3z M435.8,538.4
				c-0.6,1.4-0.8,2.2-1.3,5.2c-0.1,0.9-0.3,1.8-0.4,2.6c-0.6,3-1.5,4.8-2.1,6.1c-1,1.8-3.9,5.4-9.5,5.4c-0.4,0-2.8,0-4.2-1.4
				c-0.8-0.8-0.9-1.8-0.9-2.2c0-1.5,0.7-2.7,1.9-3.6c0.7-0.6,1.5-1,2.4-1.3c0.3-0.1,0.9-0.2,1.8-0.2c2,0,3.5,0.7,4.1,1l-0.3,0.6
				c-1.3-0.4-1.9-0.7-3.1-0.7c-0.5,0-2,0.1-3.5,0.8c-0.4,0.2-2.4,1.3-2.4,3.5c0,0.4,0.1,0.8,0.3,1.2c0.4,0.7,1.6,1.6,3.6,1.6
				c1.2,0,3.4-0.3,5.1-2.6c1.3-1.7,1.9-3.7,2.4-5.7c0.3-1.2,0.6-2.3,0.9-3.5c0.6-2.1,1.2-3.1,1.8-4c1.2-1.6,2.7-2.8,3.3-3.1
				L435.8,538.4z"/>
			<path fill="#E5C650" d="M465.7,536.2c-0.1-0.1-0.4-0.7-1.2-0.7c-0.9,0-1.9,0.8-2.5,1.4c-1.3,1-1.8,1.6-2.9,2.8l-4.5,5.1l-0.1,0.5
				h4.1l-1.3,1.5h-3.4l-0.9,3.9c-0.4,1.7-0.5,2.4-0.5,3.4c0,2.5,1.9,2.7,2.8,2.7c0.8,0,2.2-0.2,3.8-1.6c0.8-0.7,2.9-2.8,4-5.9
				c0.1-0.3,0.5-1.4,0.5-2.6c0-0.8-0.1-1.4-0.2-1.6l-0.3-0.7c0-0.2,0.2-0.2,0.3-0.2c0.4,0,0.8,0.4,0.9,0.4c1.2,0.8,1.2,2.4,1.2,2.7
				c0,1.9-0.9,5.1-4.5,7.9c-0.7,0.5-3,2.2-6.1,2.2c-1.7,0-2.8-0.5-3.4-0.8c-0.6-0.3-2.6-1.6-2.6-4c0-0.7,0.2-1.7,0.2-1.9
				c-0.5,0.6-1.4,1.6-2.8,2.8c-0.5,0.4-1,0.9-1.7,1.4c-1.3,1-3.3,2.4-4.9,2.4c-0.1,0-1.2,0-1.9-0.4c0,0-0.4-0.3-0.4-0.6
				c0-0.1,0-0.1,0.1-0.3l1-1.9c0-0.1,0.1-0.2,0.4-0.2c0,0,0.2,0,0.3,0.1c0.2,0.3,0.2,0.7,0.4,1.4c0,0.1,0.2,0.9,1,0.9
				s2.2-1.4,3.7-2.8l5.5-6.1l0.2-0.7h-4.4l1.3-1.5h3.6l1.8-5.7c0.2-0.6,0.4-1.3,0.4-2c0-0.2,0-0.5-0.2-1c-0.2-0.6-0.9-1.3-2.4-1.3
				c-5,0-9.8,6.5-9.9,6.7c-0.3,0.4-2.1,2.8-2.1,5.4c0,0.8,0.2,1.7,0.3,1.9l-0.5,0.3c-0.6-0.9-0.9-1.5-1.2-2.6c0-0.3-0.1-0.6-0.1-1.3
				c0-3.3,2.5-5.8,3-6.3c1.4-1.4,5.1-4.7,10.8-4.7c0.3,0,2.9-0.1,4.5,1.2c1,0.8,1.2,1.8,1.2,2.4c0,1.2-0.5,2.5-0.6,2.7
				c0.3-0.4,0.6-0.7,0.9-1.2c1.7-1.9,5.5-5.5,8.3-5.5c0.8,0,1.3,0.3,1.6,0.5L465.7,536.2z"/>
		</g>
		<g>
			<path fill="none" stroke="#000000" stroke-width="1.6921" stroke-miterlimit="10" d="M388.8,507.3c-5.4,0-5.4,3-10.7,3
				c-5.4,0-5.4-3-10.7-3s-5.4,3-10.7,3s-5.4-3-10.7-3s-5.4,3-10.7,3s-5.4-3-10.7-3s-5.4,3-10.7,3s-5.4-3-10.7-3s-5.4,3-10.7,3
				s-5.4-3-10.7-3s-5.4,3-10.7,3s-5.4-3-10.7-3s-5.4,3-10.7,3s-5.4-3-10.7-3s-5.4,3-10.7,3s-5.4-3-10.7-3"/>
		</g>
		<g>
			<path fill="none" stroke="#000000" stroke-width="1.6921" stroke-miterlimit="10" d="M388.8,286.9c-5.4,0-5.4,3-10.7,3
				c-5.4,0-5.4-3-10.7-3s-5.4,3-10.7,3s-5.4-3-10.7-3s-5.4,3-10.7,3s-5.4-3-10.7-3s-5.4,3-10.7,3s-5.4-3-10.7-3s-5.4,3-10.7,3
				s-5.4-3-10.7-3s-5.4,3-10.7,3s-5.4-3-10.7-3s-5.4,3-10.7,3s-5.4-3-10.7-3s-5.4,3-10.7,3s-5.4-3-10.7-3"/>
		</g>
	</g>
</g>
</svg>
