<?xml version="1.0" encoding="utf-8"?>
<!-- Generator: Adobe Illustrator 18.1.1, SVG Export Plug-In . SVG Version: 6.00 Build 0)  -->
<!DOCTYPE svg PUBLIC "-//W3C//DTD SVG 1.1//EN" "http://www.w3.org/Graphics/SVG/1.1/DTD/svg11.dtd">
<svg version="1.1" id="Layer_1" xmlns="http://www.w3.org/2000/svg" xmlns:xlink="http://www.w3.org/1999/xlink" x="0px" y="0px"
	 viewBox="0 0 579.9 457.5" enable-background="new 0 0 579.9 457.5" xml:space="preserve">
<g>
	<g>
		<path fill="#FFFDF2" d="M61.9,210.3v17.2H42.9v48.9H23.1v-48.9h-18v-17.2H61.9z"/>
		<path fill="#FFFDF2" d="M114.7,210.3h19.4v66.1h-19.4v-25.5H95v25.5H75.5v-66.1H95v22.7h19.7V210.3z"/>
		<path fill="#FFFDF2" d="M204.2,227.2h-35.7v8.1h30.1v15.2h-30.1v9.1h36.4v16.8l-55.8,0.1v-66.2h55.2V227.2z"/>
		<path fill="#FFFDF2" d="M273.7,209.3c18.9,0,28.6,13.5,30.2,25.3h-19.8c-1.2-6-5.6-9.3-10.5-9.5c-8.9-0.4-15,7.1-15,18.2
			c0,10,6.7,18.3,15,18.2c5.6-0.1,10.7-4,11.3-10.5l19.3-0.2c0,15.1-14.3,26.4-30.6,26.5c-21.1,0.1-34.8-15.8-34.5-34.6
			C239.5,223.9,249.4,209.3,273.7,209.3z"/>
		<path fill="#FFFDF2" d="M337.9,210.3v48.9h29.3v17.2h-48.8v-66.1H337.9z"/>
		<path fill="#FFFDF2" d="M381.6,210.3l11.6,22.2l12.7-22.2h21.6l-24.3,43.7v22.5h-20.5v-22.5L360,210.3H381.6z"/>
		<path fill="#FFFDF2" d="M440.4,210.3h27.5c21.4,0,34.3,13.4,34.3,31.6c-0.2,18.5-10.2,34.6-32,34.5l-29.9,0.1V210.3z M464.6,227.3
			h-4.8v33h5.1c10.6,0,17.3-7.9,17.5-17.5C482.8,233.6,476,227.3,464.6,227.3z"/>
		<path fill="#FFFDF2" d="M571.3,227.2h-35.7v8.1h30.1v15.2h-30.1v9.1H572v16.8l-55.8,0.1v-66.2h55.2V227.2z"/>
	</g>
	<g>
		<g>
			<path fill="#FFFDF2" d="M124.4,350l2.8,10.8l2.4-10.8h5.2l2.3,10.5l2.9-10.5h5.6l-5.7,19.3h-5.7l-2-10.3l-2.3,10.3H124l-5.2-19.3
				H124.4z"/>
			<path fill="#FFFDF2" d="M154.4,350v19.3h-5.7V350H154.4z"/>
			<path fill="#FFFDF2" d="M163.9,350v14.3h8.5v5h-14.2V350H163.9z"/>
			<path fill="#FFFDF2" d="M181.5,350v14.3h8.6v5h-14.2V350H181.5z"/>
			<path fill="#FFFDF2" d="M199.1,350v19.3h-5.7V350H199.1z"/>
			<path fill="#FFFDF2" d="M219.1,354.9h-10.4v2.4h8.8v4.4h-8.8v2.6h10.6v4.9l-16.3,0V350h16.1V354.9z"/>
			<path fill="#FFFDF2" d="M243.3,350v12c0,4.3-3.1,7.3-7.2,7.5c-4,0.1-7.6-3-7.6-7V361h5.7v1.9c0,0.9,0.8,1.7,1.7,1.7
				c0.9,0,1.8-0.8,1.7-1.7v-13H243.3z"/>
			<path fill="#FFFDF2" d="M252.8,350v19.3h-5.7V350H252.8z"/>
			<path fill="#FFFDF2" d="M266.9,360.2l2.8-10.2h7.6v19.3h-5.3v-10.5l-3,10.5h-4.3l-2.8-10.8v10.8h-5.3V350h7.6L266.9,360.2z"/>
			<path fill="#FFFDF2" d="M282.7,353.9h-1.6V350h3.6v3.9c0,1.9-1.7,3.6-3.6,3.6v-1.6C281.8,355.9,282.7,354.9,282.7,353.9z"/>
			<path fill="#FFFDF2" d="M298.2,357c2.1,0.6,5.4,1.4,6.5,4c0.6,1.4,0.7,3.3-0.4,5.1c-1.8,2.8-5.1,3.4-7.2,3.4
				c-1.8,0.1-5.9-0.4-7.8-2.9c-0.8-1-1.1-2.1-1.2-3.6h5.7c0.3,1.2,0.8,1.8,2.1,2.1c3.2,0.4,3.7-1.3,3.5-1.8c-0.3-1-2.7-1.3-4.3-1.8
				c-2.6-0.8-5.3-1.7-6.2-4.2c-0.4-1.2-0.3-3.6,0.6-5c1.5-2.1,4.2-2.6,6.2-2.6c1.8,0,5.7,0.1,7.5,2.4c0.6,0.7,1,2.1,1,3.4h-5.5
				c-0.4-1-1.3-1.7-2.6-1.7c-1.9,0.1-2.1,1.2-2,1.6C294.3,356.3,296.5,356.5,298.2,357z"/>
			<path fill="#FFFDF2" d="M324,349.7c6.5,0,9.9,4.5,9.9,9.9c0,5.5-3.4,9.9-9.9,9.9c-6.8,0-10-4.5-10-9.9
				C314,354.1,317.2,349.7,324,349.7z M324.1,365.6c2.7,0,4.1-2.7,4-5.9c-0.1-3.1-1.3-5.9-4-5.9c-3.1,0-4.3,2.6-4.3,6.1
				C319.7,363,320.9,365.6,324.1,365.6z"/>
			<path fill="#FFFDF2" d="M347.2,350c2.4,0,5.1,0.2,6.8,2.8c0.9,1.3,0.9,3.4,0.4,4.7c-0.6,1.4-1.5,2.2-3,2.8c2.9,1.2,2.9,4.5,3,6.5
				c0.1,0.9,0.3,1.8,0.7,2.5h-5.8L349,367c-0.6-4.5-1-4.7-4.4-4.6h-1.4v6.9h-5.7V350H347.2z M348.9,356.4c-0.1-1.3-1.1-2-2.2-2h-3.4
				v3.9h3.7C347.7,358.4,348.9,357.9,348.9,356.4z"/>
			<path fill="#FFFDF2" d="M364,350v19.3h-5.7V350H364z"/>
			<path fill="#FFFDF2" d="M373.1,359.6c0,2.9,1.8,5.3,4,5.3c1.7,0,2.9-0.7,3.6-2.2h-2.4v-4h7.8v10.5h-3.7l-0.3-2.1
				c-1.3,1.7-3.5,2.4-5.4,2.4c-5.5,0-9.3-4.6-9.2-10.1c0.1-5.5,3.7-9.9,9.6-9.8c4.9,0.1,7.7,2.7,8.8,6.2c0.1,0.3,0.1,0.6,0.1,0.6
				h-5.7c-0.1-1.3-1.7-2.3-3.1-2.3C374.9,354.3,373.1,356.7,373.1,359.6z"/>
			<path fill="#FFFDF2" d="M395.8,350v19.3h-5.7V350H395.8z"/>
			<path fill="#FFFDF2" d="M405.3,350l5.9,10v-10h5.9v19.3H411l-5.7-9.7v9.7h-5.7V350H405.3z"/>
			<path fill="#FFFDF2" d="M433.2,350l7.1,19.3h-6l-0.9-2.6H427l-1,2.6h-5.7l7.2-19.3H433.2z M432,362.7l-1.7-4.7l-1.8,4.7H432z"/>
			<path fill="#FFFDF2" d="M449.2,350v14.3h8.6v5h-14.2V350H449.2z"/>
			<path fill="#FFFDF2" d="M188.5,393.5v4.9h-9.6v2.7h7.9v4.6h-7.9v7h-5.7v-19.3H188.5z"/>
			<path fill="#FFFDF2" d="M200.8,393.5l7.1,19.3h-6l-0.9-2.6h-6.5l-1,2.6h-5.7l7.2-19.3H200.8z M199.6,406.2l-1.7-4.7l-1.8,4.7
				H199.6z"/>
			<path fill="#FFFDF2" d="M221.3,403.7l2.8-10.2h7.6v19.3h-5.3v-10.5l-3,10.5h-4.3l-2.8-10.8v10.8h-5.3v-19.3h7.6L221.3,403.7z"/>
			<path fill="#FFFDF2" d="M241.2,393.5v19.3h-5.7v-19.3H241.2z"/>
			<path fill="#FFFDF2" d="M250.7,393.5v14.3h8.6v5H245v-19.3H250.7z"/>
			<path fill="#FFFDF2" d="M263,393.5l3.4,6.5l3.7-6.5h6.3l-7.1,12.7v6.6h-6v-6.6l-6.6-12.7H263z"/>
			<path fill="#FFFDF2" d="M295.1,393.5c2.4,0,5.1,0.2,6.8,2.8c0.9,1.3,0.9,3.4,0.4,4.7c-0.6,1.4-1.5,2.2-3,2.8
				c2.9,1.2,2.9,4.5,3,6.5c0.1,0.9,0.3,1.8,0.7,2.5h-5.8l-0.4-2.3c-0.6-4.5-1-4.7-4.4-4.6h-1.4v6.9h-5.7v-19.3H295.1z M296.8,399.9
				c-0.1-1.3-1.1-2-2.2-2h-3.4v3.9h3.7C295.6,401.9,296.8,401.3,296.8,399.9z"/>
			<path fill="#FFFDF2" d="M322.3,398.4h-10.4v2.4h8.8v4.4h-8.8v2.6h10.6v4.9l-16.3,0v-19.3h16.1V398.4z"/>
			<path fill="#FFFDF2" d="M335.8,393.2c5.5,0,8.3,3.9,8.8,7.4h-5.8c-0.3-1.8-1.6-2.7-3.1-2.8c-2.6-0.1-4.4,2.1-4.4,5.3
				c0,2.9,1.9,5.3,4.4,5.3c1.6,0,3.1-1.2,3.3-3.1l5.6,0c0,4.4-4.2,7.7-8.9,7.7c-6.1,0-10.1-4.6-10.1-10.1
				C325.8,397.5,328.7,393.2,335.8,393.2z"/>
			<path fill="#FFFDF2" d="M354,393.5v19.3h-5.7v-19.3H354z"/>
			<path fill="#FFFDF2" d="M363.6,412.8h-5.7v-19.3h9.9c4.9,0,7,2.7,7,6.5c0,3.7-3.5,6.9-6.5,6.9h-4.7V412.8z M368.9,400.2
				c0-1.3-1.1-2-2.2-2h-3.1v4.1h3.4C367.8,402.4,368.9,401.6,368.9,400.2z"/>
			<path fill="#FFFDF2" d="M394.5,398.4h-10.4v2.4h8.8v4.4h-8.8v2.6h10.6v4.9l-16.3,0v-19.3h16.1V398.4z"/>
			<path fill="#FFFDF2" d="M403.6,412.8l-5.2,0v-5.5h5.2V412.8z"/>
		</g>
	</g>
	<g>
		<path fill="#FFFDF2" d="M132.6,139c-1-1.2-1.5-1.9-1.9-2.4c-1.2-2-3-6.2-3-12.1c0-1,0.1-3.8,0.8-6.8c0.8-3.2,3.1-10,9.4-16
			c2.9-2.7,12-10.8,24.6-10.8c4.5,0,8,0.8,16.6,2.5c3.4,0.7,6.9,1.3,10.3,1.8c1.8,0.3,3.5,0.6,5.3,0.8c1,0.1,2.2,0.2,3.3,0.3
			c0.9,0.1,1.3,0.1,1.3,0.6c0,0.3-0.1,0.6-0.2,0.8l-0.8,2.1c-0.5,1.2-1.1,1.8-3.4,1.8c-2.2,0-15.7-1.1-25.9-2.8
			c-4.2-0.7-10.1-1.9-14.3-1.9c-2.1,0-6.9,0.1-11.8,3.2c-1.8,1.2-6.7,4.8-9.3,10.7c-1.9,4.4-2.5,9.6-2.5,14.3c0,1.5,0,5.9,1.5,10.3
			c0.3,0.8,0.6,1.7,1,2.4L132.6,139z M185.4,102.4c-0.6,0.9-1.2,1.8-1.8,2.8c-2.8,5.3-4.6,13.4-4.9,14.5l14.4-0.6
			c1.4-0.1,3.2-0.2,3.5-0.1c0.3,0.1,0.4,0.3,0.4,0.6s-0.2,0.6-0.3,0.8L195,123c-0.7,1-1,1.4-2.4,1.4c-0.5,0-1,0-1.5-0.1l-13.3-0.4
			c-1.7,6.8-2.9,11.7-6.2,17.9c-0.8,1.6-1.9,3.4-3,4.8c-0.6,0.8-1.5,2-3.3,3.5c-2,1.8-4.9,4-7.8,3.9c-0.8,0-1.5-0.2-1.7-0.3
			c-1.7-0.7-2.7-2.4-2.6-4.1c0-2.9,1.8-5.8,5-10.6l5.1-7.8c1.6-2.4,2.7-4,2.7-5.3c0-0.8-0.4-1.4-0.6-1.6c-0.9-1.3-2.2-1.3-3.6-1.2
			c-1.2,0.1-1.9,0.2-2.4,0.1c-0.9-0.3-1.1-1.2-1.1-1.5c0-0.2,0.1-0.5,0.3-0.9c0.7-1.1,2.4-0.9,2.6-0.9l9.5-0.1
			c0.8-2.2,1.7-4.4,2.8-6.6c3.8-7.1,8-9.9,10.8-11.7L185.4,102.4z M166,123c0.4,0.4,1.3,1.1,1.3,2.7c0,1.7-1,3.2-2.5,6.2
			c-0.9,1.8-1.8,3.7-2.7,5.6c-0.8,1.7-1.6,3.3-2.4,5c-1.6,3.4-2.7,6.2-2.7,7.7c0,1.5,1,1.8,1.5,1.8c0.6-0.1,1.1-0.3,1.3-0.4
			c1-0.7,2-1.9,3.1-4.2c2.1-4.4,3.1-10.1,4.2-14.8c0.8-3.2,1.6-6.4,2.5-9.5L166,123z"/>
		<path fill="#FFFDF2" d="M221,137.2c-1.3,0.7-2.6,1.3-3.8,2c-4.3,2-6.9,2.8-11.8,2.8c-0.7,0-1.4,0-2.1-0.1c-0.6,0-5-0.1-7-2.6
			c-0.8-1.1-1.1-2.6-1.1-4.2c0-3.6,2-9.7,3.7-12.7c0.6-0.9,1.5-2.6,3.3-4.5c3.8-4.1,8-5.2,10.2-5.2c1.4,0,5.2,0.5,5.3,5
			c-0.1,2-0.6,4.5-3.5,7.8c-2.2,2.5-4.8,4.3-10.6,7.2c-0.1,0.3-0.3,1.5-0.3,2.7c0,0.3,0,1.4,0.3,2.2c0.4,1.2,1.5,2.7,4.4,2.8
			c5-0.1,12.1-4.1,12.5-4.3L221,137.2z M207.6,127.3c1.8-2.1,7-8.8,7-11.9c0-0.9-0.7-1.7-1.6-1.7c-1.1,0-1.8,0.9-2.5,1.7
			c-0.8,1.1-2.3,3.7-2.9,5c-2.2,4.5-3.4,9.2-3.8,10.7C205.1,129.8,206.5,128.6,207.6,127.3z"/>
		<path fill="#FFFDF2" d="M244.5,133.4c-0.8,2-1,2.7-1,3.8c0,2.4,2.3,2.5,2.9,2.5c3.7-0.1,9.2-3.9,9.3-4l0.6,1l-2.5,1.7
			c-1,0.7-5.4,3.6-10.2,3.6c-2.7,0-4.1-0.6-5.1-1.4c-0.6-0.4-0.9-0.8-1.1-1c-0.2-0.2-0.3-0.5-0.6-0.8c-1.5,1.1-4.4,3.2-9.2,3.2
			c-0.3,0-3.4,0-5.2-1.3c-2.4-1.6-2.4-4.5-2.4-5.4c0-0.8,0.1-2.1,0.5-4.1c0.5-2,1.3-4.9,3.8-8.7c0.4-0.6,1.6-2.4,3.1-4
			c2.7-2.9,7-5.6,11.2-5.7c3,0.1,4.4,1.3,5.3,2.2l8.2-2.1L244.5,133.4z M242.9,116.2c-1.1-1-2.1-1.8-3.8-1.8c-2.4,0-3.5,1.6-3.9,2.2
			c-1.3,1.9-3.4,6.5-4.3,8.7c-2.2,5.2-3.2,8.6-3.2,11.1c0,2.8,2.3,3.2,3.2,3.2c0.3,0,0.7,0,1.4-0.2c0.8-0.3,2.2-0.9,4-2
			c-0.1-0.7-0.2-1-0.2-1.8c0-1.4,0.4-2.5,0.9-3.8L242.9,116.2z"/>
		<path fill="#FFFDF2" d="M269.8,115h5.5l-2,2.9h-4.5l-5.7,16.1c-0.6,1.8-0.7,2.3-0.7,3.3c0,0.8,0.3,2.6,2.6,2.6c2.1,0,6-1.8,10.8-4
			l0.6,1.1c-4.1,2-9.4,4.8-14,4.8c-1.6,0-3.7-0.4-4.9-1.3c-0.6-0.3-1.2-0.9-1.6-1.5c-0.9-1.3-1-2.3-1-2.9c0-1.1,0.3-2.2,0.7-3.3
			l5.2-15h-4.2l2.1-2.9h3.1l4.6-13.3l8.7-2.4L269.8,115z"/>
		<path fill="#FFFDF2" d="M283.3,134.7c-0.1,0.3-0.8,1.8-0.8,3.2c0,1.5,0.9,2.5,2.6,2.5c1,0,3-0.5,5.3-1.8c0.8-0.4,1.5-0.8,2.2-1.3
			c-0.1-1.4-0.1-2.1,0.7-4.3l6.5-17.3l8.8-2.3l-7.9,21.3c-0.3,0.8-0.8,2.2-0.8,3.1c0,1.7,1.3,2.7,2.8,2.7c1.9,0,5.4-1.6,9.2-4.5
			l0.8,1c-0.7,0.5-1.4,1-2,1.5c-3.4,2.3-6.6,3.8-10.7,3.8c-1.1,0-1.7-0.1-2.7-0.3c-0.8-0.1-3.2-0.7-4.2-3.1
			c-1.1,0.6-5.7,3.4-10.4,3.4c-3.6-0.1-7.3-1.9-7.3-6.1c0-1.3,0.4-2.5,0.9-3.6l6.2-16.7l8.8-2.2L283.3,134.7z"/>
		<path fill="#FFFDF2" d="M339.2,133c-0.1,0.1-1.8,0.5-2.9,0.5c-1.4,0-5.1-0.6-7.6-4.2c-0.7-1-0.9-1.5-1.4-2.7
			c-1.2,1.8-3.3,4.9-5.7,9.7c-1.3,2.4-2.1,4.6-2.9,5.2c-0.6,0.5-1.5,0.6-2.3,0.6s-3,0-4.1-2.2c-0.1-0.4-0.5-1.3-0.5-2.4
			c0-0.9,0.2-2.2,0.8-4.1l6.4-17.7l8.7-2.3l-9.6,26.3c0,0.1-0.2,0.6-0.2,0.7c0,0,0.1,0.2,0.3,0.2c0.3-0.1,0.5-0.5,0.8-1.1
			c0.7-1.5,1.3-3.1,2-4.6c1.2-2.6,2.5-5.2,3.9-7.6c0.6-1.2,1.3-2.2,2-3.3c0.2-1.8,0.5-5.7,4.1-8.9c1.9-1.7,3.1-2,4.3-2
			c2,0,2.8,1.4,2.8,2.2c0,0.8-0.6,1.3-0.8,1.4c-1.3,1.1-2.5,2.2-3.7,3.2l-4.1,4.1c0,2.6,0,5.2,2.3,6.9c0.6,0.4,1.7,1.1,3.4,1.1
			c1.3,0,2.4-0.4,3.6-0.8L339.2,133z"/>
		<path fill="#FFFDF2" d="M346.4,134.2c-0.4,1.1-0.8,1.9-0.8,3.2c0,1.7,0.9,2.9,2.7,2.9c0.8,0,1.3-0.1,2.7-0.6
			c2.3-0.8,4.5-2.3,6.5-3.6l0.4,1c-0.6,0.5-1.2,0.9-1.8,1.3c-3.1,2.2-6.3,3.5-10.1,3.5c-0.5,0-3.6,0-5.7-1.4
			c-0.4-0.2-0.9-0.6-1.5-1.5c-0.5-0.8-0.8-1.7-0.8-2.7c0-1,0.2-1.6,0.8-3.4l6.4-17.3l8.7-2.4L346.4,134.2z M349,103.8
			c0.1-2.7,2.2-4.8,4.8-4.8c2.7,0,4.8,2.2,4.8,4.8c0,2.7-2.2,4.8-4.8,4.8c-0.6,0-2.1-0.1-3.4-1.4C349.2,105.9,349,104.3,349,103.8z"
			/>
		<path fill="#FFFDF2" d="M383.9,133.9c-0.4,1-1,2.5-1,3.8c0,0.9,0.4,2.5,2.5,2.5c2.9-0.1,7.5-2.9,9.8-4.2l0.7,1
			c-0.9,0.6-1.8,1.1-2.8,1.7c-3,1.8-6,3.3-9.7,3.3c-0.5,0-1.4,0-2.7-0.3c-1.2-0.3-5-1.7-5-6c0-1.5,0.6-2.9,0.7-3.2l6.7-16.7
			c0.1-0.3,0.2-0.8-0.1-0.8c-0.3,0.1-1.3,1-1.6,1.3c-4.5,4.3-8.3,10.6-9.1,11.9c-1,1.7-2.2,3.4-3.2,5.2c-1.1,1.9-2.2,3.7-3.2,5.6
			c-1,1.6-1.9,3.1-4.1,3.1c-1.3,0-4.8-0.1-4.8-4.3c0-1.5,0.4-2.6,0.8-3.9l6.6-18l8.7-2.2l-9.6,25.5c-0.2,0.4-0.3,0.6-0.3,0.8
			c0,0.1,0.1,0.3,0.3,0.3c0.1,0,0.3-0.1,0.3-0.2c0.2-0.3,0.9-1.8,1.5-3.1c0.6-1.3,5-10.2,9.4-16.1c1.3-1.6,2.1-2.6,3.6-4
			c0.3-0.3,3.8-3.9,7.4-3.9c0.9,0,4.2,0.4,4.2,3.8c0,0.9-0.1,1.4-0.8,2.9L383.9,133.9z"/>
		<path fill="#FFFDF2" d="M427.2,113.4l-10.1,28.7c1.6-0.5,3.1-1,4.6-1.7c2.2-0.8,4.6-2,8.8-4.5l0.6,1c-6.6,4-7.7,4.5-14.8,7.5
			c-0.6,1.8-1.3,3.8-4.3,6.5c-0.7,0.7-1.6,1.4-2.5,2c-0.7,0.4-3.6,2.1-6.7,2.1c-3.4,0-4.2-2.3-4.2-3.6c0-1.5,0.8-2.5,1.1-2.9
			c1.7-2,4.1-2.7,6.5-3.4l2-0.6l1.3-3.9c-0.8,0.3-3.4,1.5-6.4,1.5c-4.3,0-6.7-1.9-7.6-3.5c-0.4-0.6-0.8-1.5-0.8-3.3
			c0-1.1,0.1-2.5,0.8-5c1.5-5.8,5.4-12,10.8-15.2c2.9-1.8,5.5-2.1,6.9-2.1c3.4,0,5,1.5,6.1,2.4L427.2,113.4z M405.9,146.5
			c-1.7,0.7-3.1,1.4-4.3,2.8c-0.9,1-1.1,2-1.1,2.6c0,1.5,1.3,1.7,1.8,1.7c0.3,0,1-0.1,1.9-0.6c1.8-1.1,2.6-3.4,3.2-5.3l0.6-2
			L405.9,146.5z M418.2,116.4c-0.1-0.3-0.4-0.6-0.6-0.8c-0.4-0.4-1.7-1.5-3.4-1.5c-2.5,0-3.9,1.8-5,3.7c-0.8,1.4-3.2,6.6-4.9,11.8
			c-1.3,3.6-2,5.6-2,7.4c0,2.9,2.2,3.5,3.2,3.6c2-0.1,3.8-1.5,4.1-1.8c0.4-0.3,0.8-0.8,1.2-1.2L418.2,116.4z"/>
	</g>
	<line fill="none" stroke="#FFFDF2" stroke-width="3" stroke-miterlimit="10" x1="7.1" y1="310.3" x2="572.1" y2="310.3"/>
	<line fill="none" stroke="#FFFDF2" stroke-width="3" stroke-miterlimit="10" x1="7.1" y1="180.3" x2="572.1" y2="180.3"/>
	<g>
		<g>
			<path fill="#FFFDF2" d="M291.7,29.5l1.1,4.3l0.9-4.3h2.1l0.9,4.2l1.1-4.2h2.3l-2.3,7.7h-2.3l-0.8-4.1l-0.9,4.1h-2.3l-2.1-7.7
				H291.7z"/>
		</g>
		<g>
			<path fill="#FFFDF2" d="M297.3,43.5v4.8c0,1.7-1.3,2.9-2.9,3c-1.6,0-3-1.2-3-2.8V48h2.3v0.8c0,0.4,0.3,0.7,0.7,0.7
				c0.4,0,0.7-0.3,0.7-0.7v-5.2H297.3z"/>
		</g>
		<path fill="#FFFDF2" d="M301.8,40.8c-0.7,0-1-0.2-1.3-0.4c-0.2-0.2-0.4-0.3-0.8-0.3s-0.6,0.1-0.8,0.3c-0.3,0.2-0.7,0.4-1.3,0.4
			c-0.7,0-1-0.2-1.3-0.4c-0.3-0.2-0.4-0.3-0.8-0.3c-0.4,0-0.6,0.1-0.8,0.3c-0.3,0.2-0.7,0.4-1.3,0.4c-0.7,0-1-0.2-1.3-0.4
			c-0.3-0.2-0.4-0.3-0.8-0.3s-0.6,0.1-0.8,0.3c-0.3,0.2-0.7,0.4-1.3,0.4v-0.9c0.4,0,0.6-0.1,0.8-0.3c0.3-0.2,0.7-0.4,1.3-0.4
			c0.7,0,1,0.2,1.3,0.4c0.3,0.2,0.4,0.3,0.8,0.3s0.6-0.1,0.8-0.3c0.3-0.2,0.7-0.4,1.3-0.4c0.7,0,1,0.2,1.3,0.4
			c0.2,0.2,0.4,0.3,0.8,0.3c0.4,0,0.6-0.1,0.8-0.3c0.3-0.2,0.7-0.4,1.3-0.4c0.7,0,1,0.2,1.3,0.4c0.2,0.2,0.4,0.3,0.8,0.3V40.8z"/>
		<path fill="#FFFDF2" d="M331.1,33c-0.8-1.2-1.5-2.4-1.8-3.6c-0.3-1.2-0.3-2.6-0.3-4.1c0.1-2.1,0.1-4.2-0.9-5.9
			c-1-1.8-2.9-2.8-4.7-3.8c-1.3-0.7-2.5-1.4-3.4-2.2c-0.9-0.9-1.5-2.1-2.2-3.4c-1-1.8-2-3.7-3.8-4.7c-1.4-0.8-3.1-0.9-4.6-0.9
			c-0.5,0-0.9,0-1.4,0c-0.5,0-0.9,0-1.4,0c-0.8,0-1.8,0-2.8-0.3c-1.2-0.3-2.3-1-3.6-1.8c-1.8-1.1-3.6-2.2-5.7-2.2s-4,1.1-5.7,2.2
			c-1.2,0.8-2.4,1.5-3.6,1.8c-0.9,0.2-2,0.3-2.8,0.3c-0.5,0-0.9,0-1.4,0c-0.5,0-0.9,0-1.4,0c-1.5,0-3.1,0.1-4.6,0.9
			c-1.8,1-2.8,2.9-3.8,4.7c-0.7,1.3-1.4,2.5-2.2,3.4c-0.9,0.9-2.1,1.5-3.4,2.2c-1.8,1-3.7,2-4.7,3.8c-1,1.7-1,3.9-0.9,5.9
			c0,1.5,0.1,2.9-0.3,4.1c-0.3,1.2-1,2.3-1.8,3.6c-1.1,1.8-2.2,3.6-2.2,5.7s1.1,4,2.2,5.7c0.8,1.2,1.5,2.4,1.8,3.6
			c0.3,1.2,0.3,2.6,0.3,4.1c-0.1,2.1-0.1,4.2,0.9,5.9c1,1.8,2.9,2.8,4.7,3.8c1.3,0.7,2.5,1.4,3.4,2.2c0.9,0.9,1.5,2.1,2.2,3.4
			c1,1.8,2,3.7,3.8,4.7c1.4,0.8,3.1,0.9,4.6,0.9c0.5,0,0.9,0,1.4,0c0.5,0,0.9,0,1.4,0c0.8,0,1.8,0,2.8,0.3c1.2,0.3,2.3,1,3.6,1.8
			c1.8,1.1,3.6,2.2,5.7,2.2s4-1.1,5.7-2.2c1.2-0.8,2.4-1.5,3.6-1.8c0.9-0.2,2-0.3,2.8-0.3c0.5,0,0.9,0,1.4,0c0.5,0,0.9,0,1.4,0
			c1.5,0,3.1-0.1,4.6-0.9c1.8-1,2.8-2.9,3.8-4.7c0.7-1.3,1.4-2.5,2.2-3.4c0.9-0.9,2.1-1.5,3.4-2.2c1.8-1,3.7-2,4.7-3.8
			c1-1.7,1-3.9,0.9-5.9c0-1.5-0.1-2.9,0.3-4.1c0.3-1.2,1-2.3,1.8-3.6c1.1-1.8,2.2-3.6,2.2-5.7S332.2,34.8,331.1,33z M320.1,17.6
			c1.6,1.9,2.9,3.9,4,6.1l-1.4,1.4l-5.1-5.1L320.1,17.6z M281,48.1l-5.1,5.1l-5.1-5.1L276,43L281,48.1z M270.9,29.4l5.1-5.1l5.1,5.1
			l-5.1,5.1L270.9,29.4z M277,38.7l17.6-17.6l17.6,17.6l-17.6,17.6L277,38.7z M313.4,43l5.1,5.1l-5.1,5.1l-5.1-5.1L313.4,43z
			 M308.3,29.4l5.1-5.1l5.1,5.1l-5.1,5.1L308.3,29.4z M309.7,9.3c2.2,1.1,4.2,2.5,6.1,4l-2.4,2.4l-5.1-5.1L309.7,9.3z M304,14.9
			l5.1,5.1l-5.1,5.1l-5.1-5.1L304,14.9z M294.6,5.7C294.6,5.7,294.6,5.7,294.6,5.7c0.1,0,0.1,0,0.2,0l5,5l-5.1,5.1l-5.1-5.1
			L294.6,5.7z M285.3,14.9l5.1,5.1l-5.1,5.1l-5.1-5.1L285.3,14.9z M279.6,9.3l1.4,1.4l-5.1,5.1l-2.4-2.4
			C275.4,11.8,277.5,10.4,279.6,9.3z M269.2,17.6l2.4,2.4l-5.1,5.1l-1.4-1.4C266.3,21.5,267.7,19.5,269.2,17.6z M261.6,38.8
			C261.6,38.8,261.6,38.8,261.6,38.8c0-0.1,0-0.1,0-0.2l5-5l5.1,5.1l-5.1,5.1L261.6,38.8z M269.2,59.9c-1.6-1.9-2.9-3.9-4-6.1
			l1.4-1.4l5.1,5.1L269.2,59.9z M279.6,68.2c-2.2-1.1-4.2-2.5-6.1-4l2.4-2.4l5.1,5.1L279.6,68.2z M285.3,62.5l-5.1-5.1l5.1-5.1
			l5.1,5.1L285.3,62.5z M294.7,71.8C294.7,71.8,294.7,71.8,294.7,71.8c-0.1,0-0.1,0-0.2,0l-5-5l5.1-5.1l5.1,5.1L294.7,71.8z
			 M304,62.5l-5.1-5.1l5.1-5.1l5.1,5.1L304,62.5z M309.7,68.2l-1.4-1.4l5.1-5.1l2.4,2.4C313.9,65.7,311.9,67.1,309.7,68.2z
			 M320.1,59.9l-2.4-2.4l5.1-5.1l1.4,1.4C323,55.9,321.6,58,320.1,59.9z M327.7,38.8l-5,5l-5.1-5.1l5.1-5.1l5,5
			C327.7,38.7,327.7,38.7,327.7,38.8C327.7,38.8,327.7,38.8,327.7,38.8z"/>
	</g>
	<path fill="none" stroke="#FFFDF2" stroke-width="4.0532" stroke-miterlimit="10" d="M172.2,455.5c3.5,0,6.8-1.6,9.1-3.9
		c2.3-2.6,5.9-4.4,9.6-4.4c3.8,0,7.3,1.8,9.6,4.4c2.3,2.3,5.6,3.9,9.1,3.9c3.5,0,6.8-1.6,9.1-3.9c2.3-2.6,5.9-4.4,9.6-4.4
		c3.8,0,7.3,1.8,9.6,4.4c2.3,2.3,5.6,3.9,9.1,3.9c3.5,0,6.8-1.6,9.1-3.9c2.3-2.6,5.8-4.4,9.6-4.4c3.8,0,7.3,1.8,9.6,4.4
		c2.3,2.3,5.6,3.9,9.1,3.9c3.5,0,6.8-1.6,9.1-3.9c2.3-2.6,5.8-4.4,9.6-4.4c3.8,0,7.3,1.8,9.6,4.4c2.3,2.3,5.6,3.9,9.1,3.9
		c3.5,0,6.8-1.6,9.1-3.9c2.3-2.6,5.8-4.4,9.6-4.4c3.8,0,7.3,1.8,9.6,4.4c2.3,2.3,5.6,3.9,9.1,3.9c3.5,0,6.8-1.6,9.1-3.9
		c2.3-2.6,5.8-4.4,9.6-4.4c3.8,0,7.3,1.8,9.6,4.4c2.3,2.3,5.6,3.9,9.1,3.9"/>
</g>
</svg>
