<?xml version="1.0" encoding="utf-8"?>
<!-- Generator: Adobe Illustrator 18.1.1, SVG Export Plug-In . SVG Version: 6.00 Build 0)  -->
<!DOCTYPE svg PUBLIC "-//W3C//DTD SVG 1.1//EN" "http://www.w3.org/Graphics/SVG/1.1/DTD/svg11.dtd">
<svg version="1.1" id="Layer_1" xmlns="http://www.w3.org/2000/svg" xmlns:xlink="http://www.w3.org/1999/xlink" x="0px" y="0px"
	 viewBox="0 0 612 792" enable-background="new 0 0 612 792" xml:space="preserve">
<g>
	<g>
		<path fill="#FFFDF2" d="M306,594.2c-17.1,0-31.7-16.6-47.5-20.8c-16.3-4.3-37.3,2.6-51.6-5.7c-14.5-8.3-18.9-30.1-30.7-41.9
			s-33.4-16.2-41.9-30.7c-8.2-14.3-1.3-35.3-5.7-51.6c-4.2-15.7-20.8-30.5-20.8-47.5c0-17.1,16.6-31.7,20.8-47.5
			c4.3-16.3-2.6-37.3,5.7-51.6c8.3-14.5,30.1-18.9,41.9-30.7c11.8-11.8,16.2-33.4,30.7-41.9c14.3-8.2,35.3-1.3,51.6-5.7
			c15.7-4.2,30.4-20.8,47.5-20.8c17.1,0,31.7,16.6,47.5,20.8c16.3,4.3,37.3-2.6,51.6,5.7c14.5,8.3,18.9,30.1,30.7,41.9
			c11.8,11.8,33.4,16.2,41.9,30.7c8.2,14.3,1.3,35.3,5.7,51.6c4.2,15.7,20.8,30.4,20.8,47.5c0,17.1-16.6,31.7-20.8,47.5
			c-4.3,16.3,2.6,37.3-5.7,51.6c-8.3,14.5-30.1,18.9-41.9,30.7c-11.8,11.8-16.2,33.4-30.7,41.9c-14.3,8.2-35.3,1.3-51.6,5.7
			C337.8,577.5,323.1,594.2,306,594.2z"/>
	</g>
	<g>
		<g>
			<path fill="#E5C650" d="M171.7,465.2l2.9,5.1c2.2,3.9,1.2,7.7-2.2,9.6c-3.5,1.9-7.4,1.7-9.7-2.3l-3.2-5.5L171.7,465.2z
				 M171.1,471.4l-0.5-0.9l-6,3.5l0.6,1c1.2,1.9,3.3,2.4,5.1,1.4C171.8,475.4,172.3,473.5,171.1,471.4z"/>
			<path fill="#E5C650" d="M184.8,485.6c2.8,3.7,1.6,7.8-1.5,10.1c-3.2,2.4-7.3,2.2-10.1-1.5c-3-4-1.7-7.8,1.5-10.2
				C177.9,481.6,181.8,481.6,184.8,485.6z M175.6,492.5c1.2,1.6,3.4,1.2,5.2-0.2c1.8-1.3,2.9-3.3,1.7-4.9c-1.3-1.8-3.4-1.4-5.4,0.1
				C175.1,488.8,174.2,490.5,175.6,492.5z"/>
			<path fill="#E5C650" d="M193.2,496.5l-4.2,6.8l6.8-4.1l2.6,2.7l-4.3,6.5l6.9-3.7l2.8,3l-12.9,6.7l-2.9-3l4.4-6.2l-6.5,3.9
				L183,506l7.5-12.4L193.2,496.5z"/>
			<path fill="#E5C650" d="M210.1,512.6l-1.2,8.3l4.5-5.7l3.4,2.7l-8.7,10.9l-3.5-2.8l1.2-8.1l-4.4,5.5l-3.2-2.6l8.7-10.9
				L210.1,512.6z"/>
			<path fill="#E5C650" d="M230.4,526.9l-1.9,3.1l-3.4-2.1l-5.6,8.7l-3.5-2.2l5.6-8.7l-3.2-2l1.9-3.1L230.4,526.9z"/>
			<path fill="#E5C650" d="M239.7,531.4c4.2,2,5,6.1,3.3,9.7c-1.7,3.5-5.4,5.3-9.6,3.3c-4.4-2.2-5.1-6.1-3.4-9.7
				C231.8,531.1,235.2,529.3,239.7,531.4z M234.6,541.7c1.7,0.9,3.5-0.5,4.5-2.6c1-2,1.1-4.2-0.7-5.1c-2-1-3.6,0.3-4.8,2.6
				C232.6,538.7,232.5,540.7,234.6,541.7z"/>
			<path fill="#E5C650" d="M252.3,537.2l-0.6,8.1l4.1-6.8l3.5,1.2l-0.9,7.8l4.4-6.5l3.8,1.3l-8.4,11.9l-3.9-1.3l1.1-7.6l-3.9,6.5
				l-3.9-1.3l1-14.5L252.3,537.2z"/>
			<path fill="#E5C650" d="M274.6,543.6l2.8,8l1.4-7.1l4.2,0.9l-2.7,13.7l-4.3-0.9l-2.7-7.7l-1.3,6.9l-4-0.8l2.7-13.7L274.6,543.6z"
				/>
			<path fill="#E5C650" d="M307.3,552.1c1.5,0.4,3.9,1,4.7,2.9c0.4,1.1,0.5,2.4-0.3,3.6c-1.3,2-3.7,2.4-5.3,2.5
				c-1.2,0-4.2-0.3-5.7-2.1c-0.6-0.8-0.8-1.5-0.9-2.6h4.1c0.3,0.9,0.6,1.3,1.5,1.5c2.3,0.3,2.7-1,2.6-1.3c-0.2-0.7-1.9-1-3.2-1.3
				c-1.8-0.6-3.8-1.2-4.5-3.1c-0.3-0.9-0.2-2.6,0.5-3.6c1.1-1.5,3.1-1.8,4.5-1.8c1.3,0,4.1,0.1,5.4,1.7c0.4,0.6,0.8,1.5,0.8,2.4
				h-3.9c-0.3-0.8-1-1.2-1.8-1.2c-1.3,0-1.5,0.9-1.4,1.2C304.4,551.5,306,551.7,307.3,552.1z"/>
			<path fill="#E5C650" d="M324.7,545.8l4.1-0.5l1.4,13.9l-4.1,0.5l-0.6-5.4l-4.1,0.5l0.6,5.4l-4.1,0.5l-1.4-13.9l4.1-0.5l0.5,4.8
				l4.1-0.5L324.7,545.8z"/>
			<path fill="#E5C650" d="M345.5,545.6l-7.4,1.6l0.4,1.6l6.2-1.3l0.7,3.2l-6.2,1.3l0.4,1.8l7.5-1.6l0.8,3.5l-11.5,2.6l-3-13.7
				l11.4-2.5L345.5,545.6z"/>
			<path fill="#E5C650" d="M355.8,538.6c1.6-0.6,3.5-1.1,5.4,0.4c1,0.7,1.4,2.1,1.3,3.2c-0.1,1.1-0.6,1.9-1.4,2.6
				c2.3,0.2,3.1,2.4,3.5,3.7c0.3,0.6,0.6,1.2,1.1,1.5l-3.9,1.3l-0.8-1.4c-1.4-3-1.7-3-4.1-2.2l-1,0.3l1.6,4.7l-3.9,1.3l-4.5-13.2
				L355.8,538.6z M358.4,542.6c-0.4-0.9-1.2-1.1-2-0.9l-2.4,0.8l0.9,2.7l2.5-0.9C358.1,544.1,358.8,543.5,358.4,542.6z"/>
			<path fill="#E5C650" d="M374.8,538.7l-1.3-7.5l5-2.4l6,12.6L381,543l-3.3-6.9l1.3,7.8l-2.8,1.3l-5.2-6.1l3.4,7l-3.5,1.6l-6-12.6
				l5-2.4L374.8,538.7z"/>
			<path fill="#E5C650" d="M389.6,521.7l11.9,9l-3.6,2.3l-1.5-1.2l-3.9,2.5l0.4,1.9l-3.5,2.2l-3.2-14.6L389.6,521.7z M393.8,529.9
				l-2.9-2.2l0.7,3.5L393.8,529.9z"/>
			<path fill="#E5C650" d="M400.3,513.8l7.9,2.9l-4.6-5.6l3.4-2.7l8.8,10.8l-3.5,2.8l-7.7-2.8l4.4,5.5l-3.2,2.6l-8.8-10.8
				L400.3,513.8z"/>
			<path fill="#E5C650" d="M430.4,481.9l2.9,2.2l-2.4,3.2l8.2,6.2l-2.5,3.4l-8.2-6.2l-2.3,3.1l-2.9-2.2L430.4,481.9z"/>
			<path fill="#E5C650" d="M435,474.4l4.1-0.3l-1.6-3.8l2.5-4.3l3.4,7.6l8.8-0.6l-2.5,4.3l-4.4,0.3l1.8,4l-2.5,4.2l-3.6-8.1
				l-8.2,0.6L435,474.4z"/>
		</g>
	</g>
	<g>
		<g>
			<path stroke="#E5C650" stroke-width="1.121" stroke-miterlimit="10" d="M282.7,350v7.2h-24.8c-0.5-5.3,2.8-8.6,7.8-11.9
				c7.2-4.7,8.7-6,8.7-8.7c0-2.1-3.2-4-5.9-2.6c-1.7,1-2.1,3.9-2.1,5.6h-7.7c-0.8-3.4-0.2-7.5,3.2-10.3c4.3-3.5,10.9-3.5,15.1-1.8
				c3.9,1.7,6,4.2,6.3,8.1c0.3,5-2.8,8.2-8,11.4l-4.4,3.1H282.7z"/>
			<path stroke="#E5C650" stroke-width="1.121" stroke-miterlimit="10" d="M317.6,342.4c-0.1,8.6-6.4,15.4-14.1,15.2
				c-7.6-0.2-13.5-7.4-13.3-16.1c0.1-8.6,6-15.3,14-15.3C312,326.3,317.7,333.8,317.6,342.4z M303.7,350.9c3.5,0,5.4-3.9,5.4-8.9
				s-1.8-9-5.3-9c-3.5,0-5.4,3.9-5.4,8.9C298.6,346.9,300.2,350.9,303.7,350.9z"/>
			<path stroke="#E5C650" stroke-width="1.121" stroke-miterlimit="10" d="M351,347.8c0.4,5.1-4.8,9.6-12.5,9.8
				c-8,0.3-13.4-3.7-13.7-8.9c-0.2-2.5,1.6-6.2,4.7-7c-2.1-1.6-3.5-4.4-3.3-6.8c0.3-5,5.8-8.5,12.6-8.5c6.9,0,11.3,4.4,11.3,9.4
				c0,2.1-1.3,4.4-3.1,5.8C349.6,342.7,350.9,345.6,351,347.8z M342.9,347.5c-0.1-2.1-2.4-3.8-5.2-3.6c-2.7,0.1-4.7,1.9-4.6,4.1
				c0.1,2.1,2.4,3.8,5.2,3.7C341,351.5,343,349.7,342.9,347.5z M342.4,335.6c-0.1-2-2.2-3.5-4.6-3.4c-2.4,0.1-4.3,1.7-4.1,3.7
				c0.1,1.9,2.2,3.5,4.6,3.3C340.6,339.1,342.5,337.5,342.4,335.6z"/>
			<path stroke="#E5C650" stroke-width="1.121" stroke-miterlimit="10" d="M156.2,378.5l4.6,17.8l3.9-17.8h8.6l3.8,17.3l4.7-17.3
				h9.3l-9.4,31.9h-9.5l-3.4-17.1l-3.7,17.1h-9.6l-8.6-31.9H156.2z"/>
			<path stroke="#E5C650" stroke-width="1.121" stroke-miterlimit="10" d="M200.7,410.4h-8.6v-9.1h8.6V410.4z"/>
			<path stroke="#E5C650" stroke-width="1.121" stroke-miterlimit="10" d="M237.2,378.5h9.4v31.9h-9.4v-12.3h-9.5v12.3h-9.4v-31.9
				h9.4v10.9h9.5V378.5z"/>
			<path stroke="#E5C650" stroke-width="1.121" stroke-miterlimit="10" d="M269.7,378c10.7-0.1,16.5,7.4,16.5,16.5
				s-5.7,16.4-16.5,16.4c-11.3,0-16.6-7.4-16.6-16.5S258.4,378,269.7,378z M269.8,404.3c4.5,0,6.7-4.5,6.6-9.8
				c-0.1-5.1-2.1-9.8-6.6-9.8c-5.2,0-7.2,4.3-7.2,10.1C262.6,400.1,264.5,404.3,269.8,404.3z"/>
			<path stroke="#E5C650" stroke-width="1.121" stroke-miterlimit="10" d="M321.4,378.5v18.1c0,11.3-7.1,14.2-14.2,14.2
				c-8,0-14.4-3.5-14.4-14.5v-17.8h9.4v19.9c0,3,2.3,4.8,5.1,4.8c2.7,0,4.7-2,4.7-5.1v-19.6H321.4L321.4,378.5z"/>
			<path stroke="#E5C650" stroke-width="1.121" stroke-miterlimit="10" d="M344.8,390.1c3.5,1,8.9,2.3,10.7,6.6
				c1,2.3,1.2,5.6-0.7,8.4c-3.1,4.6-8.4,5.6-12,5.7c-3,0.1-9.7-0.7-12.9-4.8c-1.2-1.7-1.8-3.5-1.9-5.9h9.4c0.6,1.9,1.4,3.1,3.5,3.5
				c5.3,0.7,6-2.2,5.8-3.1c-0.5-1.6-4.4-2.2-7.2-3.1c-4.2-1.3-8.8-2.8-10.3-6.9c-0.7-1.9-0.6-5.9,1-8.2c2.4-3.5,7-4.2,10.4-4.3
				c3.1,0,9.5,0.1,12.4,3.9c1,1.2,1.6,3.5,1.7,5.6h-9c-0.6-1.7-2.2-2.8-4.2-2.8c-3.1,0.1-3.5,2-3.3,2.6
				C338.3,389,341.9,389.2,344.8,390.1z"/>
			<path stroke="#E5C650" stroke-width="1.121" stroke-miterlimit="10" d="M387.7,378.5v8.3h-9.1v23.6H369v-23.6h-8.6v-8.3H387.7z"
				/>
			<path stroke="#E5C650" stroke-width="1.121" stroke-miterlimit="10" d="M408,378c10.7-0.1,16.5,7.4,16.5,16.5
				s-5.7,16.4-16.5,16.4c-11.3,0-16.6-7.4-16.6-16.5S396.7,378,408,378z M408.1,404.3c4.5,0,6.7-4.5,6.6-9.8
				c-0.1-5.1-2.1-9.8-6.6-9.8c-5.2,0-7.2,4.3-7.2,10.1C400.9,400.1,402.8,404.3,408.1,404.3z"/>
			<path stroke="#E5C650" stroke-width="1.121" stroke-miterlimit="10" d="M440.5,378.5l9.8,16.5v-16.5h9.8v31.9H450l-9.5-16v16
				h-9.4v-31.9H440.5z"/>
			<path stroke="#E5C650" stroke-width="1.121" stroke-miterlimit="10" d="M219.2,443.3c3.5,1,8.9,2.3,10.7,6.6
				c1,2.3,1.2,5.6-0.7,8.4c-3.1,4.6-8.4,5.6-12,5.7c-3,0.1-9.7-0.7-12.9-4.8c-1.2-1.7-1.8-3.5-1.9-5.9h9.4c0.6,1.9,1.4,3.1,3.5,3.5
				c5.3,0.7,6-2.2,5.8-3.1c-0.5-1.6-4.4-2.2-7.2-3.1c-4.2-1.3-8.8-2.8-10.3-6.9c-0.7-1.9-0.6-5.9,1-8.2c2.4-3.5,7-4.2,10.4-4.3
				c3.1,0,9.5,0.1,12.4,3.9c1,1.2,1.6,3.5,1.7,5.6h-9c-0.6-1.7-2.2-2.8-4.2-2.8c-3.1,0.1-3.5,2-3.3,2.6
				C212.8,442.1,216.4,442.4,219.2,443.3z"/>
			<path stroke="#E5C650" stroke-width="1.121" stroke-miterlimit="10" d="M262.2,431.7v8.3H253v23.6h-9.6V440h-8.6v-8.3H262.2z"/>
			<path stroke="#E5C650" stroke-width="1.121" stroke-miterlimit="10" d="M284.8,431.7c3.9,0,8.5,0.4,11.3,4.7
				c1.5,2.2,1.5,5.7,0.7,7.8c-1,2.3-2.6,3.6-4.9,4.6c4.8,2,4.8,7.5,4.9,10.7c0.2,1.4,0.5,3,1.2,4.2h-9.6l-0.6-3.7
				c-1-7.5-1.6-7.8-7.2-7.7h-2.3v11.4h-9.4v-31.9L284.8,431.7L284.8,431.7z M287.6,442.3c-0.1-2.2-1.8-3.3-3.7-3.3h-5.7v6.4h6.1
				C285.7,445.5,287.6,444.6,287.6,442.3z"/>
			<path stroke="#E5C650" stroke-width="1.121" stroke-miterlimit="10" d="M330.6,439.8h-17.3v3.9h14.6v7.4h-14.6v4.4h17.5v8.1
				h-26.9v-31.9h26.6V439.8z"/>
			<path stroke="#E5C650" stroke-width="1.121" stroke-miterlimit="10" d="M364.5,439.8h-17.3v3.9h14.6v7.4h-14.6v4.4h17.5v8.1
				h-26.9v-31.9h26.6V439.8z"/>
			<path stroke="#E5C650" stroke-width="1.121" stroke-miterlimit="10" d="M398.5,431.7v8.3h-9.1v23.6h-9.6V440h-8.6v-8.3H398.5z"/>
			<path stroke="#E5C650" stroke-width="1.121" stroke-miterlimit="10" d="M405.2,463.6h-8.6v-9.1h8.6V463.6z"/>
		</g>
	</g>
	<g>
		<g>
			<path fill="#E5C650" d="M206.9,263.6c3.5-2.7,7.3-1.5,9.3,0.5l-3.7,2.8c-1.1-1-2.4-1-3.3-0.3c-1.7,1.2-1.8,3.5-0.3,5.6
				c1.4,1.9,3.8,2.5,5.4,1.3c1.1-0.8,1.4-2.3,0.7-3.5l3.6-2.8c2.1,2.9,1.1,7-2,9.3c-3.9,3-8.7,1.9-11.4-1.6
				C202.5,271.2,202.3,266.9,206.9,263.6z"/>
			<path fill="#E5C650" d="M225.5,251.5c4.6-2.6,8.7-0.8,10.9,3.1c2.1,3.8,1.4,8.3-3.1,10.8c-4.8,2.7-8.8,0.8-10.9-3.1
				C220.3,258.5,220.7,254.2,225.5,251.5z M231.9,262.6c1.9-1.1,1.8-3.5,0.5-5.8c-1.2-2.1-3.3-3.6-5.2-2.6c-2.2,1.2-2,3.5-0.7,5.9
				C227.8,262.5,229.7,263.9,231.9,262.6z"/>
			<path fill="#E5C650" d="M250,249.5l-0.9-8.4l5.8-2.2l5.6,14.5l-4,1.5l-3.1-8l0.9,8.7l-3.2,1.2l-5.2-7.3l3.1,8.1l-3.9,1.5
				l-5.7-14.5l5.8-2.2L250,249.5z"/>
			<path fill="#E5C650" d="M275.5,237.7l-8.1,1.9l0.5,1.8l6.9-1.6l0.9,3.5l-6.9,1.6l0.5,2.1l8.3-2l0.9,3.8l-12.7,3.1l-3.5-15.1
				l12.7-3L275.5,237.7z"/>
			<path fill="#E5C650" d="M293.5,231.5l3.5,9.6l2.6-10l4.3-0.3l-4,15.8l-5.2,0.3l-5.5-15.2L293.5,231.5z"/>
			<path fill="#E5C650" d="M314.9,231.2l-0.6,15.5l-4.6-0.2l0.6-15.5L314.9,231.2z"/>
			<path fill="#E5C650" d="M328.8,238.3c1.6,0.7,4.2,1.6,4.8,3.9c0.3,1.2,0.2,2.8-0.9,4c-1.7,2-4.4,2.2-6.1,2
				c-1.4-0.1-4.6-1-5.9-3.2c-0.5-0.9-0.7-1.8-0.6-3l4.5,0.6c0.2,1,0.5,1.5,1.4,1.9c2.5,0.7,3.1-0.7,3-1.1c-0.1-0.9-2-1.3-3.3-1.9
				c-2-0.9-4-1.9-4.5-4c-0.2-1,0.1-2.9,1-3.9c1.4-1.5,3.6-1.6,5.3-1.4c1.4,0.2,4.6,0.7,5.8,2.7c0.4,0.7,0.6,1.8,0.5,2.8l-4.3-0.6
				c-0.2-0.9-0.9-1.4-1.9-1.6c-1.5-0.1-1.8,0.8-1.7,1.1C325.7,237.3,327.4,237.7,328.8,238.3z"/>
			<path fill="#E5C650" d="M346,235.8l-3.5,15.1l-4.4-1.1l3.5-15.1L346,235.8z"/>
			<path fill="#E5C650" d="M365.1,241.6l-1.2,3.8l-4.2-1.4L356,255l-4.4-1.4l3.6-10.9l-4-1.3l1.2-3.8L365.1,241.6z"/>
			<path fill="#E5C650" d="M391.2,254.3l-4.2,7.8c-2.6,4.9-6.3,4.4-9.4,2.9c-3.5-1.8-5.4-4.8-2.8-9.6l4.1-7.7l4,2.2l-4.6,8.5
				c-0.7,1.2-0.1,2.6,1.1,3.3s2.5,0.2,3.2-1.1l4.5-8.4L391.2,254.3z"/>
			<path fill="#E5C650" d="M400.5,267.4c1.2,1.3,2.9,3.5,2.4,5.7c-0.3,1.2-1.2,2.5-2.7,3.2c-2.5,1-5-0.2-6.3-1.2
				c-1.2-0.8-3.6-3-3.7-5.6c0-1.1,0.3-1.9,1-2.9l3.7,2.7c-0.3,1-0.3,1.6,0.4,2.4c1.9,1.7,3.1,0.9,3.2,0.5c0.3-0.8-1.2-2.1-2-3.3
				c-1.3-1.7-2.7-3.6-2.1-5.7c0.3-1,1.4-2.5,2.8-3c1.9-0.7,3.9,0.3,5.3,1.2c1.2,0.9,3.7,2.8,3.7,5.1c0,0.8-0.3,1.8-0.9,2.7l-3.5-2.6
				c0.3-0.9-0.1-1.7-0.9-2.3c-1.2-0.9-1.9-0.2-2,0.1C398.2,265.1,399.6,266.3,400.5,267.4z"/>
			<path fill="#E5C650" d="M406.4,284.9l-3.2-2.8l2.9-3.4l3.2,2.8L406.4,284.9z"/>
		</g>
	</g>
	<g>
		<path d="M290.6,501.9h-13c-0.9,0-1.6-0.8-1.6-1.6s0.8-1.6,1.6-1.6h13c0.9,0,1.6,0.8,1.6,1.6C292.2,501.2,291.5,501.9,290.6,501.9z
			 M264.5,501.9h-13c-0.9,0-1.6-0.8-1.6-1.6s0.8-1.6,1.6-1.6h13c0.9,0,1.6,0.8,1.6,1.6C266.2,501.2,265.4,501.9,264.5,501.9z"/>
		<g>
			<rect x="302.7" y="496.8" transform="matrix(-0.7073 -0.7069 0.7069 -0.7073 169.1055 1070.5042)" width="6.9" height="6.9"/>
			<path d="M306.1,505.5c-0.1,0-0.2,0-0.3-0.1l-4.9-4.9c-0.1-0.1-0.1-0.2-0.1-0.3c0-0.1,0-0.2,0.1-0.3l4.9-4.9
				c0.2-0.2,0.4-0.2,0.6,0l4.9,4.9c0.1,0.1,0.1,0.2,0.1,0.3c0,0.1,0,0.2-0.1,0.3l-4.9,4.9C306.3,505.5,306.2,505.5,306.1,505.5z
				 M301.8,500.2l4.3,4.3l4.3-4.3l-4.3-4.3L301.8,500.2z"/>
		</g>
		<path d="M322.2,498.6h13c0.9,0,1.6,0.8,1.6,1.6s-0.8,1.6-1.6,1.6h-13c-0.9,0-1.6-0.8-1.6-1.6C320.6,499.4,321.3,498.6,322.2,498.6
			z M348.3,498.6h13c0.9,0,1.6,0.8,1.6,1.6s-0.8,1.6-1.6,1.6h-13c-0.9,0-1.6-0.8-1.6-1.6C346.7,499.4,347.4,498.6,348.3,498.6z"/>
	</g>
	<g>
		<path d="M290.6,293.4h-13c-0.9,0-1.6-0.8-1.6-1.6s0.8-1.6,1.6-1.6h13c0.9,0,1.6,0.8,1.6,1.6C292.2,292.7,291.5,293.4,290.6,293.4z
			 M264.5,293.4h-13c-0.9,0-1.6-0.8-1.6-1.6s0.8-1.6,1.6-1.6h13c0.9,0,1.6,0.8,1.6,1.6C266.2,292.7,265.4,293.4,264.5,293.4z"/>
		<g>
			<rect x="302.7" y="288.3" transform="matrix(-0.7073 -0.7069 0.7069 -0.7073 316.4447 714.5773)" width="6.9" height="6.9"/>
			<path d="M306.1,297c-0.1,0-0.2,0-0.3-0.1l-4.9-4.9c-0.1-0.1-0.1-0.2-0.1-0.3s0-0.2,0.1-0.3l4.9-4.9c0.2-0.2,0.4-0.2,0.6,0
				l4.9,4.9c0.1,0.1,0.1,0.2,0.1,0.3s0,0.2-0.1,0.3l-4.9,4.9C306.3,296.9,306.2,297,306.1,297z M301.8,291.8l4.3,4.3l4.3-4.3
				l-4.3-4.3L301.8,291.8z"/>
		</g>
		<path d="M322.2,290.1h13c0.9,0,1.6,0.8,1.6,1.6s-0.8,1.6-1.6,1.6h-13c-0.9,0-1.6-0.8-1.6-1.6S321.3,290.1,322.2,290.1z
			 M348.3,290.1h13c0.9,0,1.6,0.8,1.6,1.6s-0.8,1.6-1.6,1.6h-13c-0.9,0-1.6-0.8-1.6-1.6S347.4,290.1,348.3,290.1z"/>
	</g>
</g>
<path fill="#E5C650" d="M306,597.8c-10.9,0-20.6-5.9-29.9-11.7c-6.4-3.9-12.5-7.7-18.5-9.3c-4.9-1.3-10.3-1.4-14.4-1.4
	c-2.3,0-4.7,0.1-7.1,0.1c-2.4,0.1-4.8,0.1-7.2,0.1c-7.6,0-16.4-0.6-23.8-4.8c-9.2-5.4-14.6-15.2-19.7-24.7
	c-3.6-6.7-7.1-13.1-11.7-17.7c-4.6-4.6-11-8.1-17.7-11.7c-9.5-5.2-19.4-10.5-24.7-19.7c-5.3-9.1-5-20.2-4.7-31
	c0.2-7.8,0.4-15-1.3-21.5c-1.6-6.1-5.4-12.2-9.3-18.5c-5.8-9.4-11.7-19-11.7-30c0-10.9,5.9-20.6,11.7-29.9
	c3.9-6.4,7.7-12.5,9.3-18.5c1.7-6.4,1.5-13.8,1.3-21.5c-0.3-10.7-0.6-21.9,4.7-31c5.4-9.3,15.1-14.7,24.7-19.7
	c6.7-3.6,13.1-7.1,17.7-11.7c4.6-4.6,8.1-11,11.7-17.7c5.2-9.5,10.5-19.4,19.7-24.7c7.4-4.2,16.1-4.8,23.7-4.8
	c2.4,0,4.9,0.1,7.3,0.1c2.3,0.1,4.8,0.1,7.1,0.1c4.1,0,9.6-0.2,14.4-1.4c6.1-1.6,12.2-5.4,18.5-9.3c9.3-5.8,19-11.7,29.9-11.7
	c11,0,20.6,5.9,30,11.7c6.4,3.9,12.5,7.7,18.5,9.3c4.9,1.3,10.3,1.4,14.4,1.4c2.3,0,4.8-0.1,7.1-0.1c2.4-0.1,4.8-0.1,7.3-0.1
	c7.6,0,16.4,0.6,23.7,4.8c9.3,5.4,14.6,15.1,19.7,24.7c3.6,6.7,7.1,13.1,11.7,17.7c4.6,4.6,10.9,8.1,17.7,11.7
	c9.5,5.2,19.4,10.5,24.7,19.7c5.3,9.1,5,20.2,4.7,31c-0.2,7.8-0.4,15,1.3,21.5c1.6,6.1,5.4,12.2,9.3,18.5c5.8,9.3,11.7,19,11.7,29.9
	s-5.9,20.6-11.7,29.9c-3.9,6.4-7.7,12.5-9.3,18.5c-1.7,6.4-1.5,13.8-1.3,21.5c0.3,10.7,0.6,21.9-4.7,31
	c-5.4,9.2-15.2,14.6-24.7,19.7c-6.7,3.6-13.1,7.1-17.7,11.7c-4.6,4.6-8.1,10.9-11.7,17.7c-5.2,9.5-10.5,19.4-19.7,24.7
	c-7.4,4.2-16.1,4.8-23.8,4.8c-2.4,0-4.9-0.1-7.2-0.1c-2.3-0.1-4.8-0.1-7.1-0.1c-4.1,0-9.6,0.2-14.4,1.4c-6.1,1.6-12.2,5.4-18.5,9.3
	C326.6,591.9,317,597.8,306,597.8z M243.1,568.1c4.6,0,10.6,0.2,16.3,1.7c7.1,1.9,13.9,6,20.5,10.2c8.8,5.5,17.2,10.5,26.1,10.5
	s17.3-5.2,26.1-10.5c6.6-4,13.3-8.2,20.5-10.2c5.7-1.5,11.7-1.7,16.3-1.7c2.4,0,4.9,0.1,7.3,0.1c2.3,0.1,4.7,0.1,7,0.1
	c6.6,0,14.2-0.5,20-3.8c7.5-4.3,12.1-12.8,17-21.9c3.7-6.9,7.6-14,12.9-19.4c5.4-5.4,12.5-9.2,19.4-12.9c9-4.9,17.5-9.5,21.9-17
	c4.2-7.3,4-17,3.7-27.1c-0.2-8-0.4-16.1,1.6-23.6c1.9-7.1,6-13.9,10.2-20.5c5.5-8.8,10.5-17.2,10.5-26.1s-5.2-17.3-10.5-26.1
	c-4-6.6-8.2-13.3-10.2-20.5c-2-7.5-1.8-15.6-1.6-23.6c0.3-10.2,0.5-19.8-3.7-27.1c-4.3-7.5-12.8-12.1-21.9-17
	c-6.9-3.7-14-7.6-19.4-12.9c-5.4-5.4-9.2-12.5-12.9-19.4c-4.9-9-9.5-17.5-17-21.9c-5.8-3.4-13.4-3.8-20-3.8c-2.3,0-4.7,0.1-7.1,0.1
	c-2.4,0.1-4.9,0.1-7.3,0.1c-4.6,0-10.6-0.2-16.3-1.7c-7.1-1.9-13.9-6-20.5-10.2c-8.8-5.5-17.2-10.5-26.1-10.5s-17.3,5.2-26.1,10.5
	c-6.6,4-13.3,8.2-20.5,10.2c-5.7,1.5-11.7,1.7-16.3,1.7c-2.4,0-4.9-0.1-7.3-0.1c-2.3-0.1-4.7-0.1-7.1-0.1c-6.6,0-14.2,0.5-20,3.8
	c-7.5,4.3-12.1,12.8-17,21.9c-3.7,6.9-7.6,14-12.9,19.4c-5.4,5.4-12.5,9.2-19.4,12.9c-9,4.9-17.5,9.5-21.9,17
	c-4.2,7.3-3.9,17-3.7,27.1c0.2,8,0.4,16.1-1.6,23.6c-1.9,7.1-6,13.9-10.2,20.5c-5.5,8.8-10.5,17.2-10.5,26.1s5.2,17.3,10.5,26.1
	c4,6.6,8.2,13.3,10.2,20.5c2,7.5,1.8,15.6,1.6,23.6c-0.3,10.2-0.5,19.8,3.7,27.1c4.3,7.5,12.8,12.1,21.9,17
	c6.9,3.7,14,7.6,19.4,12.9s9.2,12.5,12.9,19.4c4.9,9,9.5,17.5,17,21.9c5.8,3.4,13.1,3.8,20,3.8c2.3,0,4.7-0.1,7-0.1
	C238.2,568.1,240.7,568.1,243.1,568.1z"/>
</svg>
