<?xml version="1.0" encoding="utf-8"?>
<!-- Generator: Adobe Illustrator 18.1.1, SVG Export Plug-In . SVG Version: 6.00 Build 0)  -->
<!DOCTYPE svg PUBLIC "-//W3C//DTD SVG 1.1//EN" "http://www.w3.org/Graphics/SVG/1.1/DTD/svg11.dtd">
<svg version="1.1" id="Layer_1" xmlns="http://www.w3.org/2000/svg" xmlns:xlink="http://www.w3.org/1999/xlink" x="0px" y="0px"
	 viewBox="0 0 421.1 421.1" enable-background="new 0 0 421.1 421.1" xml:space="preserve">
<g>
	<g>
		<path fill="#FFFDF2" d="M210.5,417.3c-17.8,0-33.1-17.3-49.6-21.7c-17-4.5-38.9,2.7-53.8-5.9c-15.1-8.7-19.7-31.4-32-43.7
			c-12.3-12.3-34.9-16.9-43.7-32c-8.6-14.9-1.4-36.8-5.9-53.8c-4.4-16.4-21.7-31.8-21.7-49.6c0-17.8,17.3-33.1,21.7-49.6
			c4.5-17-2.7-38.9,5.9-53.8c8.7-15.1,31.4-19.7,43.7-32c12.3-12.3,16.9-34.9,32-43.7c14.9-8.6,36.8-1.4,53.8-5.9
			c16.4-4.4,31.7-21.7,49.6-21.7c17.8,0,33.1,17.3,49.6,21.7c17,4.5,38.9-2.7,53.8,5.9c15.1,8.7,19.7,31.4,32,43.7
			c12.3,12.3,34.9,16.9,43.7,32c8.6,14.9,1.4,36.8,5.9,53.8c4.4,16.4,21.7,31.7,21.7,49.6c0,17.8-17.3,33.1-21.7,49.6
			c-4.5,17,2.7,38.9-5.9,53.8c-8.7,15.1-31.4,19.7-43.7,32c-12.3,12.3-16.9,34.9-32,43.7c-14.9,8.6-36.8,1.4-53.8,5.9
			C243.7,399.9,228.4,417.3,210.5,417.3z"/>
	</g>
	<g>
		<g>
			<path fill="#E5C650" d="M70.4,282.7l3,5.3c2.3,4.1,1.2,8-2.3,10c-3.6,2-7.7,1.8-10.1-2.4l-3.3-5.7L70.4,282.7z M69.8,289.2
				l-0.5-0.9l-6.3,3.6l0.6,1c1.2,2,3.4,2.5,5.3,1.5C70.5,293.4,71,291.4,69.8,289.2z"/>
			<path fill="#E5C650" d="M84.1,304c2.9,3.9,1.7,8.1-1.6,10.5c-3.3,2.5-7.6,2.3-10.5-1.6c-3.1-4.2-1.8-8.1,1.6-10.6
				C76.9,299.9,81,299.9,84.1,304z M74.5,311.2c1.2,1.7,3.5,1.3,5.4-0.2c1.9-1.4,3-3.4,1.8-5.1c-1.4-1.9-3.5-1.5-5.6,0.1
				C74,307.4,73,309.2,74.5,311.2z"/>
			<path fill="#E5C650" d="M92.9,315.4l-4.4,7.1l7.1-4.3l2.7,2.8l-4.5,6.8l7.2-3.9l2.9,3.1l-13.5,7l-3-3.1l4.6-6.5l-6.8,4.1l-3-3.2
				l7.8-12.9L92.9,315.4z"/>
			<path fill="#E5C650" d="M110.5,332.2l-1.2,8.7l4.7-5.9l3.5,2.8l-9.1,11.4l-3.6-2.9l1.2-8.4l-4.6,5.7l-3.3-2.7l9.1-11.4
				L110.5,332.2z"/>
			<path fill="#E5C650" d="M131.7,347.1l-2,3.2l-3.5-2.2l-5.8,9.1l-3.7-2.3l5.8-9.1l-3.3-2.1l2-3.2L131.7,347.1z"/>
			<path fill="#E5C650" d="M141.4,351.8c4.4,2.1,5.2,6.4,3.4,10.1c-1.8,3.7-5.6,5.5-10,3.4c-4.6-2.3-5.3-6.4-3.5-10.1
				C133.1,351.5,136.7,349.6,141.4,351.8z M136.1,362.6c1.8,0.9,3.7-0.5,4.7-2.7c1-2.1,1.1-4.4-0.7-5.3c-2.1-1-3.8,0.3-5,2.7
				C134,359.4,133.9,361.5,136.1,362.6z"/>
			<path fill="#E5C650" d="M154.5,357.9l-0.6,8.4l4.3-7.1l3.7,1.3l-0.9,8.1l4.6-6.8l4,1.4l-8.8,12.4l-4.1-1.4l1.1-7.9l-4.1,6.8
				l-4.1-1.4l1-15.1L154.5,357.9z"/>
			<path fill="#E5C650" d="M177.8,364.6l2.9,8.3l1.5-7.4l4.4,0.9l-2.8,14.3l-4.5-0.9l-2.8-8l-1.4,7.2l-4.2-0.8l2.8-14.3L177.8,364.6
				z"/>
			<path fill="#E5C650" d="M211.9,373.4c1.6,0.4,4.1,1,4.9,3c0.4,1.1,0.5,2.5-0.3,3.8c-1.4,2.1-3.9,2.5-5.5,2.6
				c-1.3,0-4.4-0.3-5.9-2.2c-0.6-0.8-0.8-1.6-0.9-2.7l4.3,0c0.3,0.9,0.6,1.4,1.6,1.6c2.4,0.3,2.8-1,2.7-1.4c-0.2-0.7-2-1-3.3-1.4
				c-1.9-0.6-4-1.3-4.7-3.2c-0.3-0.9-0.2-2.7,0.5-3.8c1.1-1.6,3.2-1.9,4.7-1.9c1.4,0,4.3,0.1,5.6,1.8c0.4,0.6,0.8,1.6,0.8,2.5
				l-4.1,0c-0.3-0.8-1-1.3-1.9-1.3c-1.4,0-1.6,0.9-1.5,1.2C208.9,372.8,210.6,373,211.9,373.4z"/>
			<path fill="#E5C650" d="M230.1,366.9l4.3-0.5l1.5,14.5l-4.3,0.5l-0.6-5.6l-4.3,0.5l0.6,5.6l-4.3,0.5l-1.5-14.5l4.3-0.5l0.5,5
				l4.3-0.5L230.1,366.9z"/>
			<path fill="#E5C650" d="M251.8,366.6l-7.7,1.7l0.4,1.7l6.5-1.4l0.7,3.3l-6.5,1.4l0.4,1.9l7.8-1.7l0.8,3.6l-12,2.7l-3.1-14.3
				l11.9-2.6L251.8,366.6z"/>
			<path fill="#E5C650" d="M262.5,359.3c1.7-0.6,3.7-1.1,5.6,0.4c1,0.7,1.5,2.2,1.4,3.3c-0.1,1.1-0.6,2-1.5,2.7
				c2.4,0.2,3.2,2.5,3.7,3.9c0.3,0.6,0.6,1.2,1.1,1.6l-4.1,1.4l-0.8-1.5c-1.5-3.1-1.8-3.1-4.3-2.3l-1,0.3l1.7,4.9l-4.1,1.4
				l-4.7-13.8L262.5,359.3z M265.2,363.5c-0.4-0.9-1.3-1.1-2.1-0.9l-2.5,0.8l0.9,2.8l2.6-0.9C264.9,365.1,265.6,364.5,265.2,363.5z"
				/>
			<path fill="#E5C650" d="M282.3,359.4l-1.4-7.8l5.2-2.5l6.3,13.1l-3.6,1.7l-3.4-7.2l1.4,8.1l-2.9,1.4l-5.4-6.4l3.5,7.3l-3.6,1.7
				l-6.3-13.1l5.2-2.5L282.3,359.4z"/>
			<path fill="#E5C650" d="M297.8,341.7l12.4,9.4l-3.8,2.4l-1.6-1.3l-4.1,2.6l0.4,2l-3.7,2.3l-3.3-15.2L297.8,341.7z M302.2,350.3
				l-3-2.3l0.7,3.7L302.2,350.3z"/>
			<path fill="#E5C650" d="M308.9,333.5l8.2,3l-4.8-5.8l3.5-2.8l9.2,11.3l-3.6,2.9l-8-2.9l4.6,5.7l-3.3,2.7l-9.2-11.3L308.9,333.5z"
				/>
			<path fill="#E5C650" d="M340.3,300.2l3,2.3l-2.5,3.3l8.6,6.5l-2.6,3.5l-8.6-6.5l-2.4,3.2l-3-2.3L340.3,300.2z"/>
			<path fill="#E5C650" d="M345.1,292.4l4.3-0.3l-1.7-4l2.6-4.5l3.5,7.9l9.2-0.6l-2.6,4.5l-4.6,0.3l1.9,4.2l-2.6,4.4l-3.8-8.4
				l-8.6,0.6L345.1,292.4z"/>
		</g>
	</g>
	<g>
		<g>
			<path stroke="#E5C650" stroke-width="1.6998" stroke-miterlimit="10" d="M186.2,162.6v7.5h-25.9c-0.5-5.5,2.9-9,8.1-12.4
				c7.5-4.9,9.1-6.3,9.1-9.1c0-2.2-3.3-4.2-6.2-2.7c-1.8,1-2.2,4.1-2.2,5.8h-8c-0.8-3.5-0.2-7.8,3.3-10.7c4.5-3.7,11.4-3.7,15.8-1.9
				c4.1,1.8,6.3,4.4,6.6,8.4c0.3,5.2-2.9,8.6-8.3,11.9l-4.6,3.2H186.2z"/>
			<path stroke="#E5C650" stroke-width="1.6998" stroke-miterlimit="10" d="M222.7,154.6c-0.1,9-6.7,16.1-14.7,15.9
				c-7.9-0.2-14.1-7.7-13.9-16.8c0.1-9,6.3-16,14.6-16C216.8,137.8,222.8,145.6,222.7,154.6z M208.2,163.5c3.6,0,5.6-4.1,5.6-9.3
				c0-5.2-1.9-9.4-5.5-9.4c-3.7,0-5.6,4.1-5.6,9.3C202.8,159.3,204.5,163.5,208.2,163.5z"/>
			<path stroke="#E5C650" stroke-width="1.6998" stroke-miterlimit="10" d="M257.5,160.3c0.4,5.3-5,10-13,10.2
				c-8.3,0.3-14-3.9-14.3-9.3c-0.2-2.6,1.7-6.5,4.9-7.3c-2.2-1.7-3.6-4.6-3.4-7.1c0.3-5.2,6-8.9,13.1-8.9c7.2,0,11.8,4.6,11.8,9.8
				c0,2.2-1.4,4.6-3.2,6.1C256,154.9,257.4,158,257.5,160.3z M249,159.9c-0.1-2.2-2.5-4-5.4-3.8c-2.8,0.1-4.9,2-4.8,4.3
				c0.1,2.2,2.5,4,5.4,3.9C247.1,164.1,249.2,162.2,249,159.9z M248.5,147.5c-0.1-2.1-2.3-3.6-4.8-3.5c-2.5,0.1-4.5,1.8-4.3,3.9
				c0.1,2,2.3,3.6,4.8,3.4C246.6,151.2,248.6,149.5,248.5,147.5z"/>
			<path stroke="#E5C650" stroke-width="1.6998" stroke-miterlimit="10" d="M54.3,192.3l4.8,18.6l4.1-18.6h9l4,18.1l4.9-18.1h9.7
				L81,225.6h-9.9l-3.5-17.8l-3.9,17.8h-10l-9-33.3H54.3z"/>
			<path stroke="#E5C650" stroke-width="1.6998" stroke-miterlimit="10" d="M100.7,225.6l-9,0v-9.5h9V225.6z"/>
			<path stroke="#E5C650" stroke-width="1.6998" stroke-miterlimit="10" d="M138.8,192.3h9.8v33.3h-9.8v-12.8h-9.9v12.8h-9.8v-33.3
				h9.8v11.4h9.9V192.3z"/>
			<path stroke="#E5C650" stroke-width="1.6998" stroke-miterlimit="10" d="M172.7,191.8c11.2-0.1,17.2,7.7,17.2,17.2
				s-5.9,17.1-17.2,17.1c-11.8,0-17.3-7.7-17.3-17.2S160.9,191.8,172.7,191.8z M172.8,219.2c4.7,0,7-4.7,6.9-10.2
				c-0.1-5.3-2.2-10.2-6.9-10.2c-5.4,0-7.5,4.5-7.5,10.5C165.3,214.8,167.3,219.2,172.8,219.2z"/>
			<path stroke="#E5C650" stroke-width="1.6998" stroke-miterlimit="10" d="M226.6,192.3v18.9c0,11.8-7.4,14.8-14.8,14.8
				c-8.3,0-15-3.6-15-15.1v-18.6h9.8v20.8c0,3.1,2.4,5,5.3,5c2.8,0,4.9-2.1,4.9-5.3v-20.5H226.6z"/>
			<path stroke="#E5C650" stroke-width="1.6998" stroke-miterlimit="10" d="M251,204.4c3.7,1,9.3,2.4,11.2,6.9
				c1,2.4,1.2,5.8-0.7,8.8c-3.2,4.8-8.8,5.8-12.5,5.9c-3.1,0.1-10.1-0.7-13.5-5c-1.3-1.8-1.9-3.7-2-6.2h9.8c0.6,2,1.5,3.2,3.6,3.7
				c5.5,0.7,6.3-2.3,6.1-3.2c-0.5-1.7-4.6-2.3-7.5-3.2c-4.4-1.4-9.2-2.9-10.7-7.2c-0.7-2-0.6-6.2,1-8.6c2.5-3.6,7.3-4.4,10.8-4.5
				c3.2,0,9.9,0.1,12.9,4.1c1,1.3,1.7,3.6,1.8,5.8h-9.4c-0.6-1.8-2.3-2.9-4.4-2.9c-3.2,0.1-3.6,2.1-3.4,2.7
				C244.3,203.2,248,203.5,251,204.4z"/>
			<path stroke="#E5C650" stroke-width="1.6998" stroke-miterlimit="10" d="M295.8,192.3v8.7h-9.5v24.6h-10V201h-9v-8.7H295.8z"/>
			<path stroke="#E5C650" stroke-width="1.6998" stroke-miterlimit="10" d="M317,191.8c11.2-0.1,17.2,7.7,17.2,17.2
				s-5.9,17.1-17.2,17.1c-11.8,0-17.3-7.7-17.3-17.2S305.2,191.8,317,191.8z M317.1,219.2c4.7,0,7-4.7,6.9-10.2
				c-0.1-5.3-2.2-10.2-6.9-10.2c-5.4,0-7.5,4.5-7.5,10.5C309.6,214.8,311.6,219.2,317.1,219.2z"/>
			<path stroke="#E5C650" stroke-width="1.6998" stroke-miterlimit="10" d="M350.9,192.3l10.2,17.2v-17.2h10.2v33.3h-10.5l-9.9-16.7
				v16.7h-9.8v-33.3H350.9z"/>
			<path stroke="#E5C650" stroke-width="1.6998" stroke-miterlimit="10" d="M120,259.9c3.7,1,9.3,2.4,11.2,6.9
				c1,2.4,1.2,5.8-0.7,8.8c-3.2,4.8-8.8,5.8-12.5,5.9c-3.1,0.1-10.1-0.7-13.5-5c-1.3-1.8-1.9-3.6-2-6.2h9.8c0.6,2,1.5,3.2,3.6,3.7
				c5.5,0.7,6.3-2.3,6.1-3.2c-0.5-1.7-4.6-2.3-7.5-3.2c-4.4-1.4-9.2-2.9-10.7-7.2c-0.7-2-0.6-6.2,1-8.6c2.5-3.6,7.3-4.4,10.8-4.5
				c3.2,0,9.9,0.1,12.9,4.1c1,1.3,1.7,3.6,1.8,5.8h-9.4c-0.6-1.8-2.3-2.9-4.4-2.9c-3.2,0.1-3.6,2.1-3.4,2.7
				C113.3,258.7,117.1,259,120,259.9z"/>
			<path stroke="#E5C650" stroke-width="1.6998" stroke-miterlimit="10" d="M164.8,247.8v8.7h-9.5v24.6h-10v-24.6h-9v-8.7H164.8z"/>
			<path stroke="#E5C650" stroke-width="1.6998" stroke-miterlimit="10" d="M188.4,247.8c4.1,0,8.9,0.4,11.8,4.9
				c1.6,2.3,1.6,5.9,0.7,8.1c-1,2.4-2.7,3.8-5.1,4.8c5,2.1,5,7.8,5.1,11.2c0.2,1.5,0.5,3.1,1.2,4.4h-10l-0.6-3.9
				c-1-7.8-1.7-8.1-7.5-8h-2.4v11.9h-9.8v-33.3H188.4z M191.3,258.9c-0.1-2.3-1.9-3.4-3.9-3.4h-5.9v6.7h6.4
				C189.4,262.2,191.3,261.3,191.3,258.9z"/>
			<path stroke="#E5C650" stroke-width="1.6998" stroke-miterlimit="10" d="M236.2,256.3h-18v4.1h15.2v7.7h-15.2v4.6h18.3v8.5
				l-28.1,0v-33.3h27.8V256.3z"/>
			<path stroke="#E5C650" stroke-width="1.6998" stroke-miterlimit="10" d="M271.6,256.3h-18v4.1h15.2v7.7h-15.2v4.6h18.3v8.5
				l-28.1,0v-33.3h27.8V256.3z"/>
			<path stroke="#E5C650" stroke-width="1.6998" stroke-miterlimit="10" d="M307.1,247.8v8.7h-9.5v24.6h-10v-24.6h-9v-8.7H307.1z"/>
			<path stroke="#E5C650" stroke-width="1.6998" stroke-miterlimit="10" d="M314.1,281.1l-9,0v-9.5h9V281.1z"/>
		</g>
	</g>
	<g>
		<g>
			<path fill="#E5C650" d="M107.1,72.4c3.7-2.8,7.6-1.6,9.7,0.5l-3.9,2.9c-1.1-1-2.5-1-3.4-0.3c-1.8,1.2-1.9,3.6-0.3,5.8
				c1.5,2,4,2.6,5.6,1.4c1.1-0.8,1.5-2.4,0.7-3.7l3.8-2.9c2.2,3,1.1,7.3-2.1,9.7c-4.1,3.1-9.1,2-11.9-1.7
				C102.6,80.3,102.4,75.9,107.1,72.4z"/>
			<path fill="#E5C650" d="M126.6,59.8c4.8-2.7,9.1-0.8,11.4,3.2c2.2,4,1.5,8.7-3.2,11.3c-5,2.8-9.2,0.8-11.4-3.2
				C121.1,67.1,121.6,62.6,126.6,59.8z M133.2,71.4c2-1.1,1.9-3.7,0.5-6c-1.3-2.2-3.4-3.8-5.4-2.7c-2.3,1.3-2.1,3.7-0.7,6.2
				C129,71.3,130.9,72.7,133.2,71.4z"/>
			<path fill="#E5C650" d="M152.1,57.7l-0.9-8.8l6-2.3l5.8,15.1l-4.2,1.6l-3.2-8.3l0.9,9.1l-3.3,1.3l-5.4-7.6l3.2,8.4l-4.1,1.6
				L141,52.7l6-2.3L152.1,57.7z"/>
			<path fill="#E5C650" d="M178.7,45.4l-8.5,2l0.5,1.9l7.2-1.7l0.9,3.6l-7.2,1.7l0.5,2.2l8.7-2.1l0.9,4l-13.3,3.2l-3.7-15.8
				l13.2-3.1L178.7,45.4z"/>
			<path fill="#E5C650" d="M197.5,38.9l3.6,10l2.7-10.4l4.5-0.3l-4.2,16.5l-5.4,0.3L193,39.1L197.5,38.9z"/>
			<path fill="#E5C650" d="M219.8,38.6l-0.6,16.2l-4.8-0.2l0.6-16.2L219.8,38.6z"/>
			<path fill="#E5C650" d="M234.3,46c1.7,0.7,4.4,1.7,5,4.1c0.3,1.2,0.2,2.9-0.9,4.2c-1.8,2.1-4.6,2.3-6.4,2.1
				c-1.5-0.1-4.8-1-6.2-3.3c-0.5-0.9-0.7-1.9-0.6-3.1l4.7,0.6c0.2,1,0.5,1.6,1.5,2c2.6,0.7,3.2-0.7,3.1-1.1c-0.1-0.9-2.1-1.4-3.4-2
				c-2.1-0.9-4.2-2-4.7-4.2c-0.2-1,0.1-3,1-4.1c1.5-1.6,3.8-1.7,5.5-1.5c1.5,0.2,4.8,0.7,6,2.8c0.4,0.7,0.6,1.9,0.5,2.9l-4.5-0.6
				c-0.2-0.9-0.9-1.5-2-1.7c-1.6-0.1-1.9,0.8-1.8,1.1C231.1,45,232.9,45.4,234.3,46z"/>
			<path fill="#E5C650" d="M252.3,43.4l-3.6,15.8l-4.6-1.1l3.6-15.8L252.3,43.4z"/>
			<path fill="#E5C650" d="M272.2,49.5l-1.3,4l-4.4-1.5l-3.8,11.4l-4.6-1.5l3.8-11.4l-4.2-1.4l1.3-4L272.2,49.5z"/>
			<path fill="#E5C650" d="M299.4,62.7l-4.4,8.1c-2.7,5.1-6.6,4.6-9.8,3c-3.6-1.9-5.6-5-2.9-10l4.3-8l4.2,2.3L286,67
				c-0.7,1.3-0.1,2.7,1.1,3.4c1.2,0.7,2.6,0.2,3.3-1.1l4.7-8.8L299.4,62.7z"/>
			<path fill="#E5C650" d="M309.1,76.4c1.2,1.4,3,3.6,2.5,5.9c-0.3,1.3-1.2,2.6-2.8,3.3c-2.6,1-5.2-0.2-6.6-1.2
				c-1.3-0.8-3.8-3.1-3.9-5.8c0-1.1,0.3-2,1-3l3.9,2.8c-0.3,1-0.3,1.7,0.4,2.5c2,1.8,3.2,0.9,3.3,0.5c0.3-0.8-1.2-2.2-2.1-3.4
				c-1.4-1.8-2.8-3.8-2.2-5.9c0.3-1,1.5-2.6,2.9-3.1c2-0.7,4.1,0.3,5.5,1.3c1.3,0.9,3.9,2.9,3.9,5.3c0,0.8-0.3,1.9-0.9,2.8l-3.7-2.7
				c0.3-0.9-0.1-1.8-0.9-2.4c-1.3-0.9-2-0.2-2.1,0.1C306.8,74,308.2,75.2,309.1,76.4z"/>
			<path fill="#E5C650" d="M315.3,94.6l-3.3-2.9l3-3.5l3.3,2.9L315.3,94.6z"/>
		</g>
	</g>
	<g>
		<path d="M194.5,321h-13.6c-0.9,0-1.7-0.8-1.7-1.7c0-0.9,0.8-1.7,1.7-1.7h13.6c0.9,0,1.7,0.8,1.7,1.7
			C196.2,320.3,195.4,321,194.5,321z M167.3,321h-13.6c-0.9,0-1.7-0.8-1.7-1.7c0-0.9,0.8-1.7,1.7-1.7h13.6c0.9,0,1.7,0.8,1.7,1.7
			C169,320.3,168.2,321,167.3,321z"/>
		<g>
			<rect x="207.1" y="315.7" transform="matrix(0.7073 0.7069 -0.7069 0.7073 287.4153 -55.4693)" width="7.2" height="7.2"/>
			<path d="M210.7,324.8c-0.1,0-0.2,0-0.3-0.1l-5.1-5.1c-0.1-0.1-0.1-0.2-0.1-0.3s0-0.2,0.1-0.3l5.1-5.1c0.2-0.2,0.4-0.2,0.6,0
				l5.1,5.1c0.1,0.1,0.1,0.2,0.1,0.3s0,0.2-0.1,0.3l-5.1,5.1C210.9,324.8,210.8,324.8,210.7,324.8z M206.2,319.3l4.5,4.5l4.5-4.5
				l-4.5-4.5L206.2,319.3z"/>
		</g>
		<path d="M227.5,317.6h13.6c0.9,0,1.7,0.8,1.7,1.7c0,0.9-0.8,1.7-1.7,1.7h-13.6c-0.9,0-1.7-0.8-1.7-1.7
			C225.8,318.4,226.5,317.6,227.5,317.6z M254.7,317.6h13.6c0.9,0,1.7,0.8,1.7,1.7c0,0.9-0.8,1.7-1.7,1.7h-13.6
			c-0.9,0-1.7-0.8-1.7-1.7C253,318.4,253.7,317.6,254.7,317.6z"/>
	</g>
	<g>
		<path d="M194.5,103.5h-13.6c-0.9,0-1.7-0.8-1.7-1.7c0-0.9,0.8-1.7,1.7-1.7h13.6c0.9,0,1.7,0.8,1.7,1.7
			C196.2,102.8,195.4,103.5,194.5,103.5z M167.3,103.5h-13.6c-0.9,0-1.7-0.8-1.7-1.7c0-0.9,0.8-1.7,1.7-1.7h13.6
			c0.9,0,1.7,0.8,1.7,1.7C169,102.8,168.2,103.5,167.3,103.5z"/>
		<g>
			<rect x="207.1" y="98.2" transform="matrix(0.7073 0.7069 -0.7069 0.7073 133.6481 -119.1413)" width="7.2" height="7.2"/>
			<path d="M210.7,107.3c-0.1,0-0.2,0-0.3-0.1l-5.1-5.1c-0.1-0.1-0.1-0.2-0.1-0.3s0-0.2,0.1-0.3l5.1-5.1c0.2-0.2,0.4-0.2,0.6,0
				l5.1,5.1c0.1,0.1,0.1,0.2,0.1,0.3s0,0.2-0.1,0.3l-5.1,5.1C210.9,107.2,210.8,107.3,210.7,107.3z M206.2,101.8l4.5,4.5l4.5-4.5
				l-4.5-4.5L206.2,101.8z"/>
		</g>
		<path d="M227.5,100.1h13.6c0.9,0,1.7,0.8,1.7,1.7c0,0.9-0.8,1.7-1.7,1.7h-13.6c-0.9,0-1.7-0.8-1.7-1.7
			C225.8,100.9,226.5,100.1,227.5,100.1z M254.7,100.1h13.6c0.9,0,1.7,0.8,1.7,1.7c0,0.9-0.8,1.7-1.7,1.7h-13.6
			c-0.9,0-1.7-0.8-1.7-1.7C253,100.9,253.7,100.1,254.7,100.1z"/>
	</g>
</g>
<path fill="#E5C650" d="M210.5,421.1c-11.4,0-21.5-6.2-31.2-12.2c-6.7-4.1-13-8-19.3-9.7c-5.1-1.4-10.7-1.5-15-1.5
	c-2.4,0-4.9,0.1-7.4,0.1c-2.5,0.1-5,0.1-7.5,0.1c-7.9,0-17.1-0.6-24.8-5c-9.6-5.6-15.2-15.9-20.6-25.8c-3.8-7-7.4-13.7-12.2-18.5
	S61,340.2,54,336.4c-9.9-5.4-20.2-11-25.8-20.6c-5.5-9.5-5.2-21.1-4.9-32.3c0.2-8.1,0.4-15.7-1.4-22.4c-1.7-6.4-5.6-12.7-9.7-19.3
	C6.2,232,0,222,0,210.5c0-11.4,6.2-21.5,12.2-31.2c4.1-6.7,8-13,9.7-19.3c1.8-6.7,1.6-14.4,1.4-22.4c-0.3-11.2-0.6-22.8,4.9-32.3
	C33.8,95.6,44,90,54,84.7c7-3.8,13.7-7.4,18.5-12.2S80.9,61,84.7,54c5.4-9.9,11-20.2,20.6-25.8c7.7-4.4,16.8-5,24.7-5
	c2.5,0,5.1,0.1,7.6,0.1c2.4,0.1,5,0.1,7.4,0.1c4.3,0,10-0.2,15-1.5c6.4-1.7,12.7-5.6,19.3-9.7c9.7-6,19.8-12.2,31.2-12.2
	C222,0,232,6.2,241.8,12.2c6.7,4.1,13,8,19.3,9.7c5.1,1.4,10.7,1.5,15,1.5c2.4,0,5-0.1,7.4-0.1c2.5-0.1,5-0.1,7.6-0.1
	c7.9,0,17.1,0.6,24.7,5C325.5,33.8,331,44,336.4,54c3.8,7,7.4,13.7,12.2,18.5s11.4,8.4,18.5,12.2c9.9,5.4,20.2,11,25.8,20.6
	c5.5,9.5,5.2,21.1,4.9,32.3c-0.2,8.1-0.4,15.7,1.4,22.4c1.7,6.4,5.6,12.7,9.7,19.3c6,9.7,12.2,19.8,12.2,31.2s-6.2,21.5-12.2,31.2
	c-4.1,6.7-8,13-9.7,19.3c-1.8,6.7-1.6,14.4-1.4,22.4c0.3,11.2,0.6,22.8-4.9,32.3c-5.6,9.6-15.9,15.2-25.8,20.6
	c-7,3.8-13.7,7.4-18.5,12.2s-8.4,11.4-12.2,18.5c-5.4,9.9-11,20.2-20.6,25.8c-7.7,4.4-16.8,5-24.8,5c-2.5,0-5.1-0.1-7.5-0.1
	c-2.4-0.1-5-0.1-7.4-0.1c-4.3,0-10,0.2-15,1.5c-6.4,1.7-12.7,5.6-19.3,9.7C232,414.9,222,421.1,210.5,421.1z M144.9,390.1
	c4.8,0,11.1,0.2,17,1.8c7.4,2,14.5,6.3,21.4,10.6c9.2,5.7,17.9,11,27.2,11s18-5.4,27.2-11c6.9-4.2,13.9-8.6,21.4-10.6
	c5.9-1.6,12.2-1.8,17-1.8c2.5,0,5.1,0.1,7.6,0.1c2.4,0.1,4.9,0.1,7.3,0.1c6.9,0,14.8-0.5,20.9-4c7.8-4.5,12.6-13.4,17.7-22.8
	c3.9-7.2,7.9-14.6,13.5-20.2c5.6-5.6,13-9.6,20.2-13.5c9.4-5.1,18.3-9.9,22.8-17.7c4.4-7.6,4.2-17.7,3.9-28.3
	c-0.2-8.3-0.4-16.8,1.7-24.6c2-7.4,6.3-14.5,10.6-21.4c5.7-9.2,11-17.9,11-27.2c0-9.3-5.4-18-11-27.2c-4.2-6.9-8.6-13.9-10.6-21.4
	c-2.1-7.8-1.9-16.3-1.7-24.6c0.3-10.6,0.5-20.7-3.9-28.3c-4.5-7.8-13.4-12.6-22.8-17.7c-7.2-3.9-14.6-7.9-20.2-13.5
	c-5.6-5.6-9.6-13-13.5-20.2c-5.1-9.4-9.9-18.3-17.7-22.8c-6.1-3.5-14-4-20.9-4c-2.4,0-4.9,0.1-7.4,0.1c-2.5,0.1-5.1,0.1-7.6,0.1
	c-4.8,0-11.1-0.2-17-1.8c-7.4-2-14.5-6.3-21.4-10.6c-9.2-5.7-17.9-11-27.2-11s-18,5.4-27.2,11c-6.9,4.2-13.9,8.6-21.4,10.6
	c-5.9,1.6-12.2,1.8-17,1.8c-2.5,0-5.1-0.1-7.6-0.1c-2.4-0.1-4.9-0.1-7.4-0.1c-6.9,0-14.8,0.5-20.9,4c-7.8,4.5-12.6,13.4-17.7,22.8
	c-3.9,7.2-7.9,14.6-13.5,20.2s-13,9.6-20.2,13.5c-9.4,5.1-18.3,9.9-22.8,17.7c-4.4,7.6-4.1,17.7-3.9,28.3c0.2,8.3,0.4,16.8-1.7,24.6
	c-2,7.4-6.3,14.5-10.6,21.4c-5.7,9.2-11,17.9-11,27.2c0,9.3,5.4,18,11,27.2c4.2,6.9,8.6,13.9,10.6,21.4c2.1,7.8,1.9,16.3,1.7,24.6
	c-0.3,10.6-0.5,20.7,3.9,28.3c4.5,7.8,13.4,12.6,22.8,17.7c7.2,3.9,14.6,7.9,20.2,13.5c5.6,5.6,9.6,13,13.5,20.2
	c5.1,9.4,9.9,18.3,17.7,22.8c6.1,3.5,13.7,4,20.9,4c2.4,0,4.9-0.1,7.3-0.1C139.8,390.1,142.4,390.1,144.9,390.1z"/>
</svg>
