<?xml version="1.0" encoding="utf-8"?>
<!-- Generator: Adobe Illustrator 18.1.1, SVG Export Plug-In . SVG Version: 6.00 Build 0)  -->
<!DOCTYPE svg PUBLIC "-//W3C//DTD SVG 1.1//EN" "http://www.w3.org/Graphics/SVG/1.1/DTD/svg11.dtd">
<svg version="1.1" id="Layer_1" xmlns="http://www.w3.org/2000/svg" xmlns:xlink="http://www.w3.org/1999/xlink" x="0px" y="0px"
	 viewBox="0 0 348.8 458.2" enable-background="new 0 0 348.8 458.2" xml:space="preserve">
<g>
	<path fill="#FFFDF2" stroke="#E5C650" stroke-width="4" stroke-miterlimit="10" d="M133.9,77.7H92.3v9.4h35.1v17.7H92.3v10.5h42.4
		V135l-65,0.1V58h64.2V77.7z"/>
	<path fill="#FFFDF2" stroke="#E5C650" stroke-width="4" stroke-miterlimit="10" d="M196.4,58l28.2,77.2h-23.8l-3.5-10.5h-25.9
		l-3.8,10.4h-22.9l28.7-77H196.4z M191.4,108.6L184.7,90l-7.4,18.6H191.4z"/>
	<path fill="#FFFDF2" stroke="#E5C650" stroke-width="4" stroke-miterlimit="10" d="M282.2,58v20h-22V135h-23V78h-20.9V58H282.2z"/>
	<path fill="#FFFDF2" stroke="#E5C650" stroke-width="4" stroke-miterlimit="10" d="M50.2,229.5l11-40.6h30.3v77H70.4v-42l-11.8,42
		h-17l-11-43v43h-21v-77H40L50.2,229.5z"/>
	<path fill="#FFFDF2" stroke="#E5C650" stroke-width="4" stroke-miterlimit="10" d="M143.4,187.7c26-0.2,39.7,17.8,39.7,39.7
		c0,21.9-13.7,39.5-39.7,39.5c-27.2,0-40.1-17.8-40.1-39.7C103.3,205.3,116.2,187.7,143.4,187.7z M143.7,251
		c10.8,0,16.2-10.8,16-23.7c-0.3-12.4-5.2-23.6-16-23.6c-12.5,0-17.4,10.4-17.4,24.3C126.2,240.9,130.9,251,143.7,251z"/>
	<path fill="#FFFDF2" stroke="#E5C650" stroke-width="4" stroke-miterlimit="10" d="M233.9,188.8c9.4,0,20.5,1,27.2,11.2
		c3.6,5.4,3.7,13.6,1.5,18.7c-2.4,5.6-6.1,8.8-11.9,11c11.6,4.9,11.6,17.9,11.9,26c0.4,3.5,1.1,7.2,2.9,10.1h-23.1l-1.4-9
		c-2.2-18-3.9-18.7-17.4-18.5H218v27.5h-22.6v-77H233.9z M240.6,214.5c-0.3-5.3-4.5-7.9-8.9-7.9H218v15.5h14.8
		C236.1,222.2,240.6,220.2,240.6,214.5z"/>
	<path fill="#FFFDF2" stroke="#E5C650" stroke-width="4" stroke-miterlimit="10" d="M340.6,208.6H299v9.4h35.1v17.7H299v10.5h42.4
		v19.6l-65,0.1v-77.1h64.2V208.6z"/>
	<path fill="#FFFDF2" stroke="#E5C650" stroke-width="4" stroke-miterlimit="10" d="M90.4,396.6H67.8v-77h39.6
		c19.4,0,27.8,10.9,27.8,25.9s-13.9,27.7-26.1,27.7H90.4V396.6z M111.6,346.5c-0.2-5.1-4.4-7.9-8.8-7.9H90.4v16.5h13.4
		C107.2,355.1,111.6,352.2,111.6,346.5z"/>
	<path fill="#FFFDF2" stroke="#E5C650" stroke-width="4" stroke-miterlimit="10" d="M170.3,319.7v77h-22.6v-77H170.3z"/>
	<path fill="#FFFDF2" stroke="#E5C650" stroke-width="4" stroke-miterlimit="10" d="M248.1,339.4h-41.6v9.4h35.1v17.7h-35.1v10.5
		h42.4v19.6l-65,0.1v-77.1h64.2V339.4z"/>
	<path fill="#FFFDF2" stroke="#E5C650" stroke-width="4" stroke-miterlimit="10" d="M282.6,396.7l-20.8-0.1v-21.9h20.8V396.7z"/>
</g>
<g>
	<path fill="#FFFDF2" d="M314.3,456.7c-6.5,0-13-2.9-17.5-7.9c-2.7-2.7-6.5-4.3-10.2-4.3c-3.7,0-7.5,1.6-10.3,4.3
		c-4.4,4.9-11,7.8-17.5,7.8c-6.5,0-13-2.9-17.5-7.9c-2.7-2.7-6.5-4.3-10.2-4.3c-3.7,0-7.5,1.6-10.3,4.3c-4.4,4.9-11,7.8-17.4,7.8
		c-6.5,0-13-2.9-17.5-7.9c-2.7-2.7-6.5-4.3-10.2-4.3c-3.7,0-7.5,1.6-10.3,4.3c-4.4,4.9-10.9,7.8-17.4,7.8c-6.5,0-13-2.9-17.5-7.9
		c-2.7-2.7-6.5-4.3-10.2-4.3c-3.7,0-7.5,1.6-10.3,4.3c-4.4,4.9-10.9,7.8-17.4,7.8c-6.5,0-13-2.9-17.5-7.9c-2.7-2.7-6.5-4.3-10.2-4.3
		c-3.7,0-7.4,1.6-10.2,4.3c-4.4,4.9-11,7.8-17.4,7.8c-6.5,0-13-2.9-17.5-7.9c-2.7-2.7-6.5-4.3-10.2-4.3H7.8v-9h1.5
		c6.1,0,12.2,2.6,16.7,7l0.1,0.2c2.8,3.1,6.9,5,10.9,5c4,0,8.1-1.9,10.9-5l0.1-0.1c4.5-4.5,10.6-7.1,16.7-7.1c6.1,0,12.2,2.6,16.6,7
		l0.1,0.2c2.8,3.1,6.9,5,10.9,5c4,0,8.1-1.9,10.9-5l0.1-0.1c4.5-4.5,10.6-7.1,16.7-7.1c6.1,0,12.2,2.6,16.7,7l0.1,0.2
		c2.8,3.1,6.9,5,10.9,5s8.1-1.9,10.9-5l0.1-0.2c4.5-4.5,10.6-7.1,16.7-7.1c6.1,0,12.2,2.6,16.7,7l0.1,0.1c2.8,3.1,6.9,5,10.9,5
		c4,0,8.1-1.9,10.9-5l0.1-0.1c4.5-4.5,10.6-7.1,16.7-7.1c6.2,0,12.2,2.6,16.7,7l0.1,0.1c2.8,3.1,6.9,5,10.9,5c4,0,8.1-1.9,10.9-5
		l0.1-0.1c4.5-4.5,10.6-7.1,16.7-7.1c6.1,0,12.2,2.6,16.7,7l0.1,0.1c2.8,3.1,6.9,5,10.9,5c4,0,8.1-1.9,10.9-5l0.1-0.1
		c4.5-4.5,10.6-7.1,16.7-7.1h1.5v9H342c-3.7,0-7.5,1.6-10.3,4.3C327.3,453.8,320.8,456.7,314.3,456.7z"/>
	<g>
		<path fill="#E5C650" d="M342,437.1v6c-4.1,0-8.3,1.8-11.4,4.8c-4.2,4.6-10.3,7.4-16.4,7.4c-6.1,0-12.2-2.8-16.4-7.4
			c-3-3-7.3-4.8-11.3-4.8c-4.1,0-8.3,1.8-11.3,4.8c-4.2,4.6-10.3,7.4-16.4,7.4c-6.1,0-12.2-2.8-16.4-7.4c-3-3-7.3-4.8-11.4-4.8
			c-4.1,0-8.3,1.8-11.4,4.8c-4.2,4.6-10.3,7.4-16.4,7.4c-6.1,0-12.2-2.8-16.4-7.4c-3-3-7.3-4.8-11.4-4.8c-4.1,0-8.3,1.8-11.4,4.8
			c-4.2,4.6-10.3,7.4-16.4,7.4c-6.1,0-12.2-2.8-16.4-7.4c-3-3-7.3-4.8-11.4-4.8c-4.1,0-8.3,1.8-11.3,4.8c-4.2,4.6-10.3,7.4-16.4,7.4
			c-6.1,0-12.2-2.8-16.4-7.4c-3.1-3-7.2-4.8-11.3-4.8c-4.1,0-8.2,1.7-11.3,4.8c-4.2,4.6-10.3,7.4-16.4,7.4c-6.1,0-12.2-2.8-16.4-7.4
			c-3-3-7.3-4.8-11.3-4.8v-6c5.7,0,11.4,2.4,15.6,6.6l0.1,0.1c3.1,3.4,7.5,5.5,12,5.5c4.4,0,8.9-2,12-5.5l0.1-0.1
			c4.2-4.2,9.9-6.6,15.6-6.6c5.7,0,11.4,2.4,15.6,6.6l0.1,0.1c3.1,3.4,7.6,5.5,12,5.5c4.4,0,8.9-2,12-5.5l0.1-0.1
			c4.2-4.2,9.9-6.6,15.6-6.6c5.7,0,11.5,2.4,15.6,6.6l0.1,0.1c3.1,3.4,7.6,5.5,12,5.5c4.4,0,8.9-2,12-5.5l0.1-0.1
			c4.2-4.2,9.9-6.6,15.6-6.6c5.7,0,11.4,2.4,15.6,6.6l0.1,0.1c3.1,3.4,7.6,5.5,12,5.5c4.4,0,8.9-2,12-5.5l0.1-0.1
			c4.2-4.2,9.9-6.6,15.6-6.6c5.8,0,11.5,2.4,15.6,6.6l0.1,0.1c3.1,3.4,7.6,5.5,12,5.5c4.4,0,8.9-2,12-5.5l0.1-0.1
			c4.2-4.2,9.9-6.6,15.6-6.6c5.8,0,11.5,2.4,15.6,6.6l0.1,0.1c3.1,3.4,7.6,5.5,12,5.5c4.4,0,8.9-2,12-5.5l0.1-0.1
			C330.6,439.5,336.3,437.1,342,437.1 M345,434.1h-3c-6.5,0-13,2.7-17.8,7.5l0,0l0,0l-0.1,0.1l0,0l0,0c-2.5,2.8-6.2,4.5-9.8,4.5
			c-3.6,0-7.2-1.7-9.8-4.5l0,0l0,0l-0.1-0.1l0,0l0,0c-4.7-4.7-11.2-7.5-17.8-7.5c-6.5,0-13,2.7-17.8,7.5l0,0l0,0l-0.1,0.1l0,0l0,0
			c-2.5,2.8-6.2,4.5-9.8,4.5c-3.6,0-7.2-1.7-9.8-4.5l0,0l0,0l-0.1-0.1l0,0l0,0c-4.7-4.7-11.2-7.5-17.8-7.5c-6.5,0-13,2.7-17.8,7.5
			l0,0l0,0l-0.1,0.1l0,0l0,0c-2.5,2.8-6.2,4.5-9.8,4.5c-3.6,0-7.2-1.7-9.8-4.5l0,0l0,0l-0.1-0.1l0,0l0,0c-4.8-4.7-11.2-7.5-17.8-7.5
			c-6.5,0-13,2.7-17.8,7.5l0,0l0,0l-0.1,0.1l0,0l0,0c-2.5,2.8-6.1,4.5-9.7,4.5c-3.6,0-7.2-1.7-9.8-4.5l0,0l0,0l-0.1-0.1l0,0l0,0
			c-4.8-4.7-11.2-7.5-17.8-7.5c-6.5,0-13,2.7-17.8,7.5l0,0l0,0l-0.1,0.1l0,0l0,0c-2.5,2.8-6.1,4.5-9.8,4.5c-3.6,0-7.2-1.7-9.8-4.5
			l0,0l0,0l-0.1-0.1l0,0l0,0c-4.8-4.7-11.2-7.5-17.7-7.5c-6.5,0-12.9,2.7-17.7,7.5l0,0l0,0l-0.1,0.1l0,0l0,0
			c-2.5,2.8-6.2,4.5-9.8,4.5c-3.6,0-7.2-1.7-9.8-4.5l0,0l0,0l-0.1-0.1l0,0l0,0c-4.8-4.7-11.2-7.5-17.7-7.5h-3v3v6v3h3
			c3.3,0,6.7,1.4,9.2,3.9c4.7,5.2,11.7,8.3,18.6,8.3c6.9,0,13.8-3.1,18.6-8.3c2.5-2.5,5.8-3.9,9.1-3.9c3.3,0,6.6,1.4,9.1,3.9
			c4.7,5.2,11.7,8.3,18.6,8.3c6.9,0,13.8-3.1,18.6-8.3c2.5-2.4,5.9-3.9,9.2-3.9c3.3,0,6.7,1.4,9.2,3.9c4.7,5.2,11.7,8.3,18.6,8.3
			c6.9,0,13.8-3.1,18.6-8.3c2.5-2.4,5.9-3.9,9.2-3.9c3.3,0,6.7,1.4,9.2,3.9c4.8,5.2,11.7,8.3,18.6,8.3c6.9,0,13.8-3.1,18.6-8.3
			c2.5-2.4,5.9-3.9,9.2-3.9c3.3,0,6.7,1.4,9.2,3.9c4.8,5.2,11.7,8.3,18.6,8.3c6.9,0,13.8-3.1,18.6-8.3c2.5-2.4,5.9-3.9,9.2-3.9
			c3.3,0,6.7,1.4,9.2,3.9c4.7,5.2,11.7,8.3,18.6,8.3c6.9,0,13.8-3.1,18.6-8.3c2.5-2.4,5.9-3.9,9.2-3.9h3v-3v-6V434.1L345,434.1z"/>
	</g>
</g>
<g>
	<path fill="#FFFDF2" d="M314.3,22.7c-6.5,0-13-2.9-17.5-7.9c-2.7-2.7-6.5-4.3-10.2-4.3c-3.7,0-7.5,1.6-10.3,4.3
		c-4.4,4.9-11,7.8-17.5,7.8c-6.5,0-13-2.9-17.5-7.9c-2.7-2.7-6.5-4.3-10.2-4.3c-3.7,0-7.5,1.6-10.3,4.3c-4.4,4.9-10.9,7.8-17.4,7.8
		c-6.5,0-13-2.9-17.5-7.9c-2.7-2.7-6.5-4.3-10.2-4.3c-3.7,0-7.5,1.6-10.3,4.3c-4.4,4.9-10.9,7.8-17.4,7.8c-6.5,0-13-2.9-17.5-7.9
		c-2.7-2.7-6.5-4.3-10.2-4.3s-7.5,1.6-10.3,4.3c-4.4,4.9-10.9,7.8-17.4,7.8c-6.5,0-13-2.9-17.5-7.9c-2.7-2.7-6.5-4.3-10.2-4.3
		c-3.7,0-7.4,1.6-10.2,4.3c-4.4,4.9-11,7.8-17.4,7.8s-13-2.9-17.5-7.9c-2.7-2.7-6.5-4.3-10.2-4.3H7.8v-9h1.5c6.1,0,12.2,2.6,16.7,7
		l0.1,0.1c2.8,3.1,6.9,5,10.9,5c4,0,8.1-1.9,10.9-5L48,8.6c4.5-4.5,10.6-7.1,16.7-7.1c6.1,0,12.2,2.6,16.6,7l0.1,0.1
		c2.8,3.1,6.9,5,10.9,5c4,0,8.1-1.9,10.9-5l0.1-0.1c4.5-4.5,10.6-7.1,16.7-7.1s12.2,2.6,16.7,7l0.1,0.1c2.8,3.1,6.9,5,10.9,5
		c4,0,8.1-1.9,10.9-5l0.1-0.2c4.5-4.5,10.6-7.1,16.7-7.1c6.1,0,12.2,2.6,16.7,7l0.1,0.1c2.8,3.1,6.9,5,10.9,5c4,0,8.1-1.9,10.9-5
		l0.1-0.2c4.5-4.5,10.6-7.1,16.7-7.1c6.1,0,12.2,2.6,16.7,7l0.1,0.1c2.8,3.1,6.9,5,10.9,5c4,0,8.1-1.9,10.9-5l0.1-0.1
		c4.5-4.5,10.6-7.1,16.7-7.1c6.1,0,12.2,2.6,16.7,7l0.1,0.1c2.8,3.1,6.9,5,10.9,5c4,0,8.1-1.9,10.9-5l0.1-0.1
		c4.5-4.5,10.6-7.1,16.7-7.1h1.5v9H342c-3.7,0-7.5,1.6-10.3,4.3C327.3,19.7,320.8,22.7,314.3,22.7z"/>
	<g>
		<path fill="#E5C650" d="M342,3v6c-4.1,0-8.3,1.8-11.4,4.8c-4.2,4.6-10.3,7.4-16.4,7.4c-6.1,0-12.2-2.8-16.4-7.4
			c-3-3-7.3-4.8-11.3-4.8c-4.1,0-8.3,1.8-11.3,4.8c-4.2,4.6-10.3,7.4-16.4,7.4c-6.1,0-12.2-2.8-16.4-7.4c-3-3-7.3-4.8-11.4-4.8
			c-4.1,0-8.3,1.8-11.4,4.8c-4.2,4.6-10.3,7.4-16.4,7.4c-6.1,0-12.2-2.8-16.4-7.4c-3-3-7.3-4.8-11.4-4.8c-4.1,0-8.3,1.8-11.4,4.8
			c-4.2,4.6-10.3,7.4-16.4,7.4c-6.1,0-12.2-2.8-16.4-7.4c-3-3-7.3-4.8-11.4-4.8s-8.3,1.8-11.3,4.8c-4.2,4.6-10.3,7.4-16.4,7.4
			c-6.1,0-12.2-2.8-16.4-7.4c-3.1-3-7.2-4.8-11.3-4.8c-4.1,0-8.2,1.7-11.3,4.8c-4.2,4.6-10.3,7.4-16.4,7.4c-6.1,0-12.2-2.8-16.4-7.4
			c-3-3-7.3-4.8-11.3-4.8V3C15,3,20.7,5.4,24.9,9.6L25,9.7c3.1,3.4,7.5,5.5,12,5.5c4.4,0,8.9-2,12-5.5l0.1-0.1C53.3,5.4,59,3,64.7,3
			c5.7,0,11.4,2.4,15.6,6.6l0.1,0.1c3.1,3.4,7.5,5.5,12,5.5c4.4,0,8.9-2,12-5.5l0.1-0.1c4.2-4.2,9.9-6.6,15.6-6.6s11.5,2.4,15.6,6.6
			l0.1,0.1c3.1,3.4,7.6,5.5,12,5.5c4.4,0,8.9-2,12-5.5l0.1-0.1c4.2-4.2,9.9-6.6,15.6-6.6c5.7,0,11.4,2.4,15.6,6.6l0.1,0.1
			c3.1,3.4,7.6,5.5,12,5.5c4.4,0,8.9-2,12-5.5l0.1-0.1c4.2-4.2,9.9-6.6,15.6-6.6c5.8,0,11.5,2.4,15.6,6.6l0.1,0.1
			c3.1,3.4,7.6,5.5,12,5.5c4.4,0,8.9-2,12-5.5l0.1-0.1c4.2-4.2,9.9-6.6,15.6-6.6c5.8,0,11.5,2.4,15.6,6.6l0.1,0.1
			c3.1,3.4,7.6,5.5,12,5.5c4.4,0,8.9-2,12-5.5l0.1-0.1C330.6,5.4,336.3,3,342,3 M345,0h-3c-6.5,0-13,2.7-17.8,7.5l0,0l0,0l-0.1,0.1
			l0,0l0,0c-2.5,2.8-6.2,4.5-9.8,4.5c-3.6,0-7.2-1.7-9.8-4.5l0,0l0,0l-0.1-0.1l0,0l0,0C299.6,2.7,293.1,0,286.6,0
			c-6.5,0-13,2.7-17.8,7.5l0,0l0,0l-0.1,0.1l0,0l0,0c-2.5,2.8-6.2,4.5-9.8,4.5c-3.6,0-7.2-1.7-9.8-4.5l0,0l0,0l-0.1-0.1l0,0l0,0
			C244.1,2.7,237.6,0,231.1,0c-6.5,0-13,2.7-17.8,7.5l0,0l0,0l-0.1,0.1l0,0l0,0c-2.5,2.8-6.2,4.5-9.8,4.5c-3.6,0-7.2-1.7-9.8-4.5
			l0,0l0,0l-0.1-0.1l0,0l0,0C188.6,2.7,182.1,0,175.6,0c-6.5,0-13,2.7-17.8,7.5l0,0l0,0l-0.1,0.1l0,0l0,0c-2.5,2.8-6.1,4.5-9.7,4.5
			c-3.6,0-7.2-1.7-9.8-4.5l0,0l0,0l-0.1-0.1l0,0l0,0C133.1,2.7,126.6,0,120.1,0c-6.5,0-13,2.7-17.8,7.5l0,0l0,0l-0.1,0.1l0,0l0,0
			c-2.5,2.8-6.1,4.5-9.8,4.5c-3.6,0-7.2-1.7-9.8-4.5l0,0l0,0l-0.1-0.1l0,0l0,0C77.6,2.7,71.2,0,64.7,0C58.2,0,51.7,2.7,47,7.5l0,0
			l0,0l-0.1,0.1l0,0l0,0c-2.5,2.8-6.2,4.5-9.8,4.5c-3.6,0-7.2-1.7-9.8-4.5l0,0l0,0l-0.1-0.1l0,0l0,0C22.3,2.7,15.8,0,9.3,0h-3v3v6v3
			h3c3.3,0,6.7,1.4,9.2,3.9c4.7,5.2,11.7,8.3,18.6,8.3c6.9,0,13.8-3.1,18.6-8.3c2.5-2.5,5.8-3.9,9.1-3.9c3.3,0,6.6,1.4,9.1,3.9
			c4.7,5.2,11.7,8.3,18.6,8.3c6.9,0,13.8-3.1,18.6-8.3c2.5-2.4,5.9-3.9,9.2-3.9c3.3,0,6.7,1.4,9.2,3.9c4.7,5.2,11.7,8.3,18.6,8.3
			c6.9,0,13.8-3.1,18.6-8.3c2.5-2.4,5.9-3.9,9.2-3.9c3.3,0,6.7,1.4,9.2,3.9c4.8,5.2,11.7,8.3,18.6,8.3c6.9,0,13.8-3.1,18.6-8.3
			c2.5-2.4,5.9-3.9,9.2-3.9c3.3,0,6.7,1.4,9.2,3.9c4.7,5.2,11.7,8.3,18.6,8.3c6.9,0,13.8-3.1,18.6-8.3c2.5-2.4,5.9-3.9,9.2-3.9
			c3.3,0,6.7,1.4,9.2,3.9c4.7,5.2,11.7,8.3,18.6,8.3c6.9,0,13.8-3.1,18.6-8.3c2.5-2.4,5.9-3.9,9.2-3.9h3V9V3V0L345,0z"/>
	</g>
</g>
</svg>
