<?xml version="1.0" encoding="utf-8"?>
<!-- Generator: Adobe Illustrator 18.1.1, SVG Export Plug-In . SVG Version: 6.00 Build 0)  -->
<!DOCTYPE svg PUBLIC "-//W3C//DTD SVG 1.1//EN" "http://www.w3.org/Graphics/SVG/1.1/DTD/svg11.dtd">
<svg version="1.1" id="Layer_1" xmlns="http://www.w3.org/2000/svg" xmlns:xlink="http://www.w3.org/1999/xlink" x="0px" y="0px"
	 viewBox="0 0 612 792" enable-background="new 0 0 612 792" xml:space="preserve">
<g>
	<path fill="#FFFDF2" d="M265.3,260.7h-42.7v9.6h36v18.2h-36v10.8h43.5v20.2l-66.7,0.1v-79.1h65.9V260.7L265.3,260.7z"/>
	<path fill="#FFFDF2" d="M329.4,240.5l28.9,79.2h-24.4l-3.6-10.8h-26.6l-3.9,10.7h-23.5l29.4-79h23.6V240.5z M324.3,292.4l-6.9-19.1
		l-7.6,19.1H324.3z"/>
	<path fill="#FFFDF2" d="M417.4,240.5V261h-22.7v58.5h-23.6V261h-21.4v-20.5H417.4z"/>
	<path fill="#FFFDF2" d="M179.4,416.4l11.3-41.6h31.1v79h-21.6v-43.1l-12.1,43.1h-17.4l-11.3-44.1v44.1h-21.5v-79H169L179.4,416.4z"
		/>
	<path fill="#FFFDF2" d="M275,373.6c26.7-0.2,40.7,18.3,40.7,40.7s-14.1,40.5-40.7,40.5c-27.9,0-41.1-18.3-41.1-40.7
		S247.1,373.6,275,373.6z M275.3,438.5c11.1,0,16.6-11.1,16.4-24.3c-0.3-12.7-5.3-24.2-16.4-24.2c-12.8,0-17.8,10.7-17.8,24.9
		C257.4,428.1,262.2,438.5,275.3,438.5z"/>
	<path fill="#FFFDF2" d="M367.9,374.7c9.6,0,21,1,27.9,11.5c3.7,5.5,3.8,13.9,1.5,19.2c-2.5,5.7-6.3,9-12.2,11.3
		c11.9,5,11.9,18.4,12.2,26.7c0.4,3.6,1.1,7.4,3,10.4h-23.7l-1.4-9.2c-2.3-18.5-4-19.2-17.8-19h-5.7v28.2h-23.2v-79H367.9
		L367.9,374.7z M374.7,401c-0.3-5.4-4.6-8.1-9.1-8.1h-14.1v15.9h15.2C370.1,408.9,374.7,406.9,374.7,401z"/>
	<path fill="#FFFDF2" d="M477.3,395h-42.7v9.6h36v18.2h-36v10.8h43.5v20.1l-66.7,0.1v-79.1h65.9L477.3,395L477.3,395z"/>
	<path fill="#FFFDF2" d="M220.7,587.8h-23.2v-79h40.6c19.9,0,28.5,11.2,28.5,26.6c0,15.4-14.3,28.4-26.8,28.4h-19.2V587.8z
		 M242.4,536.4c-0.2-5.2-4.5-8.1-9-8.1h-12.7v16.9h13.7C237.9,545.3,242.4,542.3,242.4,536.4z"/>
	<path fill="#FFFDF2" d="M302.6,508.9v79h-23.2v-79H302.6z"/>
	<path fill="#FFFDF2" d="M382.4,529.2h-42.7v9.6h36v18.2h-36v10.8h43.5v20.1l-66.7,0.1v-79.1h65.9L382.4,529.2L382.4,529.2z"/>
	<path fill="#FFFDF2" d="M417.8,587.9l-21.3-0.1v-22.5h21.3V587.9z"/>
</g>
<g>
	<path fill="#FFFDF2" d="M450.3,647.9c-6.3,0-12.5-2.9-16.8-7.6c-3.1-3.1-7.5-4.9-11.6-4.9c-4.2,0-8.5,1.8-11.6,4.9
		c-4.3,4.7-10.6,7.6-16.8,7.6s-12.5-2.9-16.8-7.6c-3.1-3.1-7.5-4.9-11.7-4.9c-4.2,0-8.5,1.8-11.7,4.9c-4.3,4.7-10.6,7.6-16.8,7.6
		c-6.3,0-12.5-2.9-16.8-7.6c-3.1-3.1-7.5-4.9-11.7-4.9c-4.2,0-8.5,1.8-11.7,4.9c-4.3,4.7-10.6,7.6-16.8,7.6
		c-6.3,0-12.5-2.9-16.8-7.6c-3.1-3.1-7.5-4.9-11.7-4.9s-8.5,1.8-11.6,4.9c-4.3,4.7-10.6,7.6-16.8,7.6c-6.3,0-12.5-2.9-16.8-7.6
		c-3.2-3.1-7.4-4.9-11.6-4.9s-8.4,1.7-11.6,4.9c-4.3,4.7-10.6,7.6-16.8,7.6c-6.3,0-12.5-2.9-16.8-7.6c-3.1-3.1-7.5-4.9-11.6-4.9
		v-6.2c5.8,0,11.7,2.5,16,6.8l0.1,0.1c3.2,3.5,7.7,5.6,12.3,5.6c4.5,0,9.1-2.1,12.3-5.6l0.1-0.1c4.3-4.3,10.2-6.8,16-6.8
		s11.7,2.5,16,6.8l0.1,0.1c3.2,3.5,7.8,5.6,12.3,5.6s9.1-2.1,12.3-5.6l0.1-0.1c4.3-4.3,10.2-6.8,16-6.8c5.8,0,11.8,2.5,16,6.8
		l0.1,0.1c3.2,3.5,7.8,5.6,12.3,5.6c4.5,0,9.1-2.1,12.3-5.6l0.1-0.1c4.3-4.3,10.2-6.8,16-6.8c5.8,0,11.7,2.5,16,6.8l0.1,0.1
		c3.2,3.5,7.8,5.6,12.3,5.6c4.5,0,9.1-2.1,12.3-5.6l0.1-0.1c4.3-4.3,10.2-6.8,16-6.8c5.9,0,11.8,2.5,16,6.8l0.1,0.1
		c3.2,3.5,7.8,5.6,12.3,5.6c4.5,0,9.1-2.1,12.3-5.6l0.1-0.1c4.3-4.3,10.2-6.8,16-6.8c5.9,0,11.8,2.5,16,6.8l0.1,0.1
		c3.2,3.5,7.8,5.6,12.3,5.6s9.1-2.1,12.3-5.6l0.1-0.1c4.3-4.3,10.2-6.8,16-6.8v6.2c-4.2,0-8.5,1.8-11.7,4.9
		C462.8,645.2,456.6,647.9,450.3,647.9z"/>
</g>
<g>
	<path fill="#FFFDF2" d="M450.3,202.8c-6.3,0-12.5-2.9-16.8-7.6c-3.1-3.1-7.5-4.9-11.6-4.9c-4.2,0-8.5,1.8-11.6,4.9
		c-4.3,4.7-10.6,7.6-16.8,7.6s-12.5-2.9-16.8-7.6c-3.1-3.1-7.5-4.9-11.7-4.9c-4.2,0-8.5,1.8-11.7,4.9c-4.3,4.7-10.6,7.6-16.8,7.6
		c-6.3,0-12.5-2.9-16.8-7.6c-3.1-3.1-7.5-4.9-11.7-4.9c-4.2,0-8.5,1.8-11.7,4.9c-4.3,4.7-10.6,7.6-16.8,7.6
		c-6.3,0-12.5-2.9-16.8-7.6c-3.1-3.1-7.5-4.9-11.7-4.9s-8.5,1.8-11.6,4.9c-4.3,4.7-10.6,7.6-16.8,7.6c-6.3,0-12.5-2.9-16.8-7.6
		c-3-3.2-7.2-4.9-11.4-4.9s-8.4,1.7-11.6,4.9c-4.3,4.7-10.6,7.6-16.8,7.6c-6.3,0-12.5-2.9-16.8-7.6c-3.1-3.1-7.5-4.9-11.6-4.9v-6.2
		c5.8,0,11.7,2.5,16,6.8l0.1,0.1c3.2,3.5,7.7,5.6,12.3,5.6c4.5,0,9.1-2.1,12.3-5.6l0.1-0.1c4.3-4.3,10.2-6.8,16-6.8
		c5.8,0,11.7,2.5,16,6.8l0.1,0.1c3.2,3.5,7.7,5.6,12.3,5.6c4.5,0,9.1-2.1,12.3-5.6l0.1-0.1c4.3-4.3,10.2-6.8,16-6.8s11.8,2.5,16,6.8
		l0.1,0.1c3.2,3.5,7.8,5.6,12.3,5.6c4.5,0,9.1-2.1,12.3-5.6l0.1-0.1c4.3-4.3,10.2-6.8,16-6.8c5.8,0,11.7,2.5,16,6.8l0.1,0.1
		c3.2,3.5,7.8,5.6,12.3,5.6c4.5,0,9.1-2.1,12.3-5.6l0.1-0.1c4.3-4.3,10.2-6.8,16-6.8c5.9,0,11.8,2.5,16,6.8l0.1,0.1
		c3.2,3.5,7.8,5.6,12.3,5.6c4.5,0,9.1-2.1,12.3-5.6l0.1-0.1c4.3-4.3,10.2-6.8,16-6.8c5.9,0,11.8,2.5,16,6.8l0.1,0.1
		c3.2,3.5,7.8,5.6,12.3,5.6c4.5,0,9.1-2.1,12.3-5.6l0.1-0.1c4.6-4.3,10.5-6.8,16.3-6.8v6.2c-4.2,0-8.5,1.8-11.7,4.9
		C462.8,199.9,456.6,202.8,450.3,202.8z"/>
</g>
</svg>
