<svg xmlns="http://www.w3.org/2000/svg" viewBox="0 0 550 250.9" enable-background="new 0 0 550 250.9"><g fill="#231F20"><path d="M110.6 233.6h-8.9c-.7 0-1.3-.6-1.3-1.3 0-.7.6-1.3 1.3-1.3h8.9c.7 0 1.3.6 1.3 1.3 0 .7-.6 1.3-1.3 1.3zm-19.1 0H81.2c-.7 0-1.3-.6-1.3-1.3 0-.7.6-1.3 1.3-1.3h10.3c.7 0 1.3.6 1.3 1.3 0 .7-.6 1.3-1.3 1.3zM475.3 233.6H465c-.7 0-1.3-.6-1.3-1.3 0-.7.6-1.3 1.3-1.3h10.3c.7 0 1.3.6 1.3 1.3 0 .7-.6 1.3-1.3 1.3zm-20.5 0h-10.3c-.7 0-1.3-.6-1.3-1.3 0-.7.6-1.3 1.3-1.3h10.3c.7 0 1.3.6 1.3 1.3 0 .7-.6 1.3-1.3 1.3zM130.3 233.6c-3 0-4-1-4-4v-2.7c0-3 1.1-4 4-4h4.5c3 0 4 1.1 4 4v.8l-3.9.8v-2h-4.6v3.7h4.8c3 0 4 1 4 4v2.9c0 3-1 4-4 4h-5c-3 0-4-1-4-4v-1l4-1v2.3h5.1v-3.9h-4.9zM154 241.1l-4.9-18.3h4.1l2.4 10 2.5-10h3.8l2.4 10 2.5-10h3.9l-4.9 18.3h-3.1l-2.8-10.5-2.8 10.5H154zM182.4 222.9h14.9v3.8h-10.9v3.2h9.3v3.6h-9.3v3.9h11.1v3.8h-15v-18.3zM208.7 222.9h14.9v3.8h-10.9v3.2h9.3v3.6h-9.3v3.9h11.1v3.8h-15v-18.3zM243.3 241.1h-4v-14.5H235v-3.8h12.5v3.8h-4.3v14.5zM319 233.6c-3 0-4-1-4-4V227c0-3 1.1-4 4-4h4.5c3 0 4 1.1 4 4v.8l-3.9.8v-2H319v3.7h4.8c3 0 4 1 4 4v2.9c0 3-1 4-4 4h-5c-3 0-4-1-4-4v-1l4-1v2.3h5.1v-3.9H319zM340.6 222.9h5.1l5 18.3h-4.2l-1-4.1h-4.9l-1 4.1h-4l5-18.3zm4.1 10.6l-1.6-6.9-1.6 6.9h3.2zM355.8 222.9h4.1l3.4 11.5 3.4-11.5h3.9l-6 18.3h-3l-5.8-18.3zM387 234.6h-5c-3 0-4-1-4-4V227c0-3 1-4 4-4h5c3 0 4 1.1 4 4v3.7c0 2.9-1 3.9-4 3.9zm.1-3.7v-4.2H382v4.2h5.1zM413.6 241.2h-4.3l-3.2-7h-1.6v7h-3.9v-18.3h7.5c1.4 0 2.1.1 2.7.5 1 .6 1.3 1.4 1.3 3.5v3.2c0 1.2-.1 1.7-.3 2.2-.3.8-.7 1.1-1.8 1.6l3.6 7.3zm-6.5-10.6c.8 0 1.1-.2 1.1-1.1v-1.7c0-.9-.2-1.1-1.1-1.1h-2.7v3.9h2.7zM425.6 233.1l-5.3-10.2h4.1l3.2 6.5 3.2-6.5h4l-5.3 10v8.2h-3.9v-8zM386.4 239.1c0-1.1-.9-2-2-2s-2 .9-2 2 .9 2 2 2 2-.9 2-2zM279.9 215.8c-9.7 0-17.5 7.8-17.5 17.5s7.8 17.5 17.5 17.5 17.5-7.9 17.5-17.5c0-9.7-7.8-17.5-17.5-17.5zm4.3 25.3l-2-2.5-1.1 1.3c-.9 1-1.3 1.2-2.6 1.2h-3.4c-2.3 0-3.1-1-3.1-4v-1.9c0-.8.1-1.3.3-1.8.2-.5.7-1.1 1.5-1.8l1.6-1.5c-.4-.5-.5-.7-.7-.9-.4-.6-.6-1.2-.6-2.1v-.6c0-2.7.8-3.7 3.1-3.7h3.7c1.1 0 1.6.1 2.1.5.8.6 1 1.4 1 3.5v.5l-3.9 1.1v-2.1h-2.2v1l4.4 5.5 2.5-2.8 2.4 3-2.5 2.7 4.3 5.3h-4.8zM276.6 234.2c-.6.5-.6.6-.6 1.2v1.5c0 .6.1.7.6.7h1.2c.3 0 .5-.1.8-.4l1.3-1.5-2.1-2.5-1.2 1zM123.4 121.1h-15.8c-.2 0-.3.1-.3.3v30.8c0 .2.1.3.3.3h9.1c.2 0 .3-.1.3-.3v-9.1h7.2c4.9 0 10.7-5.1 10.7-11.4-.1-6.8-4.3-10.6-11.5-10.6zm-6.5 8.1h4.7c1.5 0 3.2.9 3.2 2.9 0 2.2-1.7 3.2-2.8 3.2h-5.1v-6.1zM116.6 152.7h-9.1c-.3 0-.6-.3-.6-.6v-30.8c0-.3.3-.6.6-.6h15.8c7.4 0 11.7 4 11.7 11 0 6.5-6 11.7-11 11.7h-6.9v8.8c.1.3-.2.5-.5.5zm-9.1-31.4v30.8h9.1V143c0-.2.1-.3.3-.3h7.2c4.7 0 10.4-4.9 10.4-11.1 0-6.6-4.1-10.4-11.1-10.4h-15.9zm14.5 14.2h-5.1c-.2 0-.3-.1-.3-.3v-6c0-.2.1-.3.3-.3h4.7c1.6 0 3.4 1 3.5 3.1 0 2.4-1.9 3.5-3.1 3.5zm-4.8-.5h4.8c1 0 2.5-.9 2.5-2.9-.1-1.8-1.6-2.6-2.9-2.6h-4.4v5.5zM151.6 121.1h-9.1c-.2 0-.3.1-.3.3v30.8c0 .2.1.3.3.3h9.1c.2 0 .3-.1.3-.3v-30.8c0-.2-.1-.3-.3-.3zM151.6 152.7h-9.1c-.3 0-.6-.3-.6-.6v-30.8c0-.3.3-.6.6-.6h9.1c.3 0 .6.3.6.6v30.8c0 .4-.2.6-.6.6zm-9-31.4v30.8h9.1v-30.8h-9.1zM187.6 144h-16.7v-3.6h13.7c.2 0 .3-.1.3-.3V133c0-.2-.1-.3-.3-.3h-13.7v-3.2h16.4c.2 0 .3-.1.3-.3v-7.9c0-.2-.1-.3-.3-.3h-25.7c-.2 0-.3.1-.3.3v30.9c0 .1 0 .2.1.2.1.1.1.1.2.1h26c.2 0 .3-.1.3-.3v-7.8c0-.2-.1-.4-.3-.4zM161.6 152.8c-.2 0-.3-.1-.4-.2-.1-.1-.2-.2-.2-.4v-30.9c0-.3.3-.6.6-.6h25.7c.3 0 .6.3.6.6v7.9c0 .3-.3.6-.6.6h-16.1v2.6h13.5c.3 0 .6.3.6.6v7.1c0 .3-.3.6-.6.6h-13.5v3h16.4c.3 0 .6.3.6.6v7.8c0 .3-.3.6-.6.6l-26 .1zm0-31.5v31.2-.3h26v-7.8h-16.7c-.2 0-.3-.1-.3-.3v-3.6c0-.2.1-.3.3-.3h13.7v-7.1h-13.8c-.2 0-.3-.1-.3-.3v-3.2c0-.2.1-.3.3-.3h16.4v-7.9l-25.6-.1zM382.1 120.9c8.8 0 13.3 6.3 14.1 11.8H387c-.5-2.8-2.6-4.3-4.9-4.4-4.1-.2-7 3.3-7 8.5 0 4.7 3.1 8.5 7 8.5 2.6 0 5-1.9 5.3-4.9l9-.1c0 7-6.7 12.3-14.2 12.4-9.8 0-16.2-7.4-16.1-16.1.1-8.9 4.7-15.7 16-15.7zM382 152.9c-4.7 0-8.7-1.6-11.7-4.7-3-3-4.6-7.2-4.6-11.7.2-10.1 6.1-15.9 16.4-15.9 8.7 0 13.6 6.2 14.4 12 0 .1 0 .2-.1.2-.1.1-.1.1-.2.1H387c-.1 0-.3-.1-.3-.2-.5-2.5-2.3-4.1-4.6-4.2h-.3c-3.8 0-6.4 3.3-6.4 8.2 0 4.5 3 8.2 6.6 8.2 2.7 0 4.8-1.9 5-4.6 0-.2.1-.3.3-.3l9-.1c.1 0 .2 0 .2.1.1.1.1.1.1.2 0 7-6.5 12.6-14.6 12.7.1 0 0 0 0 0zm.1-31.7c-13.5 0-15.7 9.6-15.8 15.3-.1 4.4 1.5 8.4 4.4 11.3 2.9 2.9 6.8 4.5 11.3 4.5v.3l.1-.3c7.6 0 13.8-5.3 13.9-11.8l-8.4.1c-.4 2.8-2.7 4.9-5.5 4.9-4 0-7.3-3.9-7.3-8.8 0-5.4 3-9 7.3-8.8 2.5.1 4.5 1.8 5.1 4.4h8.6c-.9-5.4-5.5-11.1-13.7-11.1zM419.8 120.9c10.4-.1 15.9 7.1 15.9 15.9s-5.5 15.8-15.9 15.8c-10.9 0-16-7.1-16-15.9s5.1-15.8 16-15.8zm.2 25.3c4.3 0 6.5-4.3 6.4-9.5-.1-5-2.1-9.4-6.4-9.4-5 0-6.9 4.1-6.9 9.7-.1 5.2 1.8 9.2 6.9 9.2zM419.8 152.9c-12 0-16.3-8.4-16.3-16.2 0-9.9 6.3-16.1 16.3-16.1h.2c11.1 0 16 8.1 16 16.2 0 9.8-6.3 16.1-16.2 16.1zm.2-31.7h-.2c-7.6 0-15.8 4.1-15.8 15.5 0 11.5 8.1 15.6 15.7 15.6 9.5 0 15.6-6.1 15.6-15.5.1-9.5-5.9-15.6-15.3-15.6zm0 25.3c-2 0-3.7-.6-4.9-1.8-1.6-1.6-2.4-4.2-2.4-7.7 0-6.4 2.6-10 7.2-10 4.8 0 6.6 5 6.7 9.7.1 3.4-.9 6.4-2.6 8.1-1 1.1-2.4 1.7-4 1.7zm0-18.9c-5.5 0-6.7 5.1-6.7 9.4 0 3.3.7 5.8 2.2 7.3 1.1 1.1 2.6 1.7 4.4 1.7 1.5 0 2.7-.5 3.7-1.5 1.6-1.6 2.4-4.4 2.4-7.6 0-4.6-1.7-9.3-6-9.3zM452 141.2h-8.3v-8.7h8.3v8.7zM452 141.4h-8.3c-.2 0-.3-.1-.3-.3v-8.7c0-.2.1-.3.3-.3h8.3c.2 0 .3.1.3.3v8.8c0 .1 0 .2-.1.2h-.2zm-8-.6h7.7v-8.2H444v8.2zM68.343 228.463l3.82 3.817-3.818 3.82-3.82-3.818zM68.3 236.5c-.1 0-.2 0-.2-.1l-3.8-3.8c-.1-.1-.1-.1-.1-.2s0-.2.1-.2l3.8-3.8c.1-.1.3-.1.4 0l3.8 3.8c.1.1.1.1.1.2s0 .2-.1.2l-3.8 3.8s-.1.1-.2.1zm-3.4-4.2l3.4 3.4 3.4-3.4-3.4-3.4-3.4 3.4zM487.55 228.46l3.818 3.816-3.817 3.82-3.818-3.817zM487.5 236.5c-.1 0-.2 0-.2-.1l-3.8-3.8c-.1-.1-.1-.1-.1-.2s0-.2.1-.2l3.8-3.8c.1-.1.3-.1.4 0l3.8 3.8c.1.1.1.1.1.2s0 .2-.1.2l-3.8 3.8s-.1.1-.2.1zm-3.4-4.2l3.4 3.4 3.4-3.4-3.4-3.4-3.4 3.4zM234.9 1L220 2c-.2 0-.3.1-.4.2-.1.1-.2.3-.1.4l3.6 50.4c0 .2.1.3.2.4.1.1.2.1.4.1h.1l14.8-1.1c.3 0 .6-.3.5-.6l-3.6-50.3c0-.3-.3-.5-.6-.5zm-4.8 42.5s-1.5-10.5-1.8-15.7c-.3-5.3-.1-15.8-.1-15.8s1.7 10.4 2 15.6c.3 5.3-.1 15.9-.1 15.9zM209 40.4c-.1-.1-.2-.1-.3-.1h-.1l-21.6 3-5.2-36.4c0-.3-.3-.5-.6-.5h-.1l-14.7 2.1c-.2 0-.3.1-.4.2 0 .2-.1.3 0 .5l7.1 50c0 .2.1.3.2.4.1.1.2.1.3.1h.1l36.9-5.2c.2 0 .3-.1.4-.2.1-.1.1-.3.1-.4l-1.9-13c0-.3-.1-.4-.2-.5zm-32.6-7.8c-.7-5.2-1.5-15.8-1.5-15.8s2.5 10.2 3.3 15.4c.8 5.2 1.2 15.9 1.2 15.9s-2.2-10.2-3-15.5zM295.5 37.8l-27.2-.1V32l22.4.1c.2 0 .3-.1.4-.2.1-.1.2-.3.2-.4V19.9c0-.3-.3-.6-.6-.6l-22.4-.1v-5l26.7.1c.2 0 .3-.1.4-.2.1-.1.2-.3.2-.4l.1-12.9c0-.3-.3-.6-.6-.6L253 0c-.3 0-.6.3-.6.6l-.2 50.5c0 .2.1.3.2.4.1.1.3.2.4.2l42.6.1c.3 0 .6-.3.6-.6l.1-12.8c-.1-.3-.3-.6-.6-.6zm-35.2 3.9s-.7-10.6-.7-15.8c.1-5.3 1-15.8 1-15.8s.9 10.5.9 15.7c-.1 5.3-1.2 15.9-1.2 15.9zM65.4 34.1c-.1 0-.2-.1-.3-.1h-.2l-13.6 5.7c-.2.1-.4.4-.4.6l3.5 25.9-14.9-21c-.2-.1-.3-.2-.5-.2h-.2l-12.5 5.3c-.3.1-.4.4-.4.7l4.8 25.9-16.2-21.1c-.1-.1-.3-.2-.5-.2h-.2L.4 61.3c-.2.1-.3.2-.3.4s0 .4.1.5l32.2 41.2c.1.1.3.2.5.2h.2L47 97.7c.3-.1.4-.4.4-.6l-4.5-24.4 13.8 20.4c.1.2.3.3.5.3h.2l13.8-5.8c.2-.1.4-.3.4-.6l-5.9-52.4c0-.3-.2-.5-.3-.5zm-42.3 47c-3.3-4.1-9.4-12.8-9.4-12.8s7.4 7.4 10.8 11.5c3.3 4.1 9.2 13 9.2 13s-7.3-7.6-10.6-11.7zm37.4-18.3c-.6-5.2-.9-15.8-.9-15.8s2.2 10.3 2.7 15.5c.6 5.2.6 15.9.6 15.9S61 68 60.5 62.8zM373.3 8.4l-14.7-2h-.1c-.1 0-.3 0-.4.1-.1.1-.2.2-.2.4l-4.5 33.8c-.2 1.8-2 3.3-4 3.3h-.4c-1-.1-1.9-.7-2.5-1.5-.6-.8-.9-1.9-.8-2.9l.7-5c0-.3-.2-.6-.5-.7l-14.7-2h-.1c-.3 0-.6.2-.6.5l-.5 3.8c-.7 4.9.7 9.8 3.9 13.9 3.4 4.3 8.4 7.1 13.8 7.6.6.1 1.1.1 1.7.1 10.5.2 18.8-7 20.2-17.5L373.8 9c0-.3-.2-.6-.5-.6zm-9.7 22.5c-.7 5.2-3.3 15.6-3.3 15.6s.7-10.6 1.4-15.8c.8-5.2 3-15.5 3-15.5s-.4 10.5-1.1 15.7zM96.5 25.4c-.1-.2-.3-.4-.5-.4h-.2l-14.2 4.4c-.1 0-.3.1-.3.3-.1.1-.1.3 0 .5l15 48.2c.1.2.3.4.5.4h.2l14.2-4.4c.2 0 .3-.1.3-.3.1-.1.1-.3 0-.4l-15-48.3zm-1 26.6c-1.6-5-4-15.3-4-15.3s4.2 9.7 5.8 14.7c1.6 5 3.8 15.5 3.8 15.5s-4-9.9-5.6-14.9zM158.6 48.3c0-.2-.1-.3-.3-.4-.1-.1-.2-.1-.3-.1h-.1l-21.2 5-8.4-35.8c-.1-.3-.3-.4-.6-.5h-.1l-14.4 3.4c-.1 0-.3.1-.4.3-.1.1-.1.3-.1.4l11.6 49.1c.1.3.3.5.6.5h.1l36.2-8.5c.2 0 .3-.1.4-.3.1-.1.1-.3.1-.4l-3.1-12.7zm-33.4-5.9c-1.2-5.1-2.9-15.6-2.9-15.6s3.5 9.9 4.7 15c1.2 5.1 2.7 15.7 2.7 15.7s-3.3-10-4.5-15.1zM501.3 45.3c-.1-.1-.2-.3-.3-.3l-8.7-3.4h-.2c-.1 0-.2 0-.2.1-.1.1-.3.2-.3.3l-3.7 9.4c-.1.3 0 .6.3.8l3.3 1.3c-1 1.7-2.8 2.7-4.1 2.7-.3 0-.5-.1-.7-.1h-.2c-.1 0-.2 0-.3.1-.1.1-.3.2-.3.3l-1.5 3.8c-.1.1-.1.3 0 .5.1.1.2.3.3.3 1 .4 2.1.6 3.2.6 4.2.1 8.2-2.5 9.7-6.3l3.7-9.4c.1-.4.1-.5 0-.7zM475.2 34.5l-19-5.7h-.2c-.2 0-.4.1-.5.3l-13.4 21.5 1.2-25.2c0-.3-.2-.5-.4-.6L423.7 19h-.2c-.1 0-.2 0-.3.1l-.3.3-14.6 48.3v.4l.3.3 13.2 4h.2c.3 0 .5-.2.6-.4l6.8-22.5-1 24.4c0 .3.2.5.4.6l10.7 3.2h.2c.2 0 .4-.1.5-.3L453.3 57l-6.7 22.3v.4l.3.3 13.3 4h.2c.1 0 .2 0 .3-.1.1-.1.2-.2.3-.4l14.6-48.3c.1-.2-.1-.6-.4-.7zm-51.1 11.1c-1.6 5-5.8 14.8-5.8 14.8s2.4-10.3 4-15.3 5.6-14.8 5.6-14.8-2.2 10.3-3.8 15.3zm38.3 11.9c-1.6 5-5.8 14.8-5.8 14.8s2.4-10.3 4-15.3 5.6-14.8 5.6-14.8-2.2 10.3-3.8 15.3zM549.8 73.6c-1.5-8-11.5-12.7-15.2-14.5-2.6-1.2-6.5-2.6-10.6-2.7-2.8-.1-5.4.5-7.7 1.8-3.8 2.2-7 8-7.4 11.6-.7 7.4 5.3 12.9 10.1 17.4.8.8 1.7 1.5 2.7 2.3 2.6 2.2 5.6 4.7 5.3 6.4-.1.5-1.2 2.2-3.7 2.1-1.7 0-3.6-.8-5.7-2.2-2.1-1.7-2.7-3.6-2.2-6.8 0-.3-.1-.5-.3-.6L501.7 82c-.1 0-.2-.1-.2-.1h-.2c-.2.1-.3.2-.3.3-1.6 3.9-2 6.9-1.3 10.2 1.8 8.2 10.9 14.1 15.5 16.1 2.6 1.2 6.7 2.6 11.1 2.7 3.8.1 7.3-.8 10.4-2.7 5.9-3.6 6.9-9.5 7-11.9.5-7.6-6.3-13.4-10.8-17.1l-.2-.1c-.9-.8-1.9-1.7-3-2.5-2.5-2-5-4-4.8-5.5.1-.5.9-1.8 2.9-1.8.8 0 1.7.2 2.7.7 2.7 1.2 4.1 3.6 3.8 6.2 0 .3.1.5.3.6l12.9 6.2c.1 0 .2.1.2.1h.2c.2-.1.3-.2.3-.3 1.6-3 2.2-6.8 1.6-9.5zm-23.3 8.6c2.2 1.4 4.7 3.3 6.3 5.5 1.6 2.2 2.7 6.1 3.1 8.8-1-2.5-2.7-5.8-4.4-7.8-1.7-2-3.8-3.4-6-4.9-2.2-1.7-4-3.1-5.6-5.3-1.6-2.1-3.2-5.2-2.9-8 .2 2.6 2.1 4.9 3.8 6.9 1.8 2 3.6 3.4 5.7 4.8zM405.5 15L391 12h-.1c-.1 0-.2 0-.3.1-.1.1-.2.2-.3.4l-10.4 49.4c-.1.3.1.6.5.7l14.5 3h.1c.1 0 .2 0 .3-.1.1-.1.2-.2.3-.4L406 15.7c.1-.3-.1-.6-.5-.7zM394 39c-1.1 5.2-4.2 15.4-4.2 15.4s1.3-10.5 2.3-15.7c1.1-5.2 3.9-15.3 3.9-15.3s-1 10.4-2 15.6zM341 135.4c-.1-5.7 6-12.2 4.5-17.6-1.5-5.4-10.1-7.9-13-12.7-2.8-4.8-.9-13.5-4.9-17.5-4-3.9-12.6-1.8-17.6-4.6-4.8-2.7-7.4-11.2-13-12.7-5.6-1.4-12 4.8-17.5 4.8-5.7.1-12.2-6-17.6-4.5-5.4 1.5-7.9 10.1-12.7 13-4.8 2.8-13.5.9-17.5 4.9-3.9 4-1.8 12.6-4.6 17.6-2.7 4.8-11.2 7.4-12.7 13-1.4 5.6 4.8 12 4.8 17.5 0 5.7-6 12.2-4.5 17.6 1.5 5.4 10.1 7.9 13 12.7 2.8 4.8.9 13.5 4.9 17.5 4 3.9 12.6 1.8 17.6 4.6 4.8 2.7 7.4 11.2 13 12.7 5.6 1.4 12-4.8 17.5-4.8 5.7-.1 12.2 6 17.6 4.5 5.4-1.5 7.9-10.1 12.7-13 4.8-2.8 13.5-.9 17.5-4.9 3.9-4 1.8-12.6 4.6-17.6 2.7-4.8 11.3-7.4 12.7-13 1.4-5.6-4.8-12-4.8-17.5zm-38.9-23.2c3.8-3.8 12.2-10.5 12.2-10.5s-6.6 8.5-10.4 12.3c-3.8 3.8-12.3 10.4-12.3 10.4s6.7-8.4 10.5-12.2zm-37.7-16.4l8.6 8.6-8.6 8.6-8.6-8.6 8.6-8.6zm-7.3 56l-8.6 8.6-8.6-8.6 8.6-8.6 8.6 8.6zM240 120.1l8.5-8.6 8.6 8.6-8.6 8.6-8.5-8.6zm15.8 15.8l8.5-8.6 8.6 8.6-8.5 8.5-8.6-8.5zm-1.2-49.8l2.5 2.5-8.6 8.6-4.2-4.2c3.2-2.8 6.6-5.1 10.3-6.9zm-17.5 14l4.2 4.2-8.5 8.5-2.5-2.5c1.9-3.6 4.1-7 6.8-10.2zm-12.9 35.8l8.6-8.6 8.6 8.6-8.6 8.6-8.6-8.6zm12.9 35.9c-2.6-3.2-4.9-6.6-6.8-10.3l2.5-2.5 8.6 8.6-4.3 4.2zm17.5 14c-3.7-1.9-7.1-4.2-10.3-6.8l4.2-4.2 8.6 8.6-2.5 2.4zm9.8-9.7l-8.6-8.6 8.6-8.6 8.6 8.6-8.6 8.6zm15.7 15.6v.1-.1l-8.5-8.4 7.4-7.4c.7-.7 1-1.6 1-2.5v-11.8c0-.9-.4-1.8-1-2.5l-7.4-7.4 8.5-8.5v.1c.4 1.4 3.8 13 3.8 24.5s-3.3 22.6-3.8 23.9zm0-63.2v.1-.1l-8.5-8.4 7.4-7.4c.7-.7 1-1.6 1-2.5V98.5c0-.9-.4-1.8-1-2.5l-7.4-7.4 8.5-8.5v.2c.4 1.4 3.8 13.1 3.8 24.6 0 11.2-3.3 22.3-3.8 23.6zm22 31.2c-3.8-3.8-10.4-12.3-10.4-12.3s8.4 6.8 12.2 10.5c3.8 3.8 10.5 12.2 10.5 12.2s-8.5-6.6-12.3-10.4zm7.1-20.9c-12.2 0-22.1-2.8-22.1-2.8s9.9-2.8 22.1-2.8c12.2 0 23.3 2.8 23.3 2.8s-11.1 2.8-23.3 2.8z"/></g></svg>