<svg xmlns="http://www.w3.org/2000/svg" viewBox="0 36.1 1400 18.5" enable-background="new 0 36.1 1400 18.5"><path d="M1353.3 54.2c-12.4 0-18.7-3.2-24.7-6.3-5.7-2.9-11-5.7-22-5.7-10.9 0-16.3 2.8-22 5.7-6.1 3.1-12.3 6.3-24.7 6.3s-18.7-3.2-24.7-6.3c-5.7-2.9-11-5.7-22-5.7-10.9 0-16.3 2.8-22 5.7-6.1 3.1-12.3 6.3-24.7 6.3s-18.7-3.2-24.7-6.3c-5.7-2.9-11-5.7-22-5.7-10.9 0-16.3 2.8-22 5.7-6.1 3.1-12.3 6.3-24.7 6.3s-18.7-3.2-24.7-6.3c-5.7-2.9-11-5.7-22-5.7s-16.3 2.8-22 5.7c-6.1 3.1-12.3 6.3-24.7 6.3-12.4 0-18.7-3.2-24.7-6.3-5.7-2.9-11-5.7-22-5.7-10.9 0-16.3 2.8-22 5.7-6.1 3.1-12.3 6.3-24.7 6.3S868 51 861.9 47.9c-5.7-2.9-11-5.7-22-5.7s-16.3 2.8-22 5.7c-6.1 3.1-12.3 6.3-24.7 6.3s-18.7-3.2-24.7-6.3c-5.7-2.9-11-5.7-22-5.7-10.9 0-16.3 2.8-22 5.7-6.1 3.1-12.3 6.3-24.7 6.3s-18.7-3.2-24.7-6.3c-5.7-2.9-11-5.7-22-5.7-10.9 0-16.3 2.8-22 5.7-6.1 3.1-12.3 6.3-24.7 6.3-12.4 0-18.7-3.2-24.7-6.3-5.7-2.9-11-5.7-22-5.7s-16.3 2.8-22 5.7c-6.1 3.1-12.3 6.3-24.7 6.3-12.4 0-18.7-3.2-24.7-6.3-5.7-2.9-11-5.7-22-5.7s-16.3 2.8-22 5.7c-6.1 3.1-12.3 6.3-24.7 6.3s-18.7-3.2-24.7-6.3c-5.7-2.9-11-5.7-22-5.7-10.9 0-16.3 2.8-22 5.7-6.1 3.1-12.3 6.3-24.7 6.3-12.4 0-18.7-3.2-24.7-6.3-5.7-2.9-11-5.7-22-5.7-10.9 0-16.3 2.8-22 5.7-6.1 3.1-12.3 6.3-24.7 6.3s-18.7-3.2-24.7-6.3c-5.7-2.9-11-5.7-22-5.7-10.9 0-16.3 2.8-22 5.7-6.1 3.1-12.3 6.3-24.7 6.3-12.4 0-18.7-3.2-24.7-6.3-5.7-2.9-11-5.7-22-5.7-10.9 0-16.3 2.8-22 5.7-6.1 3.1-12.3 6.3-24.7 6.3-11.7 0-18-3.2-24-6.3-5.7-2.9-11-5.7-22-5.7v-6c12.4 0 18.7 3.2 24.7 6.3 5.7 2.9 11 5.7 22 5.7 10.9 0 16.3-2.8 22-5.7 6.1-3.1 12.3-6.3 24.7-6.3 12.4 0 18.7 3.2 24.7 6.3 5.7 2.9 11 5.7 22 5.7 10.9 0 16.3-2.8 22-5.7 6.1-3.1 12.3-6.3 24.7-6.3 12.4 0 18.7 3.2 24.7 6.3 5.7 2.9 11 5.7 22 5.7s16.3-2.8 22-5.7c6.1-3.1 12.3-6.3 24.7-6.3 12.4 0 18.6 3.2 24.7 6.3 5.7 2.9 11 5.7 22 5.7s16.3-2.8 22-5.7c6.1-3.1 12.3-6.3 24.7-6.3 12.4 0 18.7 3.2 24.7 6.3 5.7 2.9 11 5.7 22 5.7 10.9 0 16.3-2.8 22-5.7 6.1-3.1 12.3-6.3 24.7-6.3 12.4 0 18.7 3.2 24.7 6.3 5.7 2.9 11 5.7 22 5.7 10.9 0 16.3-2.8 22-5.7 6.1-3.1 12.3-6.3 24.7-6.3s18.7 3.2 24.7 6.3c5.7 2.9 11 5.7 22 5.7 10.9 0 16.3-2.8 22-5.7 6.1-3.1 12.3-6.3 24.7-6.3 12.4 0 18.7 3.2 24.7 6.3 5.7 2.9 11 5.7 22 5.7s16.3-2.8 22-5.7c6.1-3.1 12.3-6.3 24.7-6.3s18.7 3.2 24.7 6.3c5.7 2.9 11 5.7 22 5.7s16.3-2.8 22-5.7c6.1-3.1 12.3-6.3 24.7-6.3s18.7 3.2 24.7 6.3c5.7 2.9 11 5.7 22 5.7s16.3-2.8 22-5.7c6.1-3.1 12.3-6.3 24.7-6.3s18.7 3.2 24.7 6.3c5.7 2.9 11 5.7 22 5.7 10.9 0 16.3-2.8 22-5.7 6.1-3.1 12.3-6.3 24.7-6.3s18.7 3.2 24.7 6.3c5.7 2.9 11 5.7 22 5.7s16.3-2.8 22-5.7c6.1-3.1 12.3-6.3 24.7-6.3 12.4 0 18.7 3.2 24.7 6.3 5.7 2.9 11 5.7 22 5.7 10.9 0 16.3-2.8 22-5.7 6.1-3.1 12.3-6.3 24.7-6.3s18.7 3.2 24.7 6.3c5.7 2.9 11 5.7 22 5.7 10.9 0 16.3-2.8 22-5.7 6.1-3.1 12.3-6.3 24.7-6.3 12.4 0 18.7 3.2 24.7 6.3 5.7 2.9 11 5.7 22 5.7 10.9 0 16.3-2.8 22-5.7 6.1-3.1 12.3-6.3 24.7-6.3v6c-10.9 0-16.3 2.8-22 5.7-7 3.1-13.3 6.3-25.7 6.3z"/></svg>