<svg xmlns="http://www.w3.org/2000/svg" viewBox="0 0 760 103" enable-background="new 0 0 760 103"><path fill="#231F20" d="M85.8 1.8v25.5H57.7v72.5H28.4V27.3H1.8V1.8h84z"/><path fill="#E5C64F" d="M59.5 101.6H26.6V29.1H0V0h87.6v29.1H59.5v72.5zM30.2 98h25.7V25.5H84V3.6H3.6v21.9h26.6V98z"/><path fill="#231F20" d="M161.6 1.8h28.8v98h-28.8V62.1h-29.2v37.7h-28.8v-98h28.8v33.6h29.2V1.8z"/><path fill="#E5C64F" d="M192.2 101.6h-32.4V63.9h-25.6v37.7h-32.4V0h32.4v33.6h25.6V0h32.4v101.6zM163.4 98h25.2V3.6h-25.2v33.6h-32.8V3.6h-25.2V98h25.2V60.3h32.8V98z"/><path fill="#231F20" d="M291.9 27h-53v12h44.7v22.6h-44.7V75h54v24.9l-82.8.1V1.8h81.8V27z"/><path fill="#E5C64F" d="M208.3 101.8V0h85.4v28.7h-53v8.4h44.7v26.2h-44.7v9.8h54v28.5l-86.4.2zm3.6-98.2v94.6l79.2-.1V76.7h-54v-17h44.7v-19h-44.7V25.2h53V3.6h-78.2z"/><path fill="#231F20" d="M419 1.8V27h-48.7v13.9h40v23.6h-40v35.4h-28.9v-98H419z"/><path fill="#E5C64F" d="M372.1 101.6h-32.5V0h81.2v28.7h-48.7V39h40v27.2h-40v35.4zm-29-3.6h25.3V62.6h40v-20h-40V25.2h48.7V3.6H343V98z"/><path fill="#231F20" d="M480.5.3C513.6.1 531 23 531 50.9s-17.5 50.3-50.5 50.3c-34.7 0-51-22.7-51-50.5S445.8.3 480.5.3zm.4 80.6c13.8 0 20.6-13.8 20.4-30.2-.4-15.8-6.6-30-20.4-30-15.9 0-22.1 13.2-22.1 30.9-.2 16.5 5.8 29.3 22.1 29.3z"/><path fill="#E5C64F" d="M480.5 103c-39 0-52.8-27-52.8-52.3 0-32.1 20.2-52.1 52.8-52.1h.5c16 0 29.3 5.4 38.6 15.5 8.5 9.3 13.2 22.4 13.2 36.9s-4.7 27.6-13.4 36.8c-9.2 9.9-22.7 15.2-38.9 15.2zM481 2.1h-.5c-15.8 0-28.6 4.9-37.2 14.1-7.9 8.5-12 20.4-12 34.4s4.2 25.9 12 34.5c8.6 9.3 21.4 14.3 37.2 14.3 29.6 0 48.7-19 48.7-48.5 0-13.6-4.4-25.8-12.3-34.4C508.4 7.1 496 2.1 481 2.1zm-.1 80.6c-6.7 0-12.1-2-16.1-6.1-5.2-5.2-7.9-13.9-7.8-25 0-21.1 8.5-32.7 23.9-32.7 10.4 0 21.6 8.4 22.2 31.8.2 11.1-2.9 20.7-8.4 26.3-3.8 3.8-8.4 5.7-13.8 5.7zm0-60.2c-9.3 0-20.3 5-20.3 29.1-.1 10.2 2.3 18 6.8 22.5 3.3 3.3 7.9 5 13.5 5 4.4 0 8.2-1.6 11.2-4.6 4.8-4.9 7.5-13.5 7.4-23.7-.4-13.7-5.4-28.3-18.6-28.3z"/><path fill="#231F20" d="M598 .3c33-.2 50.5 22.7 50.5 50.6S631 101.2 598 101.2c-34.7 0-51-22.7-51-50.5S563.3.3 598 .3zm.3 80.6c13.8 0 20.6-13.8 20.4-30.2-.4-15.8-6.6-30-20.4-30-15.9 0-22.1 13.2-22.1 30.9-.1 16.5 5.9 29.3 22.1 29.3z"/><path fill="#E5C64F" d="M598 103c-39 0-52.8-27-52.8-52.3 0-32.1 20.2-52.1 52.8-52.1h.5c16 0 29.3 5.4 38.6 15.5 8.5 9.3 13.2 22.4 13.2 36.9s-4.7 27.6-13.4 36.8c-9.3 9.9-22.8 15.2-38.9 15.2zm.5-100.9h-.5c-15.8 0-28.6 4.9-37.2 14.1-7.9 8.5-12 20.4-12 34.4s4.2 25.9 12 34.5c8.6 9.3 21.4 14.3 37.2 14.3 29.6 0 48.7-19 48.7-48.5 0-13.6-4.4-25.8-12.3-34.4-8.5-9.4-21-14.4-35.9-14.4zm-.2 80.6c-6.7 0-12.1-2-16.1-6.1-5.2-5.2-7.9-13.9-7.8-25 0-21.1 8.5-32.7 23.9-32.7 10.4 0 21.6 8.4 22.2 31.8.2 11.1-2.9 20.7-8.4 26.3-3.7 3.8-8.4 5.7-13.8 5.7zm0-60.2c-9.3 0-20.3 5-20.3 29.1-.1 10.2 2.3 18 6.8 22.5 3.3 3.3 7.9 5 13.5 5 4.4 0 8.2-1.6 11.2-4.6 4.8-4.9 7.5-13.5 7.4-23.7-.3-13.7-5.4-28.3-18.6-28.3z"/><path fill="#231F20" d="M666.6 1.8h40.8c31.7 0 50.8 19.9 50.9 46.9-.4 27.5-15.1 51.3-47.4 51.2l-44.3.1V1.8zm35.9 25.3h-7.1v49h7.6c15.8 0 25.6-11.7 26-25.9.4-13.7-9.6-23.1-26.5-23.1z"/><path fill="#E5C64F" d="M664.8 101.8V0h42.6c31.4 0 52.6 19.6 52.7 48.7-.2 14.9-4.4 27.7-12.1 37-8.6 10.4-21.4 16-36.8 16h-.3l-46.1.1zm3.6-98.2v94.6l42.5-.1h.3c32.9 0 45-25.5 45.3-49.4-.1-13-4.6-24.1-13-32.2-8.9-8.5-21.3-12.9-36.2-12.9h-38.9zm34.5 74.2h-9.4V25.3h8.9c9.5 0 17.1 2.8 22.2 8 4.2 4.4 6.3 10.2 6.1 16.9-.4 16-12.1 27.6-27.8 27.6zm-5.7-3.6h5.8c13.9 0 23.8-9.9 24.2-24.1.2-5.7-1.6-10.6-5.1-14.3-4.4-4.5-11.2-6.9-19.6-6.9h-5.3v45.3z"/></svg>