<svg xmlns="http://www.w3.org/2000/svg" viewBox="0 0 760 116.3" enable-background="new 0 0 760 116.3"><path fill="#231F20" d="M95.7 3.6V32H64.4v80.9H31.7V32.1H2V3.6h93.7z"/><path fill="#E5C64F" d="M66.4 114.9H29.7V34.1H0V1.6h97.7v32.5H66.4v80.8zm-32.7-4h28.7V30.1h31.3V5.6H4V30h29.7v80.9z"/><path fill="#231F20" d="M180.2 3.6h32.1v109.3h-32.1v-42h-32.5V113h-32.1V3.6h32.1V41h32.5V3.6z"/><path fill="#E5C64F" d="M214.3 114.9h-36.1v-42h-28.5V115h-36.1V1.6h36.1V39h28.5V1.6h36.1v113.3zm-32.1-4h28.1V5.6h-28.1V43h-36.5V5.6h-28.1v105.3h28.1v-42h36.5v42z"/><path fill="#231F20" d="M325.4 31.7h-59.1V45h49.8v25.2h-49.8v15h60.2V113l-92.3.1V3.6h91.2v28.1z"/><path fill="#E5C64F" d="M232.2 115.1V1.6h95.2v32.1h-59.1V43h49.8v29.2h-49.8v11h60.2V115l-96.3.1zm4-109.5V111l88.3-.1V87.2h-60.2v-19h49.8V47h-49.8V29.7h59.1v-24h-87.2z"/><path fill="#231F20" d="M412.7 112.9h-32.1V3.6h56.2c27.5 0 39.5 15.5 39.5 36.8 0 21.2-19.7 39.3-37 39.3h-26.5v33.2zm30-71.1c-.3-7.2-6.3-11.2-12.5-11.2h-17.6V54h19.1c4.8 0 11-4.2 11-12.2z"/><path fill="#E5C64F" d="M414.7 114.9h-36.1V1.6h58.2c26.4 0 41.5 14.1 41.5 38.8 0 10.3-4.6 20.9-12.6 29-7.6 7.7-17.5 12.3-26.4 12.3h-24.5v33.2zm-32.2-4h28.1V77.7h28.5c15.9 0 35-16.7 35-37.3 0-13-4.9-34.7-37.5-34.7h-54.2v105.2zM431.7 56h-21.1V28.6h19.6c7 0 14.2 4.5 14.5 13.1.1 8.9-6.7 14.3-13 14.3zm-17-4h17.1c3.6 0 9-3.3 9-10.2-.2-6.3-5.6-9.2-10.5-9.2h-15.6V52z"/><path fill="#231F20" d="M528.8 3.6v109.3h-32.1V3.6h32.1z"/><path fill="#E5C64F" d="M530.8 114.9h-36.1V1.6h36.1v113.3zm-32.2-4h28.1V5.6h-28.1v105.3z"/><path fill="#231F20" d="M641.9 31.7h-59.1V45h49.8v25.2h-49.8v15H643V113l-92.3.1V3.6h91.2v28.1z"/><path fill="#E5C64F" d="M548.7 115.1V1.6h95.2v32.1h-59.1V43h49.8v29.2h-49.8v11H645V115l-96.3.1zm4-109.5V111l88.3-.1V87.2h-60.2v-19h49.8V47h-49.8V29.7h59.1v-24h-87.2z"/><path fill="#231F20" d="M718.8 43.4c12.1 3.1 30.6 7.8 36.6 22.7 3.3 8 3.9 18.9-2.4 28.7-10.3 15.8-29 19.2-41 19.5-10.1.4-33.2-2.2-44.2-16.5-4.4-5.9-6.1-12-6.7-20.4h32.1c1.9 6.5 4.8 10.5 11.7 12.1 18 2.5 20.7-7.6 19.9-10.3-1.5-5.6-15.1-7.5-24.5-10.5C685.7 64.2 670.2 59 665 45c-2.5-6.7-1.9-20.4 3.4-28.3 8.3-11.8 24-14.6 35.4-14.7 10.5 0 32.5.4 42.3 13.6 3.1 4.2 5.7 11.8 5.9 19.1h-30.9c-2-5.9-7.6-9.5-14.6-9.4-10.6.4-11.8 6.9-11.2 9 1.4 5.1 13.8 6.2 23.5 9.1z"/><path fill="#E5C64F" d="M709.9 116.3c-14 0-33.9-4.5-43.8-17.3-4.4-6-6.5-12.2-7.1-21.5l-.1-2.1h35.8l.4 1.4c1.9 6.6 4.6 9.4 10.1 10.7 1.7.2 3.4.3 4.9.3 6.8 0 10-2.3 11.4-4.3 1.3-1.8 1.4-3.5 1.3-3.9-.8-3.2-9.1-5.3-15.7-7.1-2.5-.7-5.1-1.3-7.4-2.1-13.7-4.2-30.8-9.5-36.5-24.9-2.8-7.6-2-21.8 3.6-30.1 4.9-7 15.3-15.3 37-15.6h.1c9.2 0 33.2 0 43.9 14.4 3.6 4.9 6.1 13 6.2 20.2v2h-34.4l-.5-1.3c-1.7-5-6.4-8.1-12.3-8.1h-.3c-5.2.2-7.5 2-8.5 3.4s-.9 2.7-.8 2.9v.1c.7 2.6 7.7 4.2 13.9 5.7 2.7.6 5.5 1.3 8.1 2l.3.1c12.5 3.2 31.3 8.1 37.6 23.8 2 4.9 5.7 17.7-2.6 30.6-11.2 17.1-31.5 20.1-42.6 20.4-.5.3-1.2.3-2 .3zm-46.7-36.9c.7 7.3 2.5 12.4 6.1 17.2 8.9 11.6 27.5 15.7 40.6 15.7h2c10.3-.2 29.2-3 39.4-18.6 7.3-11.2 4-22.5 2.3-26.9-5.6-13.8-23.2-18.4-34.9-21.4l-.4-.1c-2.6-.8-5.3-1.4-8-2-8.3-1.9-15.5-3.6-16.9-8.5-.5-1.6-.3-4.1 1.3-6.4 1.5-2.2 4.8-4.9 11.7-5.1h.4c7.1 0 12.9 3.6 15.5 9.4h27.4c-.5-5.8-2.6-12.1-5.4-15.9C735 4 712.3 4 703.8 4c-11 .1-25.9 2.6-33.7 13.8-5.1 7.6-5.3 20.7-3.2 26.5 5 13.5 21.1 18.5 34 22.5 2.2.7 4.8 1.4 7.3 2 8.8 2.3 17.1 4.5 18.6 9.8.5 1.7.1 4.7-1.9 7.4s-6.2 5.9-14.7 5.9c-1.7 0-3.6-.1-5.5-.4h-.2c-8-1.9-11-6.8-12.7-12.1h-28.6z"/></svg>