<svg xmlns="http://www.w3.org/2000/svg" viewBox="0 0 1075 25" enable-background="new 0 0 1075 25"><path fill="#E5C64F" d="M1038.2 0c-9.2 0-9.2 4-18.4 4s-9.2-4-18.4-4-9.2 4-18.4 4-9.2-4-18.4-4-9.2 4-18.4 4-9.2-4-18.4-4-9.2 4-18.4 4-9.2-4-18.4-4-9.2 4-18.4 4-9.2-4-18.4-4-9.2 4-18.4 4-9.2-4-18.4-4-9.2 4-18.4 4-9.2-4-18.4-4-9.2 4-18.4 4-9.2-4-18.4-4-9.2 4-18.4 4-9.2-4-18.4-4-9.2 4-18.4 4h-.8c-9.2 0-9.2-4-18.4-4s-9.2 4-18.4 4-9.2-4-18.4-4-9.2 4-18.4 4-9.2-4-18.4-4-9.2 4-18.4 4-9.2-4-18.4-4-9.2 4-18.4 4-9.2-4-18.4-4-9.2 4-18.4 4-9.2-4-18.4-4-9.2 4-18.4 4-9.2-4-18.4-4-9.2 4-18.4 4-9.2-4-18.4-4-9.2 4-18.4 4-9.2-4-18.4-4-9.2 4-18.4 4-9.2-4-18.4-4-9.2 4-18.4 4-9.2-4-18.4-4-9.2 4-18.4 4-9.2-4-18.4-4-9.2 4-18.4 4-9.2-4-18.4-4-9.2 4-18.4 4-9.2-4-18.4-4-9.2 4-18.4 4-9.2-4-18.4-4-9.2 4-18.4 4-9.2-4-18.4-4C108 0 108 4 98.8 4c-9.2 0-9.2-4-18.4-4S71.2 4 62 4s-9.2-4-18.4-4-9.2 4-18.4 4S16 0 6.8 0C3.8 0 1.7.4 0 1v25.1h1075V0c-9.2 0-9.2 4-18.4 4s-9.2-4-18.4-4z"/></svg>