<svg xmlns="http://www.w3.org/2000/svg" viewBox="0 0 700 6" enable-background="new 0 0 700 6"><path fill="#231F20" d="M681.6 6c-4.8 0-7.3-1.1-9.6-2.1S667.6 2 663.2 2s-6.5.9-8.8 1.9c-2.4 1-4.8 2.1-9.6 2.1s-7.3-1.1-9.6-2.1-4.4-1.9-8.8-1.9-6.5.9-8.8 1.9c-2.4 1-4.8 2.1-9.6 2.1s-7.3-1.1-9.6-2.1S594 2 589.6 2s-6.5.9-8.8 1.9c-2.4 1-4.8 2.1-9.6 2.1s-7.3-1.1-9.6-2.1-4.4-1.9-8.8-1.9-6.5.9-8.8 1.9c-2.4 1-4.8 2.1-9.6 2.1s-7.3-1.1-9.6-2.1S520.4 2 516 2s-6.5.9-8.8 1.9c-2.4 1-4.8 2.1-9.6 2.1s-7.3-1.1-9.6-2.1-4.4-1.9-8.8-1.9-6.5.9-8.8 1.9c-2.4 1-4.8 2.1-9.6 2.1s-7.3-1.1-9.6-2.1-4.4-1.9-8.8-1.9-6.5.9-8.8 1.9c-2.4 1-4.8 2.1-9.6 2.1s-7.3-1.1-9.6-2.1S410 2 405.6 2s-6.5.9-8.8 1.9c-2.4 1-4.8 2.1-9.6 2.1s-7.3-1.1-9.6-2.1-4.4-1.9-8.8-1.9-6.5.9-8.8 1.9c-2.4 1-4.8 2.1-9.6 2.1s-7.3-1.1-9.6-2.1S336.4 2 332 2s-6.5.9-8.8 1.9c-2.4 1-4.8 2.1-9.6 2.1s-7.3-1.1-9.6-2.1-4.4-1.9-8.8-1.9-6.5.9-8.8 1.9c-2.4 1-4.8 2.1-9.6 2.1s-7.3-1.1-9.6-2.1-4.4-1.9-8.8-1.9-6.5.9-8.8 1.9c-2.4 1-4.8 2.1-9.6 2.1s-7.3-1.1-9.6-2.1S226 2 221.6 2s-6.5.9-8.8 1.9c-2.4 1-4.8 2.1-9.6 2.1s-7.3-1.1-9.6-2.1-4.4-1.9-8.8-1.9-6.5.9-8.8 1.9c-2.4 1-4.8 2.1-9.6 2.1s-7.3-1.1-9.6-2.1S152.4 2 148 2s-6.5.9-8.8 1.9c-2.4 1-4.8 2.1-9.6 2.1s-7.3-1.1-9.6-2.1-4.4-1.9-8.8-1.9-6.5.9-8.8 1.9C100 4.9 97.6 6 92.8 6s-7.3-1.1-9.6-2.1S78.8 2 74.4 2s-6.5.9-8.8 1.9C63.2 4.9 60.8 6 56 6s-7.2-1.1-9.6-2.1C44.1 2.9 42 2 37.6 2s-6.5.9-8.8 1.9C26.4 4.9 24 6 19.2 6s-7.3-1.1-9.6-2.1C6.5 2.9 4.4 2 0 2V0c4.8 0 7.2 1.1 9.6 2.1C11.9 3.1 14 4 18.4 4s6.5-.9 8.8-1.9C29.6 1.1 32 0 36.8 0s7.2 1.1 9.6 2.1c2.3 1 4.4 1.9 8.8 1.9s6.5-.9 8.8-1.9c2.4-1 4.8-2.1 9.6-2.1s7.3 1.1 9.6 2.1S87.6 4 92 4s6.5-.9 8.8-1.9c2.4-1 4.8-2.1 9.6-2.1s7.3 1.1 9.6 2.1 4.4 1.9 8.8 1.9 6.5-.9 8.8-1.9c2.4-1 4.8-2.1 9.6-2.1s7.3 1.1 9.6 2.1 4.4 1.9 8.8 1.9 6.5-.9 8.8-1.9c2.4-1 4.8-2.1 9.6-2.1s7.3 1.1 9.6 2.1S198 4 202.4 4s6.5-.9 8.8-1.9c2.4-1 4.8-2.1 9.6-2.1s7.3 1.1 9.6 2.1 4.4 1.9 8.8 1.9 6.5-.9 8.8-1.9c2.4-1 4.8-2.1 9.6-2.1s7.3 1.1 9.6 2.1S271.6 4 276 4s6.5-.9 8.8-1.9c2.4-1 4.8-2.1 9.6-2.1s7.3 1.1 9.6 2.1 4.4 1.9 8.8 1.9 6.5-.9 8.8-1.9c2.4-1 4.8-2.1 9.6-2.1s7.3 1.1 9.6 2.1 4.4 1.9 8.8 1.9 6.5-.9 8.8-1.9c2.4-1 4.8-2.1 9.6-2.1s7.3 1.1 9.6 2.1S382 4 386.4 4s6.5-.9 8.8-1.9c2.4-1 4.8-2.1 9.6-2.1s7.3 1.1 9.6 2.1 4.4 1.9 8.8 1.9 6.5-.9 8.8-1.9c2.4-1 4.8-2.1 9.6-2.1s7.3 1.1 9.6 2.1S455.6 4 460 4s6.5-.9 8.8-1.9c2.4-1 4.8-2.1 9.6-2.1s7.3 1.1 9.6 2.1 4.4 1.9 8.8 1.9 6.5-.9 8.8-1.9c2.4-1 4.8-2.1 9.6-2.1s7.3 1.1 9.6 2.1 4.4 1.9 8.8 1.9 6.5-.9 8.8-1.9c2.4-1 4.8-2.1 9.6-2.1s7.3 1.1 9.6 2.1S566 4 570.4 4s6.5-.9 8.8-1.9c2.4-1 4.8-2.1 9.6-2.1s7.3 1.1 9.6 2.1 4.4 1.9 8.8 1.9 6.5-.9 8.8-1.9c2.4-1 4.8-2.1 9.6-2.1s7.3 1.1 9.6 2.1S639.6 4 644 4s6.5-.9 8.8-1.9c2.4-1 4.8-2.1 9.6-2.1s7.3 1.1 9.6 2.1 4.4 1.9 8.8 1.9 6.5-.9 8.8-1.9c2.4-1 4.8-2.1 9.6-2.1v2c-4.4 0-6.5.9-8.8 1.9-1.6 1-4 2.1-8.8 2.1z"/></svg>