<svg xmlns="http://www.w3.org/2000/svg" viewBox="0 0 478 435" enable-background="new 0 0 478 435"><path fill="#231F20" d="M177.8 29.7h-58.4v13.2h49.2v24.9h-49.2v14.8h59.5V110l-91.2.1V2h90.1v27.7zM268.2 2l39.6 108.3h-33.4l-5-14.8h-36.3l-5.4 14.5h-32.2L235.8 2h32.4zm-7 71l-9.4-26.1L241.4 73h19.8zM391.3 2v28.1h-30.9V110h-32.3V30.1h-29.3V2h92.5zM59 220.5l15.5-57.1H117v108H87.3v-58.9l-16.5 58.9H46.9l-15.5-60.3v60.3H2v-108h42.7L59 220.5zM192.5 161.8c36.5-.3 55.7 25 55.7 55.7 0 30.7-19.2 55.4-55.7 55.4-38.2 0-56.2-25-56.2-55.7 0-30.6 18-55.4 56.2-55.4zm.4 88.8c15.2 0 22.7-15.2 22.5-33.2-.4-17.4-7.3-33.1-22.5-33.1-17.5 0-24.4 14.5-24.4 34-.1 18.2 6.5 32.3 24.4 32.3zM322.2 163.4c13.2 0 28.8 1.3 38.2 15.7 5.1 7.5 5.2 19.1 2.2 26.2-3.4 7.8-8.6 12.4-16.7 15.5 16.3 6.9 16.3 25.2 16.7 36.5.5 5 1.5 10.1 4 14.1h-32.4l-2-12.6c-3.1-25.3-5.5-26.2-24.5-26h-7.8v38.6h-31.8v-108h54.1zm9.4 36.1c-.4-7.4-6.3-11-12.5-11h-19.2v21.8h20.7c4.7 0 11-2.9 11-10.8zM474.7 191.2h-58.4v13.2h49.2v24.9h-49.2V244h59.5v27.4l-91.2.1V163.4h90.1v27.8zM115.5 432.9H83.7v-108h55.6c27.2 0 39 15.3 39 36.3 0 21-19.5 38.9-36.6 38.9h-26.2v32.8zm29.7-70.3c-.3-7.1-6.2-11-12.4-11h-17.4v23.1h18.8c4.8 0 11-4.2 11-12.1zM230.2 324.9v108h-31.8v-108h31.8zM342.1 352.6h-58.4v13.2h49.2v24.9h-49.2v14.8h59.5v27.4l-91.2.1V324.9h90.1v27.7zM393.2 433.1L364 433v-30.7h29.2v30.8z"/><g fill="#E5C64F"><path d="M180.8 80.6h-59.5V69.8h49.2V40.9h-49.2v-9.2h58.4V0H85.6v112.1l95.2-.1V80.6zm-3.9 27.4l-87.3.1V4h86.2v23.8h-58.4V45h49.2v20.9h-49.2v18.8h59.5V108zM234.5 97.5H268l5 14.8h37.6L269.6 0h-35.2l-41.7 112h36.4l5.4-14.5zM198.4 108L237.1 4h29.7l38.1 104.3h-29.1l-5-14.8h-39.1l-5.4 14.5h-27.9zM251.9 41.3L238.5 75H264l-12.1-33.7zm-.2 11.2l6.7 18.5h-14l7.3-18.5zM326.1 112h36.3V32.1h30.9V0h-96.5v32.1h29.3V112zm-25.4-83.9V4h88.6v24.2h-30.9V108H330V28.1h-29.3zM85.3 273.5H119v-112H73l-13.9 51.2-12.9-51.2H0v112h33.4v-46.6l12 46.6h26.9L85.4 227v46.5zm-16.1-4H48.5l-19-74v74H4V165.4h39.1L59 228.3l17-62.9h39v104.1H89.3v-71.3l-20.1 71.3zM192.9 182.3c-17 0-26.3 12.8-26.3 36-.1 12.3 2.9 21.8 8.6 27.6 4.4 4.4 10.4 6.7 17.7 6.7 6 0 11.1-2.1 15.2-6.3 6.1-6.1 9.4-16.7 9.2-29-.5-25.8-13-35-24.4-35zm12.4 61.2c-3.3 3.4-7.5 5.1-12.4 5.1-6.3 0-11.3-1.9-14.9-5.5-5-5-7.5-13.6-7.5-24.8 0-26.5 12.2-32.1 22.4-32.1 14.6 0 20.1 16.1 20.5 31.1.2 11.3-2.8 20.9-8.1 26.2zM235.6 176.9c-10.2-11.2-24.9-17.1-42.6-17.1h-.6c-35.9 0-58.2 22-58.2 57.4 0 27.9 15.3 57.7 58.2 57.7 17.8 0 32.7-5.8 43-16.8 9.5-10.2 14.7-24.6 14.7-40.6.1-15.9-5.1-30.4-14.5-40.6zM192.5 271c-17.4 0-31.5-5.4-41-15.7-8.7-9.4-13.3-22.6-13.3-38 0-15.4 4.6-28.5 13.3-37.9 9.4-10.2 23.6-15.6 41-15.6h.6c16.5 0 30.2 5.5 39.6 15.8 8.7 9.5 13.5 23 13.5 38 0 32.4-21.1 53.4-53.7 53.4zM319.1 186.5h-21.2v25.8h22.7c6.3 0 13-4 13-12.7v-.1c-.5-9-7.8-13-14.5-13zm1.5 21.8h-18.7v-17.8h17.3c4.6 0 10.1 2.4 10.5 9.1-.1 6.8-5.8 8.7-9.1 8.7zM364.4 206.2c3.2-7.3 3.4-19.7-2.3-28.1-9.6-14.6-24.8-16.6-39.9-16.6h-56.1v112h35.7v-38.6h9.4c14.1 0 16 .9 18.9 24.3l2.3 14.3h37.7l-1.9-3c-2.4-3.8-3.3-8.8-3.7-13.2v-1.2c-.3-10.2-.9-26.8-14-35 6.6-3.4 11-8.1 13.9-14.9zM345.2 219l-4.6 1.8 4.5 1.9c14.5 6.1 15.1 22.5 15.4 33.4V257.5c.4 3.8 1.1 8.1 2.7 11.9h-27.5l-1.7-10.9c-3-24.4-5.8-27.7-22.8-27.7h-13.4v38.6H270v-104h52.1c13.9 0 28 1.8 36.6 14.9 4.8 7.1 4.8 17.9 2 24.3-3 7.1-7.7 11.4-15.5 14.4zM418.2 242.1v-10.8h49.2v-28.9h-49.2v-9.2h58.4v-31.7h-94.1v112.1l95.2-.1v-31.4h-59.5zm55.5 27.4l-87.3.1V165.4h86.2v23.8h-58.4v17.2h49.2v20.9h-49.2V246h59.5v23.5zM139.3 322.9H81.7v112h35.7v-32.8h24.3c8.8 0 18.6-4.5 26.1-12.2 7.9-8 12.5-18.5 12.5-28.7 0-24.3-15-38.3-41-38.3zm2.4 75.2h-28.2V431H85.7V326.9h53.6c32.2 0 37 21.5 37 34.3 0 20.5-18.9 36.9-34.6 36.9zM132.8 349.6h-19.3v27.1h20.8c6.2 0 12.9-5.4 12.9-14.2-.3-8.5-7.5-12.9-14.4-12.9zm1.5 23.1h-16.9v-19.2h15.4c4.8 0 10.2 2.9 10.4 9.1 0 6.9-5.3 10.1-8.9 10.1zM196.5 434.9h35.7v-112h-35.7v112zm4-108h27.8V431h-27.8V326.9zM285.6 392.7h49.2v-28.9h-49.2v-9.2H344v-31.7h-94.1V435l95.2-.1v-31.4h-59.5v-10.8zm55.5 14.8V431l-87.3.1V326.9H340v23.8h-58.4v17.2h49.2v20.9h-49.2v18.8h59.5zM362 434.9l33.2.2v-34.8H362v34.6zm4-30.6h25.2v26.8L366 431v-26.7z"/></g></svg>