<svg xmlns="http://www.w3.org/2000/svg" viewBox="0 0 760 119.8" enable-background="new 0 0 760 119.8"><path fill="#231F20" d="M68.6 3.7h33.1v112.5H68.6V72.9H35.1v43.3h-33V3.7h33.1v38.5h33.5V3.7z"/><path fill="#E5C64F" d="M103.7 118.3H66.5V75H37.2v43.3H0V1.7h37.2v38.5h29.4V1.7h37.2v116.6zm-33-4.1h28.9V5.8H70.7v38.5H33.1V5.8h-29v108.4H33V70.9h37.6v43.3z"/><path fill="#231F20" d="M157.3 3.7v112.5h-33.1V3.7h33.1z"/><path fill="#E5C64F" d="M159.3 118.3h-37.2V1.7h37.2v116.6zm-33-4.1h28.9V5.8h-28.9v108.4z"/><path fill="#231F20" d="M236.1 44.6c12.5 3.2 31.5 8 37.7 23.4 3.4 8.3 4.1 19.5-2.5 29.6-10.6 16.2-29.8 19.8-42.2 20-10.4.4-34.2-2.2-45.5-17-4.5-6-6.3-12.3-6.9-21h33.1c2 6.7 4.9 10.8 12 12.5 18.5 2.5 21.3-7.8 20.5-10.6-1.5-5.7-15.5-7.7-25.2-10.8-15-4.6-31-9.9-36.3-24.4-2.5-6.9-2-21 3.5-29.1C192.8 5 209 2.2 220.7 2.1c10.8 0 33.5.4 43.6 14 3.2 4.3 5.9 12.2 6 19.6h-31.8c-2.1-6-7.8-9.8-15-9.7-10.9.4-12.2 7.1-11.5 9.2 1.4 5.4 14.2 6.5 24.1 9.4z"/><path fill="#E5C64F" d="M227 119.7c-14.5 0-34.9-4.7-45.1-17.8-4.6-6.1-6.7-12.5-7.3-22.1l-.1-2.2h36.8l.4 1.5c2 6.7 4.7 9.6 10.4 11 1.8.2 3.5.4 5 .4 7 0 10.3-2.4 11.8-4.4 1.4-1.8 1.4-3.6 1.3-4-.9-3.3-9.4-5.5-16.2-7.3-2.6-.7-5.3-1.4-7.7-2.1-14.1-4.4-31.7-9.8-37.6-25.6-2.9-7.8-2-22.4 3.7-31 5-7.2 15.7-15.8 38.1-16h.1c9.4 0 34.2 0 45.2 14.8 3.7 5 6.3 13.4 6.4 20.8v2.1H237l-.5-1.4c-1.8-5.1-6.6-8.3-12.7-8.3h-.3c-5.4.2-7.7 2-8.8 3.5-1 1.5-.9 2.8-.8 3v.1c.7 2.7 7.9 4.4 14.3 5.8 2.8.6 5.7 1.3 8.4 2.1l.4.1c12.8 3.3 32.2 8.3 38.7 24.5 2.1 5.1 5.9 18.2-2.7 31.5-11.6 17.6-32.4 20.7-43.8 21H227zm-48-38c.7 7.5 2.6 12.8 6.3 17.7 9.2 11.9 28.3 16.2 41.8 16.2h2c10.6-.2 30-3 40.5-19.1 7.6-11.6 4.1-23.2 2.3-27.6-5.7-14.3-23.9-19-35.9-22.1l-.4-.1c-2.6-.8-5.5-1.4-8.2-2.1-8.6-2-16-3.7-17.4-8.7-.5-1.6-.3-4.2 1.4-6.6 1.6-2.3 4.9-5 12-5.3h.5c7.3 0 13.3 3.7 16 9.7h28.2c-.5-6-2.7-12.5-5.5-16.3-9.8-13.2-33.1-13.2-41.9-13.2-11.4.1-26.6 2.7-34.7 14.3-5.2 7.8-5.4 21.3-3.3 27.2 5.1 13.9 21.7 19 35 23.1 2.3.7 4.9 1.4 7.5 2.1 9.1 2.4 17.6 4.6 19.1 10.1.5 1.7.1 4.8-1.9 7.6-2.1 2.8-6.3 6-15.1 6-1.8 0-3.7-.1-5.7-.4h-.2c-8.2-1.9-11.3-7-13.1-12.4H179z"/><path fill="#231F20" d="M384.8 3.7V33h-32.2v83.2H319V33h-30.5V3.7h96.3z"/><path fill="#E5C64F" d="M354.6 118.3h-37.7V35.1h-30.5V1.7h100.5v33.4h-32.2v83.2zm-33.6-4.1h29.5V31h32.2V5.8h-92.2V31H321v83.2z"/><path fill="#231F20" d="M453.5 2.1c38-.3 58 26.1 58 58s-20 57.7-58 57.7c-39.8 0-58.6-26.1-58.6-58s18.8-57.7 58.6-57.7zm.4 92.4c15.8 0 23.7-15.8 23.4-34.6-.4-18.1-7.6-34.5-23.4-34.5-18.2 0-25.4 15.1-25.4 35.4-.1 19 6.8 33.7 25.4 33.7z"/><path fill="#E5C64F" d="M453.5 119.8c-44.7 0-60.6-31-60.6-60.1 0-36.9 23.2-59.8 60.6-59.8h.6c18.3 0 33.7 6.1 44.3 17.8 9.8 10.7 15.1 25.7 15.1 42.3 0 16.7-5.4 31.7-15.3 42.2-10.7 11.6-26.1 17.6-44.7 17.6zm.6-115.7h-.6c-18.1 0-32.9 5.6-42.7 16.2-9 9.8-13.8 23.4-13.8 39.4 0 16.1 4.8 29.8 13.8 39.6 9.8 10.7 24.6 16.4 42.7 16.4 34 0 55.9-21.8 55.9-55.6 0-15.6-5-29.6-14.1-39.5-9.8-10.8-24-16.5-41.2-16.5zm-.2 92.5c-7.7 0-13.9-2.3-18.5-7-6-6-9.1-15.9-9-28.7 0-24.2 9.7-37.5 27.4-37.5 11.9 0 24.8 9.6 25.5 36.5.2 12.8-3.3 23.8-9.6 30.2-4.2 4.3-9.5 6.5-15.8 6.5zm0-69.1c-10.6 0-23.3 5.8-23.3 33.4-.1 11.7 2.6 20.6 7.8 25.8 3.8 3.8 9 5.8 15.5 5.8 5.1 0 9.4-1.8 12.9-5.3 5.5-5.6 8.6-15.5 8.4-27.2-.3-15.7-6.1-32.5-21.3-32.5z"/><path fill="#231F20" d="M588.5 3.7c13.7 0 30 1.4 39.8 16.4 5.3 7.8 5.5 19.9 2.2 27.3-3.5 8.1-9 12.9-17.4 16.1 16.9 7.1 16.9 26.2 17.4 38 .6 5.2 1.5 10.5 4.2 14.7H601l-2.1-13.2c-3.2-26.3-5.7-27.3-25.5-27h-8.1v40.2h-33.1V3.7h56.3zm9.9 37.6c-.4-7.7-6.6-11.5-13-11.5h-20v22.7H587c4.8 0 11.4-2.9 11.4-11.2z"/><path fill="#E5C64F" d="M638.5 118.3h-39.3l-2.4-14.9c-3-24.4-5-25.3-19.7-25.3h-9.8v40.2h-37.2V1.7h58.4C604.2 1.7 620 3.8 630 19c6 8.8 5.7 21.7 2.4 29.3-3 7.1-7.6 12-14.5 15.4 13.7 8.5 14.2 25.7 14.6 36.4v1.3c.5 4.6 1.4 9.8 3.9 13.8l2.1 3.1zm-35.7-4.1h28.6c-1.7-4-2.4-8.5-2.8-12.4V100.4c-.4-11.3-1-28.4-16.1-34.8l-4.7-2 4.8-1.8c8.2-3.1 13-7.6 16.2-15 2.9-6.7 2.9-18-2.1-25.3C617.8 7.9 603.1 6 588.6 6h-54.2v108.4h28.9V74h14c17.8 0 20.7 3.5 23.8 28.9l1.7 11.3zm-15.9-59.6h-23.6V27.7h22.1c6.9 0 14.6 4.2 15.1 13.4v.1c-.1 9.2-7.1 13.4-13.6 13.4zm-19.5-4.2h19.5c3.5 0 9.4-1.9 9.4-9.1-.4-7-6.2-9.5-11-9.5h-18v18.6z"/><path fill="#231F20" d="M678.4 3.7l19.8 37.8 21.6-37.8h36.7L715.1 78v38.2h-34.9V78L641.7 3.7h36.7z"/><path fill="#E5C64F" d="M717.2 118.3h-39V78.5L638.4 1.7h41.3l18.6 35.6 20.3-35.6H760l-42.8 76.8v39.8zm-34.9-4.1h30.8V77.5L753 5.8h-32l-22.9 40.1-20.9-40.1h-32.1l37.2 71.7v36.7z"/></svg>