<svg xmlns="http://www.w3.org/2000/svg" viewBox="0 36.1 700 9.2" enable-background="new 0 36.1 700 9.2"><path d="M676.7 45.2c-6.2 0-9.3-1.6-12.4-3.2-2.8-1.5-5.5-2.8-11-2.8s-8.1 1.4-11 2.8c-3 1.6-6.2 3.2-12.4 3.2s-9.3-1.6-12.4-3.2c-2.8-1.5-5.5-2.8-11-2.8s-8.1 1.4-11 2.8c-3 1.6-6.2 3.2-12.4 3.2s-9.3-1.6-12.4-3.2c-2.8-1.5-5.5-2.8-11-2.8s-8.1 1.4-11 2.8c-3 1.6-6.2 3.2-12.4 3.2s-9.3-1.6-12.4-3.2c-2.8-1.5-5.5-2.8-11-2.8s-8.1 1.4-11 2.8c-3 1.6-6.2 3.2-12.4 3.2s-9.3-1.6-12.4-3.2c-2.8-1.5-5.5-2.8-11-2.8s-8.1 1.4-11 2.8c-3 1.6-6.2 3.2-12.4 3.2s-9.3-1.6-12.4-3.2c-2.8-1.5-5.5-2.8-11-2.8s-8.1 1.4-11 2.8c-3 1.6-6.2 3.2-12.4 3.2s-9.3-1.6-12.4-3.2c-2.8-1.5-5.5-2.8-11-2.8s-8.1 1.4-11 2.8c-3 1.6-6.2 3.2-12.4 3.2s-9.3-1.6-12.4-3.2c-2.8-1.5-5.5-2.8-11-2.8s-8.1 1.4-11 2.8c-3 1.6-6.2 3.2-12.4 3.2s-9.3-1.6-12.4-3.2c-2.8-1.5-5.5-2.8-11-2.8s-8.1 1.4-11 2.8c-3 1.6-6.2 3.2-12.4 3.2s-9.3-1.6-12.4-3.2c-2.8-1.5-5.5-2.8-11-2.8s-8.1 1.4-11 2.8c-3 1.6-6.2 3.2-12.4 3.2s-9.3-1.6-12.4-3.2c-2.8-1.5-5.5-2.8-11-2.8s-8.1 1.4-11 2.8c-3 1.6-6.2 3.2-12.4 3.2s-9.3-1.6-12.4-3.2c-2.8-1.5-5.5-2.8-11-2.8s-8.1 1.4-11 2.8c-3 1.6-6.2 3.2-12.4 3.2s-9.3-1.6-12.4-3.2c-2.8-1.5-5.5-2.8-11-2.8s-8.1 1.4-11 2.8c-3 1.6-6.2 3.2-12.4 3.2S59 43.6 55.9 42c-2.8-1.5-5.5-2.8-11-2.8s-8.1 1.4-11 2.8c-3 1.6-6.2 3.2-12.4 3.2S12.2 43.6 9.1 42c-2.8-1.5-5.5-2.8-11-2.8v-3c6.2 0 9.3 1.6 12.4 3.2 2.8 1.5 5.5 2.8 11 2.8s8.1-1.4 11-2.8c3-1.6 6.2-3.2 12.4-3.2s9.3 1.6 12.4 3.2c2.8 1.5 5.5 2.8 11 2.8s8.1-1.4 11-2.8c3-1.6 6.2-3.2 12.4-3.2s9.3 1.6 12.4 3.2c2.8 1.5 5.5 2.8 11 2.8s8.1-1.4 11-2.8c3-1.6 6.2-3.2 12.4-3.2s9.3 1.6 12.4 3.2c2.8 1.5 5.5 2.8 11 2.8s8.1-1.4 11-2.8c3-1.6 6.2-3.2 12.4-3.2s9.3 1.6 12.4 3.2c2.8 1.5 5.5 2.8 11 2.8s8.1-1.4 11-2.8c3-1.6 6.2-3.2 12.4-3.2s9.3 1.6 12.4 3.2c2.8 1.5 5.5 2.8 11 2.8s8.1-1.4 11-2.8c3-1.6 6.2-3.2 12.4-3.2s9.3 1.6 12.4 3.2c2.8 1.5 5.5 2.8 11 2.8s8.1-1.4 11-2.8c3-1.6 6.2-3.2 12.4-3.2s9.3 1.6 12.4 3.2c2.8 1.5 5.5 2.8 11 2.8s8.1-1.4 11-2.8c3-1.6 6.2-3.2 12.4-3.2s9.3 1.6 12.4 3.2c2.8 1.5 5.5 2.8 11 2.8s8.1-1.4 11-2.8c3-1.6 6.2-3.2 12.4-3.2s9.3 1.6 12.4 3.2c2.8 1.5 5.5 2.8 11 2.8s8.1-1.4 11-2.8c3-1.6 6.2-3.2 12.4-3.2s9.3 1.6 12.4 3.2c2.8 1.5 5.5 2.8 11 2.8s8.1-1.4 11-2.8c3-1.6 6.2-3.2 12.4-3.2s9.3 1.6 12.4 3.2c2.8 1.5 5.5 2.8 11 2.8s8.1-1.4 11-2.8c3-1.6 6.2-3.2 12.4-3.2s9.3 1.6 12.4 3.2c2.8 1.5 5.5 2.8 11 2.8s8.1-1.4 11-2.8c3-1.6 6.2-3.2 12.4-3.2s9.3 1.6 12.4 3.2c2.8 1.5 5.5 2.8 11 2.8s8.1-1.4 11-2.8c3-1.6 6.2-3.2 12.4-3.2s9.3 1.6 12.4 3.2c2.8 1.5 5.5 2.8 11 2.8s8.1-1.4 11-2.8c3-1.6 6.2-3.2 12.4-3.2v3c-5.5 0-8.2 1.4-11 2.8-3.1 1.6-6.2 3.2-12.4 3.2z"/></svg>