<svg xmlns="http://www.w3.org/2000/svg" viewBox="0 0 90 90" enable-background="new 0 0 90 90"><path d="M87.4 38.3c-.9-1.4-1.7-2.8-2.1-4.1-.4-1.4-.3-3.1-.3-4.8.1-2.4.1-4.9-1-6.9-1.2-2.1-3.4-3.2-5.5-4.4-1.5-.8-2.9-1.6-3.9-2.6s-1.8-2.4-2.6-3.9c-1.2-2.1-2.3-4.3-4.4-5.5C66 5.2 64 5 62.3 5H59c-.9 0-2.1 0-3.2-.3-1.4-.4-2.7-1.2-4.1-2.1C49.6 1.3 47.4 0 45 0s-4.6 1.3-6.7 2.6c-1.4.9-2.8 1.7-4.1 2.1-1.1.3-2.3.3-3.2.3h-3.2c-1.7 0-3.7.1-5.3 1.1-2.1 1.2-3.2 3.4-4.4 5.5-.8 1.5-1.6 2.9-2.6 3.9s-2.4 1.8-3.9 2.6c-2.1 1.2-4.3 2.3-5.5 4.4-1.2 2-1.1 4.5-1 6.9 0 1.7.1 3.4-.3 4.8s-1.2 2.7-2.1 4.1C1.3 40.4 0 42.6 0 45s1.3 4.6 2.6 6.7c.9 1.4 1.7 2.8 2.1 4.1.3 1.4.3 3.1.2 4.8-.1 2.4-.1 4.9 1 6.9 1.2 2.1 3.4 3.2 5.5 4.4 1.5.8 2.9 1.6 3.9 2.6s1.8 2.4 2.6 3.9c1.2 2.1 2.3 4.3 4.4 5.5 1.6.9 3.6 1.1 5.3 1.1h3.2c.9 0 2.1 0 3.2.3 1.4.4 2.7 1.2 4.1 2.1 2.1 1.3 4.2 2.6 6.7 2.6 2.4 0 4.6-1.3 6.7-2.6 1.4-.9 2.8-1.7 4.1-2.1 1.3-.3 2.5-.3 3.4-.3h3.2c1.7 0 3.7-.1 5.3-1.1 2.1-1.2 3.2-3.4 4.4-5.5.8-1.5 1.6-2.9 2.6-3.9s2.4-1.8 3.9-2.6c2.1-1.2 4.3-2.3 5.5-4.4 1.2-2 1.1-4.5 1-6.9 0-1.7-.1-3.4.3-4.8s1.2-2.7 2.1-4.1c1.3-2.1 2.6-4.2 2.6-6.7s-1.3-4.6-2.5-6.7zM74.5 20.4c1.8 2.2 3.4 4.6 4.7 7.1l-1.6 1.6-5.9-5.9 2.8-2.8zM23.2 50l5.9 5.9-5.9 5.9-5.9-5.9 5.9-5.9zm0-10l-5.9-5.9 5.9-5.9 5.9 5.9-5.9 5.9zm1.3 5L45 24.5 65.4 45 45 65.5 24.5 45zm42.2 5l5.9 5.9-5.9 5.9-5.9-5.9 5.9-5.9zm-5.9-15.9l5.9-5.9 5.9 5.9-5.9 5.9-5.9-5.9zm1.6-23.3c2.5 1.3 4.9 2.9 7.1 4.7l-2.8 2.8-5.9-5.9 1.6-1.6zm-6.6 6.6l5.9 5.9-5.9 5.9-5.9-5.9 5.9-5.9zM44.9 6.6h.2l5.8 5.8-5.9 5.9-5.9-5.9 5.8-5.8zM34.1 17.4l5.9 5.9-5.9 5.9-5.9-5.9 5.9-5.9zm-6.6-6.6l1.6 1.6-5.9 5.9-2.8-2.8c2.2-1.8 4.6-3.4 7.1-4.7zm-12.1 9.6l2.8 2.8-5.9 5.9-1.6-1.6c1.4-2.5 2.9-4.9 4.7-7.1zM6.6 45.1s0-.1 0 0v-.2l5.8-5.8 5.9 5.9-5.9 5.9-5.8-5.8zm8.8 24.5c-1.8-2.2-3.4-4.6-4.7-7.1l1.6-1.6 5.9 5.9-2.8 2.8zm12.1 9.6c-2.5-1.3-4.9-2.9-7.1-4.7l2.8-2.8 5.9 5.9-1.6 1.6zm6.6-6.6l-5.9-5.9 5.9-5.9 5.9 5.9-5.9 5.9zm11 10.8h-.2l-5.8-5.8 5.9-5.9 5.9 5.9-5.8 5.8zm10.7-10.8l-5.9-5.9 5.9-5.9 5.9 5.9-5.9 5.9zm6.6 6.6l-1.6-1.6 5.9-5.9 2.8 2.8c-2.1 1.8-4.5 3.4-7.1 4.7zm12.1-9.6l-2.8-2.8 5.9-5.9 1.6 1.6c-1.3 2.5-2.9 4.9-4.7 7.1zm8.9-24.5l-5.8 5.8-5.9-5.9 5.9-5.9 5.8 5.8v.2zM41.5 34.3l1.3 5 1.1-5h2.4l1.1 4.9 1.3-4.9h2.6l-2.7 9H46l-1-4.8-1 4.8h-2.7l-2.4-9h2.6zM48 50.6v5.6c0 2-1.5 3.4-3.3 3.5-1.9.1-3.5-1.4-3.5-3.3v-.7h2.6v.9c0 .4.4.8.8.8s.8-.4.8-.8v-6.1H48zM53.2 47.4c-.8 0-1.2-.3-1.6-.5-.3-.2-.5-.3-1-.3s-.7.1-1 .3c-.3.2-.8.5-1.6.5s-1.2-.3-1.6-.5c-.3-.2-.5-.3-1-.3s-.7.1-1 .3c-.3.2-.8.5-1.6.5s-1.2-.3-1.6-.5c-.3-.2-.5-.3-1-.3s-.7.1-1 .3c-.3.2-.8.5-1.6.5v-1.1c.5 0 .7-.1 1-.3.3-.2.8-.5 1.6-.5s1.2.3 1.6.5c.3.2.5.3 1 .3s.7-.1 1-.3c.3-.2.8-.5 1.6-.5s1.2.3 1.6.5c.3.2.5.3 1 .3s.7-.1 1-.3c.3-.2.8-.5 1.6-.5s1.2.3 1.6.5c.3.2.5.3 1 .3v1.1z"/></svg>