<svg xmlns="http://www.w3.org/2000/svg" viewBox="0 0 30 30" enable-background="new 0 0 30 30"><path d="M15 0C6.7 0 0 6.7 0 15s6.7 15 15 15 15-6.7 15-15S23.3 0 15 0zm5.2 15.1c-1.1 4.6-8.6 6.6-12 1.8 1.3 1.3 3.6 1.4 5.1-.1-.9.1-1.5-.7-.4-1.2-.9.1-1.5-.4-1.7-.8.2-.2.5-.3.9-.4-1-.2-1.4-.8-1.5-1.4.3-.1.6-.1.8-.1-.9-.5-1.2-1.2-1.2-1.8 1.6.6 2.6 1.1 3.5 1.6.3.2.7.5 1 .8.5-1.3 1.1-2.7 2.1-3.4 0 .2-.1.3-.2.4.3-.3.7-.5 1.1-.5 0 .3-.5.5-.7.6.2-.1 1.2-.5 1.3-.3.1.3-.7.4-.8.5-.1 0-.2.1-.3.1 1.3-.1 2.5 1 2.9 2.3 0 .1.1.2.1.3.5.2 1.3 0 1.6-.2-.2.5-.7.8-1.5.9.4.2 1.1.2 1.5.2-.3.4-.8.7-1.6.7z"/></svg>