<svg xmlns="http://www.w3.org/2000/svg" viewBox="0 261.9 793.5 87.3" enable-background="new 0 261.9 793.5 87.3"><path fill="#231F20" d="M80.3 309.4L70 263.2H47.2l-10.4 47.4-12.3-47.4H0l22.8 84.9h25.4l10-45.3 9 45.4h25.3l25.2-85H92.9l-12.6 46.2zm-49.5 24.1c-.1-.2-6.3-16.4-8.7-24.6-2.4-8.3-6.1-25.2-6.1-25.4l1.5-.5c.1.2 6.6 16.2 9 24.4 2.4 8.3 5.7 25.5 5.8 25.7l-1.5.4zm71-53.8c0 .2-3.3 17.1-5.8 25.4-2.5 8.2-9.2 24.5-9.2 24.6l-1.5-.5c0-.2 3.7-17.1 6.2-25.4 2.5-8.2 8.8-24.4 8.8-24.6l1.5.5zM512.3 320.5c.1 3.9-3.5 7.4-7.6 7.4-4 0-7.4-3.6-7.4-7.6v-8.5h-25v6.5c0 17.6 15.7 31.4 33.3 30.9 17.8-.6 31.6-13.9 31.6-33v-53h-25v57.3zm11.5-40.9h1.5c0 .2 1.7 17.4 1.7 26 0 8.6-1.8 26.1-1.8 26.2h-1.5c0-.2-1.3-17.5-1.3-26.1.1-8.6 1.4-25.9 1.4-26.1zM550.3 348.1h25v-84.9h-25v84.9zm11.6-68.5h1.5c0 .2 1.7 17.4 1.7 26 0 8.6-1.8 26.1-1.8 26.2h-1.5c0-.2-1.3-17.5-1.3-26.1 0-8.6 1.3-25.9 1.4-26.1zM384.2 314.9h38.7v-19.6h-38.7V285h45.9v-21.8h-70.9v85l71.7-.1v-21.6h-46.7v-11.6zm-11.7 16.9H371c0-.2-1.3-17.5-1.3-26.1 0-8.6 1.4-25.9 1.4-26.1h1.5c0 .2 1.7 17.4 1.7 26 0 8.6-1.8 26.1-1.8 26.2zM128.9 348.2h25v-84.9h-25v84.9zm11.5-68.6h1.5c0 .2 1.7 17.4 1.7 26 0 8.6-1.8 26.1-1.8 26.2h-1.5c0-.2-1.3-17.5-1.3-26.1.1-8.6 1.4-25.9 1.4-26.1zM791.6 311.7c-4.7-11.6-19-15.2-28.4-17.7-7.5-2.2-17.1-3.1-18.2-7.1-.5-1.6.4-6.7 8.7-7 5.4-.1 9.7 2.7 11.3 7.3h24c-.1-5.6-2.1-11.5-4.5-14.8-7.6-10.3-24.7-10.6-32.9-10.6-8.9.1-21 2.2-27.5 11.4-4.1 6.1-4.5 16.8-2.6 22 4 10.9 16.1 14.9 27.4 18.4 7.3 2.3 17.9 3.8 19 8.1.6 2.1-1.5 9.9-15.4 8-5.4-1.3-7.6-4.3-9.1-9.4h-25c.4 6.6 1.8 11.3 5.2 15.9 8.6 11.1 26.5 13.1 34.4 12.8 9.3-.2 23.8-2.9 31.8-15.1 4.9-7.5 4.4-15.9 1.8-22.2zm-11 5.6l-.5-.5c-2.1-1.9-7.4-6.6-11.7-8.5-3.9-1.8-8.2-2.4-12.4-2.9-4.1-.9-8.2-1.8-12.4-4.1-3.8-2.1-8.8-5.5-10.5-10.3l-.3-.7 1.6-.6.3.6c2.1 3.4 5.9 5.4 9.9 7.2 3.7 1.5 7.4 2.5 11.9 3.2 5.7.7 10.3 2 13.7 3.8 4.1 2.2 8.7 7.4 11.3 11.2l.4.6-1.3 1zM693 280.2h7.1c-.1 4.8-3.8 9-7.1 9v6.9c8.5 0 15.8-7.5 15.8-15.9v-17H693v17zM320 348.1h25v-84.9h-25v84.9zm11.6-68.5h1.5c0 .2 1.7 17.4 1.7 26 0 8.6-1.8 26.1-1.8 26.2h-1.5c0-.2-1.3-17.5-1.3-26.1 0-8.6 1.4-25.9 1.4-26.1zM269 263.2h-25v84.9h62.6V326H269v-62.8zm-11 68.6h-1.5c0-.2-1.3-17.5-1.3-26.1 0-8.6 1.4-25.9 1.4-26.1h1.5c0 .2 1.7 17.4 1.7 26 0 8.6-1.7 26.1-1.8 26.2zM193.1 263.2h-25v84.9h62.6V326h-37.6v-62.8zM181 331.8h-1.5c0-.2-1.3-17.5-1.3-26.1 0-8.6 1.4-25.9 1.4-26.1h1.5c0 .2 1.7 17.4 1.7 26-.1 8.6-1.8 26.1-1.8 26.2zM633.1 308l-11.3-44.8h-33.5v84.9h23.2v-47.4l12.2 47.4h18.7l13-46.3v46.3h23.4v-84.9h-33.4L633.1 308zm-32.7 23.8h-1.5c0-.2-1.3-17.5-1.3-26.1 0-8.6 1.4-25.9 1.4-26.1h1.5c0 .2 1.7 17.4 1.7 26 0 8.6-1.8 26.1-1.8 26.2zm66.2-52.2h1.5c0 .2 1.7 17.4 1.7 26 0 8.6-1.8 26.1-1.8 26.2h-1.5c0-.2-1.3-17.5-1.3-26.1.1-8.6 1.4-25.9 1.4-26.1z"/></svg>